<svg xmlns="http://www.w3.org/2000/svg" id="avion-espresso" viewBox="-5 -5 108 90" width="108" height="90"><style>.ast0 {fill: #a9a8a8;}
</style><path class="ast0" d="M0 76h22.6v-.5H0M75.4 76H98v-.5H75.4M67.9 54.8c-.4 1-.9 1.8-1.5 2.5-.7.7-1.4 1.3-2.3 1.7-.9.4-1.9.6-2.9.6s-2-.2-2.9-.6c-.9-.4-1.7-1-2.3-1.7-.6-.7-1.1-1.6-1.5-2.5-.4-1-.5-2.1-.5-3.2s.2-2.3.6-3.2c.4-1 .9-1.8 1.5-2.6.6-.7 1.4-1.3 2.3-1.7.9-.4 1.9-.6 2.9-.6 1.1 0 2.1.2 3 .6.9.4 1.7 1 2.3 1.7.6.7 1.2 1.6 1.5 2.6.4 1 .6 2.1.6 3.3-.2 1-.4 2.1-.8 3.1m26.3-6.3v-5.1c0-.6.1-1.1.4-1.6.3-.4.7-.8 1.4-1.2-.2 0-.6.1-1.3.1-.7 0-1.4.1-2.2.1h-1c-.4 0-.8 0-1.2-.1-.4 0-.9-.1-1.4-.1.8.5 1.2 1 1.5 1.6.2.6.3 1.3.3 2.2v10.5c-.5-.5-1-1.2-1.7-1.9s-1.4-1.5-2.1-2.4c-.8-.8-1.5-1.7-2.3-2.6-.8-.9-1.6-1.7-2.3-2.6l-.6-.6c-.3-.3-.6-.6-.8-.9-.3-.3-.5-.7-.8-1-.2-.3-.3-.6-.3-.9 0-.2.1-.4.2-.6.1-.2.3-.5.5-.8-.1 0-.3.1-.7.1-.3.1-.8.1-1.5.1h-2.7c-.4 0-.7 0-.9-.1-.2 0-.4 0-.4-.1.6.4 1 .8 1.3 1.2.3.4.5 1 .5 1.7v5.1c-.3 2-1.7 2.2-2 2.2-.3 0-1.5-.2-2-1.7-.1-.7-.3-1.4-.6-2.1-.6-1.4-1.3-2.6-2.3-3.6-1-1-2.2-1.8-3.5-2.4-1.4-.6-2.8-.8-4.4-.8-1.5 0-3 .3-4.3.9-1.3.6-2.5 1.4-3.5 2.4s-1.8 2.2-2.4 3.6c-.3.7-.5 1.3-.6 2-.5 1.6-1.8 1.7-2 1.8-.3 0-1.7-.2-2-2.1v-4.5-1.2c0-.3.1-.7.2-1 .1-.3.3-.6.5-.8.2-.2.6-.5 1-.7h-.5c-.3 0-.6 0-.9.1-.3 0-.7 0-1.1.1h-3.2c-.3 0-.7 0-.9-.1H41c-.3 0-.7.1-1 .1-.4 0-.9.1-1.4.1h-2.2c-.4 0-.8 0-1.1-.1-.3 0-.5 0-.7-.1.2.1.4.3.6.6.2.2.3.5.3.7 0 .3-.3 1.1-.9 2.4l-2.4 5.1c-.3.6-.6 1.2-.8 1.9-.3.7-.6 1.3-.9 1.9-.3.6-.6 1.2-.8 1.8-.2.6-.5 1-.6 1.4-.3-.7-.7-1.5-1.1-2.4-.5-1.1-1-2.1-1.4-3.1-.5-1-.9-2-1.4-3.1-.5-1-.9-2-1.3-3-.4-.8-.7-1.5-.8-2-.2-.5-.3-.8-.3-1.1 0-.3.1-.5.2-.7.1-.2.4-.4.8-.7h-.4c-.2 0-.4 0-.7.1-.3 0-.5 0-.8.1h-3.2c-.5 0-.9 0-1.3-.1-.4 0-.6 0-.7-.1.8.4 1.4 1 1.9 1.7s.9 1.5 1.3 2.4l1.9 4c.6 2.2-1.1 2.1-1.1 2.1s1.9.1 3.4 2.8l4.7 9.9 4.8-9.9c1.5-2.6 3.4-2.7 3.4-2.7s-1.6 0-1.1-1.9l.2-.4 2-4.2c.4-.8.8-1.6 1.3-2.2.4-.6.9-1.1 1.5-1.4.4.2.7.5.9.7.3.3.4.5.6.8.1.3.2.6.2 1V48.9c-.5 1.9-2 1.9-2 1.9s1.6.1 2 2.3v5.7c0 .9-.2 1.7-.5 2.2-.3.5-.9 1-1.6 1.5.2 0 .7-.1 1.5-.1.7 0 1.6-.1 2.4-.1h1.3c.4 0 .9 0 1.3.1.5 0 .9.1 1.4.1-.7-.4-1.3-.9-1.6-1.4-.3-.5-.5-1.3-.5-2.3v-5.3c.3-2.3 1.8-2.6 2-2.7.3 0 1.5.3 1.8 2 .1 1.2.4 2.2.8 3.3.6 1.4 1.3 2.6 2.3 3.6 1 1 2.2 1.8 3.5 2.4 1.3.6 2.8.8 4.4.8 1.5 0 3-.3 4.4-.9 1.4-.6 2.5-1.4 3.5-2.4s1.8-2.2 2.4-3.6c.3-.8.6-1.7.7-2.6v.1-.2c0-.1 0-.2.1-.4.3-1.8 1.6-2.1 1.9-2.2.3 0 1.8.4 2 2.8v5.2c0 .9-.2 1.7-.5 2.2-.3.5-.9 1.1-1.7 1.5.2 0 .7-.1 1.4-.1.7-.1 1.5-.1 2.4-.1h1.4c.5 0 .9 0 1.3.1.4 0 .9.1 1.3.1-.2-.1-.5-.3-.7-.5-.2-.2-.5-.4-.7-.6-.2-.2-.4-.5-.5-.8-.1-.3-.2-.6-.2-.9v-5.4-4-2.8c.3.4.8.9 1.3 1.5s1.1 1.2 1.6 1.8l11.8 13v-10c.1-3 2.1-3.1 2.1-3.1s-1.9.3-2.2-2.1m2.6 13.2h-.3v-.4h.3c.1 0 .2.1.2.2s0 .2-.2.2m.5-.2c0-.3-.2-.4-.5-.4h-.6v1.3h.3V62h.2l.3.4h.3l-.3-.5c.2 0 .3-.2.3-.4m-.6 1.4c-.6 0-1.1-.5-1.1-1.1 0-.6.5-1.1 1.1-1.1.6 0 1.1.5 1.1 1.1.1.6-.4 1.1-1.1 1.1m0-2.4c-.7 0-1.3.6-1.3 1.3 0 .7.6 1.3 1.3 1.3.7 0 1.3-.6 1.3-1.3 0-.7-.6-1.3-1.3-1.3m-88-5.8l1.4-2.9c.2-.5.5-1.1.8-1.7.3-.6.5-1.1.7-1.6.2-.6.5-1.1.7-1.6.2.5.4 1 .6 1.4.2.4.4.9.6 1.4.2.5.4 1 .6 1.4l1.6 3.6h-7zm14.1 6.2c-.4-.6-.8-1.2-1-1.7l-2.6-5.4.2.4c-1.6-3.3.5-3.4.5-3.4s-1.6 0-3-2l-4.4-9.2L8 48.8c-1.4 2-3 2-3 2s1.8.1.8 2.7l-2.9 5.9c-.3.7-.7 1.3-1.1 1.8-.4.5-1 1-1.8 1.3.1 0 .4 0 .7-.1h6.5c-.3-.2-.6-.5-.8-.8-.2-.3-.3-.6-.3-.8 0-.2.1-.4.2-.8s.3-.8.4-1.1c.3-.4.5-.9.8-1.4H17l.8 1.9c.4.9.6 1.6.6 1.9 0 .2-.1.4-.3.6-.2.2-.4.4-.7.6.1 0 .3 0 .6-.1.3 0 .6 0 1-.1h4.4c.4 0 .7 0 1 .1.3 0 .5 0 .6.1-1.1-.4-1.7-1-2.2-1.6m42.6-25.1l-9.1 2.6h9.8l-.7-2.6zM58.3 24.4c2.8-1.5 2.8-5.3 2.8-5.3-.6 1.5-3.5 2.7-3.5 2.7 1.1-.1 1.3-.2 1.3-.2-.2.3-.8 1.1-.8 1.1l1-.6c-.1.2-.9 1-.9 1 .3 0 1-.6 1-.6-.2.6-1.1 1.3-1 1.3.2 0 1.1-.8 1.1-.8 0 .4-1 1.4-1 1.4M53 3.1l.2-.2V3c-.1.3 0 .6.2.7l.2.1H53.3c-.1 0-.2-.1-.3-.1v-.6m.1.9c.1.1.3.1.5.1h.3c.2-.1.5-.4.6-.8v-.4c-.2-.2-.4-.4-.7-.5H53.5c-.3.1-.6.4-.6.6 0 .3.1.5.2.7V4M44.1 7.5c.3-.1.5-.1.6-.2.3-.1.6-.2 1-.2H46c.1 0 .3 0 .5-.1H50.2c.2 0 .4 0 .5.1l.2.1.2.1h.2c.2 0 .4.1.5.1-.2.2-.5.2-.8.2h-.2c-.2.1-.5.1-.8.1h-.2l.1-.1c.1-.1.2-.1.4-.1h.5H49.2l.2-.1c.1-.1.3-.1.4-.1l.2-.1h-1.2l-.1-.1V7H46.7v.2H46h.1c.1 0 .2 0 .2.1v.1h-.1c-.2 0-.4 0-.6-.1H45c-.1 0-.1 0-.1.1l.1.1.3.1c.1 0 .2 0 .3.1h.4l-.1.2h-1c-.1 0-.3 0-.4-.1-.1 0-.3-.1-.5-.1l.1-.2m-.4.2c.1.1.3.2.5.2l.2.1c.3 0 .7.1 1 .1.2 0 .5.1.8.1.5 0 1.1.1 1.5.1H51.1c.1 0 .2-.1.3-.1l.2-.1H51.9c.3 0 .7-.2.7-.3 0-.2-.1-.2-.2-.3h-.1l-.2-.1-.2-.1H51V7h-4.2c-.2.1-.4.1-.6.1h-.7c-.2 0-.4 0-.6.1h-.2c-.1 0-.2 0-.3.1-.1 0-.2.1-.3.1h-.2c-.1 0-.3 0-.4.1-.1 0 0 .1.2.2M61 13.3c-.5 2.1-4.8 4.6-4.8 4.6 1.7-.3 1.9-.6 1.9-.6-.2.5-1.4 1.5-1.4 1.5l1.7-1.1c0 .3-1.4 1.6-1.4 1.6.4-.1 1.7-1.1 1.7-1.1-.1.8-1.5 1.9-1.3 1.8.3-.1 1.7-1.2 1.7-1.2-.1.6-1.4 1.9-1.4 1.9 4.2-2.5 3.3-7.4 3.3-7.4M45.2 4c-.1 0-.2-.1-.3-.2l-.1-.3h.1l.1.1c.1.1.1.2.3.1l.1-.1-.1.1c0 .2-.1.3-.1.3m5-.6h.2v.1c0 .2.2.2.3.2h.1v.1c0 .1-.1.1-.2.1s-.2-.1-.3-.2c-.1-.1-.1-.2-.1-.3m-7.7 1.1c.1.1.1.3.2.4.1.2.3.3.3.5.1.1.2.2.2.3.1.1.1.2.2.3h.2c.1 0 .1-.1.1-.3v-.1h.1c.3.1.8.1 1 0h.1l.2-.1c.1 0 .2-.1.3-.1l.1-.1.1-.2c.1.1.2.2.4.3h.8c.1 0 .2-.1.3-.1.1 0 .2-.1.3-.1.4-.1.5-.2.6-.3l.1.2v.1c.2.2.6.3 1 .3H50l.1-.1.2-.1h.2c0 .1.1.2.2.3h.5c.3.1.6.1.8 0l.2-.1-.1.2v.1l.2.2.2-.1v-.2h.1c.1 0 .2-.1.2-.3v-.2h.1l.1-.1V5l.1-.2c.1-.1.2-.3.2-.4l-.2-.1c-.1 0-.2.1-.4.3l-.2.2v.1c-.1 0-.2.1-.2.1l-.1.1c-.1 0-.2 0-.3.1H51.3l-.1-.1c-.2 0-.3-.1-.4-.1h-.1v-.2c-.1-.2-.1-.4-.2-.6V3.9h.2c.2-.1.3-.3.3-.6l-.1-.1c.1 0-.1-.2-.3-.2h-.2c-.2.1-.4.2-.4.5v.2c.1.1.2.2.1.4 0 .2-.2.5-.4.5h-.4c-.3 0-.5-.1-.6-.2l-.1-.1c-.2-.2-.3-.4-.4-.6V3h-.3c-.1 0-.2 0-.3.1v.2c-.1.5-.3 1-.7 1.3h-.2c-.1 0-.2.1-.3 0l-.2-.1h-.1c-.2-.1-.4-.3-.5-.6h-.1V4h.1c.1-.1.1-.2.1-.4v-.1c-.1-.1-.3-.2-.5-.3-.2-.1-.5.2-.6.3V4c.1 0 .3.1.4.1l.2.1c.1.3 0 .7-.3.9-.2.1-.4.1-.7.1l-.1-.1c-.1 0-.3 0-.4-.1-.1 0-.2-.1-.2-.1l-.1.1-.3-.3c-.1-.2-.1-.2-.2-.3-.2-.1-.3 0-.4.1M56.3 12.4s2.6-2.1 3-3.7l.3.4S61 8.7 62.2 8c1.2-.7-2.3 1.5-2.3 1.5l.1.4s3.9-1.5 8.5-5.6c0 0-2 3.2-8.1 6.2l.1.3s1.8-.7 2.4-1.2c.7-.5-1.4 1.3-2.9 1.7v.5l.7-.4C70.5 6.4 71.9 0 71.9 0c-3.6 5.7-14.7 8.8-14.7 8.8s.1 2.8-.9 3.6M47.2 1.9c.1-.1.2-.1.2-.2h.1V2c0 .2 0 .3.1.3H47.9l.2-.1h.2v.1c0 .2-.1.3-.2.3h-.2c-.2 0-.5-.1-.6-.3-.1-.1-.1-.3-.1-.4m.7 1h.1c.1 0 .4-.2.5-.3v-.2l.1-.1c.2-.4-.1-.9-.4-1.1l-.2-.1c-.1 0-.2-.1-.3-.1h-.1c-.3.1-.7.3-.8.7 0 .2.1.5.1.6.2.4.6.6 1 .6"/><path class="ast0" d="M52.6 6.5l-.1-.3h-.2c-.1 0-.2 0-.3-.1-.1 0-.2 0-.3-.1l-.2-.1H51.2l-.3-.1c-.1 0-.2 0-.3-.1h-.1c-.1 0-.2 0-.3-.1h-3.7c-.3 0-.6 0-.7.1-.3 0-.6 0-.9.1-.1.2-.4.2-.8.2-.1.1-.2.1-.3.1h-.1l-.1.1.1.2c.2-.2.5-.2.8-.3h.1l.1-.1c.1 0 .2-.1.3-.1h.1c.2.1.4.1.6.1.2 0 .3 0 .5-.1.4-.1.9-.1 1.4-.1h.5c.1.1.2.1.4 0H51c.2 0 .4.1.6.1l.2.1c.2 0 .5.1.7.3h.1v.2M59.3 9.2c-.3 2.2-4.5 4.8-4.5 4.8 1.6-.4 1.8-.7 1.8-.7-.1.5-1.3 1.6-1.3 1.6l1.7-1.2c0 .3-1.3 1.7-1.3 1.7.4-.1 1.7-1.1 1.7-1.1-.1.8-1.4 2-1.2 1.9.2-.1 1.6-1.3 1.6-1.3-.1.6-1.3 1.9-1.3 1.9 4-2.7 2.8-7.6 2.8-7.6M50.2 6.7h-.6c-.3 0-.6-.1-.9 0h1.5l.1.1h1.2c-.2-.1-.5-.1-.7-.2-.1.1-.4.1-.6.1M54.1 10.7c-.1.4-.8 1.3-.8 1.3l1.3-.8c0 .2-.9 1.2-.9 1.2.4-.1 1.4-.8 1.4-.8-.1.6-1.2 1.5-1 1.4.2-.1 1.4-1 1.4-1-.1.5-1.2 1.6-1.2 1.6 3.6-2.1 2.3-5.8 2.3-5.8-.3 1.6-4.3 3.4-4.3 3.4 1.6-.2 1.8-.5 1.8-.5"/><path class="ast0" d="M52.4 7c.1-.1.2-.3.1-.4l-.1-.1v.1c-.8-.2-1.7-.4-2.5-.5H47.4c-.3 0-.7 0-1 .1-.2 0-.3.1-.5.1h-.4c-.3 0-.6.1-.9.2h-.1c-.2 0-.3.1-.4.1H43.8c-.1 0-.2 0-.2.1v.1H44.2c.3 0 .6-.1.9-.1.1 0 .3 0 .4-.1h.6c.3 0 .6-.1.9-.1.3 0 .5 0 .7-.1h2.4c.3 0 .5 0 .7.1.3 0 .5.1.8.2.3.2.5.3.8.3M47.8 6.6H48.7h-.9M50.2 6H50l.4.1V6h-.2M50.9 6.1c.2 0 .4.1.6.1-.2 0-.3 0-.6-.1M60.5 22.9c.7 0 3.1.8 3.1.8-1-.3-3.2-.5-3.2-.5l-.3.7c.5.3 2.8.3 2.8.3-.8.3-3.1 0-3.1 0l-.2.4c2.5.8 6.1-.6 6.1-.6-.9-.9-4.9-1.6-4.9-1.6l-.3.5zM57.4 25.3c.7 0 3.1.8 3.1.8-1-.3-3.2-.5-3.2-.5l-.3.5c.5.3 2.8.3 2.8.3-.8.3-3.1 0-3.1 0l-.2.4c2.5.8 6.1-.6 6.1-.6-.9-.9-4.9-1.6-4.9-1.6l-.3.7zM55.8 26.3c0 .1-.3.5-.6.8-.2.3-.2.3-.3.3-.1 0-.5 0-.7-.3l.1-.1c.3-.5 1-.8 1.1-.8.1 0 .2-.2.2-.2h.2l.1.1v.1c-.1-.1-.1 0-.1.1m-1.1 1.6c0 .1-.4.5-.7.8-.3.3-.2.3-.4.3-.1 0-.7 0-.9-.3l.1-.1c.3-.5 1.2-.8 1.3-.8.1 0 .3-.2.3-.2h.2l.1.1v.2m-2.8 2.4c-.3.2-.3.2-.7.2-.5-.1-1.4-.2-1.4-.2l.1-.1c.2-.2.8-.5 1-.5l.4-.2s.4-.1.5-.2c.1 0 .4-.1.4-.1s.1.1.3.1c.1 0 .5-.1.6 0v.1c-.2.2-.9.7-1.2.9m-2.7.6c-.2.1-.2.1-.5 0-.4-.1-1-.2-1-.2h.1c.2-.1.5-.2.6-.2.1 0 .3-.1.3-.1s.2 0 .3-.1c-.1 0-.2 0-.4-.1-.6-.2-1.7-.5-1.7-.5l.1-.1c.3-.2.9-.4 1.1-.4l.4-.2s.4-.1.6-.1h.6s.2.1.4.1.8 0 1 .1v.1c-.3.3-1.2.9-1.6 1-.2.1-.3.2-.4.2h1.1c-.2.2-.8.4-1 .5m-3.4-.1c-.3-.1-1-.5-1.3-.7.1-.1.5-.1.6-.1.2 0 .3-.1.3-.1h.5c.1 0 .5.1.5.1l.4.2c.2 0 .8.2 1.1.3l.1.1s-1 .3-1.5.4c-.3-.1-.3-.1-.7-.2m-2.7-.9c-.3-.3-.8-.7-.8-.7v-.1l.1-.2v-.1l.1-.1h.2s.2.1.3.1c.2 0 1.2.2 1.7.6l.1.1c-.3.4-1 .5-1.2.5-.2.1-.1.2-.5-.1m-1.6-.9c-.1 0-.1 0-.4-.3-.3-.3-.8-.9-.8-.9v-.1-.2h.1l.2.1s.2.2.3.2c.1.1.9.5 1.3.9l.1.1c-.2.2-.7.2-.8.2m-1.7-3.7c-.3-.4-.8-1.1-.8-1.1v-.1c0-.1.2-.2.3-.2l.1-.2s.2-.1.3-.1c.1 0 .4.1.4.1s.1.2.3.3c.2.1 1 .4 1.1.8v.1c-.4.4-1.1.6-1.3.6-.2.1-.1.2-.4-.2m-.7-3.3c0-.1.1-.3.2-.3l.1-.2.2-.2.2-.1s.1.1.2.1.9 0 1.1.3l.1.1c-.3.8-1 1.4-1.2 1.5-.2.1-.2.2-.4-.3-.3-.3-.5-.8-.5-.9m.4-1.5c0-.3.1-.8.1-.8v-.1c0-.1.1-.2.1-.2l.1-.1.1-.1h.1l.1.1c.1 0 .3.1.3.4v.1c-.3.5-.7.9-.8 1-.1 0-.1.1-.1-.3m.7-2.9c0-.1.1-.2.1-.2l.1-.2.1-.1h.1l.1.1c.1 0 .4 0 .4.3v.1c-.2.6-.7 1.1-.8 1.2-.1.1-.1.2-.1-.3v-.9m1.1-.8c.1-.1.2-.2.3-.2l.1-.2.2-.1h.3s.1.2.2.2.9.2 1 .7v.1c-.5.7-1.4 1.1-1.7 1.1-.2 0-.2.2-.3-.4-.1-.5-.2-1.1-.1-1.2m.2-1.3c0-.3.1-.7.1-.7v-.1c.1-.1.1-.2.1-.2l.1-.1.1-.1h.1l.1.1c.1 0 .3 0 .3.3v.1c-.3.5-.8.9-.9 1v-.3m1.2-.4l.1-.1c.2-.2.6-.4.8-.4.2 0 .3-.2.3-.2s.3-.1.5-.1h.5s.2.2.4.2 1 .1 1.4.3l.1.1c-.2.6-1.1 1.6-1.5 1.9-.4.3-.4.5-1.1-.1-.6-.7-1.5-1.6-1.5-1.6m.6-1.8c.2-.4.4-.9.4-.9l.1-.1c.1-.1.2-.2.3-.2l.2-.1.2-.1h.2l.1.1c.1 0 .5.2.4.6v.1c-.6.5-1.4.9-1.6.9-.4.1-.5.2-.3-.3m2.2-2.2l.6-.6h.1c.1-.1.3-.1.3-.1l.2-.1H47v.1c.1 0 .4.2.2.4l-.1.1c-.7.3-1.5.5-1.6.5-.2-.1-.2 0 0-.3m2.3.2h.5l.4.2c.2 0 .8.1 1.1.3l.1.1c-.2.5-1 1.3-1.4 1.6-.5.4-.5.6-1.2 0-.8-.5-1.9-1.5-1.9-1.5l.1-.1c.3-.2 1-.3 1.1-.4.2 0 .4-.2.4-.2h.8m1.2-.9v-.1H49.3l.2.1s.2 0 .3.1h.1s.3.3.6.5c.3.3.2.2.1.2s-.9-.1-1.6-.3l-.1-.1c-.3-.2 0-.4.1-.4m2.1 2c.1 0 .1-.2.1-.2h.2l.2.1.2.1s.2.1.3.2l.1.1s.2.5.3.8c.1.4.1.3-.1.3-.1 0-.9-.2-1.6-.6l-.1-.2c-.1-.3.3-.6.4-.6m1.4 2.2s-.7 1-1.3 1.6c-.6.6-.6.5-1 .2-.4-.2-1.4-1.1-1.7-1.6l.1-.1c.3-.3 1.1-.5 1.3-.5.2 0 .4-.2.4-.2s.4-.1.5-.1c.1 0 .5.1.5.1s.2.2.3.2c.1 0 .6.1.8.3l.1.1m.4 1.3h.3l.2.1.2.2s.2.1.3.2v.1s-.1.7-.1 1.2c-.1.6-.1.5-.3.4-.2 0-1.1-.4-1.7-1.1v-.1c.1-.5.8-.7 1-.7 0-.2.1-.3.1-.3m.4-1.4l.2-.1.1.1.1.1.2.2v.1s.1.4.1.7c.1.3 0 .3-.1.2-.1 0-.5-.4-.9-.9v-.1c0-.2.3-.3.3-.3m1.1 2.6V17h.1l.1.1.1.1.2.2v.1s.1.5.2.8c.1.4.1.3-.1.3-.1 0-.7-.4-1.1-.9v-.1c.1-.4.4-.5.5-.5m1 2.3h.1l.1.1.1.1s.1.1.1.2v.1s.1.5.1.8c0 .4 0 .3-.1.3s-.5-.4-.8-.9V20c0-.3.3-.4.3-.4l.1-.2m-2.3 6.5c-.5.4-.4.6-1.3.1s-2.5-1.4-2.5-1.4l.1-.2c.3-.3 1-.6 1.3-.6.3-.1.5-.3.5-.3s.5-.2.7-.2h.7s.3.2.6.2 1.1.1 1.5.3l.1.1c-.3.6-1.3 1.6-1.7 2m-3.8 2.4l.1-.2c.3-.3 1.2-.6 1.4-.7.3-.1.5-.3.5-.3s.5-.1.6-.2h.6s.1.2.3.2c.2 0 .7 0 .8.2v.1c-.3.4-1.1 1.2-1.4 1.4-.4.3-.4.4-.9.2-.6-.2-2-.7-2-.7m-2.2-.4c-.9-.5-2.4-1.4-2.4-1.4l.1-.1c.3-.2 1.1-.4 1.4-.4.3 0 .5-.2.5-.2s.5-.1.8-.1c.2 0 .8.1.8.1s.2.2.5.2 1.1.2 1.4.4l.1.1c-.3.5-1.4 1.3-1.9 1.5-.6.2-.5.4-1.3-.1m-3.5.5c.1-.2.6-.3.7-.3.2 0 .3-.2.3-.2s.4-.1.6-.1c.2 0 .7.1.7.1s.3.2.5.2 1.1.2 1.5.5l.1.1v.1s-1.3.6-2 .8c-.5.2-.5.1-.9-.1-.3-.1-1.2-.7-1.5-1.1m-2.1-5c.3-.3 1.2-.4 1.4-.4.3 0 .5-.2.5-.2s.5-.1.7 0c.2 0 .7.1.7.1s.2.2.5.3c.2 0 1 .2 1.3.5l.1.2-2.4 1.6c-.8.5-.8.3-1.3 0-.4-.3-1.5-1.2-1.8-1.9l.3-.2m7.2-4.3c-.5.3-.5.5-1.2 0-.8-.6-2.2-1.7-2.2-1.7l.1-.1c.3-.3 1-.5 1.2-.5.3 0 .5-.3.5-.3s.5-.1.7-.1c.2 0 .7.1.7.1s.2.2.5.2c.2 0 1 .2 1.3.5l.1.1c-.2.6-1.2 1.6-1.7 1.8m2 2.5c-.1.1-.2.3-.3.5-.5.5-1.2 1.1-1.5 1.3-.6.3-.5.5-1.3 0-.9-.6-2.3-1.7-2.3-1.7l.1-.1c.3-.2.7-.4 1.1-.4.2-.1.3-.1.4-.1.2-.1.3-.2.3-.2h.1s.5-.1.7-.1c.2 0 .7.1.7.1s.2.2.5.2c.2 0 .6.1 1 .3.2.1.3.2.5.3v-.1m3.9-2.1l.1.1s-.8.9-1.5 1.5-.6.4-1.2.1c-.5-.3-1.7-1.3-2.1-1.9l.1-.1c.3-.3 1.3-.4 1.5-.4.3 0 .5-.2.5-.2h.6c.2 0 .6.1.6.1s.2.2.4.2c.3.2.8.3 1 .6M42 19.2c.2-.1.4-.3.4-.3s.4-.1.6-.2h.6s.2.2.5.1c.3 0 1.2 0 1.6.3l.1.1c-.3.7-1.5 1.7-2 2-.5.3-.5.5-1.2-.1s-1.5-1.4-1.5-1.4l.1-.1c.1-.1.6-.3.8-.4m-.7 7.3c.2 0 .3-.2.3-.2s.4-.1.6 0c.2 0 .7.1.7.1s.3.2.5.3c.2 0 1.1.3 1.5.6l.1.1v.1s-1.4.7-2 .9c-.5.2-.5.1-.9-.2-.3-.2-1.2-.9-1.5-1.3v-.1c.1-.2.6-.3.7-.3M55.8 23c-.2.5-.2.4-.6.2-.3-.2-1.1-.9-1.4-1.4v-.1c.2-.2.6-.3.8-.3.1 0 .2-.1.2-.1h.3l.3.1.2.2c.1 0 .3.1.5.3l.1.1c0-.1-.2.5-.4 1m.7.7h.2l.1.1c.1 0 .2 0 .2.2v.1s-.4.7-.6 1.2c-.2.4-.2.3-.4.4-.2 0-.8-.1-1.1-.5v-.1c.1-.4.8-.8.9-.9l.3-.3.4-.2m1 .1l-.9-.8.4-1.7-.3-.3-.4-2.2H56l-.7-2.7-.4.1-.9-2.5-.4.1-1.8-2.8-.3.3-2.3-2-.9.6-1.7-.2-2 1.8-.8-.1-1.4 2.3-.5.1-1.2 2.6-.9.6-.2 1.9-.5.6-.3 1.9-.5.3.5 1.8-.5.6 1.5 2.4v.9l-.2.4s3 3.7 8.1 3.7c0 0 5.4.5 8.4-4.8 1.3-2.6 1.4-2.9 1.4-2.9"/><path class="ast0" d="M36 26.4s2.3 0 2.8-.3l-.3-.7s-2.2.3-3.2.5c0 0 2.4-.7 3.1-.8l-.3-.7s-3.9.7-4.9 1.6c0 0 3.6 1.4 6.1.6l-.2-.4c0 .2-2.3.4-3.1.2M36.2 24.5l-.2-.4s-2.3.2-3.1 0c0 0 2.3 0 2.8-.3l-.3-.7s-2.2.2-3.2.5c0 0 2.4-.7 3.1-.8l-.3-.6s-3.9.7-4.9 1.6c0 0 3.7 1.4 6.1.7M34.7 21.9l-.1-.5s-2.4 0-3.2-.4c0 0 2.4.3 2.9 0l-.1-.8s-2.3 0-3.5.2c0 0 2.7-.5 3.4-.5l-.1-.8s-4.3.4-5.4 1.3c0 0 3.3 2.1 6.1 1.5M59.9 12.7l-.5 2.2c.9-.5 1.8-2.1 1.8-2.1s.4.4.3.5c.4-.1 3.4-.9 2.9-.6-.6.3-2.9.9-2.9.9v.5c2.1-.3 8.7-3.1 8.7-3.1-3.2 1.9-8.7 3.6-8.7 3.6l.1.4c.6 0 3.6-1 2.7-.5-.9.5-2.8.8-2.8.8l.1.3c8.7-1.6 13.7-8.5 13.7-8.5-4 4.2-15.4 5.6-15.4 5.6M61.5 13.3v-.1.1M61.6 19.9c.7 0 3.4.5 3.4.5-1.1-.2-3.5-.2-3.5-.2l-.1.8c.6.2 2.9 0 2.9 0-.8.4-3.2.4-3.2.4l-.1.5c2.8.6 6.1-1.4 6.1-1.4-1.2-.9-5.4-1.3-5.4-1.3l-.1.7zM61.6 16.5s1.9-.2 2.4-.2c.4 0-2.4.3-2.4.3l-.1.5s3.5-.2 5.6-.8c0 0-2.4 1.1-5.6 1.2l-.2.4s2-.1 2.9-.3c0 0-2.6.6-3 .5l-.3.6c6.2-.2 12.8-4.6 12.8-4.6-2.6 1.3-12.1 1.9-12.1 1.9v.5zM41.6 13.6s-1.1-1.1-1.2-1.6c0 0 1.2.9 1.4 1 .2.1-.9-.8-1-1.4 0 0 1 .7 1.4.8 0 0-.9-.9-.9-1.2l1.3.8s-.7-.9-.8-1.2c0 0 .2.2 1.8.5 0 0-4-1.8-4.3-3.4-.1-.1-1.3 3.6 2.3 5.7M39.6 17.9s-4.4-2.4-4.8-4.6c0 0-.9 4.9 3.2 7.4 0 0-1.3-1.2-1.4-1.9 0 0 1.5 1.1 1.7 1.2.2.1-1.2-1-1.3-1.8 0 0 1.3 1 1.7 1.1 0 0-1.4-1.3-1.4-1.6l1.7 1.1s-1.2-1.1-1.4-1.5c.1 0 .3.3 2 .6"/><path class="ast0" d="M35.3 11.5l.7.4v-.5c-1.6-.5-3.6-2.2-2.9-1.7.7.5 2.4 1.2 2.4 1.2l.1-.3c-6.1-3-8.1-6.2-8.1-6.2C32 8.4 36 10 36 10v-.5S32.5 7.3 33.7 8c1.2.7 2.6 1.1 2.6 1.1l.3-.4c.4 1.5 3 3.7 3 3.7-1-.8-1-3.5-1-3.5S27.4 5.7 23.8 0c0 0 1.5 6.4 11.5 11.5M34.6 19.1s.1 3.8 2.8 5.3c0 0-1-.9-1.1-1.4 0 0 1 .7 1.1.8.2 0-.8-.7-1-1.3 0 0 .8.5 1 .6 0 0-.8-.8-.9-1l1 .6s-.7-.7-.8-1.1c0 0 .2.2 1.3.2.2 0-2.8-1.2-3.4-2.7M41.5 3.2l.2-.1.1-.1h.2v.1c-.1.1-.2.3-.1.5l.1.1c.1 0 .3 0 .3.2L42 4c-.2 0-.3-.1-.4-.2-.1-.2-.1-.4-.1-.6m.1 1c.1.1.2.1.3.1.1 0 .3 0 .4-.1.1 0 .2-.1.3-.2h.1c0-.1.1-.2.1-.3 0-.1.1-.2.1-.3 0-.3-.2-.5-.4-.7l-.1-.1-.2-.1H42c-.3 0-.6.2-.7.3-.1.2-.2.5-.1.7 0 .3.3.6.4.7M34.6 18.1c-.5.1-3-.5-3-.5 1 .2 2.9.3 2.9.3l-.2-.4c-3.2-.1-5.6-1.2-5.6-1.2 2.1.6 5.6.8 5.6.8l-.1-.5s-2.9-.4-2.4-.3c.4 0 2.4.2 2.4.2v-.4s-9.4-.6-12.1-1.9c0 0 6.6 4.4 12.8 4.6l-.3-.7z"/><path class="ast0" d="M41 14s-4.2-2.7-4.6-4.8c0 0-1.2 4.8 2.8 7.6 0 0-1.2-1.3-1.3-1.9 0 0 1.4 1.2 1.6 1.3.2.1-1.1-1-1.2-1.9 0 0 1.2 1 1.7 1.1 0 0-1.3-1.3-1.3-1.7l1.7 1.2s-1.2-1.1-1.3-1.6c.1.1.3.4 1.9.7M34.2 13.2l.1.1-.1-.1M34.2 15.3s-1.9-.3-2.8-.8c-.9-.5 2.2.5 2.7.5l.1-.4s-5.5-1.7-8.7-3.6c0 0 6.5 2.8 8.7 3.1v-.5s-2.3-.7-2.9-.9c-.5-.3 2.5.5 2.9.6 0-.1.4-.5.4-.5s.9 1.5 1.8 2.1l-.5-2.2s-11.4-1.3-15.5-5.6c0 0 5 6.9 13.7 8.5l.1-.3zM56.6 28.7h-.2v-.2h.1l.1.1v.1m.2-.1c0-.1-.1-.2-.3-.2h-.3v.6h.2v-.2h.1l.1.2h.2l-.2-.2c.2 0 .2-.1.2-.2"/><path class="ast0" d="M56.5 29.3c-.3 0-.6-.3-.6-.6s.3-.6.6-.6.6.3.6.6-.2.6-.6.6m0-1.2c-.4 0-.7.3-.7.6 0 .4.3.6.7.6.4 0 .7-.3.7-.6s-.3-.6-.7-.6M30.1 77.2c.4 0 .6-.1.7-.2.1-.1.2-.4.2-.9v-3c0-.5-.1-.8-.2-.9-.1-.1-.4-.2-.7-.2v-.3H35l.1 1.4h-.3v-.2c-.1-.3-.2-.5-.3-.6-.1-.1-.4-.2-.8-.2h-1.5v2.1h.5c.5 0 .8 0 .9-.2.1-.1.2-.4.2-.8h.3v2.3h-.3c0-.4-.1-.7-.2-.8-.1-.1-.4-.2-.9-.2h-.5V76c0 .5.1.8.2.9.1.1.4.2.8.2h.8c.4 0 .7-.1.8-.2.1-.1.2-.3.3-.6v-.2h.3l-.1 1.4H30v-.3zM39.3 77.4c-.2.2-.5.3-.9.3-.3 0-.7-.2-1-.3-.1 0-.1.1-.1.3H37v-1.4h.3c0 .2.1.5.4.7.2.2.5.3.8.3.3 0 .5-.2.5-.4s-.2-.4-.6-.6l-.5-.2c-.5-.2-.7-.6-.7-1 0-.3.1-.6.4-.7.2-.1.5-.2.8-.2.4 0 .6.1.9.2.1 0 .1-.1.1-.2h.3v1.1h-.3c0-.2-.1-.4-.3-.5-.2-.1-.4-.2-.6-.2-.3 0-.5.1-.5.3 0 .1.2.3.7.5l.5.2c.5.2.7.6.7 1-.1.4-.3.6-.6.8M43.9 75c-.1-.3-.3-.4-.5-.4-.3 0-.6.4-.6.8v.9c0 .5.3.8.6.8.5 0 .7-.5.7-1.3 0-.3 0-.6-.2-.8m-1 4.4c.1.1.3.2.6.2v.3h-2.6v-.3c.3 0 .5-.1.6-.2.1-.1.1-.4.1-.9v-2.7c0-.5 0-.8-.1-.9-.1-.1-.3-.2-.6-.2v-.3l1.7-.2s.1.2.1.3c.2-.2.5-.3.9-.3.5 0 1 .2 1.3.5.3.3.5.7.5 1.2s-.2.9-.5 1.3c-.3.3-.7.5-1.3.5-.3 0-.6-.1-.8-.3v1.1c0 .5 0 .8.1.9M50.2 75.3c-.1.1-.2.2-.4.2s-.3-.1-.4-.3c-.1-.2-.2-.3-.4-.3s-.3.1-.4.2c-.1.2-.2.5-.2.8v.2c0 .5 0 .8.1.9s.3.2.6.2v.3h-2.6v-.3c.3 0 .5-.1.6-.2.1-.1.1-.5.1-.9v-.3c0-.5 0-.8-.1-.9-.1-.1-.3-.2-.6-.2v-.3l1.7-.2s.1.1.1.3c0 .2.1.3.1.4.2-.4.6-.7 1-.7.3 0 .5.1.7.3.1.1.2.3.2.5.1.1 0 .2-.1.3M54.1 75.3c0-.4-.2-.7-.6-.7-.4 0-.6.2-.7.7h1.3zM53 76.8c.2.2.4.4.7.4.5 0 .8-.1 1.1-.4l.2.3c-.3.4-.9.6-1.5.6s-1-.2-1.4-.5c-.4-.3-.5-.8-.5-1.3s.2-.9.5-1.3c.4-.3.8-.5 1.3-.5.4 0 .8.1 1.1.4.2.3.4.5.4.9v.3h-2.1c0 .5.1.9.2 1.1M58.8 77.4c-.2.2-.5.3-.9.3-.3 0-.7-.2-1-.3-.1 0-.1.1-.1.3h-.3v-1.4h.3c0 .2.1.5.4.7.2.2.5.3.8.3.3 0 .5-.2.5-.4s-.2-.4-.6-.6l-.5-.2c-.5-.2-.7-.6-.7-1 0-.3.1-.6.4-.7.2-.1.5-.2.8-.2.4 0 .6.1.9.2.1 0 .1-.1.1-.2h.3v1.1h-.3c0-.2-.1-.4-.3-.5-.2-.1-.4-.2-.6-.2-.3 0-.5.1-.5.3 0 .1.2.3.7.5l.5.2c.5.2.7.6.7 1-.2.4-.4.6-.6.8M62.8 77.4c-.2.2-.5.3-.9.3-.3 0-.7-.2-1-.3-.1 0-.1.1-.1.3h-.3v-1.4h.3c0 .2.1.5.4.7.2.2.5.3.8.3s.5-.2.5-.4-.2-.4-.6-.6l-.5-.2c-.5-.2-.7-.6-.7-1 0-.3.1-.6.4-.7.2-.1.5-.2.8-.2.4 0 .6.1.9.2.1 0 .1-.1.1-.2h.1v1.1h-.3c0-.2-.1-.4-.3-.5-.2-.1-.4-.2-.6-.2-.3 0-.5.1-.5.3 0 .1.2.3.7.5l.5.2c.5.2.7.6.7 1 .1.4-.1.6-.4.8M66.6 74.6c-.5 0-.8.5-.8 1.3s.3 1.3.8 1.3.8-.5.8-1.3c-.1-.7-.3-1.3-.8-1.3m1.3 2.6c-.4.3-.8.5-1.4.5-.5 0-1-.2-1.4-.5-.4-.3-.6-.8-.6-1.3s.2-.9.6-1.2c.4-.3.8-.5 1.4-.5.5 0 1 .2 1.4.5.4.3.6.7.6 1.2s-.2.9-.6 1.3"/></svg>