<svg xmlns="http://www.w3.org/2000/svg" id="beefeater-london" viewBox="-5 -5 153 50" width="153" height="50" y="90"><style>.bst0 {fill: #c5c5c5;}.bst1 {fill: #8c8c8c;}
</style><path class="bst0" d="M139.7 28.6c-1.4-4.4-2.3-7.1-3.7-11 3.4-2.2 4.3-5.9 4.4-8.3-.1-8.4-6.7-9.2-11.2-9.2h-7c.3.3 1 1.3 1 3.2v25.5c0 1-.7 3-1 3.4.7.1.4.1 1 .2 2 .3 6.9 1.4 6.9 1.4-.7-.9-1-1.9-1-3.7V19c.5 0 1.1.2 1.7.2 0 0 3.4 10.9 5.1 16 1.9.5 6.8 2 7.2 2-1.1-1.1-3.3-8-3.4-8.6M129.1 4.2h1.7c2.6 0 3.5 3 3.5 5.5 0 2.4-.9 5.8-5.2 5.1-.1-3.6-.1-7.5 0-10.6M13.9 15.5c2.3-1.5 3.7-3.9 3.7-7.2C17.6 3.1 14.3-.2 7 .1H0c.4.3.9 1.5.9 3.2v29.8c0 2-.6 3.3-.9 3.8.6-.1 5.7-1.4 8.2-2 10.1-2.2 10.3-9.9 10.3-12 0-1.6-.9-6-4.6-7.4M7.2 4.1h1.4c2.3-.1 3.2 1.9 3.2 4.7 0 2-.8 4.8-2.9 4.9-.6 0-1.2.2-1.8.2V4.1zm1.6 25.3c-.6.1-1.1.3-1.6.3V17.9c.4 0 .8-.2 1.3-.2 2.4-.1 3.7 2.2 3.8 4.9-.1 2.9-1.1 6.1-3.5 6.8M75.9 26.7l6.3.2c-.4-.8-.4-1.9-.3-2.8.2-1.2.4-2.4.6-3.8 1.7 0 3.3.1 5.1.1.2 1.4.5 2.6.7 4.1.2 1.1-.3 2.4-.6 2.7.6 0 .4 0 1 .1 1.9.2 4 .3 6 .4 0 0-3.6-19-5.4-27.5h-9c.4.2.6 1.8.4 2.8-1.2 6.7-2.9 14-4.2 20.8-.4 1.7-.6 2.9-.6 2.9m7.3-10.5c.6-3.9 1.2-7.8 1.9-11.5.6 3.7 1.2 7.6 1.9 11.5v.1c-1.3-.1-2.5-.1-3.8-.1M31.2 16.4s.5-2.4 1-4.3c-1.8 0-3.9.2-5.7.3v-8h3.3c.8 0 1.8.3 2.4.8.4-2 .6-3.3 1-5.1H19.4c.4.3 1 1.4 1 2.8v24.6c0 1.8-.7 4.2-1.1 4.7 4.5-.9 8.5-1.7 13.1-2.4.4-2.2.7-3.7 1.1-6-.3.3-1.7.8-3.1 1-1.4.2-2.8.4-4 .5v-8.6c.6 0 4.8-.3 4.8-.3M44.7 23.1c-1.3.1-2.6.2-3.8.3v-7.7c1.1 0 3.9-.4 4.9-.4 0 0 .5-2.2.9-4.1-1.8 0-4 .3-5.7.3V4.3h3c1.1 0 1.6.2 2.7.8.4-2 .6-3.2 1-5.1H33.9c.4.3 1 1.6 1 3v22.8c0 1.6-.6 3.1-1 3.5.6-.1 1-.2 1-.2 3.9-.5 7.9-1.1 11.8-1.5 0 0 .7-3.2 1-5.3-.3.4-1.9.7-3 .8M72.9 22.2h-3.7v-7h5c.3-1.8.4-2.2.8-4h-5.7V4.3h3.8c.8 0 1.8.2 2.3.8.4-2 .7-3.2 1-5.1H62.1c.3.2 1 1.3 1 2.7v20.9c0 1.7-.7 2.8-1 3.1h1c3.9-.1 7.6-.1 11.6-.1.4-1.9.7-3.4 1.1-5.4-.4.3-1.5 1-2.9 1M118.5 25.5c-1.3-.2-2.1-.3-3.7-.7v-8.4c.5 0 5 .2 5 .2.3-2 .4-2.5.8-4.5-1.8 0-3.9-.1-5.7-.1V4.4h3.2c.8 0 2.1.5 2.4 1 .4-2.1.7-3.5 1.1-5.3h-13.8c.4.3 1 1.2 1 2.8v23.4c.1 1.4-.6 2.7-1 3 4.6.7 7.9 1.5 12.6 2.3.4-2.3.7-4.1 1.1-6.5-.8.6-2.6.4-3 .4M49.1 2.8v21.7c0 1.8-.7 2.8-1 3.1 2.7-.2 4.4-.4 7.1-.6.4 0 .6 0 1-.1-.8-.8-1-2.1-1-2.8v-8.8h5s.4-2.2.8-4h-5.7v-7h3.5c.7 0 1.4.2 2.2.8.4-2 .7-3.3 1.1-5.1h-14c.4.4 1 1.5 1 2.8M92.2 5.2c.4-.3 1.7-.8 2.7-.8h2.2v20.3c0 1.3-.7 2.8-1 3 .6 0 .4 0 1 .1 2 .2 3.9.4 5.9.7.4.1.5.1.9.1-.2-.2-.9-1.3-.9-3.2v-21h1.9c1.1 0 2.1.5 2.5.9-.1-2-.1-3-.2-5.1H92.4c-.1 2.3-.1 3-.2 5"/><path class="bst1" d="M139.6 1.7c0 .9.7 1.7 1.7 1.7.9 0 1.7-.7 1.7-1.7 0-.9-.7-1.7-1.7-1.7-.9 0-1.7.7-1.7 1.7m.2 0c0-.8.7-1.5 1.5-1.5s1.5.7 1.5 1.5-.7 1.5-1.5 1.5c-.8-.1-1.5-.7-1.5-1.5"/><path class="bst1" d="M140.9.9h.5c.2 0 .4.1.4.3 0 .2-.2.3-.4.3h-.5V.9zm-.2 1.6h.2v-.8h.5l.5.8h.3l-.5-.8c.3 0 .4-.3.4-.5 0-.4-.3-.5-.6-.5h-.8v1.8zM33.5 23.8c-.9 1.4-1.5 2.2-2.4 3.4-2.6.4-4.6.8-7.7 1.3 0 0-2.3 2.5-3.9 3.7 4.5-1 8.5-1.7 13.1-2.4.3-2.2.5-3.7.9-6M31.2 16.4c.4-1.9.5-2.3 1-4.3-.6.7-1.2 1.4-1.8 2.2-2.2.1-4.8.3-7 .3v13.8h-.1c1.3-1.2 2-2.3 3.1-3.1v-8.7c.8 0 4.8-.2 4.8-.2"/><path class="bst1" d="M33.2.1c-.8.7-1.5 1.3-2.3 2h-7.5v12.5c1.2-1 1.9-1.6 3-2.3V4.4h3.3c.9 0 2 .3 2.4.8.4-2 .7-3.3 1.1-5.1M47.7 22.4c-.8 1.3-1.3 1.9-2 3 0 0-5.2.7-7.9.9l-.2.1c-1.5 1.1-2.3 1.7-3.8 3 4.6-.7 8.8-1.2 12.8-1.6.1-.1.7-3.3 1.1-5.4M46.6 11.2l-1.8 2.1c-2.2 0-4.7.4-7 .4v12.5c1.1-.9 2-1.8 3-2.7v-7.8c.8 0 4.9-.4 4.9-.4.5-1.8.5-2.1.9-4.1"/><path class="bst1" d="M47.6.1c-.8.7-1.5 1.3-2.3 2h-7.4v11.6c1.3-1 2-1.5 3-2.1V4.4h3.3c.3 0 1-.1 2.4.8.4-2 .6-3.3 1-5.1M61.9.1c-.8.7-1.5 1.3-2.3 2h-7.4v11.3c1.3-1.1 1.8-1.4 2.9-2.1v-7h3.5c.8 0 1.9.5 2.2.8.4-1.9.7-3.2 1.1-5M75.8 21.2c-.6 1.2-2.2 3.2-2.2 3.2H66c-1.6.7-2.2 1.7-3.8 2.4 4.5-.1 8-.2 12.6-.1.2-1.2.5-2.6 1-5.5M74.9 11.2c-.6.7-1.3 1.3-1.9 2h-6.9c0 3.1-.1 11-.1 11 1-.5 2.2-1.4 3.2-2.1v-7c.7 0 5 .1 5 .1.3-1.7.4-2.1.7-4"/><path class="bst1" d="M76.4.1c-.8.7-1.5 1.3-2.3 2h-8v11.1c1.3-.9 2-1.3 3-2V4.3h3.7c.7 0 1.8.2 2.4.8.5-1.9.8-3.2 1.2-5M120.6 12.3c-.6.7-1.2 1.4-1.8 2.2-2.2-.1-4.8-.1-7-.2v12.9c1.3-1 1.9-1.5 3.1-2.3v-8.4c.7 0 5 .2 5 .2.3-2 .3-2.4.7-4.4M121.5.1c-.8.7-1.5 1.3-2.3 2.1h-7.5c0 3 .1 8.7.1 12.1 1.1-.9 1.9-1.4 3-2.1V4.4h3.2c.9 0 2.1.5 2.4 1 .4-2 .7-3.5 1.1-5.3M9.8 15.6c3.6-1.5 5-4.5 5-7 0-.9-.3-3.7-1.4-4.7l2-1.5c1.8 1.6 2.2 4.4 2.2 5.9 0 3.3-1.4 5.6-3.7 7.2-.2 0-4.1.1-4.1.1M16.1 17c1.4 1.5 2.3 3.6 2.4 5.9 0 3.9-1 9.7-10.3 12-2.5.7-7.6 1.9-8.2 2 1.6-1.5 2.3-2.1 3.9-3.5 2-.5 3.2-.8 4.7-1.2 4.9-1.3 6.6-5.3 6.7-9 0-1.9-.5-3.5-1.3-4.8l2.1-1.4zM9.2 4.1h-2v9.7c-1.1.6-1.8 1.1-3 2L4.1 14V2.2h5.5c2 0 3.4 1.3 3.7 1.7-.4.3-2.1 1.5-2.2 1.6-.3-.7-1.1-1.4-1.9-1.4"/><path class="bst1" d="M8.5 17.7c-.4 0-.8.2-1.3.2v11.7c-1 1.3-1.8 2.2-3.2 3.7l.1-2.6V16c2-.1 3.5-.4 5.5-.4 2.2-.1 4.2 2.3 4.5 2.8-.4.2-2.2 1.6-2.3 1.6-.6-1.2-1.4-2.3-3.3-2.3M86.9 2.7c-.5.7-1.1 1.1-1.8 2-.7 3.7-1.2 7.6-1.9 11.5-1 .6-1.6 1.1-2.9 1.8 0 0 2.2-11.1 3-15.3h3.6zM79 24.5c.3-1.5.9-4.8 1.2-6.3v-.1c1.6 0 8.6.3 9.7.3l-2.4 1.9-5.1-.1c-.2 1.4-.4 2.5-.6 3.8-.1.8-.2 2 .3 2.8l-6.3-.2c1.3-.8 2-1.3 3.2-2.1"/><path class="bst1" d="M94.7 27.6C93.6 22 91.8 11.8 89.3.1c-.9.8-1.5 1.7-2.4 2.5 1.5 7.2 2.9 15.1 4.3 22.6-1.5.9-2.1 1.1-3.6 1.8 2.7.3 4.5.4 7.1.6M132.8 16.7c-2.5.6-3.9.4-6.6.2v13.5s-2.5 1-4.1 1.8c3.2.6 4.4.8 7.9 1.6-.6-.9-1-1.4-1-4.1V19.1c.5 0 .9.1 1.7 0l2.1-2.4zM143 37.1c-1-1-3.2-8-3.3-8.5-1.5-4.5-2.4-7-3.8-11 2.9-2 4.4-5.2 4.4-8.5 0-2.8-1.2-5.7-3.2-6.9 0 0-1 1-1.9 1.5 1.4 1.1 2 3.8 2 5.7 0 3.4-2.2 6.5-4.4 7.4 0 0 3.8 11.1 5.4 16.6h-.2l-2.4 1.8c2.4.5 4.6 1.2 7.4 1.9"/><path class="bst1" d="M130.7 4.2h-1.6v10.6c-1 .7-1.6 1.3-2.9 2.2V2.2h5c2.2 0 3.5.9 4.1 1.4-.1.1-2.3 1.6-2.3 1.7-.5-.4-1.3-1.1-2.3-1.1M59.1 13.3c-2.2 0-4.7 0-6.9.1v11.8c-1.6.8-2.4 1.6-4.1 2.4 4-.3 5.4-.5 8.1-.6-.9-.9-1-2.7-1-3.1v-8.5h5c.3-1.8.4-2.2.8-4-.7.6-1.3 1.2-1.9 1.9M104.9 4.4c1.1 0 2.2.6 2.5.9-.1-2.1-.1-2.9-.2-5.1-.7.7-1.1 1.4-1.8 2.1h-5.3v23.6c-1.6.8-2.4 1.2-4.1 2 3.3.3 4.7.5 7.8.8-.4-.5-.9-1.6-.9-3.2v-21c.7-.1 1.3-.1 2-.1M121.4 25.1c-.8 1.3-1.6 2.3-2.5 3.5-2.8-.5-4.4-.8-7.3-1.4-1.6.9-2.3 1.2-3.9 2.1 5 .7 8 1.5 12.6 2.3.4-2.3.7-4.1 1.1-6.5M97.1 4.4H95c-.9 0-2.4.6-2.8.8.7-1.2 1.3-1.9 2-3h5.8c-1.2.8-1.9 1.4-2.9 2.2M44.9 32.2h1.7v6.2h3.8V40h-5.5zM51.5 36.1c0-2.2 1.7-4.1 4.2-4.1 2.4 0 4.1 1.8 4.1 4s-1.7 4-4.2 4-4.1-1.7-4.1-3.9m6.5 0c0-1.4-1-2.5-2.4-2.5s-2.3 1.1-2.3 2.4c0 1.3 1 2.4 2.4 2.4 1.3.2 2.3-.9 2.3-2.3M61.9 32.2h1.5l3.7 4.8v-4.8h1.7V40h-1.5l-3.7-5v5h-1.7zM71.2 32.2h3c2.4 0 4.1 1.7 4.1 3.9S76.6 40 74.2 40h-3v-7.8zm3.1 6.3c1.4 0 2.3-.9 2.3-2.3s-.9-2.3-2.3-2.3H73v4.7h1.3zM80.1 36.1c0-2.2 1.7-4.1 4.2-4.1 2.4 0 4.1 1.8 4.1 4s-1.7 4-4.2 4c-2.3.1-4.1-1.7-4.1-3.9m6.5 0c0-1.4-1-2.5-2.4-2.5s-2.3 1.1-2.3 2.4c0 1.3 1 2.4 2.4 2.4 1.4.2 2.3-.9 2.3-2.3M90.5 32.2h1.6l3.6 4.8v-4.8h1.7V40H96l-3.8-5v5h-1.7z"/></svg>