<svg xmlns="http://www.w3.org/2000/svg" id="belvedere-vodka" viewBox="-5 -5 159 57" width="159" height="57" y="140"><style>.cst0 {fill: #939393;}.cst1 {fill: #c3c3c2;}
</style><path class="cst0" d="M16.5 15.9c.6 2.2.5 5.2-.9 7.4-2 3.1-6.2 2.8-7.7 2.6 0 0-1.5-.2-2.6-.3-1.1 0-3.1.1-3.1.1v-.9c1.4 0 1.5-.1 1.5-2.3V3.3C3.7.9 3.3 1 0 1V.1h5C6.2.2 8.1 0 8.1 0c1.6-.1 5-.2 6.5 2.7.8 1.5.9 4.4 0 6.2-.8 1.7-1.8 2.5-3.1 3.3 1.8.1 4.2 1 5 3.7zm-3.7-8.8c.2-1.7 0-4-1.8-5.1-1-.7-3.4-.8-4-.6-.6.1-.5 1.1-.5 2V12c1.3 0 3.1.1 4-.4 1.7-1.1 2.2-3 2.3-4.5zM6.5 22.5c0 .9 0 1.4.5 1.8.6.4 3.5.3 4.4-.1 1.4-.6 2.2-1.7 2.6-3.3.3-1.4.1-4.1-.9-5.7-1.3-2.1-4-1.9-5.6-1.9h-1v9.2zM35.3 25c1.2 0 1.3-.2 1.3-2V6.8c0-2.2-.2-2-2.9-2v-.7H40.4v.7c-1.2 0-1.3.2-1.3 2V21c0 1.6 0 2.7.4 3.1.5.4 1.1.3 2.6.3h1.3c.8 0 2 .1 2.5-1.1.3-.6.8-2.4 1-3.2h.7l-1.2 5.6c-.2 0-.7-.1-1-.1 0 0-4-.1-6.6-.1-1.4 0-3.5.1-3.5.1V25zM62.1 2.7l-7.7 23.4h-1L47.5 6.5C47 5 47 4.8 45.9 4.8v-.7h7v.7c-1.4 0-2.8-.1-3.1.4-.2.4-.1.8.4 2.6L54.4 22l4.7-14.4c.4-1.3.6-1.8.4-2.3-.2-.4-1.1-.5-3.1-.5v-.7H60c.6 0 .8-.4 1.2-1.4h.9zM82 25c1.3 0 1.3-.5 1.3-2.2v-16c0-2.2-.5-2-3.3-2v-.7h4.4C86.1 4.1 90 4 90 4c3-.1 7.3.7 9.4 5 1.5 3 1.5 8.4-.4 11.9-2.6 4.9-7.6 5.1-10.9 4.9 0 0-2.2-.2-3.6-.2-1.1 0-2.6.1-2.6.1V25zm3.8-3.5c0 1.4-.1 2.5.6 3 1 .7 6 .3 8.2-1.2 3.1-2.1 3.7-6.1 3.6-8.8-.1-3.2-.8-6.3-4-8.3-1.9-1.1-7.1-1.3-8-.8-.5.3-.4.6-.4 1.3v14.8zM106.9 14.5h3.6c.6.1.7.8.9 2.4l.1.6h.6l-.4-4.7h-.7c0 .3-.2.6-.4.6h-3.7v-5c0-2.1-.1-2.5.4-2.9.2-.2.7-.2 2.3-.2h2.5c.7.2.9 1.3 1.2 4l.1.6h.7s-.3-3.1-.4-3.9c0-.4-.1-.7 0-.8 0-.3.5-.5.9-.5v-.6h-13.4v.7c.1 0 2.7-.1 3 .2.4.3.3.6.3 2.2v15.6c0 1.9-.1 2.2-1.3 2.2v.8s2.3-.1 3.9-.1c3.3 0 8.5.1 8.5.1l.9-4.4h-.7c-.3 1.3-.4 1.6-.6 2.1-.6 1.2-1.8 1-2.5 1h-3.1c-1.7 0-2 .1-2.4-.4-.3-.3-.3-1.1-.3-3.1v-6.5zM139.5 14.5h3.6c.6.1.7.8.9 2.4l.1.6h.6l-.4-4.7h-.7c0 .3-.2.6-.4.6h-3.7v-5c0-2.1-.1-2.5.4-2.9.2-.2.7-.2 2.3-.2h2.5c.7.2.9 1.3 1.2 4l.1.6h.7s-.3-3.1-.4-3.9c0-.4-.1-.7 0-.8 0-.3.5-.5.9-.5v-.6h-13.4v.7c.1 0 2.7-.1 3 .2.4.3.3.6.3 2.2v15.6c0 1.9-.1 2.2-1.3 2.2v.8s2.3-.1 3.9-.1c3.3 0 8.5.1 8.5.1l.9-4.4h-.7c-.3 1.3-.4 1.6-.6 2.1-.6 1.2-1.8 1-2.5 1h-3.1c-1.7 0-2 .1-2.4-.4-.3-.3-.3-1.1-.3-3.1v-6.5zM69.3 14.5h3.6c.6.1.7.8.9 2.4l.1.6h.6l-.4-4.7h-.7c0 .3-.2.6-.4.6h-3.7v-5c0-2.1-.1-2.5.4-2.9.2-.2.7-.2 2.3-.2h2.5c.7.2.9 1.3 1.2 4l.1.6h.7s-.3-3.1-.4-3.9c0-.4-.1-.7 0-.8 0-.3.5-.5.9-.5v-.6H63.6v.7c.1 0 2.7-.1 3 .2.4.3.3.6.3 2.2v15.6c0 1.9-.1 2.2-1.3 2.2v.8s2.3-.1 3.9-.1c3.3 0 8.5.1 8.5.1l.9-4.4h-.7c-.3 1.3-.4 1.6-.6 2.1-.6 1.2-1.8 1-2.5 1h-3c-1.7 0-2 .1-2.4-.4-.3-.3-.3-1.1-.3-3.1l-.1-6.5zM23.3 14.5h3.6c.6.1.7.8.9 2.4l.1.6h.6l-.4-4.7h-.7c0 .3-.2.6-.4.6h-3.7v-5c0-2.1-.1-2.5.4-2.9.2-.2.7-.2 2.3-.2h2.5c.7.2.9 1.3 1.2 4l.1.6h.7s-.3-3.1-.4-3.9c0-.4-.1-.7 0-.8 0-.3.5-.5.9-.5v-.6H17.6v.7c.1 0 2.7-.1 3 .2.4.3.3.6.3 2.2v15.6c0 1.9-.1 2.2-1.3 2.2v.8s2.3-.1 3.9-.1c3.3 0 8.5.1 8.5.1l.9-4.4h-.7c-.3 1.3-.4 1.6-.6 2.1-.6 1.2-1.8 1-2.5 1h-3c-1.7 0-2 .1-2.4-.4-.3-.3-.3-1.1-.3-3.1l-.1-6.5zM123.8 16.4h-.9V23c0 2.2.5 2 3.3 2v.8s-2.9-.1-4.4-.1c-1 0-2.6.1-2.6.1V25c1.2 0 1.3-.2 1.3-2V6.8c0-2.2-.5-2-3.3-2v-.7h4.4c1.1 0 2.9-.1 2.9-.1 1.8 0 4.8-.2 6.4 2.7 1 1.8.7 4.5-.1 6.3-.8 1.7-2.2 2.5-3.7 3l5.6 9.1c1.5 2.5 2.1 3.9 3.4 4.8l-.3.5c-3.2-1.7-3.4-1.7-5.6-5.3l-5.4-8.7h-1zm5.5-6.7c-.1-1.7-.5-3.1-2.1-4.1-1-.6-3.2-.9-3.9-.4-.4.3-.4.8-.4 3.1v6.8c1.4.3 3.4.2 4.6-.8 1.6-1.1 1.9-3.3 1.8-4.6z"/><g><path class="cst1" d="M42.8 33.6l1.4 9.2 1.4-9.2h1.8l-2.3 13.1h-1.7l-2.5-13.1h1.9zM58.8 33.3c3.1 0 3.5 3.4 3.5 6.8 0 3.6-.6 6.8-3.5 6.8-3.1 0-3.5-3.4-3.5-6.8.1-3.6.7-6.8 3.5-6.8zm0 12c1.3 0 1.5-2.2 1.5-5.6 0-4-.7-4.8-1.5-4.8-.9 0-1.6 1.3-1.6 5.5.1 2.7.3 4.9 1.6 4.9zM70.9 33.6H73c3.5 0 4.4 3.3 4.4 6.7 0 2.8-.9 6.4-4.3 6.4h-2.2V33.6zm1.8 11.5c2.2 0 2.8-2.2 2.8-5 0-3.2-1-5-2.8-5v10zM87.9 33.6v5.9l2.9-5.9h2l-3.1 6.1 3.3 7h-2l-3-6.5v6.5h-1.8V33.6h1.7zM105.2 33.6l3 13.1h-1.9l-.5-2.7h-2.9l-.5 2.7h-1.7l2.8-13.1h1.7zm.2 8.9l-1.1-6-1.1 6h2.2z"/></g></svg>