<svg xmlns="http://www.w3.org/2000/svg" id="campo-viejo" viewBox="-5 -5 137 81" width="137" height="81" y="197"><style>.dst0 {fill: #a2a2a2;}.dst1 {fill: #cdcdcd;}.dst2 {fill: #a3a3a3;}.dst3 {fill: #fff;}
</style><g id="dU72sXp_1_"><path class="dst0" d="M86 62.3c.6-1.4 1.2-2.7 1.8-4.1 1-2.4 1.8-4.8 2.3-7.3.3-1.6.5-3.2.4-4.8-.1-1.9-.5-3-1.7-4.4 1-.5 2.1-1.1 3.1-1.6.7.7 1 1.5 1.2 2.3.4 1.4.3 2.9.1 4.3-.2 2.4-1.2 4.5-2.2 6.7-1.4 3-2.9 5.9-4.3 8.9-.3.7-.5 1.4-.8 2.1-.8-.1-1.5-.4-2.2-.7-1.6-.8-3-2-4.1-3.5-1.8-2.4-3.2-5-3.9-7.9-.6-2.5-.6-5.1-.2-7.7.1-.5.2-1 .3-1.6 1.5-.6 2.9-1.3 4.4-1.9-.2 1-.5 1.8-.7 2.7-.6 2.9-.8 5.9-.2 8.8.6 2.8 1.8 5.4 3.7 7.6 1 1 2 1.7 3 2.1zM43.6 62.9c-1.2-.8-1.8-1.9-1.8-3.3 0-2.3-.1-4.7-.1-7 0-.5-.1-1-.3-1.4-.3-.6-.7-.8-1.4-.5-.3.1-.6.3-.9.5v9.9l-2.7 1.5v-3.8c0-1.9.1-3.9.1-5.8 0-.5 0-.9-.2-1.4-.3-1.1-1.2-1.4-2.1-.8-.2.1-.3.2-.5.4v9.7c-1 .5-1.9 1.1-2.9 1.6v-3-7.1c0-.3 0-.6-.1-.9-.2-1-1-1.3-1.9-.8-.1 0-.2.1-.3.1 0 0 0-.1-.1-.1 1.2-.9 2.3-1.8 3.5-2.8 1.1.5 1.7 1.3 1.7 2.6.4-.2.6-.3.9-.4l2.4-1.8c.5-.4.7-.4 1.1.1.6.6.9 1.3 1.1 2.2 1.4-.5 2.3-1.5 3.4-2.4 1.2.5 1.9 1.4 2 2.6.1 1.8.1 3.5.1 5.3v1.3c0 1.3.2 1.9 1.3 2.8-.8 1-1.6 1.9-2.3 2.7zM1.6 43.4c1.2-.6 2.3-1.2 3.5-1.7-.1.1-.1.2-.2.3-1 2.9-1.5 5.9-1 8.9.6 3.5 2.6 5.9 5.7 7.5 1.9.9 4 1.2 6.1 1.3h.9c-.8 1.2-1.5 2.3-2.3 3.5-.7-.1-1.4-.2-2-.3-2.1-.4-4.2-1-6.2-2-3-1.7-4.8-4.3-5.7-7.6-.2-.7-.3-1.3-.4-2-.4-1.7 0-3.4.5-5 .4-1 .7-2 1.1-2.9z"/><path class="dst1" d="M73.1 12.1c0 .1-.1.2-.1.3.7.1 1.2-.1 1.8-.3.5.3.9.8 1.6.7 0-.2 0-.4-.1-.6.2.1.4.1.6.2 0 .2.1.4.1.6.2 1.1.7 2.1 1.6 2.8.6.4 1 1.1 1.2 1.8.1.3.2.5.3.7.1.3.3.6.7.6.4 0 .8-.2 1-.6.1-.3.2-.6.2-.9.1-.2.1-.4.2-.7.6.9.3 1.9-.6 2.5-1 .6-1.9.4-2.7-.8-.2.3-.4.5-.5.7.2.3.4.7.7 1 .2.3.5.5.8.7l.1-.1v.7c.3 0 .4-.1.8-.1-.3.4-.5.7-.8 1-.1 0-.2 0-.4.1v1.2c-.2-.3-.3-.5-.4-.6h-.1v1.5c-.2-.1-.2-.1-.3-.2-.1.2-.2.4-.3.8-.1-.2-.2-.3-.2-.5h-.1c-.1.3-.2.5-.3.9-.1.1-.3.2-.6.4-.1-.3-.2-.5-.3-.8l-.6.6c-.2 0-.5-.1-.8-.1-.1 0-.1.1-.3.2v-.9c-.3.2-.4.3-.6.4 0-.8.7-1 .9-1.5.3 0 .6-.1 1-.1.4-.6.7-1.2 1.2-1.9-.6-.2-1.3.7-1.8-.2.2-.1.4-.1.6-.2-.4-.2-1-.2-1.1-.8.2 0 .4 0 .7.1-.1-.3-.1-.6-.2-.9.2-.4.4-.8.6-1.3-.8.2-1.4-.3-2-.7-.5.8-.4 1.9.1 2.6.2.3.4.6.5.9l-.5.5c0 .2.1.4.2.6-.3 0-.5 0-.7.1-.2.2-.5.4-.8.7 0-.2 0-.4.1-.6-.4.6-.9.8-1.5.9 0-.1.1-.3.1-.4-.2.2-.4.3-.7.5v-.5c-.1.1-.2.3-.3.4-.3-.1-.5-.2-.6-.2-.1.1-.2.1-.3.2 0-.3 0-.5.1-.8-.2-.1-.4-.3-.6-.5.4-.5.9-.8 1.6-.7.4.1.9 0 1.4-.1.2 0 .4-.3.6-.5-.7-.3-1.1-.6-1.3-1.3.2 0 .4.1.7.1-.2-.5-.4-.9-.7-1.5.4.2.6.3 1 .4-.2-.7-.3-1.3.1-1.8 1.1-.6 2.5-.3 3.9-.6-.3-.3-.5-.6-.8-.7-.7-.3-1.2-.8-1.4-1.7-.3.3-.5.6-.9 1v-.7c-.3.2-.5.4-.8.7l-.1-.1c.1-.2.2-.4.3-.7-.4.2-.8.3-1.1.4 0 .7 0 .6-.7.8-.1 0-.2.1-.4.2 0-.1-.1-.3-.1-.4v-.4c-.1 0-.2-.1-.4-.1 0 .1-.1.3-.1.4-.3-.1-.3-.5.1-1.1-.1 0-.3-.1-.4-.1l-.3.3s-.1 0-.1-.1c.1-.4.2-.7.4-1.2.3 0 .6 0 .8.1.5.3.9.2 1.3-.1.4 0 .4-.4.6-.6-.1-.2.1-.2.2 0zM52.1 12.1c.2.2.4.4.7.5.3.2.6.3.9 0 .3-.2.6-.3 1 .1 0 .2 0 .4.1.6-.2.1-.3.2-.5.2.1.4.4.7 0 1.1-.1-.1-.1-.2-.2-.4-.1 0-.2.1-.4.1v.7c-.3-.1-.6-.1-1-.2-.1-.2-.1-.4-.2-.7-.3-.1-.6-.2-1-.4.1.2.1.4.2.6l-.1.1c-.3-.2-.5-.4-.7-.6v.5s-.1 0-.1.1c-.2-.3-.5-.6-.7-.9 0 .1-.1.3-.1.4-.2.5-.4.9-.9 1.1-.4.2-.8.5-1 .9 1.3.3 2.7-.1 3.9.6.3.5.4 1 .1 1.6l.1.1c.2-.1.5-.2.9-.4-.2.5-.4 1-.7 1.6l.4.4c-.3.3-.6.6-.9.8.3.5.8.6 1.2.6.5 0 .9-.1 1.4-.1.3.3.6.5.9.7-.3.2-.5.4-.7.5v.6H54l-.1.1c-.1-.2-.2-.3-.4-.6v.6c-.2-.2-.4-.3-.6-.5 0 .2.1.3.1.6-.6-.3-1-.6-1.5-.8v.4c-.3-.3-.6-.5-.8-.7h-.8c.1-.3.2-.4.3-.6-.1-.2-.3-.3-.5-.6.7-1 1.3-2.1.7-3.5-.6.3-1.2.9-2.1.6.2.5.4.9.6 1.3-.1.3-.2.5-.3.9.3 0 .5-.1.7-.1-.1.6-.2.6-1 .8.2.1.4.1.6.2-.2.4-.5.5-.9.4-.3-.1-.6-.2-1-.2.4.7.8 1.4 1.2 2 .3 0 .6 0 1 .1.2.5.9.7 1 1.4-.2-.1-.5-.1-.8-.2.1.3.1.5.2.8-.2-.1-.3-.2-.4-.2-.3.1-.6.1-.8.2l-.6-.6c-.1.4-.2.6-.3.9-.3-.2-.5-.3-.6-.4l-.3-.9h-.1c-.1.1-.1.3-.3.5-.1-.3-.2-.5-.3-.8-.1 0-.2.1-.4.2 0-.5 0-1 .1-1.4h-.1c-.1.2-.2.4-.3.7h-.1c0-.4 0-.8-.1-1.3-.2.1-.3.2-.5.4-.1-.3-.1-.5-.1-.7-.2-.2-.3-.4-.5-.5 0 0 0-.1.1-.1.2 0 .4.1.7.1 0-.3.1-.5.1-.7.4 0 .7-.3.9-.7.1-.3.4-.5.6-.8-.2-.2-.3-.5-.5-.7-.8 1.1-1.8 1.4-2.7.9-.8-.5-1.2-1.5-.7-2.8.1.2.2.4.3.5.1.3 0 .7.1 1 .1.5.5.8 1 .8s.8-.3.9-.8c.3-1.3 1-2.2 2-3 .5-.4.7-.9.8-1.5l.3-1.2c.1-.1.3-.2.6-.3 0 .3 0 .5-.1.7.7.2 1.1-.3 1.5-.6l1.5.3c.1 0 .3-.1.4-.2 0-.1-.1-.2 0-.3.2-.1.3 0 .4.1z"/><path class="dst0" d="M12.8 57.8c-.7.1-1.3-.1-1.9-.3-2.4-.8-3.9-2.5-4.7-4.9-1.2-3.3-1-6.5.1-9.7.3-.8.6-1.5.9-2.3 2.2-1 4.4-2 6.5-3 .4.8.8 1.5 1.2 2.3.7 1.5 1.9 2.4 3.7 2.6-.2.1-.3.2-.4.3-.7.4-1.5.7-2.2 1-1.1.4-2 .2-2.9-.5-1.2-.9-1.9-2-2.6-3.2 0 0 0-.1-.2-.2-.5 1-1 2-1.4 3-1.1 3.1-1.2 6.2-.3 9.4.6 2.3 2 4.2 4.2 5.5zM18.6 50.3c.5-.7 1-1.4 1.5-2.2 1.6 0 3.1.2 4.6.8 1.1.5 1.4 1.4 1.5 2.4.1 1.2.1 2.5.1 3.7 0 1-.1 2 0 3 0 1.1.4 2.1 1.7 2.5l-2.4 2.1c-.9-.5-1.5-1.3-1.7-2.3-.2-.8-.2-1.6-.3-2.3v-4.8c-.8.2-1.5.6-1.8 1.4-.6 1.4-.8 2.8-.6 4.3.1.9.7 1.3 1.5 1.7l-2.4 2.1c-.9-.2-1.4-.8-1.7-1.7-.4-1.5-.4-3 0-4.5.2-.6.5-1.2 1.1-1.5.7-.5 1.5-.9 2.3-1.3.6-.3 1.1-.6 1.7-.8.1-.9-.3-1.7-1.2-2.1-1-.5-2.1-.6-3.2-.4-.1 0-.2.1-.3.1-.2-.1-.3-.1-.4-.2zM114.5 48.2v8.9c0 1.9 0 3.8-.1 5.7 0 .6-.2 1.2-.3 1.8-.2.9-.6 1.8-1.2 2.5-1 1.2-2 2.2-3.2 3.1-.2.1-.3.2-.5.3l-.1-.1c.1-.1.2-.3.4-.4 1.3-1.3 2-2.9 2-4.7V50.7v-.9c1-.6 1.9-1.1 3-1.6z"/><path class="dst1" d="M59.8 3.5h1.1v-.8c-.2 0-.4-.1-.6-.1V.1h.9c0 .4.1.8.1 1.2h.6c0-.4.1-.8.1-1.2h.9c0 .4.1.8.1 1.2.2 0 .4 0 .6.1 0-.5.1-.9.1-1.3h.8v2.5c-.2.1-.4.1-.6.2v.8H65c.2-.2.4-.4.6-.7-.2-.2-.3-.4-.6-.7.6-.5 1.2-1.1 1.8-1.6.2.1.4.2.7.4-.3.3-.6.6-.9 1 .2.1.3.2.5.4.3-.2.6-.4.9-.7 0-.1.1-.1.1-.2.1.2.3.4.4.6-.2.3-.4.6-.7.9.2.2.4.3.6.5.3-.3.5-.6.7-1 .3.2.4.4.7.6-.5.6-1 1.3-1.6 1.9-.2-.1-.4-.3-.6-.4-.1.2-.3.3-.5.5.2.2.3.4.6.7-.2.2-.5.4-.7.6l-1.9-1.9h-5.2c-.7.7-1.5 1.3-2.3 2-.2-.3-.5-.5-.7-.8.2-.2.3-.4.6-.6-.2.1-.3-.1-.5-.3-.2.1-.4.2-.6.4-.6-.6-1.1-1.2-1.7-1.9l.7-.7c.3.3.6.6.9 1 .2-.2.4-.3.5-.5-.3-.3-.6-.7-.9-1 .2-.2.4-.4.7-.6.3.3.6.6.9 1 .2-.2.4-.3.6-.5-.3-.4-.6-.7-.9-1 .2-.2.4-.4.7-.6.6.7 1.2 1.3 1.7 1.9-.2.2-.3.4-.5.6.2.2.5.4.7.6z"/><path class="dst1" d="M64.9 24.8h-5c-1.5-1.4-2.9-2.8-4.3-4.2V10.3C57 8.8 58.5 7.4 60 5.9h5l4.3 4.3v10.1c-1.5 1.6-3 2.9-4.4 4.5z"/><path class="dst0" d="M85.2 59.4c-3.8-2.8-6.6-12.7-3.1-19.3 1.4-.6 2.9-1.3 4.5-2-.6 1.3-1.2 2.4-1.7 3.6-1.7 3.8-2.3 7.9-1.7 12 .2 1.9 1 3.6 1.9 5.2 0 .1 0 .2.1.5zM99.6 60.5c-.7 1-1.4 1.9-2.4 2.5-1.1-.6-1.7-1.6-2-2.7-.1-.4-.2-.9-.2-1.3 0-3-.1-5.9-.1-8.9v-.3c1-.5 2-1 3.1-1.6v.8c0 2.7 0 5.3-.1 8-.1 1.4.2 2.8 1.7 3.5z"/><path class="dst1" d="M51.2 11.5s-.1 0-.2-.1-.2-.1-.4-.1c.1.3.3.6.4.8l-.1.1c-.4-.3-.8-.5-1.2-.8-.2.3-.5.6-.8.9 0 0-.1 0-.1-.1 0-.3.1-.6.1-1-.4.3-.8.5-1.2.8l-.1-.1c.1-.2.3-.4.5-.7-.4.2-.7.3-1 .5.1-.4.3-.7.4-1.1-.3.1-.6.3-.9.4l-.1-.1c.1-.1.1-.2.2-.3.4-.3.5-.8.5-1.2v-.5c0-.6.1-1.3.9-1.6-.1-.2-.3-.3-.4-.4h-.8c-.1-.3-.2-.6-.4-.9 0-.3.3-.4.6-.4.5-.1.9-.2 1.2-.6.4-.4.9-.3 1.4-.2.3.1.5.2.7.3.3 1.1.8 2.1 1.5 3.1-.1 0-.1.1-.2.1 0 .1.1.2.1.3-.1 0-.3.1-.4.1-.1.2.2.8.8 1.4h-.7c-.1.5-.2.9-.3 1.4zM73.5 10.7c-.1.1-.3.2-.5.5.1-.4.1-.6.2-.9h-.6c.3-.5.6-.9.9-1.4h-.7l.4-.4c-.1-.4.5-1.8 1-2.3 0-.3.1-.6.1-.9.3-.1.7-.4 1.1-.4.3 0 .8 0 1 .2.4.4.8.5 1.4.6.3 0 .4.3.2.7-.1.2-.2.5-.3.6-.2.1-.5.2-.8.2.2.2.3.3.5.4V9c-.1.7.1 1.3.7 1.7l-.1.1-.9-.3c.1.3.2.6.4 1.1-.3-.2-.6-.3-.9-.5.2.3.3.5.4.7l-.1.1c-.4-.2-.8-.5-1.2-.8 0 .3.1.6.1 1 0 0-.1 0-.1.1-.3-.3-.6-.6-.8-.9-.4.2-.8.5-1.2.8l-.1-.1c.1-.3.3-.5.4-.9-.3.1-.5.2-.8.4.1-.3.3-.5.3-.8 0 .1 0 .1 0 0zM53.2 29.9h.7l4.5.9c3.2.6 6.3.4 9.5-.2l3-.6c.3-.1.7-.1 1-.1 0 .1 0 .1.1.2-.1.1-.2.2-.3.2-3.9 1.5-7.9 2.3-12.1 1.6-1.9-.4-3.7-.9-5.6-1.4-.2 0-.4-.1-.6-.2-.1 0-.1-.1-.2-.1v-.3zM46 14.9c-.3-.2-.5-.3-.7-.4.1.3.3.6.3.9 0 .3-.2.5-.3.7-.3-.3-.5-.6-.8-.7-.4-.2-.9.1-1.2.4-.2.2-.4.4-.6.7-.3-.3-.2-.5-.1-.8.3-.7.7-1.4 1-2.1.2-.5.5-1.1.6-1.7.1-.6-.3-.9-1-.7l-.3 1.2c-.8-.7-.6-2.1.4-2.6-.4-.4-.6-.9-.4-1.5.1-.3.4-.5.7-.7-.3.7.2 1.1.6 1.6.2-.6.5-1.2 1.4-1.2-.2.3-.5.7-.6 1-.1.4-.1.8-.1 1.2 0 1-.1 2-.5 2.9.4-.3.7-.6 1.1-.9.1.1.2.2.3.2l.4-.4c.3.1.1.8-.3 1l-1.2.6c1.1.1 1.4.4 1.3 1.3zM79.4 14.6c-.3 0-.5 0-.6.1-.1-.6 0-.7 1.1-1-.8-.4-1.7-.6-1.5-1.8.2.2.4.4.6.7.1-.2.1-.3.2-.4.3.3.6.7 1.1 1.1v-.5c-.3-.9-.4-1.8-.3-2.7 0-.7 0-1.4-.6-1.9.7-.1.9.1 1.3 1.1.1-.5.3-.9.7-1.3.5.2.1.7.3 1-.2.2-.3.4-.4.7 1.4.7.8 1.8.8 2.9-.8-.3-.1-1.4-.9-1.6-.6.2-.7.4-.6.9.1.4.2.8.4 1.2.3.7.7 1.5 1 2.2v.7c-.9-.6-1.7-1.2-2.6-.2-.5-.4-.1-.8 0-1.2z"/><path class="dst0" d="M87 65.4c-.2 0-.4.1-.6.1l-.1-.1 3.3-7.2c1.2-2.5 2.4-4.9 3.5-7.4.7-1.6 1-3.3 1.2-5v-.5c.2.2.3.4.6.6-.1.8-.3 1.7-.5 2.5-.4 2.2-1.4 4.1-2.4 6.1-1.8 3.5-3.6 7.1-5 10.9z"/><path class="dst1" d="M56.2 25.5c1.8.2 3.6.3 5.4.6 1 .2 1.9-.1 2.8-.1 1.4-.1 2.7-.3 4.1-.5.4 0 .8-.1 1.2-.1.1 0 .2.1.4.3-.6.2-1.1.3-1.6.4-3.8.9-7.6 1-11.4.1-.4-.1-.8-.2-1.3-.3 0-.2-.3 0-.2-.3.1-.3.4 0 .6-.1zM64.9 24.8c.2-.2.3-.5.5-.7l3.3-3.3c.3-.3.5-.6.5-1.1v-9c0-.4-.1-.7-.4-1l-3.5-3.5c-.3-.3-.6-.4-.9-.4h-3.8c-.3 0-.7.2-.9.4-1.2 1.2-2.4 2.4-3.6 3.5-.3.3-.4.7-.4 1.1v8.8c0 .3-.1.6-.1.8 0-.2-.1-.3-.1-.5v-9.7-.1l4.4-4.4h5l4.4 4.4v10.2c-1.4 1.6-2.9 3-4.4 4.5z"/><path class="dst0" d="M110.4 44.7c.8-.7 1.5-1.3 2.3-2 .6.7 1.2 1.4 1.9 2.1-.7.7-1.4 1.3-2.2 2.1-.7-.8-1.3-1.5-2-2.2zM96.7 46.9c-.7-.8-1.3-1.4-2-2.1.7-.7 1.4-1.3 2.2-2l2 2c-.7.6-1.4 1.3-2.2 2.1z"/><path class="dst1" d="M71.4 10.3c-.3-.1-.6-.1-.8-.2V10c.2-.1.4-.2.6-.4v-.1h-1.3c.1-.3.2-.5.4-.7l-.1-.1c-.2.1-.4.2-.7.3-.1 0-.3-.1-.5-.1 0 .1 0 .2-.1.3-.1-.1-.1-.2-.1-.2-.1-.5.3-.7.6-.9-.2-.3-.3-.5-.6-.9.3-.1.6-.1.9-.1.1-.3-.1-.4-.5-.3v-.1c.2-.1.4-.2.7-.3l.6.3c.1 1.4 1.1 2.1 2.2 2.7-.3.4-.7.7-1 1.1-.1 0-.2-.1-.3-.2zM78.3 31.1c-3.5-.9-6.3.8-9.2 2.5-.2-.6-.4-1.1-.5-1.7.1 0 .1-.1.2-.1.2.3.5.6.7.9 1-.8 2.1-1.4 3.2-1.9 1.3-.5 2.6-.5 3.9-.5.6 0 1.2.3 1.7.8zM52.7 10.5c-.2-.4-.5-.8-.7-1.2.1-.1.3-.2.4-.3.7-.5 1.4-1 1.6-2 0-.3.4-.5.6-.8.3.2.5.3.9.4-.3 0-.4.1-.6.1V7c.3.1.5.1.8.2-.2.3-.3.5-.4.8.6.4.7.5.5 1.1-.1-.1-.1-.2-.2-.3-.2 0-.3.1-.5.1l-.6-.3c-.4.4.2.5.2.7-.4.4-.8 0-1.4.1.3.2.5.3.7.4-.3.4-.6.3-1 .2v.2c0 .3-.1.4-.3.3z"/><path class="dst0" d="M10.4 54.4c-2.2-2.9-2.1-9.2-.1-12.3.2.4.1.7 0 1.1-.3 1.2-.7 2.3-.8 3.5-.3 2.4 0 4.8 1 7.1.2.3.2.3-.1.6z"/><path class="dst1" d="M54.6 32.7c.2-.3.5-.6.7-.9.1 0 .1.1.2.1 0 .6-.3 1.1-.4 1.7l-2.7-1.5c-1.3-.7-2.7-1.1-4.2-1.4h-.8c-.3 0-.5 0-.8-.1 1.9-.8 5-.3 8 2.1z"/><path class="dst0" d="M40.7 51.4c-.5.2-.5.7-.5 1.1 0 2.8 0 5.7-.1 8.5v.7c-1.3.6-2.4 1.5-3.7 1.9 0-.1-.1-.2-.1-.2 1.1-.6 2.3-1.3 3.5-1.9v-.8-8.4c-.1-.8.1-1 .9-.9zM34.7 61.7c-1 .6-2 1.2-3 1.7-.2.1-.5.1-.8.1 0-.1 0-.1-.1-.2 1.1-.6 2.3-1.3 3.4-1.9v-.8-8.4c0-.7.2-.9 1-.9-.6.3-.6.8-.6 1.3v8.2c.1.3.1.6.1.9zM84.7 47.5c0 .5-.1 1.1-.1 1.6-.1 2.3 0 4.6.7 6.9.2.8.5 1.5.7 2.2 0 0-.1 0-.1.1-.3-.6-.6-1.2-.8-1.8-.9-2.6-1.1-5.3-.9-8.1 0-.6.1-1.2.2-1.8.2 0 .3.2.4.3-.1.3 0 .4-.1.6z"/><path class="dst0" d="M84.7 47.5v-.4c-.1.2-.1.2-.2.3-.1-.3-.1-.5-.2-.7.4-2.8 1.5-5.3 2.9-7.8l.3-.3c.4.2.3.5.1.8-.9 1.4-1.6 3-2.1 4.6-.3 1.1-.5 2.3-.8 3.5zM115.1 61.1c0-1.7.1-3.5.1-5.2v-6.6c0-.3-.1-.6.4-.8 0 .2.1.4.1.6v10.5c0 .8-.1 1.6-.1 2.3 0 .1-.1.3-.1.4-.3 0-.3-.2-.2-.4 0-.2 0-.5-.2-.8zM10.2 63.3c1.5.3 3.1.5 4.6.8 1-1.1 1.6-2.4 2.5-3.4.1 0 .1.1.2.1 0 .1 0 .3-.1.4-.7 1.1-1.5 2.3-2.2 3.5-1.1-.2-2.3-.3-3.4-.5-.7-.1-1.4-.4-2.1-.6 0-.4.2-.2.5-.3z"/><path class="dst0" d="M115.1 61.1c.1.3.2.6.2.8V64c-.1 1.4-.6 2.6-1.6 3.6-.9 1-1.9 1.9-2.9 2.8-.1.1-.3.2-.5.2l-.1-.1c.2-.1.3-.3.5-.4 1.1-.9 2.1-2 2.9-3.2.8-1.1 1.1-2.3 1.2-3.6.2-.8.3-1.5.3-2.2zM99.1 59.3c-.5-.4-.6-1-.6-1.6V52v-2.8c0-.2 0-.5.1-.8.4.2.4.5.4.8 0 1.1 0 2.2-.1 3.3 0 1.5-.1 3.1-.1 4.6.1.8.3 1.4.3 2.2zM44.5 49c.6.4.8 1 1 1.6.1.4.1.9.1 1.3v5.5c0 .7.1 1.4.2 2-.3-.2-.5-.4-.6-.9-.1-.3-.1-.7-.1-1V52c.1-1.2-.1-2-.6-3zM27.4 59.6c-.3-.2-.4-.5-.4-.8 0-1.2-.1-2.4-.1-3.5 0-.7.1-1.3.1-2 .1-1.3 0-2.5-.6-3.7.5.3.7.9.8 1.4.1.6.2 1.3.2 2 0 1.3-.1 2.7-.1 4 0 .8.1 1.7.1 2.6z"/><path class="dst1" d="M63.2 29.4c0 .3.1.6.1.8-.1 0-.1.1-.2.1-.2-.1-.4-.2-.7-.4-.3.2-.6.4-1.1.7.1-.5.3-.8.4-1.2-.2-.2-.4-.4-.7-.6l.9-.3c.1-.3.3-.7.4-1.1.2.5.4.9.5 1.3.2 0 .5.1.8.1-.1.2-.2.4-.4.6z"/><path class="dst0" d="M19.3 43.1l.2.2c0 .1 0 .2-.1.2-1.1.9-2.3 1.5-3.7 1.8-.7.1-1.5 0-2.1-.6.2 0 .3-.1.3 0 .9.5 1.8.2 2.7-.2.9-.5 1.8-1 2.7-1.4z"/><path class="dst1" d="M67.2 27c.2.3.3.6.4.9.3 0 .6 0 1 .1-.3.3-.5.4-.8.7.1.3.2.6.3 1l-.9-.6c-.2.2-.5.3-.9.6.1-.4.2-.7.3-1-.2-.2-.4-.4-.8-.6.4 0 .7-.1 1-.1.1-.4.2-.6.4-1zM46.6 26.5c1.7-.1 3.3.3 5 .8-.1.3-.2.5-.3.7l-2.4-.9c-.8-.2-1.6-.4-2.4-.5.1 0 .1 0 .1-.1zM57 28.6c-.3-.2-.5-.4-.8-.6.4 0 .7-.1 1-.1.1-.3.2-.5.4-1 .1.4.2.6.4 1 .3 0 .6.1 1 .1-.3.2-.5.4-.7.6.1.3.1.6.3 1-.3-.2-.6-.4-.8-.5-.3.2-.5.3-.9.6-.1-.5 0-.7.1-1.1z"/><path class="dst0" d="M97.2 47.3c.9-.9 1.7-1.7 2.5-2.6-.5-.5-.9-.9-1.3-1.4l.1-.1c.8.2 1.1 1 1.7 1.4-.6 1.2-2.3 2.7-3 2.7zM100.8 60.9c-1 1.3-2 2.5-3.3 3.3-.3-.2-.6-.4-.8-.6v-.1c.2.1.4.1.7.2 1-.7 1.9-1.6 2.7-2.5 0-.2.2-.5.7-.3zM22.2 59.7c-.3-.1-.4-.4-.4-.7-.2-1.4 0-2.7.5-4 .1-.3.4-.5.7-.7-.3.9-.6 1.8-.8 2.7-.1.8 0 1.8 0 2.7zM115.5 44.7c-.5-.5-.9-.9-1.3-1.4l.1-.1c.7.3 1 1 1.5 1.4-.6 1.1-2.2 2.6-2.9 2.7l2.6-2.6zM25.1 63.1c.2.1.4.2.5.3 1-.8 1.9-1.6 2.8-2.3 0 0 .1.1.3.1-.9 1-2 1.8-3 2.8-.3-.2-.5-.5-.7-.7.1-.1.1-.1.1-.2z"/><path class="dst1" d="M73.6 28.1c-.1-.3-.2-.5-.3-.7 1-.5 2.1-.6 3.1-.5 0 .1 0 .1.1.2-1 .3-1.9.6-2.9 1z"/><path class="dst0" d="M23 52.5c-.7-.3-1.1-1.1-1.9-1.2h-2.4c1-1.1 3.9-.3 4.3 1.2zM19.8 63.3c.2 0 .3.1.6.1.5-.4.9-.8 1.4-1.2.4-.4.8-.9 1.5-1.2-.2.6-1.7 2.1-2.8 2.9-.2-.1-.5-.3-.7-.5-.1 0-.1-.1 0-.1zM15.2 37.8c.6 1.4 1.1 2.9 2.4 3.9-.1 0-.3 0-.4-.1-.5-.4-1-.8-1.3-1.3-.4-.5-.6-1.2-.9-1.8-.1-.2 0-.4 0-.6 0-.1.1-.1.2-.1z"/><path class="dst1" d="M71.4 10.3c.1 0 .2.1.3.1.3.1.6.2 1 .3-.2.2-.3.4-.5.6.2 0 .3.1.5.1 0 .1 0 .2-.1.3h.7c-.1.2-.2.3-.3.4-.2-.1-.4 0-.5.2-.1.1-.3.2-.5.2.1-.1.3-.2.4-.4-.3-.3-.6-.5-1-.8.3-.1.5-.2.7-.3-.4-.1-.8-.2-1.2-.4.3-.1.4-.2.5-.3zM52.7 10.5c.1 0 .2-.1.3-.1.2 0 .4.1.6.1v.1c-.3.1-.7.3-1.1.4.2.1.4.2.5.3-.2.5-.6.6-1 .8h-.3c0 .1-.1.1-.1.2-.1-.1-.3-.2-.5-.5h.8c0-.1 0-.2-.1-.3.1 0 .3 0 .5-.1-.2-.2-.4-.4-.6-.7.5 0 .8-.1 1-.2z"/><path class="dst0" d="M10.2 63.3l-.6.3c-1.4-.4-2.7-1-3.8-1.9 1.4.5 2.9 1.1 4.4 1.6z"/><path class="dst1" d="M56.2 25.5c-.1.1-.2.1-.3.2h.1c0 .1-.1.1-.1.2-1.3-.2-2.4-.6-3.6-1v-.2c1.3.2 2.6.5 3.9.8z"/><path class="dst0" d="M46.7 60.9c-.5.9-1.3 1.6-2 2.4-.1.2-.4.2-.6.3l-.1-.1 2.4-2.7c.2-.1.2 0 .3.1z"/><path class="dst2" d="M60.2 6.9h4.3c.6.6 1.3 1.4 2 2.1.5.5 1 .9 1.4 1.4.2.2.3.5.3.8v8.3c0 .2-.1.5-.2.7-1.2 1.2-2.4 2.4-3.5 3.6h-4.3c-.6-.6-1.2-1.3-1.9-2l-1.4-1.4c-.3-.3-.4-.5-.4-.9v-8.2c0-.2.1-.6.2-.7 1.2-1.3 2.4-2.5 3.5-3.7z"/><path class="dst3" d="M50.8 7.2c-.2.3-.4.5-.7.8.1.2.2.4.4.7-.2.1-.3.2-.5.3-.1 0 0 .2 0 .5-.4-.2-.7-.3-.9-.4.1-.4.2-.7.2-1.1.1 0 .2.1.3.1.1-.2.2-.5.3-.7-.1-.2-.3-.4-.5-.7.6.2.9.3 1.4.5z"/><path class="dst1" d="M76.5 10.1c-.3-.2-.4-.3-.5-.4-.1.1-.2.2-.3.4-.2-.3-.3-.6-.4-.9-.2 0-.4.1-.7.2.2-.3.3-.6.4-.9-.3.1-.5.1-.9.2.2-.3.3-.5.4-.7-.2-.3-.4-.5-.7-.8.4-.2.8-.3 1.2-.4-.2.3-.3.5-.5.7.1.2.2.5.4.7.1 0 .2-.1.4-.1 0 .3-.1.5-.1.8h.3c.1.1.1.3.2.5.1-.1.2-.1.2-.2.1.2.2.3.4.5.1-.2.2-.3.2-.5h.1c0 .2 0 .5-.1.9z"/><path class="dst0" d="M115.5 49v10.6h-.1c0-3.5 0-7 .1-10.6zM57.5 59.8c.2-.4.3-.8.3-1.2.2-1.8.2-3.7.2-5.6 0-.8-.2-1.5-.4-2.3-.2-.8-.5-1.6-1.2-2.1-.6-.4-1.1-.4-1.6 0-.3.2-.6.5-.9.8-.6.5-1.2.9-1.9 1.5-.2-1.3-.7-2.4-1.9-2.9-1.2 1-2.4 2-3.5 3l.1.1c.1 0 .1-.1.2-.1.8-.5 1.5-.3 1.9.6.2.4.2.9.2 1.4.1 1.6.1 3.2.1 4.7 0 3.1-.1 6.1-.1 9.2 0 1.1-.2 2.2-1 3.2-.1.1-.2.3-.2.4l.1.1c.7-.5 1.5-1.1 2.2-1.6 1.2-1 1.9-2.2 1.8-3.9-.1-1.4 0-2.7 0-4.2 1.2.5 1.9 1.3 2.5 2.2 1.4-.8 2.4-1.9 3.1-3.3zm-2.3-3.4c0 1.1 0 2.1-.1 3.2v.9c-1-.9-1.9-1.9-3.2-2.2-.2-2.3-.3-4.6 0-6.9 1-1.2 2.2-1 2.7.3.3.7.4 1.6.5 2.4.2.7.1 1.5.1 2.3z"/><path class="dst0" d="M59 52c0-1.1-.4-2-1.1-2.8-.1-.1-.2-.1-.3-.3.3.6.5 1.1.7 1.6.2.5.3 1.1.3 1.6 0 1.9 0 3.8.1 5.7 0 1.7-.6 3-1.8 4.2-.4.4-.9.8-1.4 1.2l-.5.5c0 .1.1.1.1.2.2-.1.3-.1.5-.2 2.1-1.5 3.6-3.4 3.5-6.2-.1-1.8-.1-3.7-.1-5.5zM52.5 62.8V66c0 1-.4 1.8-1.1 2.5-.7.7-1.5 1.3-2.3 1.9-.2.1-.3.3-.6.4 1.1-.1 3.7-2.4 4.1-3.6.5-1.3.5-4.5-.1-5.1.1.3 0 .5 0 .7zM52.5 52.2c0 1.7 0 3.4.1 5.1 0 .2.1.3.2.5h.2v-.7c0-1.4-.1-2.8-.1-4.3 0-.6 0-1.2.7-1.6-.7 0-1.1.3-1.1 1zM125.7 57.8c.1-.8.2-1.7.2-2.5 0-1.5 0-3.1-.5-4.6-.4-1.2-1.1-2.2-2.4-2.9-1.3.8-2.5 1.6-3.8 2.4-.8.5-1.2 1.3-1.4 2.1-.4 1.9-.3 3.9-.2 5.8.1 2.1 1.3 3.5 3 4.8 1.6-1.6 3.2-3.1 4.7-4.6.3-.1.4-.3.4-.5zm-2.7 2.6c-.9.1-1.9-.5-2.2-1.3-.2-.6-.3-1.2-.3-1.8-.2-1.4-.1-6 .1-7.5 1 .4 1.7 1.1 2 2.1.2.7.4 1.4.5 2.2.2 1.3.1 4.7-.1 6.3z"/><path class="dst0" d="M126.7 51.2c-.1-.6-.3-1.1-.8-1.6-.1-.1-.2-.1-.2-.1.2.8.5 1.7.6 2.6.2 1.6.2 3.1.2 4.7 0 1.1-.4 1.9-1.2 2.7-1.1 1.1-2.3 2.2-3.4 3.3-.2.2-.3.4-.5.6.5.2.7-.1.9-.3 1.2-1.1 2.3-2.3 3.5-3.4.8-.7 1.2-1.6 1.2-2.7 0-1.9 0-3.9-.3-5.8zM121.6 52c0-.4 0-.8-.4-1.1 0 .1-.1.2-.1.3v6.6c0 .4.2.7.3 1.1h.2v-1.6V52z"/><g><path class="dst0" d="M68.8 57.5c0-1.6.1-3.2 0-4.7 0-.8-.3-1.7-.6-2.5-.4-1-1.1-1.8-2.2-2.4-1.3.8-2.6 1.6-3.9 2.5-.6.4-1 1-1.2 1.7-.2.9-.4 1.8-.4 2.7 0 1.3 0 2.7.2 4 .2 1.9 1.4 3.2 2.9 4.3 1.6-1.6 3.2-3.1 4.7-4.6.4-.3.5-.7.5-1zm-2.5-.1c0 .7-.1 1.5-.1 2.2 0 .3-.1.5-.1.8-1.5-.2-2.1-.8-2.4-2.2-.3-1.9-.2-3.9-.2-5.8 0-.9.1-1.8.2-2.8 1.3.5 2 1.4 2.2 2.7.4 1.7.4 3.4.4 5.1z"/><path class="dst0" d="M69.8 51.3c-.1-.8-.4-1.4-1.1-1.9.2.7.5 1.3.7 2 .3 2 .5 4.1.2 6.1-.1.5-.3.9-.5 1.3s-.6.7-.9 1c-1 1-2.1 2-3.1 3-.2.2-.3.4-.4.6l.2.2c.2-.1.5-.3.6-.4 1.3-1.2 2.5-2.5 3.8-3.7.5-.5.8-1 .8-1.7.1-2.3 0-4.4-.3-6.5zM64.6 51.8c0-.3 0-.6-.3-.9l-.1.1v6.8c0 .4.1.8.5 1.2 0-.7-.1-1.4-.1-2v-5.2z"/></g><g><path class="dst0" d="M108.7 60.7c-2.1-.6-3.6-1.9-4.3-4 1-.5 2-1 2.9-1.6 2-1.3 2.3-3.4.8-5.2-.5-.6-1.2-1.2-1.8-1.7-1.8 1.1-3.6 2.1-5.3 3.1 0 .3-.1.5-.1.7 0 1.3 0 2.6.1 3.9.2 3.3 2.4 6.1 5.7 7.2.6-.8 1.3-1.6 2-2.4zM104 50c1.4.5 2.8 2.4 2.6 3.8-.1.4-.3.9-.6 1.3-.5.5-1 .8-1.7 1.3-.8-2.2-.2-4.3-.3-6.4z"/><path class="dst0" d="M108.9 49.9l.3.6c.3.6.5 1.2.5 1.8-.2 1.5-.8 2.7-2.2 3.5-.7.4-1.5.8-2.2 1.2.4 1.1.8 1.6 1.4 1.8-.3-.5-.6-1.1-.8-1.6.8-.4 1.5-.8 2.2-1.2 1.1-.7 1.7-1.6 2-2.8.2-1.3 0-2.5-1.2-3.3zM108.8 61.6c-.6.8-1.3 1.5-1.9 2.3l-1.2-.3c0 .1 0 .1-.1.2.5.2.9.5 1.3.7 1-.8 2.6-2.9 2.7-3.5-.2 0-.3 0-.4.1-.1.1-.2.3-.4.5zM104.8 51.3h-.2c0 1.3-.2 2.5.1 3.8.3-.4.5-2.1.4-3.3-.1-.1-.3-.3-.3-.5z"/></g><path class="dst1" d="M65.7 14.5c.4-.2.6-.4.9-.5.5.5.6 1 .5 1.6-.2.7-.3 1.5-.6 2.2-.5 1.2-1.1 2.3-1.7 3.5-2-.7-2.6-2.5-3.1-4.4-1.6-.3-3.1-.8-3.8-2.5-.4-1-.4-2 .2-3.4.1-.1.3-.2.5-.3.2-.1.3-.2.6-.3-.1.2-.1.4-.1.6-.1.7-.2 1.5-.2 2.2.1 1.4 1.5 2.5 2.9 2.5.1-.2.1-.5.2-.8.3-.1.6-.3.9-.4.1-.1.2-.1.4-.1-.6 2.4-.4 4.5 1.6 6.3.2-.5.5-.8.6-1.2.3-1 .6-2.1.8-3.1 0-.7-.2-1.3-.6-1.9z"/><path class="dst1" d="M60.6 10.1c-1.1 1.5-.8 3.7.6 5.1-.9.1-1.8-.7-2-1.9-.2-1-.2-2.1.4-2.9.4-.6 1.2-.8 1.9-1.2.4.6.7 1.4 1.4 1.5-.8.8-1.3.7-2.3-.6zM64.4 19.7c-.2-.3-.5-.6-.7-1-.7-1.4-.8-2.8-.3-4.2.1-.2.3-.5.5-.6.3-.2.6-.3 1.1-.5-1.2 2.1-1.5 4.1-.5 6.3h-.1z"/></g></svg>