<svg xmlns="http://www.w3.org/2000/svg" id="chivas-18" viewBox="-5 -5 168 37" width="168" height="37" y="315"><style>.fst0 {fill: #a7a6a6;}.fst1 {fill: #878787;}
</style><path class="fst0" d="M16.4 12.9l4.1 4.1c.1.1.1.2 0 .2-.6.6-1.2 1.2-2 1.8 0 0-.1.1-.2 0l-4-4c-.1-.1-.1-.2 0-.2l1.9-1.9h.2zm8.4 8.4c-.5-.5-.7-.9-.7-1.2 0-.3.2-.7.6-1.2 1.2-1.6 2.1-3.5 2.1-5.3 0-2.9-1.4-4.8-3.3-5.8-.8-.4-1.7-.7-1.7-1.5 0-.5.8-1.4 1.4-2 .1-.1.1-.2 0-.2l-1.8-1.8c-.2-.2-.3-.2-.5-.2h-4.2c-.9 0-1.1-.1-1.9-.8L13.7.2c0-.2-.2-.2-.3-.2-.1 0-.3 0-.4.1l-1.1 1.1c-.7.8-.9.9-1.8.9H5.9c-.2 0-.3 0-.5.2L3.6 4.1c-.1.1-.1.2 0 .2.6.6 1.4 1.5 1.4 2 0 .8-.9 1.1-1.7 1.5-2 1-3.3 2.9-3.3 5.8 0 1.9.8 3.7 2.1 5.3.4.5.6.9.6 1.2 0 .3-.3.7-.7 1.2l-.8.8c-.1.1-.1.2 0 .2l1.8 2c.1.1.2.1.2 0l1-1c.4-.4.7-.5 1.1-.5.4 0 .8.1 1.5.6 2.2 1.5 6 3.6 6.5 3.6.1 0 2.2-.7 6.5-3.6.7-.5 1.1-.6 1.5-.6.4 0 .7.1 1.1.5l1 1c.1.1.2.1.2 0l1.9-1.9c.1-.1.1-.2 0-.2l-.7-.9zm-11.4 2.3S3 18.5 3 13.6c0-2.2 1.6-3.8 3.8-3.8 1.1 0 2.3.4 3.5 1.3.1.1.2.1.2 0l1.9-1.9c.1-.1 0-.2 0-.2L9.9 6.5c-.2-.3-.4-.6-.4-.9 0-.3.2-.6.7-.6h6.3c.5 0 .7.3.7.6s-.1.6-.4.8L6.2 17.1c-.1.1-.1.2 0 .2.6.6 1.2 1.2 2 1.8 0 0 .1.1.2 0 0 0 7.1-7.2 8-7.9 1.2-.9 2.5-1.3 3.6-1.3 2.2 0 3.8 1.6 3.8 3.8 0 4.8-10.4 9.9-10.4 9.9zm89.6-18l-.3.1c-.5.2-.7.4-1.1 1.4 0 0-5.8 14.5-5.9 14.7-.1.3-.2.5-.4.7-.2.2-.3.2-.6.2h-1.1c-.2 0-.4-.1-.6-.2-.2-.1-.2-.3-.4-.7-.1-.3-5.6-14.4-5.8-15-.3-.7-.4-.9-.8-1.1-.1-.1-.2-.1-.3-.1-.2-.1-.3-.2-.3-.4 0-.3.2-.5.6-.5h6.3c.5 0 .6.1.6.5 0 .3-.1.4-.6.5-.5.2-.7.3-.7.7 0 .2.1.4.1.6.1.2 3.4 9 3.4 9s3.2-8.6 3.4-9c.1-.3.1-.4.1-.6 0-.4-.2-.6-.7-.7-.5-.1-.6-.2-.6-.5s.2-.5.6-.5h4.9c.5 0 .6.1.6.5-.1.2-.2.3-.4.4zm-55.2 16c2.4 0 4-1.2 5.2-3.8.2-.5.4-.6.8-.6.4.1.5.4.4.9-.1.4-.4 2.3-.6 3-.1.3-.2.6-.5.8-1 .8-3.4 1.3-5.8 1.3-6.3 0-10.1-3.6-10.1-9.6 0-5.7 4-9.6 9.6-9.6 2.2 0 4.2.4 5.8 1.1.7.3.9.5.9 1.3.1.8.3 2.5.3 3.1.1.5-.2.7-.5.8-.4 0-.5-.2-.7-.7-1-2.2-2.9-3.8-5.3-3.8-3.4 0-5.2 3.1-5.3 7.5-.1 5.4 2.1 8.2 5.8 8.3zm69.5.3c-.2-.1-.3-.1-.3-.1-.5-.2-.7-.4-1.1-1.4-.5-1.1-5.8-14.7-5.9-14.9-.1-.2-.2-.4-.4-.5-.2-.1-.3-.2-.7-.2h-1.8c-.2 0-.4.1-.5.2-.1.1-.2.3-.3.5-.2.5-5.8 14.5-6.1 15.3-.2.5-.5.8-.9 1-.2.1-.5.2-.5.2-.2.1-.3.2-.3.4 0 .3.2.4.6.4h5.4c.4 0 .6-.1.6-.5 0-.3-.1-.4-.6-.5-.7-.2-1-.4-1-.8 0-.2.1-.5.2-.9 0-.1.3-.9.7-1.9h5.9c.5 1.3.8 2.2.8 2.3.1.2.1.4.1.6 0 .4-.2.6-.7.7-.5.1-.6.2-.6.5s.2.5.6.5h6.4c.5 0 .6-.1.6-.5.1-.2 0-.4-.2-.4zm-12.2-5.5c1-2.7 2.3-6.2 2.3-6.2s1.3 3.6 2.3 6.3l-4.6-.1zM74.2 5.7c-.9.2-1.2.7-1.2 2.1v11.9c0 1.4.3 1.9 1.1 2.1.5.1.6.2.6.5s-.2.4-.6.4h-6.6c-.4 0-.6-.1-.6-.5 0-.3.1-.4.6-.5.9-.2 1.1-.7 1.1-2.1v-5.3h-6.8v5.3c0 1.4.3 1.9 1.1 2.1.5.1.6.2.6.5s-.2.4-.6.4h-6.6c-.4 0-.6-.1-.6-.5 0-.3.1-.4.6-.5.9-.2 1.1-.7 1.1-2.1V7.8c0-1.4-.3-1.9-1.1-2.1-.5-.1-.6-.2-.6-.5s.2-.5.6-.5h6.6c.4 0 .6.1.6.5 0 .3-.1.4-.6.5-.9.2-1.1.7-1.1 2.1v4.9h6.8V7.8c0-1.4-.3-1.9-1.1-2.1-.5-.1-.6-.2-.6-.5s.2-.5.6-.5h6.6c.4 0 .6.1.6.5 0 .3-.1.4-.5.5zm8.4 2.1v11.9c0 1.4.3 1.9 1.1 2.1.5.1.6.2.6.5s-.2.4-.6.4h-6.6c-.4 0-.6-.1-.6-.5 0-.3.1-.4.6-.5.9-.2 1.1-.7 1.1-2.1V7.8c0-1.4-.3-1.9-1.1-2.1-.5-.1-.6-.2-.6-.5s.2-.5.6-.5h6.4c.4 0 .6.1.6.5 0 .3-.1.3-.6.5-.7.3-.9.7-.9 2.1zm47 2.3c-.3 0-.5-.2-.7-.6-.3-.6-.5-1-.8-1.4-.9-1.5-2.1-2.2-3.5-2.2-1.5 0-2.5.9-2.5 2.2 0 1.1.6 1.9 2.2 2.6.9.4 1.6.8 2.8 1.2 3 1.3 4.2 2.9 4.2 5.5 0 3.4-2.7 5.8-6.8 5.8-2.4 0-3.9-.5-4.9-1-.6-.3-.9-.6-1.1-1.6-.1-.6-.5-2.7-.6-3.4-.1-.5.2-.7.6-.7.3 0 .5.2.7.5.1.3.6 1.1.8 1.5 1 1.7 2.5 2.8 4.5 2.8 1.5 0 2.8-.9 2.8-2.4 0-1.3-.8-2.2-2.1-2.8-.8-.4-1.9-.9-3.2-1.4-2.4-1-3.7-2.8-3.7-5 0-3.3 2.7-5.5 6.6-5.5 1.3 0 2.8.3 4 .7.5.2.7.4.9.6.2.3.4.6.4 1.2 0 .5.2 2.3.2 2.8-.2.4-.4.6-.8.6z"/><path class="fst1" d="M157.7 16.3c-.2-.5-.5-1-.8-1.5-.4-.4-.8-.8-1.3-1.2-.5-.4-1-.7-1.6-1.1.5-.1.9-.3 1.3-.6.4-.2.8-.5 1.1-.9.3-.3.5-.7.7-1.1.2-.4.3-.9.3-1.4 0-.8-.2-1.5-.5-2-.4-.6-.8-1-1.4-1.4-.6-.3-1.2-.6-1.9-.7-.7-.2-1.4-.2-2-.2-.7 0-1.4.1-2.1.3-.7.2-1.3.5-1.8.8-.5.4-1 .8-1.3 1.4-.3.6-.5 1.3-.5 2.1 0 .5.1 1 .2 1.4.2.4.4.8.7 1.1.3.3.6.7.9 1 .4.3.7.6 1 .9-1.1.5-2 1.1-2.7 1.9-.7.8-1.1 1.8-1.1 3.1 0 .9.2 1.6.5 2.2.4.6.8 1.2 1.4 1.6.6.4 1.2.7 2 1 .7.2 1.5.3 2.2.3.8 0 1.5-.1 2.4-.2.8-.2 1.5-.4 2.2-.8.7-.4 1.2-.9 1.7-1.5.4-.6.7-1.4.7-2.4s-.1-1.6-.3-2.1zM150 5.7c.4-.4 1-.6 1.7-.6.5 0 .9.1 1.3.3.4.2.7.4.9.7.3.3.4.7.6 1.1.1.4.2.8.2 1.3 0 .7-.1 1.4-.3 1.9-.2.6-.6 1.1-1.2 1.5L152 11c-.5-.3-.9-.6-1.3-1-.4-.3-.7-.7-1-1.1-.3-.4-.4-.9-.4-1.3 0-.9.2-1.5.7-1.9zm3.8 15.6c-.6.5-1.3.8-2.3.7-.6 0-1.2-.1-1.6-.4-.5-.3-.9-.6-1.2-1.1-.3-.4-.5-1-.7-1.5-.1-.6-.2-1.1-.2-1.7 0-.7.2-1.4.6-2.1.4-.7.8-1.1 1.4-1.5.4.3.9.7 1.5 1.1.6.4 1.1.8 1.6 1.2.5.4 1 .9 1.3 1.4.4.5.5 1 .5 1.5 0 1.1-.3 1.9-.9 2.4zm-16.4 1.4v-1c.8 0 1.6-.3 1.6-2.1v-11c0-1.4-.4-1.6-2.1-1.6h-.4V6c2.2-.2 3.5-.7 4.9-1.5h.9c-.1 1-.1 1.8-.1 2.3v12.9c0 1.6.5 2 1.5 2v1h-6.3zm0 0v-1c.8 0 1.6-.3 1.6-2.1v-11c0-1.4-.4-1.6-2.1-1.6h-.4V6c2.2-.2 3.5-.7 4.9-1.5h.9c-.1 1-.1 1.8-.1 2.3v12.9c0 1.6.5 2 1.5 2v1h-6.3z"/></svg>