<svg xmlns="http://www.w3.org/2000/svg" data-name="Layer 1" viewBox="-5 -5 159 56" width="159" height="56" id="ciroc" y="352"><title>ciroc</title><g fill="#a7a7a7"><path d="M.13 21.18v-1.64H0v1.61h.12zM114.76 45.59h1.45a1.1 1.1 0 0 1 0-.14h-1.47a.69.69 0 0 0 .02.14zM5.3 45.59h1.29v-.14H5.3a.61.61 0 0 1 0 .14zM84.87 45.59h1.29a1.13 1.13 0 0 1 0-.16h-1.3a1.13 1.13 0 0 1 .01.16zM148.86 31.11v.82h.14v-.8h-.14z"/><path d="M.13 21.18L0 21.16v.64h.14v-.62zM.14 21.81H0v.48h.14v-.48zM.15 19.54v-.48H0v.48h.15zM.14 18.58H0v.48h.13v-.48zM70.72 22.26a6.44 6.44 0 0 0 5.3-6.7 6.8 6.8 0 0 0-5.28-7 13 13 0 0 0-3.34-.37H50.89a1.09 1.09 0 0 0-.89.13V32.6h4v-10h11.51a93.39 93.39 0 0 0 8.3 10h4.65c-3.06-3-6-6.75-9-10.21.54-.12.88-.04 1.26-.13zM62 20.16h-8v-8.8c0-.21.26-.14.49-.14h13.06c1.55 0 3 .23 4 1.66A4.45 4.45 0 0 1 68.18 20a60 60 0 0 1-6.18.16zM109.12 29.14c4.63-4.87 4.29-15-3.21-19.29a18.06 18.06 0 0 0-11.8-2c-6.3.91-11.81 4.94-12 12.6a11.63 11.63 0 0 0 4.49 10.07c3.09 2.41 6.7 3.06 10.49 3.1a19.83 19.83 0 0 0 3.52-.25 14.68 14.68 0 0 0 8.51-4.23zm-.62-7.26a9.13 9.13 0 0 1-7.5 8.28 14.66 14.66 0 0 1-3.61.35 14.15 14.15 0 0 1-6.53-1.24 9 9 0 0 1-5.21-8.85c.12-6 4.32-8.83 8.92-9.54a15 15 0 0 1 8.12.83c4.13 1.7 6.22 5.35 5.8 10.17z"/><path d="M9.09 32.72a21.45 21.45 0 0 0 9.54.56 15.8 15.8 0 0 0 7.07-2.66 11.57 11.57 0 0 0 3.7-4.5l-3.7-.76a9.15 9.15 0 0 1-6.49 4.73 18.19 18.19 0 0 1-6.63.17 11.3 11.3 0 0 1-4.85-1.81C5 26.58 4 23.89 3.8 20.73a8.83 8.83 0 0 1 5.56-9.06 15.31 15.31 0 0 1 8.64-.82c3 .52 5.58 1.69 7.1 4.52a.53.53 0 0 0 .15.11l3.63-.81a11.52 11.52 0 0 0-5.68-5.53 19.76 19.76 0 0 0-15.29-.42 11.42 11.42 0 0 0-7.77 9.86v3.71a12 12 0 0 0 8.95 10.43zM141.58 31.63a10.77 10.77 0 0 0 5.37-5.5l-3.69-.77a9.39 9.39 0 0 1-7.32 4.9 18.24 18.24 0 0 1-5.44.06c-5-.7-8.44-3.33-9.06-8.73-.54-4.78 1.55-8.8 6.71-10.37a13.09 13.09 0 0 1 3.85-.62c4.26 0 8.26.68 10.69 4.88l3.72-.82a12 12 0 0 0-5.7-5.55 21 21 0 0 0-11.79-1.36 14 14 0 0 0-7.72 3.64c-3.07 2.85-3.89 6.5-3.53 10.48.4 4.44 2.47 8 6.58 9.87a20.05 20.05 0 0 0 17.33-.11zM38 32.6h3v-24h-3v24zM39.35 3.28l5.15 3 1.42-2.46L39.35 0 33 3.68l1.42 2.44zM140.77 38.6c-1.17 2-2.31 4.4-3.51 6.7-1.24-1.47-2.38-2.87-3.53-4.24l3.33-2.53a2.06 2.06 0 0 0-1.86.32c-1.36 1.05-3.21 2-4.21 3.19v-3.5c-1-.12-1-.17-1 0v6.69a1.64 1.64 0 0 0 1-.07v-2c0-.53 1.29-.84 2-1.35 1 1.24 1.94 2.78 2.94 3.78h2.44c.29-1 .57-1 .85-2h4.16a5.42 5.42 0 0 0 .86 1.65 2.77 2.77 0 0 0 1.09 0c-1.17-2.24-2.33-4.64-3.46-6.64h-1.11zm-1.08 4c.53-1 1-2.05 1.61-3.23.58 1.16 1.07 2.23 1.6 3.23h-3.21zM97.78 38.51c-.9 1.87-1.73 3.75-2.66 5.7-.94-2-1.87-3.87-2.78-5.79-.48.06-1.34-.08-1.34.11v6.67a1.32 1.32 0 0 0 1 0V40a.76.76 0 0 1 .16 0l2.52 5.24a1.55 1.55 0 0 0 1 0c.84-1.73 1.5-3.48 2.35-5.22.06 0 0 0 0 .06v5.22c1 0 1 .09 1-.06v-6.73a2.1 2.1 0 0 0-1.25 0zM75.58 38.51c-.89 1.86-1.84 3.75-2.77 5.7-.93-1.95-1.68-3.84-2.59-5.74a2.8 2.8 0 0 0-1.22 0v6.71c0 .11 0 .12 1 0v-5.41c1 2 1.64 3.76 2.47 5.49a1.56 1.56 0 0 0 .89 0c.85-1.76 1.67-3.53 2.53-5.3a.24.24 0 0 1 .1 0v5.28a1.46 1.46 0 0 0 1 0V38.5a3.19 3.19 0 0 0-1.41.01zM28.48 42.47l.6-.23a2 2 0 0 0-.32-3.68 51.61 51.61 0 0 0-5.76-.13v6.81a1.63 1.63 0 0 0 1 0c.16-.85 0-1.6.18-2.6h3.14c.75 1 1.52 1.78 2.28 2.67a3.94 3.94 0 0 0 1.4-.06v-.15a19.42 19.42 0 0 1-2.52-2.63zm-4.4-.74a12 12 0 0 1 0-2.4h4.17a1 1 0 0 1 1 1 1.06 1.06 0 0 1-.64 1.18 2.15 2.15 0 0 1-.85.19c-1.24.04-2.44.03-3.67.03zM124.93 38.44H121v6.81c2 0 2.87.09 4.22 0 2-.17 3.09-1.6 3-3.74a3.13 3.13 0 0 0-3.29-3.07zm.51 5.87a4 4 0 0 1-.8.12H122v-5.12a17.68 17.68 0 0 1 3.58.1 2.36 2.36 0 0 1 1.68 2.4 2.41 2.41 0 0 1-1.82 2.5zM57.48 42.26a1.77 1.77 0 0 0 1.21-2 1.55 1.55 0 0 0-1.3-1.7c-1.86-.25-4.39-.09-5.39-.12v6.8c0 .06 0 .13 1-.11V42.6h2.76c.75 1 1.53 2 2.25 3h1.31c-.83-1-1.58-2-2.38-3a5.08 5.08 0 0 0 .54-.34zm-1.54-.53H53v-2.41h3.88a.94.94 0 0 1 .89 1.06 1.07 1.07 0 0 1-.7 1.19 2.8 2.8 0 0 1-1.13.16zM116.78 38.42c-2.49-.64-4.92.53-5.38 2.59a3.83 3.83 0 0 0-.07.48c-.21 2.22 1 3.61 3.43 4h1.47a3.54 3.54 0 0 0 .55-7.07zm1.71 4.33a2.41 2.41 0 0 1-1.69 1.67 4.37 4.37 0 0 1-2.69 0 2.53 2.53 0 0 1-1.78-2.87 2.63 2.63 0 0 1 2.39-2.33c.24 0 .48 0 .65-.06 2.35-.03 3.72 1.6 3.11 3.59zM62 44.6v-2h4.68c.09-1 .17-1-.13-1H62v-2h4.83a2.1 2.1 0 0 0 .05-.47 4.16 4.16 0 0 0 0-.53H61v7h6.15c0-1 .1-1-.12-1H62zM48.6 38.52a31.26 31.26 0 0 0-4-.07 5.27 5.27 0 0 0-1.6.08v6.75a5.78 5.78 0 0 0 2-.12V42.7c0-.21.39-.13.68-.14h2.91a1.77 1.77 0 0 0 1.81-1.88 2 2 0 0 0-1.8-2.16zm-.6 3.17h-3.45a1.3 1.3 0 0 1-.14-.8v-1.57h3.82a1.06 1.06 0 0 1 1 1.18A1.18 1.18 0 0 1 48 41.69zM34.36 38.51C33.25 40.68 32 42.9 31 45.11v.12a1.81 1.81 0 0 0 1.05 0 4.55 4.55 0 0 0 .79-1.57H37a5.35 5.35 0 0 0 .83 1.62 2.25 2.25 0 0 0 1.17-.11l-3.44-6.69a2.63 2.63 0 0 0-1.2.03zm-1 4.1c.56-1 1.06-2.11 1.62-3.21.54 1.09 1 2.21 1.59 3.21h-3.25zM88 38.61v4a1.57 1.57 0 0 1-.56 1.51 3.7 3.7 0 0 1-3.54.17c-1.01-.48-.9-1.43-.9-2.29v-1.77a5.6 5.6 0 0 0-.09-1.72 1.29 1.29 0 0 0-.87.05v4.78a2 2 0 0 0 .89 1.54 3.46 3.46 0 0 0 1.95.75h1.3a2.54 2.54 0 0 0 2.76-2.07 32.88 32.88 0 0 0 .08-5 1 1 0 0 0-1.02.05zM8.49 38.56v4A1.57 1.57 0 0 1 8 44a3.62 3.62 0 0 1-3.52.32c-1.03-.39-1.03-1.32-1.03-2.21v-3.55a1 1 0 0 0-.93 0 .51.51 0 0 0-.07.16v3.45c0 2.18.66 2.94 2.86 3.29H6.6c1.23-.18 2.51-.46 2.77-1.88a27 27 0 0 0 .09-5.1 1.59 1.59 0 0 0-.97.08zM109.92 38.54l-2.58 5.56-2.66-5.61a1.45 1.45 0 0 0-1.07.28 55.77 55.77 0 0 1 3.2 6.83h1.06a60.75 60.75 0 0 1 3.2-7 2.87 2.87 0 0 0-1.15-.06zM15.61 38.6c-.13 0-.16 0 .09 1H18v5.68c1 0 1 .07 1-.11V39.6h3c.07-1 .13-1-.06-1h-6.33zM13 44.6v-6.05c-1-.15-1-.15-1 0v7.05h5c0-1 .11-1-.15-1H13zM79 38.52v6.71a1.82 1.82 0 0 0 1 0v-6.77a2.11 2.11 0 0 0-1 .06zM148.86 31.11a1.28 1.28 0 0 0-1.85-.67l.21.16a1.17 1.17 0 0 1 .8.07 1 1 0 0 1 .47 1.27c-.08.3-.25.29-.45.09v.51l.19.16a1.13 1.13 0 0 0 .69-.77v-.82z"/><path d="M148 32.6s-.36 0-.46-.06h-.21a2.46 2.46 0 0 1-.22-.13l.17.13-.28-.12c-.64-.7-1-1.05 0-1.6v-.22h.09a.16.16 0 0 0 .14-.07.38.38 0 0 0-.21-.1 1.22 1.22 0 0 0-.61 1.65 1.42 1.42 0 0 0 1.79.64.3.3 0 0 1-.2-.13z"/><path d="M147.72 32.6l.35.14h.13l-.2-.19zM148.06 30.95c.47.37-.32.73 0 1.1.2.19.37.2.45-.09a1 1 0 0 0-.47-1.27v.12a.48.48 0 0 0 .02.14z"/><path d="M148.06 30.95l-.19.18c0 .4-.24.29-.45.3a.21.21 0 0 0 0 .34c.4-.07.34.45.64.5v-.22c-.32-.37.47-.74 0-1.1z"/><path d="M147.39 31.76v.78l.32.06.29-.05v-.29c-.28-.05-.21-.57-.61-.5zM147.09 30.79h.91v-.12a1.17 1.17 0 0 0-.8-.07z"/><path d="M147.08 31.71v-.89c-.64.55-.64.9 0 1.6l.19.13h.14v-.3c-.41.02-.32-.32-.33-.54z"/><path d="M147.07 32.42l.19.13" stroke="#4d4d4d" stroke-linecap="round" stroke-linejoin="round" stroke-width="0"/><path d="M147.08 31.71c0 .22-.13.56.32.54v-.49a.21.21 0 0 1 0-.34c0-.4.23-.31.45-.3l.19-.18a.48.48 0 0 1 0-.14h-1c.03.32.02.62.04.91z"/><path d="M147.42 31.42c.21 0 .49.1.45-.3-.22-.01-.49-.12-.45.3z"/></g></svg>