<svg xmlns="http://www.w3.org/2000/svg" id="don-julio" viewBox="-5 -5 161 72" width="161" height="72" y="408"><style>.hst0 {fill: #a8a8a8;}
</style><path class="hst0" d="M141.8 27.5c-3 .4-4.5-3.2-5-7-.5-4 .2-8.1 3.2-8.4 3-.3 4.6 3.4 5 7.2.4 4.3-.3 7.8-3.2 8.2m-.8-17c-5.3 0-9.5 3.6-9.5 9.3 0 6.3 4.5 9.2 9.5 9.2 5.2 0 9.2-3.6 9.2-9.5s-4.3-9-9.2-9M44.9 27.6c-3 .4-4.5-3.3-5-7.1-.5-4 .2-8.1 3.1-8.5 3-.3 4.6 3.5 5 7.3.4 4.4-.2 7.9-3.1 8.3m-.8-17.1c-5.3 0-9.5 3.6-9.5 9.4 0 6.3 4.5 9.3 9.5 9.3 5.2 0 9.3-3.6 9.3-9.6s-4.5-9.2-9.3-9.1M33 42.9c-.8.4-1.6.7-2.4 1 1.5.6 3.1 1.3 4.8 2 .3.1.6.2.9.4.7-.3 1.5-.7 2.2-1-1.8-.9-3.6-1.7-5.5-2.4"/><path class="hst0" d="M38.5 45.2c-.7.4-1.5.7-2.2 1 .1.1.3.1.4.2.7-.3 1.5-.7 2.2-1-.1 0-.2-.1-.4-.2M23.4 45.6v.3c2.3-.2 4.7-.9 7.3-2-.1-.1-.3-.1-.4-.2-2.5 1-4.8 1.7-6.9 1.9"/><path class="hst0" d="M32.6 42.7c-.8.4-1.6.7-2.4 1 .1.1.3.1.4.2.8-.3 1.6-.7 2.4-1-.1-.1-.2-.1-.4-.2"/><path class="hst0" d="M30.2 43.8c.8-.3 1.6-.7 2.4-1-2.3-.9-4.7-1.8-6.9-2.4-.4.5-.7.9-1.1 1.5 1.9.4 3.7 1.1 5.6 1.9M23 45.6v.3h.3v-.3H23"/><path class="hst0" d="M24.7 41.8c-.2 0-.3-.1-.5-.1-.7 1.2-1.1 2.5-1.2 4h.4c.1-1.4.6-2.7 1.3-3.9"/><path class="hst0" d="M25.7 40.3c-.2-.1-.4-.1-.5-.1-.4.5-.7 1-1 1.5.2 0 .3.1.5.1.3-.5.6-1 1-1.5M53.1 44.7c.4-.2.8-.3 1.2-.5 0-.1-.1-.2-.1-.3-.5.2-1.1.4-1.6.6.2.1.4.2.5.2"/><path class="hst0" d="M54.6 45.1l-.3-.9c-.4.2-.8.3-1.2.5.5.2 1 .3 1.5.4M52.6 44.5c0 .1 0 .1 0 0 0 .1 0 0 0 0M52.8 44.9c.2.5.4 1.1.5 1.6.6.2 1.2.3 1.7.4-.1-.6-.2-1.2-.4-1.7-.5-.1-1-.2-1.5-.4-.1 0-.2 0-.3.1M43.3 49.3c.1.1.3.1.4.2.6-.3 1.1-.6 1.7-.9.1-.1.3-.1.4-.2-.1-.1-.3-.1-.4-.2-.7.3-1.4.7-2.1 1.1M42.8 47.1c-1.2-.5-2.5-1.1-3.8-1.7-.7.4-1.5.7-2.2 1 2 .9 4.2 1.9 6.5 2.8.7-.4 1.4-.8 2.1-1.1-1-.3-1.9-.7-2.6-1"/><path class="hst0" d="M45.6 48c-.1.1-.2.1-.3.2.1.1.3.1.4.2 1.5-.8 3.2-1.7 5.1-2.6-.1-.1-.3-.1-.4-.2-1.6.7-3.2 1.6-4.8 2.4M52.6 44.6c0 .1.1.2.1.3.1-.1.3-.1.4-.2-.1 0-.3-.1-.5-.1M50.9 45.7c.8.3 1.6.6 2.4.8-.1-.5-.3-1.1-.5-1.6-.7.2-1.3.5-1.9.8M56.8 15.9v9.8c0 1.2-.6 1.7-2.3 2v1h9.4v-1c-1.3-.2-2-.6-2-1.9V14c.8-.5 2.3-1.2 3.6-1.2 1.4 0 2.6.7 2.6 2v10.9c0 1.2-.4 1.6-2 1.9v1h9.5v-1c-1.6-.3-2.3-.8-2.3-2.3V13.7c-.4-2.4-2.4-3.5-5.2-3.5-2 0-4.6 1-6.5 2.2 0-1.1.1-1.6.1-1.6v-.1l-.4-.5c-1.7.6-4.2 1.3-7.2 1.5v1.1c2.6.2 2.7 1.3 2.7 3.1M36.3 41.4c.7-.3 1.4-.7 2.2-1-.1 0-.2-.1-.2-.1-.1 0-.1-.1-.2-.1-1.9.9-3.7 1.8-5.5 2.6.1.1.3.1.4.2 1.1-.6 2.2-1.1 3.3-1.6M125.8 7.1c1.6 0 2.9-1.3 2.9-2.9 0-1.6-1.3-2.9-3-2.9-1.6 0-2.9 1.3-2.9 3 .1 1.5 1.4 2.8 3 2.8"/><path class="hst0" d="M50.9 45.7c.6-.3 1.3-.6 1.9-.8 0-.1-.1-.2-.1-.3-.7.3-1.5.7-2.2 1 .1 0 .2.1.4.1M39 51.4c.1.1.1.2.2.3 1.6-.7 3.1-1.5 4.5-2.2-.1-.1-.3-.1-.4-.2-1.4.7-2.8 1.4-4.3 2.1M38.9 45.4c1.8-.9 3.5-1.7 5.2-2.5-.1-.1-.3-.1-.4-.2-1.7.8-3.5 1.7-5.2 2.5.2.1.3.2.4.2M38.1 51.8c.1.1.1.2.2.3.3-.1.5-.2.8-.3 0-.1-.1-.2-.2-.3-.2 0-.5.2-.8.3"/><path class="hst0" d="M39 53.6c0 .9-.4 1.6-1.2 1.6-.2 0-.4-.1-.5-.6-.1-.3-.7-.3-.7.1 0 .6.7.7 1 .7 1.3 0 2-1 2-2.3 0-.5-.1-1-.4-1.5-.3.1-.5.2-.8.3.3.6.6 1.2.6 1.7M32.4 17.1c0-10-9-16.5-18.2-16.5C5.5.7 0 5.2 0 11c0 2.7 1.5 5.3 4.6 6.4l.1-.2c-1.7-1.2-2-2.7-2-4.2 0-3.3 3.4-7.1 10.8-7.1 7.2 0 14.1 6.4 14.1 15 0 5.9-2.7 7.7-5.9 7.7-1.8 0-3.1-.4-5.8-1.8-1.5-.8-3.2-1.7-4.9-2.2 3-1.2 4.6-3.3 4.6-6.1V6.3h-.2c-2.1 2-5.3 2.7-5.3 6.3v8.9c0 1.3-.1 2.2-.5 2.8-.5-.3-1.1-.3-1.5-.3-4.7 0-6.7 2.9-7.1 6.1h.2c.4-1.6 2-2.4 3.8-2.4 4.1 0 7.3 4.1 12.7 4 7.6 0 14.7-6.3 14.7-14.6M24.2 41.6c.3-.5.6-1 1-1.5-2.3-.6-4.5-1-6.5-1-.5 0-1 0-1.5.1-.2.4-.3.8-.4 1.3h.3c2.4 0 4.7.4 7.1 1.1M54.2 43.9c-.6-1.6-1.5-3-2.6-4.2-.6.2-1.2.4-1.7.7 1.2 1.2 2.1 2.7 2.8 4.2.5-.3 1-.5 1.5-.7M53.6 50.8l-.3 1.8c.4.1.8.2 1.2.2.2-.6.3-1.2.4-1.8-.4 0-.9-.1-1.3-.2M62.8 42.8c.1 0 .2.1.3.1v-.3c-.1 0-.2-.1-.3-.1v.3M45.7 41.8s.1 0 .1.1c.1 0 .2.1.3.1 1.1-.5 2.4-1.1 3.7-1.6l-.3-.3c-.2.1-.3.1-.4.2-1.1.4-2.2.9-3.4 1.5"/><path class="hst0" d="M66.9 47.1c0 3.1-3.8 4.4-7.9 4.5-1.3 0-2.7-.2-4.1-.4-.1.6-.2 1.2-.4 1.8 1.2.2 2.4.3 3.5.3 6.8 0 9.2-3.3 9.2-6.1 0-2.5-2-4-4.1-4.5v.4c2 .3 3.8 1.8 3.8 4M54.2 43.9c0 .1.1.2.1.3 2.4-.9 4.9-1.6 7-1.6.5 0 .9.1 1.4.2v-.3c-.5-.1-1-.2-1.5-.2-2.1 0-4.5.6-7 1.6M55 46.8c-.5-.1-1.1-.2-1.7-.4.2 1 .4 2 .4 3.1 0 .4 0 .8-.1 1.3.4.1.9.2 1.3.3.1-.7.2-1.5.2-2.3 0-.6 0-1.3-.1-2M49.9 40.3c.6-.2 1.2-.5 1.7-.7l-.3-.3c-.6.2-1.1.4-1.7.7.1.2.2.2.3.3"/><path class="hst0" d="M57.7 45.5c-1 0-2-.2-3.1-.4.2.6.3 1.1.4 1.7.5.1 1 .1 1.5.1 4.4 0 6.3-2.3 6.7-4.1-.1 0-.2-.1-.3-.1-.5 1.7-2.4 2.8-5.2 2.8M57.6 38.3c3.1 0 5.2 1.6 5.2 3.9v.2c.1 0 .2.1.3.1v-.2c0-2.7-2.3-4.3-5.5-4.3-1.8 0-4 .5-6.3 1.4l.3.3c2.1-.8 4.3-1.4 6-1.4M16.8 40.5c.1-.4.2-.9.4-1.3h-.4l-.3 1.2c.1.1.2.1.3.1M24.8 50.7c-.1 0-.2.1-.4.1.1.1.1.2.2.3.1 0 .3-.1.4-.1 0-.1-.1-.2-.2-.3"/><path class="hst0" d="M19 51.6c-5.4 0-8.5-2.3-8.5-6 0-2.7 2.3-4.8 6-5 0-.4.1-.8.3-1.2-4.2.6-6.6 3.3-6.6 6.3 0 4 3.5 6.3 8.8 6.3 1.8 0 3.7-.3 5.7-.8-.1-.1-.1-.2-.2-.3-1.9.4-3.8.7-5.5.7M49.6 40.1c.6-.2 1.2-.5 1.7-.7-1.2-1.2-2.5-2.2-4.1-3.1-.6.2-1.1.5-1.7.7 1.5.9 2.9 1.9 4.1 3.1M44.1 42.9c2.1.9 4.2 1.9 6.3 2.6.7-.4 1.5-.7 2.2-1-2.3-.7-4.6-1.8-6.5-2.6-.3.1-.5.2-.8.4-.3.2-.7.4-1.2.6M37.6 35.3c2.7 0 5.3.6 7.5 1.6.6-.3 1.1-.5 1.7-.7-2.4-1.2-5.3-1.8-8.6-1.8-2.3 0-4.8.5-7 1.4.3.1.7.2 1.1.3 1.7-.5 3.5-.8 5.3-.8M39.9 61.9c-5.6 0-10.3-2.5-10.3-7.1 0-.4.1-.8.2-1.2-.1 0-.2 0-.4-.1-.1.4-.1.8-.1 1.2 0 4.9 5 7.4 10.6 7.4 7.5 0 12.8-3.8 14.6-9.3-.4-.1-.8-.1-1.2-.2-1.2 5.2-5.7 9.2-13.4 9.3M24.1 35.8c1.5 0 3.3.4 5.2.9.6-.4 1.3-.7 1.9-1-2.1-.6-4.1-1-5.9-1-4.5 0-7.6 1.9-8.6 4.5h.4c.9-1.8 3.2-3.4 7-3.4M40.5 39.4c1.7-.8 3.3-1.6 5-2.3-.1-.1-.2-.1-.4-.2-1.7.7-3.4 1.5-5.1 2.3.2.1.3.2.5.2"/><path class="hst0" d="M30.2 37l2.1-.9c-.4-.1-.7-.2-1.1-.3-.7.3-1.3.6-1.9 1 .3 0 .6.1.9.2M25.1 51c-.1 0-.3.1-.4.1 1 1.2 2.5 2.1 4.6 2.5h.2c0-.1 0-.2.1-.3-1.8-.4-3.4-1.1-4.5-2.3M22.4 45.9h.6v-.3h-.6c-3.3 0-5.6-1.5-5.6-4.5v-.6h-.3v.6c0 3.3 2.4 4.9 5.9 4.8M128.6 25.4v-7.8c0-2.8 0-5.3.1-6.7l-.5-.6c-1.6.7-4.5 1.3-7.1 1.4v1c2 .1 2.4.8 2.5 2.5v10.2c0 1.1-.3 2-2.3 2.2v1h9.5v-1c-1.9-.2-2.2-1.1-2.2-2.2"/><path class="hst0" d="M25.2 40.2c.2 0 .3.1.5.1l1.5-1.5c.9-.7 1.9-1.3 2.9-1.8l-.9-.3c-1.5 1-2.9 2.1-4 3.5M118.1 25.4V8.9c0-2.7 0-5.3.1-6.7l-.5-.6c-1.6.7-4.5 1.3-7.1 1.4v1c2 .1 2.4.8 2.5 2.5v18.9c0 1.1-.3 2-2.3 2.2v1h9.6v-1c-2-.2-2.3-1.1-2.3-2.2M29.9 53.3c-.1 0-.2 0-.4-.1 0 .1-.1.2-.1.3.1 0 .2 0 .4.1 0-.1.1-.2.1-.3M38.9 39.8l1.2-.6c-2.5-1.1-5.2-2.3-7.8-3.1-.7.2-1.5.5-2.1.9 2.5.8 5.2 2 7.9 3.1.3-.1.5-.2.8-.3M43.7 42.7c.7-.3 1.3-.6 2-.9-1.6-.7-3.4-1.5-5.3-2.4-.7.3-1.3.6-2 .9 1.7.7 3.4 1.6 5.3 2.4"/><path class="hst0" d="M44.1 42.9l1.2-.6c.2-.1.5-.2.8-.4-.1 0-.2-.1-.3-.1 0 0-.1 0-.1-.1-.7.3-1.3.6-2 .9.2.2.3.2.4.3M38.1 40.2c.1 0 .1.1.2.1s.2.1.2.1c.6-.3 1.3-.6 2-.9-.1-.1-.3-.1-.4-.2l-1.2.6c-.3 0-.5.1-.8.3M107.4 25.4v-8.6c0-2.7 0-4.4.1-5.7l-.4-.6c-1.5.5-4.1 1.1-6.9 1.2v1.1h.5c1.1 0 1.6.3 1.6 1.5v11.5c-.7.5-2 1.1-3.4 1.1-1.5 0-2.8-.8-2.8-2v-8c0-2.7 0-4.4.1-5.7l-.4-.6c-1.8.6-4.3 1.1-7.4 1.2v1h.7c1.4 0 1.7.4 1.7 1.5v11.1c.3 2.5 2.6 3.9 5.2 3.9 2.2 0 4.9-.9 6.5-2.2v2s1.2-.3 2.6-.5c2-.2 4.6-.3 4.6-.3v-1c-1.6.2-2.3-.5-2.3-1.9"/><path class="hst0" d="M90.2 2.2l-.4-.7c-1 .5-2.1.5-3.1.6-3.3 0-5.6-2.1-9.5-2.1-3.6 0-5.8 2.6-6.6 5.4l.3.1c.5-1.2 1.8-1.8 3.1-1.8 2.9 0 5.3 2 8.4 1.8C81 6.9 80 8.2 80 10.8l.1 26.3c0 3.5-.9 4.9-2.8 4.9-1.6 0-2.8-1.5-4.6-3.9-3-3.9-5.2-6.2-10.3-6.2-3.1 0-6.6 1-9.1 1.8-.8.3-2.1.7-3.5 1.3l-3 1.2c.1.1.2.1.4.2.9-.4 1.8-.8 2.8-1.1 3.5-1.3 6.3-2 8.4-2 8.4 0 7.9 11.4 16.9 11.4 5 0 9.8-4.2 10.5-9.9.1-.5.2-1.7.2-2.6l-.1-23c0-3.3 1.4-5.6 4.3-7M34.5 50.3c1.6 0 2.8.7 3.6 1.5.3-.1.6-.2.8-.4-.8-1.2-2.5-2-4.2-2-2.7 0-4.6 1.6-5.3 3.8.1 0 .2 0 .4.1.7-1.7 2.3-3 4.7-3"/><path class="hst0" d="M38.3 52c-.1-.1-.1-.2-.2-.3-2.3.9-4.6 1.6-6.6 1.6-.5 0-1.1 0-1.6-.1 0 .1-.1.2-.1.3.5.1 1 .1 1.6.1 2.2.1 4.6-.6 6.9-1.6M45.1 36.9c.1.1.2.1.4.2.6-.3 1.1-.5 1.7-.7-.1-.1-.2-.1-.4-.2-.5.2-1.1.5-1.7.7M23.3 45.9H23v.5c0 1.5.4 3.1 1.5 4.4.1 0 .2-.1.4-.1-.9-1.1-1.5-2.6-1.5-4.4-.1-.1-.1-.2-.1-.4M45.3 48.6c-.5.3-1.1.6-1.7.9 3.2 1.3 6.5 2.5 9.7 3.2l.3-1.8c-2.7-.6-5.5-1.6-7.9-2.5-.1 0-.3.1-.4.2"/><path class="hst0" d="M36.3 46.3c-3.9 1.8-7.8 3.5-11.5 4.4.1.1.2.2.2.3 3.8-1 7.8-2.7 11.7-4.5-.1-.1-.2-.1-.4-.2M150.7 28.1c0 .1-.1.2-.2.3-.1.1-.2.2-.3.2-.1.1-.3.1-.4.1-.1 0-.3 0-.4-.1-.1-.1-.2-.1-.3-.2-.1-.1-.2-.2-.2-.3 0-.1-.1-.3-.1-.4 0-.2 0-.3.1-.4.1-.1.1-.2.2-.3.1-.1.2-.2.3-.2.1-.1.3-.1.4-.1.1 0 .3 0 .4.1.1.1.2.1.3.2.1.1.2.2.2.3.1.1.1.3.1.4 0 .1-.1.3-.1.4m.2-.9c-.1-.2-.2-.3-.3-.4-.1-.1-.3-.2-.4-.3-.2-.1-.3-.1-.5-.1s-.3 0-.5.1-.3.2-.4.3c-.1.1-.2.2-.3.4-.1.2-.1.3-.1.5s0 .4.1.5c.1.2.2.3.3.4.1.1.3.2.4.3.2.1.3.1.5.1s.3 0 .5-.1.3-.2.4-.3c.1-.1.2-.2.3-.4.1-.2.1-.3.1-.5s0-.4-.1-.5"/><path class="hst0" d="M149.7 27.6h-.2v-.5h.5s.1 0 .1.1v.2s0 .1-.1.1h-.1c-.1.1-.1.1-.2.1m.5 0c.1-.1.1-.2.1-.3 0-.1 0-.2-.1-.3-.1-.1-.2-.1-.4-.1h-.6v1.5h.2v-.6h.2l.4.6h.2l-.4-.6c.2-.1.3-.1.4-.2"/></svg>