<svg xmlns="http://www.w3.org/2000/svg" id="double-cross-vodka" viewBox="-5 -5 163 47" width="163" height="47" y="480"><style>.st0 {fill: #fff;}.ist1 {fill: #a9a9a9;}
</style><g id="iQHRfxO_1_"><path class="ist1" d="M6.9 9.2v-.3-6.7c0-.3 0-.3.3-.4 1-.5 2-1 3-1.6.1 0 .2-.1.3-.2v9.2h6.9v3.6H.1V9.3H6c.3-.1.6-.1.9-.1zM10.5 27.4H6.9v-2-2-2-2H0v-3.5c.2-.1 16.5-.1 17.3 0 .1.2.1 2.8 0 3.6h-6.9c.1 2.6.1 5.3.1 7.9zM66.7 13.9c.2.1.4.2.5.2.3.2.5.5.6.9V19.9c0 .4-.1.7-.1 1-.1.6-.5 1-1.1 1.2-.3.1-.6.1-.9.1H62.9V7h-.8c-.1-.5-.1-.9-.2-1.3h3.7c.3 0 .7.1 1 .1.7.2 1.1.6 1.2 1.3.1.4.1.8.1 1.2v3.4c0 .3 0 .5-.1.8-.1.5-.3.8-.7 1.1-.2.1-.3.2-.4.3zm-2.4 7c.3.1 1.1 0 1.4 0 .3-.1.6-.3.6-.6.1-.3.1-.6.1-.8v-3.4c0-.3 0-.6-.1-.9-.1-.4-.3-.6-.8-.7h-1.1-.1v6.4zm0-13.8v6c.5 0 .9 0 1.3-.1s.6-.3.7-.6c.1-.2.1-.5.1-.8v-3c0-.3 0-.7-.2-1-.1-.3-.3-.4-.5-.5-.5-.1-.9 0-1.4 0zM114 20.9h.8c.1.4.1.9.2 1.3h-2.4v-.3-5.3c0-.4 0-.8-.1-1.1-.1-.4-.3-.6-.7-.6-.4-.1-.9 0-1.3 0v7.4h-1.4V7.1h-.8c-.1-.5-.1-.9-.2-1.3H111.7c.3 0 .6 0 .8.1.8.2 1.3.7 1.4 1.6 0 .3.1.6.1.9v4.3c0 .7-.2 1.2-.8 1.5-.1 0-.1.1-.2.1.1 0 .1 0 .2.1.5.1.8.5.8 1v5.5zm-3.5-7.4c.5 0 .9 0 1.4-.1.3-.1.6-.3.6-.6 0-.2.1-.4.1-.6V8.4c0-.3-.1-.5-.1-.8-.1-.2-.2-.4-.5-.4-.1 0-.3 0-.4-.1h-1.1v6.4zM30.2 7.1h-.8c-.1-.4-.1-.9-.2-1.3H32.9c.2 0 .5 0 .7.1.9.1 1.4.6 1.5 1.5 0 .3.1.7.1 1v11c0 .5 0 .9-.1 1.4-.1.7-.5 1.1-1.2 1.3-.2 0-.4.1-.6.1h-2.9-.1c-.1-5-.1-10-.1-15.1zm1.5 0v13.8h1.2c.5-.1.8-.3.8-.9 0-.3.1-.6.1-1v-8.6-1.9c0-.3 0-.7-.1-1-.1-.3-.3-.4-.5-.5-.6 0-1 .1-1.5.1zM51.8 7.1H51c-.1-.4-.1-.9-.2-1.3h2.4v14.3c0 .2.1.4.2.6 0 .1.1.2.2.2.3.3.7.3 1.1.2.4-.1.6-.4.7-.8 0-.2 0-.3.1-.5v-.9V6.1v-.4h1.4V19.3c0 .4 0 .8-.1 1.2-.1.9-.7 1.5-1.5 1.7-.6.2-1.3.2-1.9 0-.8-.3-1.2-.8-1.4-1.6-.1-.4-.1-.8-.1-1.1V7.4c-.1-.1-.1-.2-.1-.3zM40.9 14V8.4c0-.3 0-.7.1-1 .1-.9.7-1.4 1.5-1.7.7-.2 1.4-.2 2.1.1.7.3 1.1.8 1.2 1.5.1.4.1.8.1 1.1v11.1c0 .3 0 .7-.1 1-.2 1-.8 1.6-1.9 1.8-.5.1-1 .1-1.5-.1-.9-.3-1.4-.9-1.5-1.9 0-.4-.1-.8-.1-1.2.1-1.6.1-3.4.1-5.1zm1.4 0v6.2c0 .3.1.6.4.8.7.4 1.5.1 1.7-.7 0-.2.1-.5.1-.7V8.8c0-.3 0-.6-.1-1 0-.2-.1-.4-.2-.6-.3-.4-.7-.4-1.1-.4-.4.1-.7.3-.8.8-.1.3-.1.6-.1.9.1 1.9.1 3.7.1 5.5zM119.7 14V8.2c0-.3 0-.6.1-.9.1-.8.6-1.3 1.4-1.6.7-.3 1.5-.2 2.2.1.7.3 1.1.8 1.3 1.6.1.4.1.8.1 1.2v10.8c0 .4 0 .9-.1 1.3-.2.9-.9 1.5-1.9 1.7-.4.1-.8.1-1.3 0-1-.2-1.6-.9-1.7-1.9 0-.4-.1-.8-.1-1.2V14zm1.4-.1v6.2c0 .3.2.7.5.8.7.4 1.5 0 1.6-.8 0-.3.1-.6.1-.8V8.8c0-.3 0-.6-.1-.9 0-.3-.1-.6-.4-.8-.6-.4-1.5-.1-1.7.6-.1.3-.1.6-.1.9.1 1.8.1 3.6.1 5.3zM130.4 15.9c.5-.1.9-.2 1.4-.3v4.1c0 .2 0 .4.1.6.1.4.4.6.8.6h.4c.4-.1.6-.3.7-.6.1-.2.1-.4.1-.6v-2.6-.6c.1-.6-.2-1.1-.7-1.6-.5-.5-1-1-1.5-1.4l-.7-.7c-.5-.5-.7-1.1-.7-1.8V7.9c0-.3 0-.6.1-.8.1-.6.5-1.1 1-1.3.9-.4 1.8-.4 2.7 0 .7.3 1 .9 1.1 1.7 0 .4.1.7.1 1.1V11.3c-.5.1-.9.2-1.4.3v-.3-3.1c0-.2 0-.4-.1-.6-.1-.4-.5-.7-.9-.7-.5 0-.9.2-1 .6-.1.2-.1.4-.1.6v2.6c0 .4.1.7.4 1 .2.2.4.5.6.7.6.5 1.1 1.1 1.7 1.6l.5.5c.3.3.5.7.5 1.2V20c0 .3-.1.7-.2 1-.2.7-.7 1.1-1.4 1.3-.7.2-1.4.2-2-.1-.7-.3-1.2-.8-1.3-1.6-.1-.3-.1-.6-.1-.9V16c-.1 0-.1 0-.1-.1zM146 11.3c-.5.1-.9.2-1.4.3v-.3-3c0-.2 0-.5-.1-.7-.1-.4-.4-.7-.9-.7s-.9.2-1 .5c-.1.2-.1.4-.1.6v2.7c0 .4.1.7.3 1l.6.6c.6.6 1.2 1.2 1.8 1.7l.1.1c.6.5.9 1.2.8 2v3.6c0 .3 0 .7-.1 1-.2 1-.8 1.5-1.7 1.7-.5.1-1.1.1-1.6-.1-.9-.3-1.4-.9-1.5-1.9 0-.3-.1-.6-.1-1v-3.3-.2c.5-.1.9-.2 1.4-.3V19.2c0 .3 0 .6.1 1 .2.8 1 1.1 1.7.7l.3-.3c.1-.2.2-.4.2-.7v-3.7c0-.3-.1-.5-.3-.7-.1-.2-.3-.3-.4-.5l-2.1-2.1c-.5-.5-.8-1.1-.8-1.8V7.9c0-.3.1-.6.1-.9.2-.7.6-1.1 1.3-1.4.7-.2 1.3-.3 2-.1 1 .3 1.5.9 1.6 2 .1.8 0 1.6.1 2.4-.3.6-.3 1-.3 1.4zM101.9 15.9c.5-.1.9-.2 1.4-.3v4.2c0 .3 0 .6-.1.8-.2 1-.8 1.5-1.8 1.7-.7.1-1.3.1-2-.2-.5-.3-.9-.7-1-1.2-.1-.4-.1-.7-.2-1.1v-.1V8.2c0-.4 0-.7.1-1 .2-.8.8-1.3 1.6-1.5.6-.2 1.2-.1 1.8 0 .9.3 1.4.9 1.5 1.8 0 .3.1.7.1 1v3.2c-.4.1-.9.2-1.4.3v-.3V9c0-.5 0-.9-.1-1.3-.1-.8-.8-1.1-1.5-.8-.3.1-.5.4-.5.7 0 .2-.1.3-.1.5V20.1c.2.8 1 1.1 1.7.7.2-.2.4-.4.4-.7.1-.4.1-.8.1-1.1v-2.9-.2zM86.3 5.8c.1.4.1.8.2 1.3h-2.6v6.1h2.3c.1.4.1.9.2 1.3h-2.6v6.4h2.7c.1.4.1.9.2 1.3-.2.1-3.7.1-4.3 0v-1.1V20v-1.1-1.1-1.1-1.1-1.1-1.1-1.1-1.1-1.1V9 7.9 6.8h-.8c-.1-.5-.1-.9-.2-1.3 1.7.3 3.3.3 4.9.3zM73.8 7.1H73c-.1-.4-.1-.9-.2-1.3h2.4V21h2.3c.1.4.1.9.2 1.3h-3.9V7.1zM111.2 36.2l.1-.1h.3c.3 0 .4-.1.4-.4v-.3-3.5-.4c0-.3-.1-.4-.4-.4h-.3-.1l-.1-.1.1-.1h.4c.7.1 1.5 0 2.2 0 .5 0 1 0 1.4.1 1 .3 1.6.9 1.8 1.9.1.8 0 1.6-.4 2.3-.4.7-1.1 1-1.8 1.1-.5.1-1.1 0-1.6 0h-1.8c-.1.1-.2.1-.2-.1zm4.4-2.6c0-.5 0-1-.2-1.5s-.5-.8-1-.8h-.7c-.2 0-.3.1-.3.3v4c0 .2 0 .3.3.3h.8c.2 0 .4-.1.6-.3.2-.2.3-.5.4-.8.1-.3.1-.7.1-1.2zM99.1 30.8c.5 0 .9.1 1.2.2.8.3 1.3.8 1.5 1.7.2.6.1 1.3 0 1.9-.3 1-1 1.6-2 1.8-.6.1-1.1.1-1.7-.1-1-.3-1.6-.9-1.8-1.9-.2-.7-.1-1.4.2-2.1.4-.9 1.2-1.4 2.1-1.5h.5zm-1.5 2.7c0 .3 0 .6.1.9.1.4.2.8.4 1.1.3.5.9.7 1.6.6.5-.1.7-.5.8-.9.2-.6.2-1.3.1-1.9 0-.4-.1-.9-.3-1.3-.3-.5-.6-.8-1.2-.7-.6 0-1 .3-1.2.9-.2.3-.3.8-.3 1.3zM144.2 36.3c.1-.2.2-.2.3-.2.5 0 .5-.3.4-.6-.1-.2-.1-.3-.2-.5 0-.1-.1-.1-.2-.1-.6 0-1.1 0-1.7.1-.1 0-.2.1-.3.2-.1.2-.1.3-.2.5-.1.3 0 .4.3.5h.4c.1 0 .1.1.1.1-.1 0-.1.1-.2.1h-2s-.1 0-.1-.1c0 0 0-.1.1-.1h.1c.3 0 .5-.2.6-.4.1-.2.2-.5.3-.7.6-1.3 1.2-2.6 1.8-4 .1-.2.2-.3.4-.2.1 0 .1.1.2.2.3.6.5 1.1.7 1.7.4.9.8 1.9 1.2 2.8 0 .1.1.2.1.2.1.2.3.4.5.3.1 0 .2 0 .3.1 0 .2-.1.2-.2.2H144.2c.1 0 .1-.1 0-.1zm.1-1.9c-.1-.3-.6-1.6-.8-1.7-.1.3-.3.6-.4.9-.1.3-.3.6-.4.9.6 0 1.1-.1 1.6-.1zM81.7 31c0-.1.1-.1.2-.1.6 0 1.1.1 1.7.1.2 0 .3.1.3.3.3.9.7 1.8 1 2.7 0 .1.1.2.1.4.1-.1.1-.2.1-.3.3-.7.5-1.4.8-2.1 0-.1 0-.1.1-.2.1-.3 0-.4-.3-.5-.1 0-.3 0-.4-.1 0-.1.1-.1.2-.1H87.4l.1.1s0 .1-.1.1-.1.1-.2.1c-.3 0-.5.2-.6.4-.2.4-.3.8-.5 1.2-.4 1-.7 2-1.1 2.9-.1.1-.1.3-.2.4-.1.2-.3.2-.4.2-.2 0-.2-.1-.3-.3-.5-1.4-1-2.7-1.5-4.1-.1-.2-.1-.3-.2-.5-.1-.3-.3-.4-.6-.4h-.3c.2-.1.2-.2.2-.2zM129.6 36.2c0 .1-.1.1-.2.1h-2.8c-.1 0-.2 0-.3-.1 0-.1.1-.1.2-.2h.4c.2 0 .3-.1.3-.3v-.2-3.9c0-.4-.1-.5-.5-.5h-.3l-.1-.1.1-.1h.2c.6 0 1.2 0 1.8.1h.1v4.9c0 .2.1.3.3.3h.5c.1-.1.2-.1.3 0z"/><path class="ist1" d="M130.1 31c.1-.2.2-.1.4-.1h1.8c.1 0 .1 0 .2.1 0 .1-.1.1-.2.1-.4 0-.8.2-1 .5-.3.4-.7.8-1 1.1-.2.2-.2.2-.1.4s.3.5.4.7c.4.6.7 1.2 1.1 1.8.1.1.1.2.2.3.1.1.3.2.5.2h.3l.1.1-.1.1h-1.9c-.1 0-.2-.1-.3-.2-.5-.8-1-1.6-1.5-2.3-.1-.2-.1-.3.1-.4.5-.6 1-1.1 1.6-1.7.1-.1.2-.2.2-.3.1-.2 0-.3-.2-.3-.3 0-.5.1-.6-.1zM57.2 5.5h.3v14.9c0 .3-.1.6-.1.8-.3 1.1-1.1 1.7-2.2 1.8-.8.1-1.6 0-2.3-.3-.3-.2-.6-.4-.8-.7l.1.1c.4.4.8.6 1.4.7.7.1 1.4.1 2.1-.2.8-.4 1.2-1 1.4-1.8.1-.4.1-.9.1-1.3V5.9v-.4zM62.6 22.9v-.3h2.9c.4 0 .8 0 1.3-.2.7-.2 1.2-.7 1.3-1.4.1-.4.1-.8.1-1.2v-4.6c0-.5-.2-1-.6-1.3 0 0-.1 0-.1-.1v-.1c.5-.5.7-1.1.7-1.7V8c0-.3-.1-.6-.1-.9-.1-.4-.2-.7-.5-1 0 0 0-.1-.1-.1.4.3.7.7.8 1.2.1.4.1.9.1 1.3v3.7c0 .7-.2 1.3-.7 1.8v.1c.5.4.6.9.6 1.4v4.9c0 .3 0 .5-.1.8-.2.9-.7 1.4-1.6 1.6-.3.1-.6.1-.9.1h-3.1c.2.1.1 0 0 0zM30 22.9v-.2h3c.5 0 .9-.1 1.4-.2.6-.3 1-.7 1.2-1.3.1-.4.1-.9.1-1.4V8.3c0-.3 0-.6-.1-.9-.1-.5-.2-.9-.5-1.3 0 0 .1 0 .1.1.4.3.6.7.6 1.2.1.4.1.7.1 1.1v11.6c0 .4 0 .7-.1 1.1-.2.9-.7 1.5-1.6 1.7-.3.1-.6.1-.9.1h-3.2s0-.1-.1-.1zM41.2 22c1 .9 2.2 1 3.4.6.8-.3 1.4-.9 1.5-1.7.1-.4.2-.7.2-1.1V8.4c0-.4 0-.7-.1-1.1-.1-.5-.3-.9-.6-1.3.1 0 .1.1.2.1.4.3.6.8.7 1.3.1.5.2 1 .2 1.5v10.8c0 .5 0 1-.1 1.4-.2 1-.8 1.6-1.8 1.9-1 .3-1.9.2-2.8-.3-.4-.2-.6-.4-.8-.7zM120 22c.4.4.9.6 1.5.8.7.1 1.5.1 2.2-.2.7-.3 1.1-.9 1.3-1.6.1-.4.2-.9.2-1.3V8.9 7.8c0-.7-.2-1.3-.7-1.8v-.1c.3.2.5.5.7.8.2.4.3.8.3 1.2v11.5c0 .5 0 1.1-.2 1.6-.2 1-.9 1.6-1.9 1.9-.9.3-1.8.2-2.6-.3-.3 0-.6-.3-.8-.6zM133.5 7.7c-.1 0-.2 0-.3-.1-.3 0-.5.1-.6.4 0 .1-.1.3-.1.4v2.2c0 .4.1.8.4 1.1l1.5 1.5.8.8c.2.2.3.4.5.6.3.4.4.8.4 1.3v4.2c0 .4-.1.8-.2 1.2-.3.9-1 1.5-1.9 1.7-.8.2-1.6.1-2.3-.2-.4-.2-.8-.5-1-.8.1.1.2.2.3.2.7.5 1.5.7 2.3.6.6 0 1.1-.2 1.6-.6.4-.3.7-.7.8-1.2.1-.4.2-.8.2-1.2v-4c0-.7-.2-1.2-.7-1.7-.6-.6-1.2-1.1-1.8-1.7l-.8-.8c-.3-.3-.4-.6-.4-1.1V8.4c0-.2 0-.4.1-.6.1-.4.4-.6.8-.5.2 0 .3.1.4.4zM144 7.7h-.2c-.4-.1-.7.1-.7.5 0 .3-.1.5-.1.8v1.9c0 .3.1.6.3.9.3.4.7.7 1 1.1.4.4.8.8 1.3 1.2.1.1.2.3.4.4.4.5.7 1 .7 1.7V20c0 .4 0 .8-.1 1.3-.2 1-.9 1.7-1.9 1.9-1 .3-1.9.2-2.8-.4-.3-.2-.5-.4-.7-.7.1 0 .1 0 .1.1.7.7 1.5.9 2.5.8.4 0 .9-.1 1.2-.4.6-.3 1-.8 1.2-1.5.1-.4.2-.8.2-1.2V16c0-.7-.2-1.3-.7-1.8-.6-.6-1.2-1.1-1.7-1.7-.3-.3-.5-.6-.8-.8-.3-.3-.4-.6-.4-1V8.5c0-.2 0-.4.1-.6.1-.3.3-.5.7-.5.2-.1.3 0 .4.3zM75.9 20.5h-.3v-15h.2c.1.2.1 14.7.1 15zM113.8 6c.4.2.6.5.7.9.1.4.2.8.2 1.3V13c0 .5-.1 1-.6 1.4.4.4.6.8.6 1.3V20.4h-.3v-.3-4.3-.2c0-.6-.1-1.1-.6-1.5l.1-.1c.4-.3.5-.7.5-1.2v-.6-4.4c0-.3-.1-.6-.1-.8-.1-.3-.2-.6-.4-.9-.1 0-.1 0-.1-.1z"/><path class="ist1" d="M54 20.7c-.1 0-.2-.1-.3-.3 0-.2-.1-.4-.1-.5v-.8V5.9v-.4h.3V19.8c0 .3 0 .6.1.9zM101.3 7.6c-.1 0-.2 0-.3-.1-.3 0-.5.1-.6.4 0 .1 0 .2-.1.3v10.9c0 .5 0 1 .1 1.4-.2 0-.3-.1-.3-.3-.1-.2-.1-.4-.1-.5v-.6V8.4c0-.3 0-.6.1-.8.1-.5.7-.7 1.1-.4 0 .3.1.3.1.4z"/><path class="ist1" d="M98.5 22c.1 0 .1 0 0 0 1.1 1 2.3 1.1 3.5.6.8-.3 1.3-1 1.5-1.8.1-.3.1-.7.1-1.1v-4-.3c.1 0 .2 0 .3-.1v4.8c0 .4-.1.8-.2 1.1-.3 1-.9 1.6-1.9 1.8-.9.2-1.7.2-2.5-.2-.3-.2-.6-.5-.8-.8zM87.3 15.2h-2.6v5.4h-.3v-5.7H87c-.1-.7-.2-1.3-.3-1.9h.3c.1.7.2 1.4.3 2.2zM84.4 7.5H87c-.1-.7-.2-1.3-.3-2h.3c.1.7.2 1.5.4 2.2h-2.6v5h-.3c-.1-1.7-.1-3.5-.1-5.2zM110.8 22.7v-7.5c.4 0 .7 0 1 .1.1 0 .1.1.2.2h-.9V23c-.2.1-2.1.1-2.3 0v-.3h2zM151.5 5.7c.8 0 1.5.7 1.5 1.5s-.7 1.5-1.5 1.5S150 8 150 7.2c0-.9.7-1.5 1.5-1.5zm-1.2 1.5c0 .7.5 1.2 1.2 1.2.6 0 1.2-.6 1.2-1.2s-.5-1.2-1.2-1.2c-.6 0-1.2.5-1.2 1.2zM103.9 12.5c-.8.1-1.5.3-2.3.4v-.3c.7-.1 1.3-.3 2-.4V12 8.5c0-.3 0-.7-.1-1-.1-.6-.3-1.1-.7-1.5h.2c.5.4.8.9.8 1.5.1.4.1.8.1 1.3v3.5c.1 0 0 .1 0 .2zM135 5.9c.6.4.9.9 1 1.5.1.4.1.8.1 1.2V11.9c-.8.1-1.5.3-2.3.4V12c.7-.1 1.3-.3 2-.4v-.2-3.2c0-.4-.1-.8-.1-1.1-.1-.4-.3-.6-.7-1.2zM146.7 11.9c-.8.2-1.5.3-2.3.4V12c.7-.1 1.3-.3 2-.4v-.1-3.4c0-.3-.1-.7-.2-1-.1-.4-.3-.8-.6-1.1.2.1.4.3.5.5.3.4.5.9.5 1.5 0 .4 0 .8.1 1.2v2.7zM82.3 22.9v-.3h5c-.1-.7-.2-1.3-.3-2h.3c.1.7.2 1.5.4 2.2-.3.2-5 .2-5.4.1zM78.2 22.7c-.1-.7-.2-1.3-.3-2h.3c.1.8.3 1.5.4 2.2h-5v-.2h4.6zM115.4 22.7c-.1-.7-.2-1.3-.3-1.9h.3c.1.8.3 1.5.4 2.3h-3.4v-.3h1.5c.5-.1 1-.1 1.5-.1zM132.2 15.4c.1 0 .2 0 .3-.1v3.9c0 .5 0 1 .1 1.5-.2 0-.3-.1-.3-.3-.1-.3-.1-.6-.1-.8V16v-.6zM143.2 20.7c-.2 0-.3-.1-.3-.3 0-.2-.1-.4-.1-.5v-4.4-.1h.2v4c0 .3 0 .8.2 1.3zM141.3 13.1c.9.9 1.8 1.6 2.6 2.5-.9-.7-1.8-1.5-2.6-2.5zM133.4 15.7c-.9-.8-1.8-1.7-2.6-2.6.2.2 2.5 2.4 2.6 2.6zM72.8 7.7v-.3h.6v.3h-.6zM51.4 7.7h-.6v-.3h.6v.3zM82.1 7.5v.3h-.6c0-.1 0-.1-.1-.2.3-.2.5-.1.7-.1zM61.8 7.5h.6v.3h-.5c0-.1 0-.2-.1-.3zM29.3 7.7v-.2c.2-.1.4 0 .6 0v.3c-.3-.1-.4-.1-.6-.1zM108 7.5h.6v.3h-.5c0-.1 0-.2-.1-.3zM65 20.5h-.3v-5.7c.3 0 .7 0 1 .1.1 0 .2.1.2.3H65v5.3zM65 12.7h-.3V7.5c.3 0 .7 0 1 .1.1 0 .2.1.2.3H65v4.8zM110.9 7.5c.3 0 .6 0 .9.1.2 0 .2.1.2.3h-.9v5.4h-.2c-.1-.4-.1-5.5 0-5.8zM32.3 20.5H32V7.4H32.9c.2 0 .3.1.3.3h-.9v12.8zM43.1 20.7c-.2 0-.3-.1-.3-.3 0-.2-.1-.3-.1-.5V19 9.1v-1V8c.1-.6.5-.8 1-.6.1 0 .2.1.3.3h-.2c-.4-.1-.7.1-.7.5v11.2c-.1.4-.1.8 0 1.3zM122.8 7.7c-.1 0-.2 0-.3-.1-.4-.1-.6.1-.7.5v11.4c0 .4 0 .8.1 1.1-.2 0-.3-.1-.3-.2 0-.2-.1-.3-.1-.5v-.7V9.1v-1V8c.1-.7.6-.7 1-.6.2 0 .3.1.3.3z"/><path class="ist1" d="M151.2 7.4V8h-.3V6.4h.9c.2 0 .3.2.4.4 0 .2 0 .4-.2.5 0 0-.1 0-.1.1.1.2.3.4.4.7-.2.1-.3 0-.4-.2-.1-.1-.1-.2-.2-.4-.2-.2-.3-.2-.5-.1zm0-.8v.5h.4c.1 0 .2-.1.2-.2s-.1-.2-.2-.2c-.1-.1-.2-.1-.4-.1z"/></g></svg>