<svg xmlns="http://www.w3.org/2000/svg" data-name="?? 1" viewBox="-5 -5 136 83" width="136" height="83" id="glenlivet" y="527"><title>glenlivet</title><g fill="#a7a7a7"><path d="M123.05 35.13a1.33 1.33 0 1 0 1.32-1.34 1.34 1.34 0 0 0-1.32 1.34zm.25 0a1.08 1.08 0 1 1 1.07 1.08 1.08 1.08 0 0 1-1.06-1.08z"/><path d="M123.83 34.41h.66a.45.45 0 0 1 .54.4.38.38 0 0 1-.33.39l.38.64h-.38l-.36-.59h-.17v.59h-.35v-1.43zm.35.26V35h.28a.18.18 0 0 0 .21-.17.17.17 0 0 0-.2-.15h-.29zM44.84.45h8.87A2.31 2.31 0 0 0 55.13 0l.55 4a3.65 3.65 0 0 0-3.32-2h-.88a.59.59 0 0 0-.66.59V12.8a2.22 2.22 0 0 0 1.07 2.2h-5.13a2.39 2.39 0 0 0 1-2.15V2.64a.59.59 0 0 0-.67-.59h-.88a3.78 3.78 0 0 0-3.36 2L43.5.09a1.94 1.94 0 0 0 1.34.36zM112.73 17.15h10.87a2.86 2.86 0 0 0 1.74-.54l.66 4.92a4.45 4.45 0 0 0-4.06-2.4h-1.07a.72.72 0 0 0-.81.71V35a2.72 2.72 0 0 0 1.3 2.64h-6.28A2.94 2.94 0 0 0 116.3 35V19.84a.72.72 0 0 0-.83-.71h-1.06a4.64 4.64 0 0 0-4.12 2.4l.79-4.81a2.47 2.47 0 0 0 1.65.43zM16.06 16.34s-.12 1.44-.24 3.52c-.08 1.39-.13 4.75-.13 4.75s-.37-5.73-6.21-5.73c-3 0-5.18 2.73-5.18 8.76 0 8 4 8.58 5.69 8.58.81 0 1.88-.2 1.88-1.38V29.6a3.44 3.44 0 0 0-1.76-2.6h7.15a3.36 3.36 0 0 0-1.61 2.64v4.65a3.06 3.06 0 0 0 .76 2.06 15.14 15.14 0 0 1-6.73 1.79c-3.62 0-5.76-1.17-7.32-3a11.12 11.12 0 0 1-2.35-7c0-5.77 2.18-8.37 4.31-9.77A10.57 10.57 0 0 1 11 17.12a7 7 0 0 0 5.06-.78zM74 36.3h6.2a2.69 2.69 0 0 1-1.28-2.42v-13a2.9 2.9 0 0 1 1.19-2.35h-6.22a2.69 2.69 0 0 1 1.27 2.35v13A2.9 2.9 0 0 1 74 36.3zM59.08 20.89a2.94 2.94 0 0 1 1.13-2.35H55.5a2.68 2.68 0 0 1 1.28 2.35v8.8l-5.62-8.8c-1-1.73-.27-2.35-.27-2.35h-6.15a2.72 2.72 0 0 1 1.4 2.35v13A2.92 2.92 0 0 1 45 36.3h4.78a2.69 2.69 0 0 1-1.29-2.42V23.33L55 33.88c1.14 1.93 1.47 2.61 2.42 2.61h1.67v-15.6zM90.53 36.53l4.32-15.64a4.22 4.22 0 0 1 1.85-2.35h-4.81s1 .54.62 2.35l-2.78 9.79-2.89-9.79c-.39-1.73.5-2.35.5-2.35H80.9a4 4 0 0 1 2 2.35l3.78 13c.46 1.53.66 2.65 2.08 2.65h1.81zM18.91 36.31A2.69 2.69 0 0 0 20.18 34V21A2.91 2.91 0 0 0 19 18.54h6.24A2.7 2.7 0 0 0 24 21v12.6a.72.72 0 0 0 .8.72h1.8a4.48 4.48 0 0 0 4.07-2.41L30 36.85a2.87 2.87 0 0 0-1.74-.54h-9.35zM61.6 36.31A2.69 2.69 0 0 0 62.88 34V21a2.91 2.91 0 0 0-1.2-2.42h6.24A2.71 2.71 0 0 0 66.65 21v12.6a.73.73 0 0 0 .81.72h1.84a4.46 4.46 0 0 0 4.06-2.41l-.67 4.93a2.87 2.87 0 0 0-1.74-.54H61.6zM64.76 15h5.16a2.21 2.21 0 0 1-1-2V2.37a2.37 2.37 0 0 1 1-1.92h-5.23a2.19 2.19 0 0 1 1 1.92v4.25h-5.14V2.37a2.37 2.37 0 0 1 1-1.92h-5.17a2.19 2.19 0 0 1 1 1.92V13a2.36 2.36 0 0 1-1 2h5.15a2.2 2.2 0 0 1-1-2V8.29h5.18V13a2.38 2.38 0 0 1-.95 2zM77.6 13.35h-1.5a.59.59 0 0 1-.66-.59V8.23h1.86a2.87 2.87 0 0 1 2.53 1.28v-4s-.49 1.13-2.56 1.13h-1.83v-4a.59.59 0 0 1 .65-.59h1.5a3.63 3.63 0 0 1 3.32 2L80.38 0A2.33 2.33 0 0 1 79 .45h-7.71a2.18 2.18 0 0 1 1 1.92V13a2.19 2.19 0 0 1-1 1.92h7.66a2.36 2.36 0 0 1 1.43.44l.54-4a3.62 3.62 0 0 1-3.32 1.99zM38.84 34.36H37a.73.73 0 0 1-.81-.72V27.9h2.28a3.48 3.48 0 0 1 3.09 1.57v-4.93s-.56 1.39-3.12 1.39H36.2v-4.72a.73.73 0 0 1 .8-.72h1.84a4.47 4.47 0 0 1 4.06 2.41l-.65-4.9a2.84 2.84 0 0 1-1.74.55h-9.35a2.68 2.68 0 0 1 1.28 2.35V34a2.68 2.68 0 0 1-1.28 2.35h9.34a2.86 2.86 0 0 1 1.74.54l.67-4.9a4.47 4.47 0 0 1-4.07 2.37zM105.12 34.36h-1.84a.73.73 0 0 1-.81-.72V27.9h2.28a3.5 3.5 0 0 1 3.09 1.57v-4.93s-.59 1.39-3.13 1.39h-2.24v-4.72a.73.73 0 0 1 .81-.72h1.84a4.46 4.46 0 0 1 4.06 2.41l-.65-4.9a2.85 2.85 0 0 1-1.75.55h-9.33a2.69 2.69 0 0 1 1.27 2.35V34a2.69 2.69 0 0 1-1.27 2.35h9.34a2.88 2.88 0 0 1 1.75.54l.66-4.9a4.45 4.45 0 0 1-4.08 2.37zM63.42 51.82a20.79 20.79 0 0 1-.7-6.25c0-.44.32-.45.71-.45s.72 0 .72.46c0 3.46-.5 6.25-.72 6.25zm1 .08a32.47 32.47 0 0 0 .64-6.15c0-.45.32-.46.72-.46s.71 0 .71.46c0 3.71-1.86 6.15-2.08 6.15zm1.12.2h-.06a9.28 9.28 0 0 0 1.87-6c0-.45.24-.46.63-.46s.63 0 .63.46a7.46 7.46 0 0 1-3.07 6zm1.09.25c-.09 0-.16 0 0-.08.69-.43 2.77-1.91 2.78-5.6 0-.44.21-.46.6-.46s.53 0 .53.46a5.81 5.81 0 0 1-3.87 5.68zm-4.23-.45c-.22 0-2.06-2.44-2.06-6.15 0-.45.32-.46.72-.46s.72 0 .72.46a32.65 32.65 0 0 0 .63 6.15zm-1.17.17a7.51 7.51 0 0 1-3-6c0-.45.24-.46.63-.46s.63 0 .63.46A9.25 9.25 0 0 0 61.31 52c0 .06 0 .08-.09 0zm-1.11.24a5.81 5.81 0 0 1-3.78-5.67c0-.44.14-.45.54-.45s.6 0 .6.46a6.21 6.21 0 0 0 2.71 5.59c.1.07.06.12-.06.07zm15.07-3.19a5.41 5.41 0 0 1-2.28 1.65.08.08 0 0 0 0 .13 4.81 4.81 0 0 1 .38 4.76 1.43 1.43 0 0 1-.07.16c-.13.21 0 .24.15.12l.2-.16 1.34-1 .09-.03c.1-.08.21-.13.24.06v.13c.55 3.65-1.12 5.4-2.1 6.09l-.18.12c-.19.11-.16.22 0 .17h.18l1.11-.3h.17c.09 0 .23-.06.17.1l-.06.18a7.05 7.05 0 0 1-4.33 4.3l-.16.05c-.22.07-.19.16 0 .14h1c.24 0 .24.1.11.22L71 66c-2.44 2.23-4.39 2-5.39 1.61l-.23-.09c-.12-.06-.06-.2.06-.16a1.33 1.33 0 0 0 .22 0 4.14 4.14 0 0 0 1.92-.13 2.94 2.94 0 0 0 1.68-1.82 4.17 4.17 0 0 0 2.45-1.34 2.78 2.78 0 0 0 .39-2.78 3.14 3.14 0 0 0 1.69-2.52 2.54 2.54 0 0 0-1.19-2.65 2.69 2.69 0 0 0-.19-2.8 2.8 2.8 0 0 0-2.52-.8.06.06 0 0 1 0-.11 12.38 12.38 0 0 0 3.1-2.17 7.4 7.4 0 0 0 1.78-4.91c0-.1.08-.15.17 0a3.84 3.84 0 0 1 .31 3.69zm4.58 2.36c-.3 1.15-1.95 1.14-2.81 1.06h-.16c-.22 0-.14.07 0 .14l.14.09c2.09 1.5.81 3.67.13 4.58l-.12.16c-.14.17-.19.12-.16-.06v-.2c.16-.82.4-2.48-.17-3.17a1.13 1.13 0 0 0-1.92-.1c-.08.08-.15.08-.18 0-.11-.41-.16-1.43 1.71-1.88 3.62-.87 1.63-2.94.7-3.73-.09-.08 0-.16.08-.1 1 .48 3.15 1.74 2.76 3.25zM61.35 67.56l-.23.09c-1 .38-2.94.61-5.38-1.63l-.14-.13c-.12-.12-.13-.24.11-.22h1c.17 0 .19-.07 0-.14l-.16-.05a7.06 7.06 0 0 1-4.32-4.31L52.1 61c-.05-.16.09-.14.18-.1h.17l1.11.3h.18c.2 0 .23-.06 0-.17l-.15-.03c-1-.69-2.64-2.45-2.08-6.1v-.12c0-.19.14-.14.24-.06l.12.09 1.34 1 .2.16c.15.13.27.09.15-.12a1.48 1.48 0 0 1-.07-.16 4.8 4.8 0 0 1 .4-4.76.08.08 0 0 0-.05-.13 5.4 5.4 0 0 1-2.28-1.66 3.84 3.84 0 0 1 .32-3.69c.09-.16.17-.11.17 0a7.42 7.42 0 0 0 1.76 4.91 12.49 12.49 0 0 0 3.09 2.18.06.06 0 0 1 0 .11 2.81 2.81 0 0 0-2.52.79 2.69 2.69 0 0 0-.2 2.8A2.54 2.54 0 0 0 53 58.83a3.14 3.14 0 0 0 1.68 2.52 2.77 2.77 0 0 0 .32 2.78 4.16 4.16 0 0 0 2.45 1.35 2.94 2.94 0 0 0 1.67 1.82 4.14 4.14 0 0 0 1.91.13 1.23 1.23 0 0 0 .23 0c.12 0 .18.1.06.16zm-9.13-13.64c0 .11-.1.11-.18 0a1.13 1.13 0 0 0-1.92.09c-.57.69-.34 2.35-.17 3.17v.2c0 .18 0 .23-.16.06l-.12-.16c-.68-.91-2-3.09.14-4.58l.19-.08c.1-.07.18-.16 0-.14h-.16c-.86.09-2.51.09-2.8-1.06-.39-1.52 1.78-2.76 2.76-3.24.13-.06.17 0 .08.1-.93.79-2.93 2.86.69 3.74 1.87.45 1.81 1.47 1.7 1.88zm-1.88 6.44l-.74.16a.86.86 0 0 0 .46-.86.9.9 0 0 0-1.18-.48.86.86 0 0 0-.88.82.38.38 0 0 0 .51.36.4.4 0 0 0 .39-.3l.15.94a.48.48 0 0 0-.49-.14l-.47.08a.35.35 0 0 0 0-.27 1.52 1.52 0 0 0-.09-.25 1.31 1.31 0 0 1-.21-.51 1.13 1.13 0 0 1 1-1.31 1.19 1.19 0 0 1 1.45.92 4.27 4.27 0 0 1 0 .6.68.68 0 0 0 .08.24zm.3 2.5a.82.82 0 0 0 .14-.86.65.65 0 0 0-.14-.24l-.2.07-.62.17a.6.6 0 0 0 .51.44l-.4.14-.35.15a.62.62 0 0 0 .09-.67l-.4.16c-.32.12-.54.2-.38.56a.88.88 0 0 0 .79.5l-.39.13-.29.16c-.16-.43-.34-.86-.51-1.29l-.18-.46a.7.7 0 0 0 .63 0l1.15-.44a.61.61 0 0 0 .45-.44l.18.47c.15.38.31.76.46 1.14l-.54.3zm5.3 5.87a.86.86 0 0 0-.3-.93.9.9 0 0 0-1.17.53.86.86 0 0 0-.05 1.21.38.38 0 0 0 .58-.12.4.4 0 0 0 0-.49l.81.52a.48.48 0 0 0-.44.26l-.26.39a.37.37 0 0 0-.11-.2l-.25-.06a1.32 1.32 0 0 1-.51-.2A1.13 1.13 0 0 1 54 68a1.18 1.18 0 0 1 1.66-.42 4.38 4.38 0 0 1 .46.39.66.66 0 0 0 .23.11l-.4.65zm12.19 1.92l.9-.33a.48.48 0 0 0-.06.5l.15.45a.37.37 0 0 0-.27 0 2.08 2.08 0 0 0-.21.16 1.3 1.3 0 0 1-.47.29 1.13 1.13 0 0 1-1.43-.72 1.18 1.18 0 0 1 .68-1.57 4.42 4.42 0 0 1 .58-.17.68.68 0 0 0 .22-.12l.27.71a.86.86 0 0 0-.92-.33.9.9 0 0 0-.29 1.24.86.86 0 0 0 .93.78.38.38 0 0 0 .28-.54.4.4 0 0 0-.36-.33zm-9.83-1a.82.82 0 0 0-.54-.71.65.65 0 0 0-.27-.07 1.24 1.24 0 0 0-.09.19l-.26.62a.6.6 0 0 0 .66-.07l-.16.39-.13.35a.61.61 0 0 0-.43-.52l-.16.4c-.13.31-.23.53.14.66a.88.88 0 0 0 .94-.21c-.05.13-.12.25-.17.37l-.11.27-1.28-.52-.44-.18a.7.7 0 0 0 .44-.45l.42-1.17a.61.61 0 0 0 0-.63l.47.2 1.13.43-.16.6zm-6.61-3.95A1.24 1.24 0 1 1 52 64a1.2 1.2 0 0 1-.36 1.72zm.22-1.63a.86.86 0 0 0-1.24 0 .9.9 0 0 0-.56 1.15c.3.46.83.26 1.25 0a.89.89 0 0 0 .55-1.16zm1.93 3a.59.59 0 0 1-.78 0l-.11.77a1.84 1.84 0 0 0 0 .29 4.4 4.4 0 0 0 0 .45c-.18-.13-.46-.39-.58-.49l.17-.86a.7.7 0 0 0 0-.5l-.34.34a.88.88 0 0 0-.25.57l-.34-.34-.37-.3a.6.6 0 0 0 .56-.26l.87-.87a.54.54 0 0 0 .23-.59l.35.36.4.36a1.67 1.67 0 0 1 .33.45.55.55 0 0 1-.15.62zm-.38-1a.19.19 0 0 0-.15-.07 3.13 3.13 0 0 0-.25.23l-.45.43.09.09a.43.43 0 0 0 .7 0 .42.42 0 0 0 0-.67zm6.87 4.67l.29.65.24-.19a.28.28 0 0 0 0-.4l.67.16a2.22 2.22 0 0 0-.52.32l-.3.24a1 1 0 0 0 .46.55.4.4 0 0 0 .36 0 .71.71 0 0 1-.68.27.82.82 0 0 1-.55-.49 1 1 0 0 1-.79.17.51.51 0 0 1-.4-.6 1 1 0 0 1 .73-.62 1.22 1.22 0 0 1 0-.64.59.59 0 0 1 .71-.48.48.48 0 0 1 .37.57.75.75 0 0 1-.53.51zm-.46.19a.56.56 0 0 0-.29.33.44.44 0 0 0 .27.53.46.46 0 0 0 .36-.09l-.33-.77zm.54-1.11a.23.23 0 0 0-.25.19.91.91 0 0 0 .09.53v.07a.69.69 0 0 0 .29-.43.27.27 0 0 0-.15-.36zm3.27.66v1.69a1.51 1.51 0 0 1-.12.75.68.68 0 0 1-.62.32.85.85 0 0 1-.62-.24l.21-.4a.43.43 0 0 0 .37.44.27.27 0 0 0 .24-.3v-2.29a.65.65 0 0 0-.25-.59h1a.77.77 0 0 0-.2.6zm1.58 1.94a.29.29 0 0 1-.26-.29.28.28 0 0 1 .23-.33.28.28 0 0 1 .3.25.28.28 0 0 1-.23.33zm5.26-1.66a.28.28 0 0 1-.38-.14.27.27 0 1 1 .48-.24.28.28 0 0 1-.11.39zm2.07-1.18a3.5 3.5 0 0 1-.53.27.26.26 0 0 0-.13.14l-.43-.62a.77.77 0 0 0 1 .09.37.37 0 0 0 .11-.52.67.67 0 0 0-.76-.12.76.76 0 0 1-.85-.31.68.68 0 0 1 .21-1 3.92 3.92 0 0 1 .45-.22.42.42 0 0 0 .11-.13l.39.53a.7.7 0 0 0-.87 0 .3.3 0 0 0-.1.43.57.57 0 0 0 .62.11.89.89 0 0 1 1 .28.73.73 0 0 1-.22 1.06zm2.6-2.4a.6.6 0 0 0-.19-.5l-1-.91.83 1.75-.12.12-1.8-.81.89 1 .2.1a.5.5 0 0 0 .39.08c-.1.1-.38.35-.47.44a.46.46 0 0 0-.08-.37 1 1 0 0 0-.13-.18l-1-1.1a.56.56 0 0 0-.41-.11c.09-.08.4-.37.5-.47l1.61.78-.78-1.63.49-.52a.54.54 0 0 0 .17.5l1.07 1a.66.66 0 0 0 .48.15c-.14.16-.52.56-.64.69zm1.48-1.75l-.27.38a.54.54 0 0 0-.31-.49L75 64.53a.57.57 0 0 0-.56-.14l.3-.39.28-.4a.57.57 0 0 0 .31.49l1.08.77A.52.52 0 0 0 77 65c-.11.16-.17.27-.29.43zm.9-1.49a.85.85 0 0 0-.43-.46l-1.24-.58a.64.64 0 0 0-.22-.08.24.24 0 0 0-.11.15.77.77 0 0 0 .19.8l-.62-.31.92-1.95.63.28a.82.82 0 0 0-.73.35.26.26 0 0 0-.06.18.48.48 0 0 0 .21.12l1.26.56a1.1 1.1 0 0 0 .61.08l-.39.84zm1.19-3.45a.87.87 0 0 0-.46-.31l-.56-.18-.25 1 .59.15a.68.68 0 0 0 .54 0c-.06.19-.18.67-.23.85a.61.61 0 0 0-.44-.32l-1.31-.34a.54.54 0 0 0-.54 0c.05-.17.18-.69.23-.88a.53.53 0 0 0 .45.36l.55.14.24-1-.57-.1a.63.63 0 0 0-.55.07c0-.17.14-.65.18-.84a1 1 0 0 0 .48.28l1.3.29a.86.86 0 0 0 .59-.09c0 .19-.14.68-.2.89zm-7.51-1.69c.19.07.19.14 0 .18a12.44 12.44 0 0 0-1.7.69 20.16 20.16 0 0 0 1.5 1.37c.13.11 0 .15 0 .14a9.87 9.87 0 0 0-2 .31v.05a6.3 6.3 0 0 0 .91 1.51c.13.16.09.21-.1.13a7.77 7.77 0 0 0-1.73-.31A11.53 11.53 0 0 0 68.7 65c.06.11 0 .2-.1.11a15 15 0 0 0-2-1.05.05.05 0 0 0-.08 0 9.59 9.59 0 0 0 0 2.34c0 .15 0 .22-.15.1s-1.42-1.09-2-1.42a.05.05 0 0 0-.08 0c0 2.49-.67 4-1 4s-1-1.51-1-3.95c0-.06 0-.08-.1 0a12.72 12.72 0 0 0-2 1.45c-.12.1-.15 0-.11-.06a5 5 0 0 0 0-2.41s0-.05-.1 0a6.82 6.82 0 0 0-1.93 1c-.05.05-.05-.02-.05-.11a7.19 7.19 0 0 0 .75-2c0-.07 0-.09-.1-.09a5.63 5.63 0 0 0-1.83.33c-.1 0-.15 0-.07-.11a6.68 6.68 0 0 0 1-1.52v-.11a4.74 4.74 0 0 0-2-.32c-.08 0-.14-.06-.06-.1a5.43 5.43 0 0 0 1.51-1.3.06.06 0 0 0 0-.1 6.24 6.24 0 0 0-1.78-.75c-.05 0-.06-.08 0-.11A8.45 8.45 0 0 0 57 58s.05-.05 0-.1a9.27 9.27 0 0 0-1.49-1.11c-.09-.05-.09-.11 0-.11a9.19 9.19 0 0 0 1.83-.39c.05 0 .08 0 0-.1a8.62 8.62 0 0 0-1.13-1.44c-.06-.06 0-.14.06-.1a4.1 4.1 0 0 0 1.73.18.06.06 0 0 0 .06-.09 5.49 5.49 0 0 0-.65-1.74c0-.05 0-.12.09-.07a5.61 5.61 0 0 0 2.05.67 5.7 5.7 0 0 1 3.8-1.32 6.24 6.24 0 0 1 3.87 1.32 12.12 12.12 0 0 0 2.14-.67.05.05 0 0 1 .08.07 10.86 10.86 0 0 0-.83 1.72.06.06 0 0 0 .05.08 8.47 8.47 0 0 0 1.75-.19c.17-.06.11.07.09.1a18.42 18.42 0 0 0-1.2 1.52 10.11 10.11 0 0 0 1.85.35c.17 0 .2.06 0 .18a15 15 0 0 0-1.49 1.1 16.75 16.75 0 0 0 1.58.83zm-8 8.3c0 .14.1.1.14 0l.78-2.14c0-.16-.13-.12-.17-.11h-.66a5.25 5.25 0 0 1-.61-.05c-.09 0-.2 0-.19.12l.72 2.14zm.06-14.17a5.67 5.67 0 0 0-5.58 5.7c0 3.09 2.54 5 5.62 5s5.59-2 5.57-5.09a5.67 5.67 0 0 0-5.62-5.65zm-2.61 9.59a4.9 4.9 0 0 1-1.13-1 1.15 1.15 0 0 0 .2-.51 3.24 3.24 0 0 0 1.23 1.4.48.48 0 0 0-.25.11zM59.79 61a2.79 2.79 0 0 0-1-1.27 1.7 1.7 0 0 0 1-.9 1.71 1.71 0 0 0 1 .93 2.8 2.8 0 0 0-1 1.24zm0-2.66a3.23 3.23 0 0 0-1-1.27 1.27 1.27 0 0 0 1-.6 1.29 1.29 0 0 0 1 .63 3.22 3.22 0 0 0-1 1.24zm0-2.6a1 1 0 0 0-.18-.45 5 5 0 0 1 1.09-.95.66.66 0 0 0 .29.17 2.84 2.84 0 0 0-1.21 1.24zm-.46 5.52a4.91 4.91 0 0 1-.57-1.07 2.46 2.46 0 0 0 .9.86.72.72 0 0 0-.34.2zm-.75-1.65a4.92 4.92 0 0 1 0-2.43 2.5 2.5 0 0 0 1 1.23 2.52 2.52 0 0 0-1 1.19zm.2-2.93a4.93 4.93 0 0 1 .64-1.15.89.89 0 0 0 .39.25 2.76 2.76 0 0 0-1 .9zm4.48 5.78a2.29 2.29 0 0 0-.93.77 5 5 0 0 1-.6-.17 1.68 1.68 0 0 0-.73-.65A3 3 0 0 0 62.15 61a3.34 3.34 0 0 0 1.15 1.44zM62.16 61a2.89 2.89 0 0 0-.95-1.23 1.71 1.71 0 0 0 1-.9 1.7 1.7 0 0 0 1 .93 2.82 2.82 0 0 0-1 1.23zm0 0zm0 0zm0-2.65a3.25 3.25 0 0 0-1-1.27 1.28 1.28 0 0 0 1-.6 1.28 1.28 0 0 0 1 .63 3.25 3.25 0 0 0-1 1.24zm.11-2.6a2.84 2.84 0 0 0-1.17-1.27 2.15 2.15 0 0 0 .9-.72l.46-.11a2.2 2.2 0 0 0 .86.87 2.21 2.21 0 0 0-1 1.24zM61 62.29a2.83 2.83 0 0 0-1-1.26 1.78 1.78 0 0 0 1.05-.9A1.78 1.78 0 0 0 62 61a2.84 2.84 0 0 0-1 1.29zm0-2.66a3.23 3.23 0 0 0-1-1.27 1.27 1.27 0 0 0 1-.6 1.27 1.27 0 0 0 1 .63 3.24 3.24 0 0 0-1 1.24zM61 57a3.24 3.24 0 0 0-1-1.26 1.27 1.27 0 0 0 1-.6 1.28 1.28 0 0 0 1 .62A3.23 3.23 0 0 0 61 57zm3.81 6.11a4.67 4.67 0 0 1-.6.15 2.4 2.4 0 0 0-.9-.8A3.36 3.36 0 0 0 64.52 61a3 3 0 0 0 1.1 1.46 1.68 1.68 0 0 0-.78.62zM64.53 61a2.85 2.85 0 0 0-1-1.25 1.7 1.7 0 0 0 1-.9 1.71 1.71 0 0 0 1 .93 2.87 2.87 0 0 0-1 1.21zm0 0zm0-2.66a3.23 3.23 0 0 0-1-1.27 1.29 1.29 0 0 0 1-.6 1.28 1.28 0 0 0 1 .63 3.2 3.2 0 0 0-1 1.24zm0-2.6a2.39 2.39 0 0 0-1-1.27 2.21 2.21 0 0 0 .88-.85l.46.12a2.14 2.14 0 0 0 .83.75 2.62 2.62 0 0 0-1.13 1.24zm-1.26 6.66zm0 0zm0 .88h-.51a3.4 3.4 0 0 0 .5-.84 3.38 3.38 0 0 0 .48.86h-.51zm0-.88zm0 0zm0 0zm0 0zm0 0a.29.29 0 0 1 0-.07.35.35 0 0 1 0 .06 3.38 3.38 0 0 0-.9-1.39 1.6 1.6 0 0 0 1-.9 1.6 1.6 0 0 0 1 .93 3.37 3.37 0 0 0-1 1.33zm0 0a.35.35 0 0 0 0-.06.29.29 0 0 0 0 .07zm0 0zm0 0zm0-2.78a3.25 3.25 0 0 0-1-1.27 1.27 1.27 0 0 0 1-.6 1.28 1.28 0 0 0 1 .62 3.23 3.23 0 0 0-1 1.24zm0-2.64a3.24 3.24 0 0 0-1-1.27 1.27 1.27 0 0 0 1-.6 1.28 1.28 0 0 0 1 .63 3.24 3.24 0 0 0-1 1.24zm0-2.46a2.64 2.64 0 0 0-.51-1h1.05a2.62 2.62 0 0 0-.54 1zm3.66 7a5 5 0 0 1-1.15 1 .51.51 0 0 0-.25-.12 3.18 3.18 0 0 0 1.2-1.38 1.22 1.22 0 0 0 .19.52zm-.2-.54a2.8 2.8 0 0 0-1-1.27 1.7 1.7 0 0 0 1-.9 1.71 1.71 0 0 0 1 .93 2.8 2.8 0 0 0-1 1.24zm0-2.66a3.23 3.23 0 0 0-1-1.26 1.28 1.28 0 0 0 1-.6 1.28 1.28 0 0 0 1 .63 3.24 3.24 0 0 0-1 1.24zm0-2.6a2.84 2.84 0 0 0-1.17-1.27.66.66 0 0 0 .3-.16 4.84 4.84 0 0 1 1.07 1 1 1 0 0 0-.2.46zm-1.28 6.54a2.68 2.68 0 0 0-1-1.26 1.67 1.67 0 0 0 1-.9 1.84 1.84 0 0 0 1 .93 2.91 2.91 0 0 0-1.06 1.24zm0-2.66a3.22 3.22 0 0 0-1-1.27 1.28 1.28 0 0 0 1-.6 1.27 1.27 0 0 0 1 .63 3.23 3.23 0 0 0-1 1.24zm0-2.64a3.22 3.22 0 0 0-1-1.26 1.28 1.28 0 0 0 1-.6 1.28 1.28 0 0 0 1 .63 3.23 3.23 0 0 0-1 1.24zm1.54 4.3a.74.74 0 0 0 .01-.13 2.47 2.47 0 0 0 .93-.85 4.88 4.88 0 0 1-.6 1.06zm.79-1.62a2.5 2.5 0 0 0-.95-1.23 2.46 2.46 0 0 0 1-1.22 5 5 0 0 1 .14 1.22 4.87 4.87 0 0 1-.17 1.23zM67 55.85a.89.89 0 0 0 .4-.24 4.86 4.86 0 0 1 .6 1.19 2.78 2.78 0 0 0-1-.94z"/></g></svg>