<svg xmlns="http://www.w3.org/2000/svg" id="jameson" viewBox="-5 -5 159 56" width="159" height="56" y="610"><style>.kst0 {fill: none;}.kst1 {fill: #a9a8a8;}
</style><path class="kst0" d="M0 0h149v45.5H0z"/><path class="kst1" d="M146.9 18.2c.2 0 .4 0 .5-.4.1-.3-.1-.4-.2-.5h-.2l-.2.8.1.1zm-1.2.7c.2 0 .3 0 .3-.1l.4-1.3c0-.2 0-.2-.2-.3V17l1.2.3c.3.1.6.3.5.7-.1.3-.3.4-.6.4l.2.7c.1.2.1.2.2.3v.2l-.5-.1c-.1 0-.2-.1-.2-.3l-.2-.8h-.1l-.1.5c-.1.2 0 .2.2.3v.2l-1-.3-.1-.2zm1.6-2.1c-.9-.2-1.7.3-1.9 1.1-.2.9.2 1.7 1.1 1.9.9.2 1.7-.3 1.9-1.1.3-.9-.2-1.7-1.1-1.9m.2-.5c1.1.3 1.7 1.4 1.4 2.5-.3 1.1-1.4 1.8-2.5 1.4-1.1-.3-1.8-1.4-1.4-2.5.2-1.1 1.4-1.7 2.5-1.4m-11.4 6.1c.1.6.2 1.4.2 1.4s0-.4.3-1.3l2.5-7.4c.6-1.9.6-3.3-.2-4.4v-.1l6.1 2.3v.1c-1.3.4-2.2 1.4-2.9 3.3-.4 1.2-6 17.6-6 17.6l-3.1-1.2-3-15.1c-.2-.6-.2-1.4-.2-1.4s0 .4-.3 1.3l-2.8 8.4c-.6 2-.5 3.4.3 4.4v.1l-6.5-1.9v-.1c1.3-.4 2.5-1.4 3.1-3.3l4.1-13c.6-2.1.5-4.1-.7-5.2v-.1l6 1.7 3.1 13.9zm-21-15.7c-3-.6-4.9 2.9-5.9 7.5-1.1 4.9-.6 8.6 2.1 9.2 2.6.6 4.8-2.6 5.8-7.5 1-4.5 1-8.5-2-9.2m7.2 10.5c-1.6 6.5-6.4 10.9-12 9.7-6.1-1.3-8-7.1-6.4-13.7 1.6-6.5 6-10.6 11.8-9.6 6.7 1 8.1 7.3 6.6 13.6m-29.6 6.7c-2.9-.1-3.2-.9-4.8-1.3-1.2-.3-2 .2-2.4.7h-.1l.3-8h.1c.6 1.5 2.3 3.7 4.2 4.8 1.8 1 3.5.6 4.5-.6.8-1 1-2.9-.3-4.1-1.2-1.3-3.2-2.1-4.9-3.4-3.3-2.6-3.1-6-2.1-8C88.7 1.3 91.7.2 94.5.5c1.7.2 2.4.6 3.6 1 1.2.4 2.2.1 2.4 0h.1l-.5 6.3h-.1c-.6-1.7-2.6-3.7-4.7-4.1-1.8-.3-2.8.3-3.3 1.1-.7 1.2-.4 2.5.9 3.3 1.8 1.3 4 2.2 5.5 3.6 2.1 2 2.8 5.5.9 8.7-1.5 2.4-4.5 3.5-6.6 3.5M82.2.2l-.2 5h-.1C81.1 3.4 79.1 3 77.3 3h-3.9l-.1 6 2 .1c2.6.1 3.4-.2 4.4-1.8h.1l-.2 7.1h-.1c-.9-1.8-2.8-2-4.6-2h-1.5l-.2 6.6 4.1.1c2.6.1 3.9-.7 4.8-2.2h.1l-.7 5.8c-4.8-.2-10.3-.2-14.6 0v-.1c1-.6 1.5-2.1 1.5-4.3l.2-14.2c0-2-.1-3.3-1.5-4V0c4.6 0 10.5-.1 15.1.2M56 .8l6.9-.5v.1c-1.8.9-1.6 2.4-1.4 4.8l.9 13.7c.2 2 .7 3.6 1.6 3.9v.1s-1.6.1-3.8.3c-2.2.2-3.8.3-3.8.3v-.1c.8-.5 1.5-2.2 1.3-4.3 0 0-.6-8.9-.7-9.6-.1-.8 0-1.4 0-1.4s-.1.6-.3 1.3c-.2.7-4.4 14.8-4.4 14.8h-.1s-6.3-11.6-6.8-12.5c-.4-.7-.6-1.5-.6-1.5s.2.7.4 1.5c.1.9 1.3 8.7 1.3 8.7.4 2.1 1.4 3.5 2.4 3.8v.1l-6.1 1v-.1c.8-.6.9-2.2.6-4.2l-2-13.4c-.3-2.1-1.3-3.7-2.9-4.2v-.1l6.9-1.2s5.7 10.4 6.7 12C52.7 12.1 56 .8 56 .8M27 10.9l-.6 8.4 4.2-1.2-3.6-7.2zm10.1 15.7c-1.5.4-4 .9-4 .9v-.1c.6-.5 1.2-1.8.3-3.6L32 21.1l-5.9 1.6-.2 3.3c0 2 1 2.8 1.8 3v.1s-1.9.6-3.3 1c-1.4.5-3.2 1-3.2 1V31c.6-.5 1.2-2.1 1.3-4 .3-5.1.8-12.7 1.2-16.2.2-1.6 0-3.2-1.3-3.6v-.1s1.8-.5 3.9-1c1.8-.4 4-1 4-1v.1c-.8 1.1-.2 2.3.6 3.8.8 1.4 7.2 13.1 7.7 14.1.9 1.6 1.5 2.3 2.5 2.7v.1c.1-.1-2.5.4-4 .7M9.5 13.9c-.3-1.3-1.4-1.9-2.2-2v-.1s2-.7 3.5-1.2 3.7-1.2 3.7-1.2v.1c-.6.5-.8 1.6-.5 2.8 0 0 2.8 10.9 3.2 12.3.4 1.4.9 2.2 1.7 2.3v.1c-.4.4-.7 1.3-1.1 2.2-.4.9-1.2 3.5-4.5 4.8-3.5 1.4-7.1.5-8.7-1.9-1-1.6-.8-3.9.8-4.8 1.4-.8 2.9-.3 3.5.9.6 1.1.2 2.3-.3 2.7-.1.1 0 .2.2.4.9.6 2 .6 3.1 0 1.3-.7 1.8-1.8 1.1-4.5-.5-2.1-3.1-11.5-3.5-12.9M48.5 44.9c-.6.3-1.4.5-2.4.5-.5 0-1.1-.1-1.7-.2-.5-.1-.7-.2-.8-.2-.1 0-.3 0-.3.1l-.1.1H43v-2.4s0-.1.1-.1h.1c.5.7 1 1.1 1.4 1.2.5.2 1 .3 1.5.3s.8-.1 1.2-.2c.4-.2.6-.4.6-.7 0-.3-.1-.5-.4-.6-.2-.1-.6-.2-1.3-.3l-.9-.2c-.8-.2-1.3-.3-1.7-.6-.5-.3-.7-.8-.7-1.4 0-.7.3-1.3 1-1.7.6-.3 1.4-.5 2.3-.5.6 0 1.1.1 1.6.2.4.1.6.1.7.1.1 0 .3 0 .4-.1h.1v2l-.1.1h-.1c-.6-.7-1.5-1-2.7-1-.5 0-.9.1-1.2.2-.3.2-.4.4-.4.6 0 .3.1.5.4.6.2.1.5.2 1.1.3l.9.2c.8.2 1.4.4 1.8.6.5.3.8.8.8 1.4 0 .8-.3 1.4-1 1.7m48.5 0c.7-.4 1-.9 1-1.7 0-.6-.3-1-.8-1.4-.4-.2-1-.4-1.8-.6l-.9-.2c-.6-.1-.9-.2-1.1-.3-.3-.1-.4-.3-.4-.6 0-.2.1-.4.4-.6.3-.1.7-.2 1.2-.2 1.2 0 2.1.3 2.7 1h.1l.1-.1v-2h-.2c-.1.1-.2.1-.4.1-.1 0-.3 0-.7-.1-.5-.1-1-.2-1.6-.2-1 0-1.7.2-2.3.5-.7.4-1 .9-1 1.7 0 .6.2 1 .7 1.4.3.2.9.4 1.7.6l.9.2c.6.1 1 .2 1.3.3.3.1.4.3.4.6s-.2.5-.6.7c-.3.1-.7.2-1.2.2-.4 0-.9-.1-1.5-.3-.5-.2-1-.6-1.4-1.2h-.1c-.1 0-.1 0-.1.1v2.4l.1.1.1-.1c.1-.1.2-.1.3-.1.1 0 .4.1.8.2.6.1 1.2.2 1.7.2 1.1 0 2-.2 2.6-.6m19.2.4v-1.2h-4.5v-1.8h4v-1.2h-4v-1.6h4.4v-1.2h-6.6l-.1.1.1.1c.2.1.4.2.4.4.1.1.1.3.1.5v4.9c0 .2 0 .4-.1.5-.1.1-.2.3-.4.4l-.1.1.1.1h6.7zm-89.5-.1c-.2-.1-.4-.2-.4-.4 0-.1 0-.2-.1-.3v-5.3c0-.1 0-.2.1-.3.1-.2.2-.3.4-.4l.1-.1-.1-.1H24l-.1.1.1.1c.2.1.4.2.4.4 0 .1 0 .2.1.3v5.3c0 .1 0 .2-.1.3-.1.1-.2.3-.4.4l-.1.1.1.1h2.7v-.2zm13.9 0c-.2-.1-.4-.2-.4-.4 0-.1 0-.2-.1-.3v-5.3c0-.1 0-.2.1-.3.1-.2.2-.3.4-.4l.1-.1-.1-.1H38l-.1.1.1.1c.2.1.4.2.4.4 0 .1 0 .2.1.3v5.3c0 .1 0 .2-.1.3-.1.1-.2.3-.4.4l-.1.1.1.1h2.7v-.2h-.1zm63.9-4.1l3.2-2.8h-2l-3.6 3.2v-2.4-.3c.1-.2.2-.3.4-.4l.1-.1-.1-.1h-2.7l-.1.1.1.1c.2.1.4.2.4.4 0 .1 0 .2.1.3v5.3c0 .1 0 .2-.1.3-.1.1-.2.3-.4.4l-.1.1.1.1h2.7l.1-.1-.1-.1c-.2-.1-.4-.2-.4-.4v-1.6l1.3-1.1 2.4 3.2h2l-3.3-4.1zm-15.2 4.1c-.2-.1-.4-.2-.4-.4 0-.1 0-.2-.1-.3v-5.3c0-.1 0-.2.1-.3.1-.2.2-.3.4-.4l.1-.1-.1-.1h-2.7l-.1.1.1.1c.2.1.4.2.4.4 0 .1 0 .2.1.3v5.3c0 .1 0 .2-.1.3-.1.1-.2.3-.4.4l-.1.1.1.1h2.7v-.2zm-30 0c-.2-.1-.4-.2-.4-.4 0-.1 0-.2-.1-.3v-5.3c0-.1 0-.2.1-.3.1-.2.2-.3.4-.4l.1-.1-.1-.1h-2.7l-.1.1.1.1c.2.1.4.2.4.4 0 .1 0 .2.1.3v2h-3.7v-2.1-.2c.1-.2.2-.3.4-.4l.1-.1h.1-2.7l-.1.1.1.1c.2.1.4.2.4.4 0 .1 0 .2.1.3v5.3c0 .1 0 .2-.1.3-.1.1-.2.3-.4.4l-.1.1.1.1H54l.1-.1-.1-.2c-.2-.1-.4-.2-.4-.4v-2.5h3.7v2.2c0 .1 0 .2-.1.3-.1.1-.2.3-.4.4l-.1.1.1.1h2.7v-.2h-.2zm25.6 0c-.2-.1-.4-.2-.4-.4 0-.1-.1-.2-.1-.3v-5.3c0-.1 0-.2.1-.3.1-.2.2-.3.4-.4l.1-.1-.1-.1h-2.7l-.1.1.1.1c.2.1.4.2.4.4 0 .1 0 .2.1.3v2H79v-2.1-.2c.1-.2.2-.3.4-.4l.1-.1-.1-.1h-2.7l-.1.1.1.1c.2.1.4.2.4.4 0 .1 0 .2.1.3v5.3c0 .1 0 .2-.1.3-.1.1-.2.3-.4.4l-.1.1.1.1h2.7l.1-.1-.1-.1c-.2-.1-.4-.2-.4-.4v-2.5h3.7v2.2c0 .1 0 .2-.1.3-.1.1-.2.3-.4.4l-.1.1.1.1h2.7v-.2zm-48.8.1h-1.9l-1.7-2.6h-1.6v2.1c.1.1.2.3.4.4l.1.1-.1.1h-2.7l-.1-.1.1-.1c.2-.1.4-.2.4-.4 0-.1 0-.2.1-.3v-5.3c0-.1 0-.2-.1-.3-.1-.2-.2-.3-.4-.4l-.1-.1.1-.1h4.2c.9 0 1.7.2 2.2.6.5.4.8.9.8 1.5 0 1-.6 1.7-1.8 2.1l2.1 2.8zm-2.4-4c.3-.2.4-.5.4-.8 0-.7-.6-1-1.7-1h-1.6v2.1h1.8c.5 0 .9-.1 1.1-.3m41.9-2.9h-2.3v.1c.2.2.3.3.3.5v.3-.1l-1.1 4.4-1.5-5.2h-1.5L68 43.7l-1.1-4.4V39.1c0-.2.1-.3.3-.5v-.1H64.7l-.1.1.1.1c.2.1.3.2.4.4 0 .1.1.1.1.3l1.8 6.1h1.8l1.4-4.7 1.4 4.7h1.8l1.8-6.1c0-.1.1-.2.1-.3.1-.2.2-.3.4-.4v-.3h-.1zm49.4 0h-2.4v.1c.2.2.4.2.3.4l-1.5 2.5-1.5-2.5c-.1-.2.1-.3.3-.4v-.1h-2.5l-.1.1.1.1c.1.1.2.1.3.2l.1.1.1.2 2.3 3.5v1.9c0 .1 0 .2-.1.3-.1.1-.2.3-.4.4l-.1.1.1.1h2.7l.1-.1-.1-.1c-.2-.1-.4-.2-.4-.4 0-.1 0-.2-.1-.3v-1.9l2.6-3.9c.1-.1.2-.2.3-.2v-.1h-.1z"/></svg>