<svg xmlns="http://www.w3.org/2000/svg" data-name="Layer 1" viewBox="-5 -5 162 70" width="162" height="70" id="johnnie-walker-blue-label" y="666"><title>johnnie-walker-blue-label</title><g fill="#a7a7a7"><path d="M27.08 23.37a6.66 6.66 0 0 0-6.6-6.73 9.44 9.44 0 0 0-7.08 3.75A13.49 13.49 0 0 0 10.61 29c0 3.24.67 10.07.34 15s-3.09 6.34-3.09 6.34a14.11 14.11 0 0 0 1.3-5.48c0-2.83-.3-4.81-.56-9.06a43.88 43.88 0 0 1 .3-10.51c.56-3.5 5.85-8.15 5.85-8.15a13.25 13.25 0 0 1-3 .71c-1.23.06-3.36-.91-4.06-1.12a5.09 5.09 0 0 0-3.91.75A39.45 39.45 0 0 0 0 21.13a20.43 20.43 0 0 1 3.93-1.6c.86 0 1.45.37 2.94.37s4.1-.34 4.1-.34a43 43 0 0 0-3.36 4.14 21.7 21.7 0 0 0-3.53 10.44 29.65 29.65 0 0 0 1.42 8.35 42.54 42.54 0 0 1 1.23 8.09 8.06 8.06 0 0 1-2.12 1.9 4.93 4.93 0 0 0-2.35 3.65c0 1.6.71 3.43 2.57 3.43a2.87 2.87 0 0 0 3-2.5 2 2 0 0 0-1.45-2 1.65 1.65 0 0 0-1.45.34c-.75.52-.19 1.86-.19 1.86s.11.22-.56.22-.86-.89-.86-1.64a4.15 4.15 0 0 1 1.94-2.65 13 13 0 0 1 6-2.12c2.27 0 3.36.48 7.34 2.91 2.91-3.39 5.78-3.91 8.46-4.55-.78-.52-.82-2.16-.82-2.16V36.61A3.37 3.37 0 0 0 25.07 34c-1.42-1.42-4.85-1.45-4.85-1.45s6.86-4.11 6.86-9.18zM17 48.51a10.34 10.34 0 0 0-6 .49c2-3 2.88-4.39 3.44-7.69s.7-5.59 2.57-6.07v13.27zm5 1.52s-2.48-1.62-4-1.62v-5.08s.77-1.71 2-1.71 2 1.75 2 1.75V50zm-4-8.4v-3.16a2.38 2.38 0 0 0 1.94.88 2.34 2.34 0 0 0 1.94-1v3.23a2.87 2.87 0 0 0-1.88-.83 3.09 3.09 0 0 0-2 .88zm4.1-5.45c0 2-2.22 2.22-2.22 2.22-1.43 0-1.87-1.08-1.87-2.66s.64-2.24 1.44-2.24a2.74 2.74 0 0 1 2.65 2.68zm-1-7a72 72 0 0 1-6.1 6.1V21.55S16.45 18 19.25 18s3 3.36 3 5.48.13 3.97-1.1 5.68zM36.93 50.31a8.09 8.09 0 0 1-.74-.74 3.66 3.66 0 0 1-.75-1.51V24.5l2.73-2.6-.77-.85L35.46 23a3.61 3.61 0 0 0-.56-1.64 11.92 11.92 0 0 0-2.05-2l-4.52 4.6.67.63s.91-.81 1.51-1.41a2.59 2.59 0 0 1 .86 1.82v23.84l-2.22 2.4.7.84 1.9-1.94a3.2 3.2 0 0 0 .88 1.92 17.85 17.85 0 0 0 2.28 2.05l4.36-4.64-.59-.68zM151.41 48.79l-1.75 1.52a8.09 8.09 0 0 1-.74-.74 3.66 3.66 0 0 1-.75-1.51V24.5l2.73-2.6-.77-.85L148.2 23a3.61 3.61 0 0 0-.56-1.64 11.92 11.92 0 0 0-2.05-2l-4.52 4.6.66.68s.91-.81 1.51-1.41a2.59 2.59 0 0 1 .86 1.77v23.84l-2.22 2.4.7.84 1.9-1.94a3.2 3.2 0 0 0 .88 1.92 17.85 17.85 0 0 0 2.28 2.05l4.36-4.64zM122.22 28.7c-.86.86-5 5.1-5 5.1v-9.3l2.73-2.6-.77-.85-1.95 1.95a3.61 3.61 0 0 0-.56-1.64 11.92 11.92 0 0 0-2.06-2l-4.52 4.6.66.68s.91-.81 1.51-1.41a2.59 2.59 0 0 1 .87 1.86v23.75l-2.22 2.4.7.84 1.9-1.94a3.2 3.2 0 0 0 .88 1.92 12.41 12.41 0 0 0 3.24 2.07l8.72-8.89V33.18c.01-1.09-3.68-4.48-4.13-4.48zM122 47.89l-2.63 2.6a4.27 4.27 0 0 1-1.38-.92 3.66 3.66 0 0 1-.75-1.51V35.31s2.26-2.53 2.87-3.13c.62 0 1.9 1.87 1.9 2.66v13.05z"/><path d="M56.16 48.95l-1.47 1.34a4.06 4.06 0 0 1-1-2.8V32.76l1.78-2-.58-.8-1.66 1.73a9 9 0 0 0-.76-1.45 5.91 5.91 0 0 0-2.31-1.51l-4 4 .84.61s.7-.71 1.25-1.21c1 .19 1.1 2.3 1.1 2.3v12.34l-4 3.51a4.06 4.06 0 0 1-1-2.8V32.76a4.4 4.4 0 0 0-1.23-2.55 10.42 10.42 0 0 0-2.31-1.51l-4 4 .76.65s.7-.71 1.25-1.21c1 .19 1.1 2.3 1.1 2.3v14.12s.27 4.15 3.43 5.66c2.26-2.26 5.91-5.72 5.91-5.72a12.26 12.26 0 0 0 1.07 3.5 10.69 10.69 0 0 0 1.91 2.15l4.58-4.44z"/><path d="M68.57 46.45c-2.14 0-3.5 1.86-4.75 3.39a7.38 7.38 0 0 1-1.16-1.53v-3s7.94-6.51 7.94-10.92-3.11-5.72-3.11-5.72l-4.79 4.82c0-3.78-2.5-4.8-2.5-4.8l-4.34 4.46.58.73a8.4 8.4 0 0 1 1.26-1.1c.69 0 .63 1.62.63 1.62v15.14l-1.79 1.83.69.86 1.68-1.6 3.67 3.5a38.73 38.73 0 0 1 2.8-3.34c1.2-1.2 3.17-2.89 4.12-2.89a8.29 8.29 0 0 1 2 .32 3.27 3.27 0 0 0-2.93-1.77zm-5.85-11.6s1.52-2.08 2.31-2.08S67.1 34.71 67.1 37s-4.38 6.81-4.38 6.81v-9zM139.87 46.45c-2.14 0-3.5 1.86-4.75 3.39a7.4 7.4 0 0 1-1.12-1.53v-3s7.94-6.51 7.94-10.92-3.11-5.72-3.11-5.72L134 33.49c0-3.78-2.5-4.8-2.5-4.8l-4.34 4.46.58.73a8.4 8.4 0 0 1 1.26-1.1c.69 0 .63 1.62.63 1.62v15.14l-1.79 1.83.69.86 1.68-1.6 3.67 3.5a38.73 38.73 0 0 1 2.8-3.34c1.2-1.2 3.17-2.89 4.12-2.89a8.29 8.29 0 0 1 2 .32 3.27 3.27 0 0 0-2.93-1.77zM134 34.85s1.52-2.08 2.31-2.08 2.07 1.94 2.07 4.25-4.38 6.8-4.38 6.8v-9zM111 49.09a6 6 0 0 1-1.49 1.38c-.34 0-1.16-1.72-1.16-1.72V33.66c0-3.58-4.18-5.48-4.18-5.48s-3.58 3-5.18 3.06a16 16 0 0 1-3.65-.41A4.33 4.33 0 0 0 99.4 33c2.35 0 2.12-.63 2.95-.63s1.65 2.07 1.65 2.07v5.18l-5-4.29s-4.29 2.35-4.29 9.36 4.83 9.52 4.83 9.52l4.57-4.57c0 2.12 3.21 4.47 3.21 4.47l4.21-4.44zm-7-.93l-2.42 2.2s-2.46-1.75-2.46-6.11 2.44-5.14 2.44-5.14L104 41.2v7z"/><path d="M82 50.12c5.17-5 6.18-10.38 5.62-19.29s0-9.68 3.35-14.32c-3 .64-6 4.82-7.07 8.08s-.62 12.86-.71 18.41a10.48 10.48 0 0 1-3.72 8.13 15.54 15.54 0 0 0 1.74-6c.28-3.49-.46-14 .69-19.51S88.52 16 88.52 16s-2.8 1.61-4 1.47-1.7-1.1-5.24-1.1-6.23 4-6.23 4c2.25-1.42 3-1.7 4-1.65s2.8 1.33 6.43.54C79.24 23.89 77 28.13 77 34.42s1.75 14.92 1.33 16.21-3.21 3.5-3.21 3.5l.32.49a15.17 15.17 0 0 1 8.88-2.71c5.49 0 7.78 2.31 7.78 2.31s1.73-1.4 3.87-3.38c-3.8-1.97-6.9-2.42-13.97-.72z"/><g><path d="M32.46 0h3.51a.41.41 0 0 1 0 .38 3.31 3.31 0 0 0-.73.16.49.49 0 0 0-.27.52c0 .55 0 4.78-.07 5.95a5.5 5.5 0 0 1-.5 2.45 3.29 3.29 0 0 1-2.58 2 1.13 1.13 0 0 1-1-.43v-.19a3.5 3.5 0 0 1 .27-.87 3.2 3.2 0 0 0 1.44.58.94.94 0 0 0 .78-.34A3.25 3.25 0 0 0 33.76 8V1.29a.69.69 0 0 0-.46-.75 5.57 5.57 0 0 0-.85-.15.46.46 0 0 1 .01-.39zM37.85 7.64A3.27 3.27 0 0 1 37 5.35a3 3 0 0 1 .63-1.9 3.4 3.4 0 0 1 2.69-1.21 2.93 2.93 0 0 1 3.08 3 3 3 0 0 1-.62 2 3.42 3.42 0 0 1-4.93.4zm4.35-2.06c0-1.45-.66-2.87-2.21-2.87-1.25 0-1.78 1.13-1.78 2.38C38.22 6.62 39 8 40.48 8c1.25 0 1.72-1.17 1.72-2.42zM44.53 2.38h2.88a.44.44 0 0 1 0 .39c-.16 0-.39.05-.55.08a.41.41 0 0 0-.28.47v1.6a.09.09 0 0 0 .07.08 12.5 12.5 0 0 0 1.44 0h1.48a.1.1 0 0 0 .05-.08V3.24a.37.37 0 0 0-.26-.38 3.5 3.5 0 0 0-.63-.11.56.56 0 0 1 0-.39H51.62a.56.56 0 0 1 0 .39 3.68 3.68 0 0 0-.59.11c-.22.07-.28.13-.3.5s0 .78 0 1.92v2.1a.44.44 0 0 0 .28.47 3.51 3.51 0 0 0 .71.11.57.57 0 0 1-.05.39h-2.94a.49.49 0 0 1 0-.39 4 4 0 0 0 .63-.11.42.42 0 0 0 .24-.47V5.63a.07.07 0 0 0-.07-.07H46.6v1.67c0 .22.07.48.31.55a2.88 2.88 0 0 0 .65.12.56.56 0 0 1 0 .39h-2.98a.56.56 0 0 1 0-.39 4.68 4.68 0 0 0 .63-.11c.27-.08.31-.2.34-.65s0-1.2 0-2V3.26a.41.41 0 0 0-.28-.43 5 5 0 0 0-.67-.11.49.49 0 0 1-.07-.34zM52.48 2.38h2.05a2.2 2.2 0 0 0 .36.52c1 1.24 2.77 3.38 3.24 3.91V3.37a.48.48 0 0 0-.4-.52c-.16 0-.43-.07-.71-.11a.56.56 0 0 1 0-.39h2.65a.56.56 0 0 1 0 .39 2.72 2.72 0 0 0-.57.09.46.46 0 0 0-.32.5c0 .73-.05 2.41-.07 3.7v1.35a4.43 4.43 0 0 0-.85 0c-.47-.66-3.08-3.93-3.69-4.68v3.59a.49.49 0 0 0 .4.55 4.33 4.33 0 0 0 .63.11.49.49 0 0 1 0 .39h-2.66a.4.4 0 0 1 0-.39 3.28 3.28 0 0 0 .63-.11.51.51 0 0 0 .34-.52c0-.5.07-1.86.07-3.9a.52.52 0 0 0-.25-.42 2.36 2.36 0 0 0-.86-.2.49.49 0 0 1 .01-.42zM60.43 2.38h2.05a2.2 2.2 0 0 0 .36.52c1 1.24 2.77 3.38 3.24 3.91V3.37a.48.48 0 0 0-.4-.52c-.16 0-.43-.07-.71-.11a.56.56 0 0 1 0-.39h2.65a.56.56 0 0 1 0 .39 2.72 2.72 0 0 0-.57.09.46.46 0 0 0-.32.5c0 .73-.05 2.41-.07 3.7v1.35a4.43 4.43 0 0 0-.85 0c-.47-.66-3.08-3.93-3.69-4.68v3.59a.49.49 0 0 0 .4.55 4.33 4.33 0 0 0 .63.11.49.49 0 0 1 0 .39h-2.66a.4.4 0 0 1 0-.39 3.28 3.28 0 0 0 .63-.11.51.51 0 0 0 .34-.52c0-.5.07-1.86.07-3.9a.52.52 0 0 0-.25-.42 2.36 2.36 0 0 0-.86-.2.49.49 0 0 1 .01-.42zM68.52 2.38h2.95a.52.52 0 0 1 0 .4 4 4 0 0 0-.58.08.39.39 0 0 0-.31.47v4.01a.45.45 0 0 0 .36.52 4.47 4.47 0 0 0 .66.14.65.65 0 0 1 0 .39h-3.1a.56.56 0 0 1 0-.39l.63-.09a.4.4 0 0 0 .35-.43V5.1 3.34a.38.38 0 0 0-.27-.43 5 5 0 0 0-.67-.09.69.69 0 0 1-.02-.44zM72.54 2.38h3.61a8.69 8.69 0 0 0 1.17-.05.13.13 0 0 1 .05.07 9.36 9.36 0 0 0-.16 1.44.5.5 0 0 1-.39 0 3.5 3.5 0 0 0-.13-.57.49.49 0 0 0-.52-.4 13.35 13.35 0 0 0-1.47 0 .22.22 0 0 0-.13.19v1.87a.07.07 0 0 0 .05.07h1.4a.39.39 0 0 0 .38-.32 3 3 0 0 0 .09-.4.85.85 0 0 1 .42 0 9.39 9.39 0 0 0-.07 1v1a.74.74 0 0 1-.42 0c0-.22-.07-.3-.09-.42a.37.37 0 0 0-.33-.24h-1.4a.09.09 0 0 0-.05.08v1.67a.46.46 0 0 0 .24.42 10.67 10.67 0 0 0 1.55.05.77.77 0 0 0 .73-.38 3.91 3.91 0 0 0 .46-.85.55.55 0 0 1 .38.15 7.35 7.35 0 0 1-.4 1.41c-.08.16-.15.2-.58.2h-4.69a.77.77 0 0 1 0-.39c.31 0 .7-.07.89-.11s.3-.17.32-.52 0-1.14 0-2.22V3.35c0-.18-.07-.4-.3-.47a5.59 5.59 0 0 0-.66-.11.55.55 0 0 1 .05-.39zM80.43 0c.48 0 1.13.05 1.8.05h1.61a.41.41 0 0 1 0 .38c-.31.07-.5.11-.67.16s-.26.24-.2.52c.27 1.16 1 3.79 1.47 5.38h.05c.58-1.59 1.68-4.71 2-6a3.14 3.14 0 0 0 .71 0c.32 1.21 1.67 5 2.1 6.12a.06.06 0 0 0 .07 0c.36-1.12 1.25-4 1.49-5.13C91 1 91 .65 90.63.54a7.18 7.18 0 0 0-.8-.15.41.41 0 0 1 0-.38H92.94a.46.46 0 0 1 0 .38 4.16 4.16 0 0 0-.59.15 1.14 1.14 0 0 0-.7.83c-.58 1.57-1.78 5.39-2.26 7h-.69c-.31-1.12-1.61-4.87-2.11-6.19h-.05C85.93 3.94 84.83 7 84.4 8.41a3.92 3.92 0 0 0-.69 0c-.4-1.65-1.49-5.69-1.92-7a1 1 0 0 0-.69-.87 5 5 0 0 0-.71-.15.49.49 0 0 1 .04-.39zM92.82 7.1c.44-.91 1.35-3.16 1.7-4.1a5.46 5.46 0 0 0 .17-.61 1.89 1.89 0 0 0 .43 0 1.76 1.76 0 0 0 .4 0l.19.54c.2.58 1.32 3.5 1.67 4.28a1.07 1.07 0 0 0 1.17.79.65.65 0 0 1 0 .39h-2.86a.56.56 0 0 1 0-.39 2.75 2.75 0 0 0 .5-.08.21.21 0 0 0 .15-.28c-.13-.42-.36-1-.54-1.43a.14.14 0 0 0-.08-.05h-1a8.13 8.13 0 0 0-.83 0 .15.15 0 0 0-.12.09 9.77 9.77 0 0 0-.46 1.29.3.3 0 0 0 .28.38l.55.08a.57.57 0 0 1 0 .39h-2.53a.56.56 0 0 1 0-.39 1.17 1.17 0 0 0 1.21-.9zm1.26-1.59v.05h1.39a.05.05 0 0 0 0-.07c-.16-.67-.47-1.49-.63-1.92h-.05c-.17.49-.5 1.37-.71 1.95zM99.1 2.38h2.96a.56.56 0 0 1 0 .39l-.61.08a.39.39 0 0 0-.3.42v4.21a.37.37 0 0 0 .2.3 12.64 12.64 0 0 0 1.45.07.77.77 0 0 0 .63-.32 7.57 7.57 0 0 0 .69-1.2.57.57 0 0 1 .36.13 8.34 8.34 0 0 1-.57 1.75.4.4 0 0 1-.4.17c-.62 0-2.48-.05-3-.05h-1.6A.52.52 0 0 1 99 8a6 6 0 0 0 .78-.11.36.36 0 0 0 .22-.4V5.15 3.43c0-.25 0-.51-.29-.56a3 3 0 0 0-.61-.09.65.65 0 0 1 0-.4zM105.76 7.88a.46.46 0 0 0 .36-.54V5.23 3.31a.38.38 0 0 0-.36-.44 3 3 0 0 0-.61-.09.52.52 0 0 1 0-.38h2.87a.56.56 0 0 1 0 .39 2.4 2.4 0 0 0-.54.08c-.22.05-.28.17-.3.5s0 1.22 0 1.9v2.06c0 .44.09.5.35.57a4.43 4.43 0 0 0 .62.11.79.79 0 0 1 0 .39h-3.01a.65.65 0 0 1 0-.39zm4.31-4.48c-.52.57-1.14 1.24-1.63 1.69a18.34 18.34 0 0 0 2.33 2.54 1.68 1.68 0 0 0 .42.2 2.73 2.73 0 0 0 .7.09.5.5 0 0 1 0 .39A8.34 8.34 0 0 1 110 8.3a1.47 1.47 0 0 1-.5-.32 26.57 26.57 0 0 1-2-2.29.67.67 0 0 0-.22-.15.34.34 0 0 1 0-.2 7.13 7.13 0 0 0 1.92-1.8.78.78 0 0 0 .27-.5.19.19 0 0 0-.16-.17 4.31 4.31 0 0 0-.58-.09.52.52 0 0 1 0-.38h2.54a.49.49 0 0 1 0 .39 1.93 1.93 0 0 0-1.2.61zM112.52 2.38h3.61a8.69 8.69 0 0 0 1.17-.05.14.14 0 0 1 .05.07 9.34 9.34 0 0 0-.16 1.44.5.5 0 0 1-.39 0 3.5 3.5 0 0 0-.13-.57.49.49 0 0 0-.52-.4 13.35 13.35 0 0 0-1.47 0 .22.22 0 0 0-.13.19v1.87a.07.07 0 0 0 .05.07h1.4a.39.39 0 0 0 .38-.32 3 3 0 0 0 .09-.4.85.85 0 0 1 .42 0 9.35 9.35 0 0 0-.07 1v1a.73.73 0 0 1-.42 0c0-.22-.07-.3-.09-.42a.37.37 0 0 0-.34-.3h-1.4a.09.09 0 0 0-.05.08v1.67a.46.46 0 0 0 .24.42 10.68 10.68 0 0 0 1.55.05.77.77 0 0 0 .73-.38 3.92 3.92 0 0 0 .46-.85.55.55 0 0 1 .38.15 7.35 7.35 0 0 1-.4 1.41c-.08.16-.15.2-.58.2h-4.69a.77.77 0 0 1 0-.39c.31 0 .7-.07.89-.11s.3-.17.32-.52 0-1.14 0-2.22V3.29c0-.18-.07-.4-.3-.47a5.6 5.6 0 0 0-.66-.11.55.55 0 0 1 .06-.33zM118.66 2.38h3.19a1.56 1.56 0 0 1 1.8 1.51 1.64 1.64 0 0 1-1.16 1.52.1.1 0 0 0 0 .08 14 14 0 0 0 1.61 2 1.5 1.5 0 0 0 1.09.48.47.47 0 0 1-.05.38 5 5 0 0 1-1.69-.17 1.4 1.4 0 0 1-.45-.34c-.38-.43-1-1.39-1.39-1.91a.35.35 0 0 0-.3-.16h-.55a.06.06 0 0 0 0 .05v1.6a.39.39 0 0 0 .32.46 4.22 4.22 0 0 0 .65.11.52.52 0 0 1 0 .38H118.7a.52.52 0 0 1 0-.38c.2 0 .51-.07.62-.09a.46.46 0 0 0 .35-.54v-1.9-2.17a.38.38 0 0 0-.32-.43 4.36 4.36 0 0 0-.65-.09.55.55 0 0 1-.04-.39zm2 .65v2.18a.08.08 0 0 0 .07.08 4.9 4.9 0 0 0 1.18-.05 1 1 0 0 0 .66-1 1.24 1.24 0 0 0-1.45-1.33.92.92 0 0 0-.36.05.2.2 0 0 0-.06.04z"/></g></g></svg>