<svg xmlns="http://www.w3.org/2000/svg" width="166" height="90" viewBox="-5 -5 73 42" id="pernod" y="827"><path fill="#fff" d="M48.247 7.551c-.44 0-.959.064-1.457.184a3.688 3.688 0 0 1-.804.084 1.474 1.474 0 0 1-.9-.216l.006.973c.221.058.735.127 1.262.144h.511c1.446 0 1.956-.281 2.126-.425a.474.474 0 0 0 .195-.269l.001-.076a.463.463 0 0 0-.38-.34 2.362 2.362 0 0 0-.54-.061l-.061.001z"/><path fill="#fff" d="M43.106 9.239l-.03-.001a.33.33 0 0 0-.28.157.335.335 0 0 0 .248.379.526.526 0 0 0 .219.04.23.23 0 0 0 .204-.123c.052-.137-.067-.278-.361-.452zm1.412-.051a.425.425 0 0 0-.374.363.452.452 0 0 0 .18.634.292.292 0 0 0 .102.001.424.424 0 0 0 .368-.363.452.452 0 0 0-.18-.634.292.292 0 0 0-.102-.001zm-1.28-.476l-.018-.001a.17.17 0 0 0-.152.094c-.043.107.059.226.297.396h.016a.273.273 0 0 0 .242-.144.28.28 0 0 0-.227-.316.424.424 0 0 0-.155-.03zm2.049 1.276l.149-.663.791.119-.034.225a.616.616 0 0 0-.342-.127 1.326 1.326 0 0 0-.184 0h-.055l-.064.302a1.581 1.581 0 0 1 .209 0h-.004c.256 0 .463.207.463.463v.018a.425.425 0 0 1-.355.335.689.689 0 0 1-.173.022h-.013a1.08 1.08 0 0 1-.173-.001c.058.018-.128-.017-.303-.076l-.05-.209c.038.038.186.107.347.135l.116.001a.323.323 0 0 0 .361-.236.314.314 0 0 0-.314-.313l-.022.001h-.131a1.36 1.36 0 0 0-.235.001zm-.863.382a.587.587 0 0 1-.187-.031.612.612 0 0 1-.343-.823.633.633 0 0 1 .584-.477c.066 0 .129.011.188.031a.613.613 0 0 1 .343.828.628.628 0 0 1-.588.477zm-1.114-.42a.913.913 0 0 1-.329-.07.508.508 0 0 1-.419-.552.429.429 0 0 1 .427-.197.325.325 0 0 1-.15-.369.323.323 0 0 1 .29-.178l.039.002a.8.8 0 0 1 .297.061.422.422 0 0 1 .36.476.387.387 0 0 1-.367.164.426.426 0 0 1 .21.458.356.356 0 0 1-.321.204l-.042-.002zm-1.378-.515l-.425-.174a.224.224 0 0 0 .191-.147l.001-.04.298-.714-.17-.094h.021c.178 0 .346-.043.495-.118l-.431 1.015v.038c-.018.034-.028.074-.028.117s.01.083.029.118zM39.36 8.372l-.315-.123a.245.245 0 0 0 .166-.181l.37-.771a.245.245 0 0 0 0-.227l.281.112.463 1.229.276-.693a.245.245 0 0 0-.001-.243l.315.124a.237.237 0 0 0-.166.177l-.425 1.022a.449.449 0 0 1-.225-.307l-.426-1.07-.268.714a.245.245 0 0 0 .001.243zm-.472-.187l-.88-.204a.24.24 0 0 0 .136-.203l.191-.817a.239.239 0 0 0-.03-.239l.796.188-.047.196a.436.436 0 0 0-.248-.131 1.196 1.196 0 0 0-.222-.026l-.083.357.353.085-.043.183a.314.314 0 0 0-.212-.098l-.133-.03-.106.451c-.203-.078.013.019.244.081a.866.866 0 0 0 .211.029h.004a.771.771 0 0 0 .236-.036l-.006.002-.157.225zm-1.433-1.93h-.002c-.23 0-.457.012-.68.036.062.296.081.642.081.992 0 .414-.027.821-.08 1.221l.311-.047c.303 0 .714.047 1.11.135-.405-.091.186.01.746.18l-.019-.013c1.378.425 3.351 1.467 5.574 2.168a7.72 7.72 0 0 0 2.383.378h.002a4.623 4.623 0 0 0 1.88-.326c-.09.063.177-.066.397-.251a.565.565 0 0 0 .156-.39l-.001-.034a1.265 1.265 0 0 0 0-.19 9.965 9.965 0 0 1-.072-1.22v-.053-.575c.061-.063-.026.047-.134.13-.21.163-.742.427-2.196.427h-.502c-2.241-.089-3.368-.931-5.953-1.947-.821-.358-1.869-.592-2.97-.608zM38.174 9.512c-.306-.002-.825.07-1.319.201a1.922 1.922 0 0 1-.335.028h-.001q-.115.4-.264.774l.149.03a5.996 5.996 0 0 0 1.369.155c.302 0 .589-.067.846-.186a.505.505 0 0 0 .259-.327l.001-.178a.473.473 0 0 0-.149-.289.744.744 0 0 0-.516-.206l-.052.002z"/><path fill="#a9a9a9" d="M45.504 8.708c.405.062.873.098 1.349.098h.023c.267 0 .531-.014.79-.041-.245.003-.458.024-.679.024-.477 0-1.018-.031-1.549-.091zm3.712-.604c-.007.059-.103.195-.232.288-.008.025.13-.079.23-.213l.002-.07zM37.455 6.17a5.786 5.786 0 0 0-.713.055l.033.043c.089-.018.32-.041.555-.047h.04l.109-.001c.733 0 1.44.109 2.107.312-2.283-.789.243-.077 2.549 1.022-1.11-.426.769.5 2.803 1.047l.116-1.053a1.301 1.301 0 0 0 .915.264c.087.025.948-.077 1.778-.262.082-.006.272-.019.465-.019h.001c.493 0 1.063.081 1.063.425h.055a.539.539 0 0 0-.443-.425 2.493 2.493 0 0 0-.568-.065l-.054.001c-.436 0-.965.066-1.472.188a3.551 3.551 0 0 1-.773.084h-.002a1.07 1.07 0 0 1-.881-.268l-.08.001v1.072c-1.437-.306-2.551-.982-4.558-1.777a8.068 8.068 0 0 0-3.043-.595z"/><path fill="#a9a9a9" d="M48.191 7.53h-.001c-.193 0-.383.012-.57.036.076.018-.768.175-1.636.242a1.306 1.306 0 0 1-.955-.263l.003 1.078c.123.03.268.055.425.081.393.048.933.082 1.48.085.221 0 .429 0 .65-.021h.089c.384-.005.867-.139 1.292-.37.036-.009.151-.129.216-.277l.002-.081a.473.473 0 0 1-.194.271c-.189.146-.695.426-2.128.426h-.497a7.362 7.362 0 0 1-1.327-.153l.051-.961a1.456 1.456 0 0 0 .898.213c.292 0 .588-.034.872-.098.33-.089.847-.16 1.379-.169h.006l.058-.001c.191 0 .376.022.554.063a.453.453 0 0 1 .365.334l.001.003h.03c0-.332-.57-.425-1.063-.425z"/><path fill="#a9a9a9" d="M37.37 6.221h-.034c-.165 0-.375.014-.581.041l.024.036c.165-.023.417-.04.673-.043a8.02 8.02 0 0 1 3.033.628c2.523.996 3.645 1.838 5.899 1.927h.502c1.454 0 1.986-.281 2.194-.425-.065.059.048-.025.135-.13l.001-.074c.025-.006-.089.125-.23.215-.286.176-.761.33-1.27.363h-.098a7.387 7.387 0 0 1-.758.038h-.023c-.476 0-.944-.036-1.401-.104a5.04 5.04 0 0 1-.374-.074c.729.318-1.312-.257-3.159-1.166 2.491 1.175.235-.064-2.212-.889a7.422 7.422 0 0 0-2.212-.344l-.114.001zM38.943 10.192l-.038.025c-.085.251-.472.514-1.195.514-.417 0-.987-.067-1.536-.193l.052.048.166.03c.301.078.778.143 1.269.153l.093.002c.319 0 .621-.071.892-.199.126-.052.258-.204.305-.39zm.009-.285v.273a.583.583 0 0 0-.001-.276z"/><path fill="#a9a9a9" d="M38.858 10.179a.505.505 0 0 1-.269.335 1.977 1.977 0 0 1-.934.18c-.379 0-.856-.056-1.314-.161l-.106-.021v.043c.324.087.891.167 1.474.183h.01c.723 0 1.105-.264 1.195-.514a.04.04 0 0 1-.03-.025zm-.705-.684c-.485 0-1.276.225-1.65.234.128 0 .262-.014.391-.04.207-.073.72-.164 1.249-.189l.014-.001a.745.745 0 0 1 .566.204.743.743 0 0 0-.535-.227l-.054.002h.002zM49.31 7.955v.098a.346.346 0 0 0 0-.069V7.96zM38.14 8.58c.221.043.468.102.736.174.451.122-.108-.06-.693-.168zm11.085-.659V8.852c0 .432.026.857.077 1.275-.003-.022-.002.01-.002.043s-.001.066-.003.098a.566.566 0 0 1-.157.421c.085-.043-.147.139-.414.255a4.526 4.526 0 0 1-1.87.318h.009a7.927 7.927 0 0 1-2.442-.394c-2.167-.639-4.14-1.672-5.514-2.097l.03.038v.06c1.361.425 3.316 1.458 5.528 2.151a7.857 7.857 0 0 0 2.408.383 4.633 4.633 0 0 0 1.926-.334c-.108.074.169-.066.396-.263a.65.65 0 0 0 .182-.453l-.001-.044a1.444 1.444 0 0 0 0-.203 9.898 9.898 0 0 1-.072-1.216v-.058-.771-.098h-.085zM17.424 11.127h-2.976c.414.105.888.166 1.377.166h.05-.003c.537 0 1.084-.061 1.611-.175zM13.53 8.232v.619c0 .434-.026.861-.077 1.281.003-.023.002.01.002.043s.001.066.003.098l-.001.033c0 .15.059.287.155.388V8.317c.086.078-.007.006-.08-.084z"/><path fill="#fff" d="M24.555 9.499h-.016a.902.902 0 0 0-.372.079c-.014-.007-.117.059-.193.15l2.287.426a5.227 5.227 0 0 1-.128-.425 1.84 1.84 0 0 1-.311-.041l-.199-.04c-.276-.051-.582-.115-.85-.14h-.217zM23.972 9.728a.493.493 0 0 0-.123.318v.047c.01.18.122.342.282.424a1.977 1.977 0 0 0 .934.18h-.005c.383 0 .86-.056 1.319-.161l.012.008q-.072-.187-.14-.378l-2.288-.425zm-.199-.867c-.425.14-.948.34-1.501.574l1.497.268v-.259-.587zm-2.394-.829c-.1 0-.202.024-.294.066.084-.048-.066.019-.194.115l.407.887c-.174.052.043 0 .243-.082a.523.523 0 0 0 .308-.7.477.477 0 0 0-.442-.299h-.012zm-6.884-.493l-.057-.001c-.191 0-.377.022-.555.063-.16.018-.313.15-.365.325s-.001.046-.001.101c.011.077.088.192.194.267.184.146.695.426 2.128.426h.497c.306.002.825-.052 1.327-.153l-.051-.961a1.458 1.458 0 0 1-.898.213c-.292 0-.588-.034-.872-.098-.257-.08-.788-.164-1.336-.182zm8.21 1.131a.24.24 0 0 0-.001-.247l-.305-.781a.233.233 0 0 0-.164-.178l.759-.298.072.191h-.085a.507.507 0 0 0-.199.044c.1-.045-.067.013-.215.1l.142.337.34-.132.068.174h-.051a.502.502 0 0 0-.182.052l-.12.045.17.425c-.143.039.075-.007.279-.081.056-.001.215-.103.328-.244l.001.271-.85.332zm1.199-.443a.24.24 0 0 0 .042-.244l-.161-.823a.238.238 0 0 0-.13-.208l.802-.158.038.2a.391.391 0 0 0-.151-.03h-.129c.051-.019-.09.015-.221.071l.076.354.357-.068.043.174a.14.14 0 0 0-.076-.022h-.01a.845.845 0 0 0-.152 0l-.128.025.089.455c.036.002.163-.01.285-.032.088-.003.249-.075.374-.186l-.052.269-.889.174zm-1.492-1.024l.162-.332c.007-.03.04-.07.084-.093h.033c.032 0 .059.019.07.046a.11.11 0 0 1 .002.019.125.125 0 0 1-.052.101l-.238.277-.072.03zm2.874-.982a8.009 8.009 0 0 0-3.03.628c-1.915.758-3.033 1.434-4.453 1.749l1.161.208.149-.034.306.153.757.136-.153-.417a.238.238 0 0 0-.164-.178l.304-.12a.233.233 0 0 0 .001.243l.195.492.714.115c.019.058 0-.017-.031-.085l-.33-.765a.237.237 0 0 0-.168-.174l.475-.204c.114-.06.276-.104.449-.111a.709.709 0 0 1 .163 0 .549.549 0 0 1 .42.332.597.597 0 0 1-.001.5c-.072.195-.297.411-.578.504l-.147.062.795.145c.617-.259 1.174-.485 1.658-.638h.03l.153-.038c-.382.09.175-.072.754-.165.256-.05.587-.085.925-.09h.225a9.33 9.33 0 0 1 .005-2.235c-.175.045-.366.019-.57.019z"/><path fill="#a9a9a9" d="M25.286 6.153a8.098 8.098 0 0 0-3.082.637c-1.953.775-3.071 1.451-4.508 1.757V7.475h-.081a1.07 1.07 0 0 1-.886.267l.006.001c-.276 0-.567-.034-.847-.099-.273-.085-.819-.172-1.383-.19l-.062-.001c-.2 0-.395.023-.582.068a.514.514 0 0 0-.433.445c-.002.014-.002.027-.002.041l.002.04v-.112h.043c-.034-.349.527-.425 1.025-.425h.072c.156 0 .346.012.532.036l.246.023c.17.026.357.06.553.102l.2.038.298.038h.332a2.307 2.307 0 0 0 .352 0c.1.001.3-.057.475-.152.013.003.074-.04.116-.098l.001.879v.238c1.463-.302 2.585-.991 4.605-1.786-.668.236.242-.152 1.212-.387l.008-.013c.218-.077.786-.178 1.374-.208l.416-.001c.208 0 .395 0 .57.026v-.068c-.174 0-.366-.026-.574-.026z"/><path fill="#231f1f" d="M24.887 6.221c-.328-.003-.898.074-1.443.215l.083-.011c.127-.055.723-.165 1.338-.203z"/><path fill="#a9a9a9" d="M13.517 8.151c-.063-.084-.001.014.081.093v.055l.047.047c.204.162.74.425 2.194.425h.502c.359.002.933-.065 1.486-.189l-.164.01-.191.038c-.145.04-.627.104-1.12.123h-.517c-1.45 0-1.973-.281-2.168-.425.013.025-.091-.064-.164-.176z"/><path fill="#a9a9a9" d="M13.517 8.168v.064c-.073-.089-.005.007.08.084l.001-.055c.076.076-.012 0-.079-.091zM25.626 9.643l.213.043c.012.007.15.03.292.038h.006c-.14 0-.315-.043-.506-.077zm-1.054-.144h-.014a.924.924 0 0 0-.383.083.909.909 0 0 1 .372-.079h.017-.005zM23.773 9.967l-.001.038.001.04a.6.6 0 0 0 .332.532c.261.124.563.195.881.195l.092-.002c.374 0 .854-.056 1.315-.161l.029.008v-.038c-.272.074-.797.149-1.337.166h-.093c-.209 0-.41-.03-.601-.085.074.032-.107-.022-.269-.106-.048-.008-.162-.102-.233-.223a.374.374 0 0 1-.069-.188v-.002l-.038-.025v-.068-.073z"/><path fill="#a9a9a9" d="M26.4 10.558h-.064c-.304.078-.78.143-1.269.153l-.052.001c-.221 0-.435-.028-.64-.081.193.055.395.085.604.085h.082c.386 0 .896-.056 1.387-.162l-.048.009zm-2.598-.421a.36.36 0 0 0 .069.188.468.468 0 0 1-.064-.185z"/><path fill="#a9a9a9" d="M23.849 10.09a.039.039 0 0 1-.036.026h-.002a.469.469 0 0 0 .065.19c.013.052.112.161.238.225-.076-.028.09.056.27.105.197.051.411.079.632.079h.048c.378 0 .857-.056 1.317-.161l.02.008v-.043h-.055a5.996 5.996 0 0 1-1.269.153h-.007a2.01 2.01 0 0 1-.94-.184.51.51 0 0 1-.272-.418zm-6.178-2.594c-.003.021-.051.08-.113.118a1.088 1.088 0 0 1-.473.149 2.509 2.509 0 0 1-.357 0h-.324l-.298-.038-.2-.038a8.583 8.583 0 0 0-.553-.102 5.127 5.127 0 0 0-.85-.089l-.056-.001c-.199 0-.392.023-.578.068a.497.497 0 0 0-.408.367l.042.004a.464.464 0 0 1 .38-.331 2.407 2.407 0 0 1 .614-.064c.437 0 .956.064 1.455.184.206.049.501.084.804.084a1.468 1.468 0 0 0 .899-.216l-.006.973c-.221.058-.735.127-1.262.144h-.511c-1.446 0-1.956-.281-2.126-.425-.066-.032-.154-.138-.195-.264l-.001.12c-.024-.014.058.097.164.177.197.154.716.426 2.17.426h.502c.217.003.679-.039 1.129-.118l.126-.027V7.466zm7.59-1.305h-.4c-.223-.008-.829.071-1.41.215.61-.184-.373.043-1.284.411-1.958.777-3.08 1.462-4.543 1.764h.111c1.42-.315 2.551-.991 4.507-1.769.822-.358 1.87-.592 2.97-.608.21 0 .401 0 .572.025v-.008c-.174 0-.366-.026-.57-.026z"/><path fill="#a9a9a9" d="M24.759 8.534c.294-.065-.29.026-.845.182a9.53 9.53 0 0 1 .845-.182zm-11.255-.613h-.085v.921c0 .432-.026.858-.077 1.277.003-.02.002.014.002.05s.001.07.003.105l-.001.035c0 .176.07.336.184.454-.1-.058.138.139.414.267a4.582 4.582 0 0 0 1.913.327 8.002 8.002 0 0 0 2.459-.399c1.427-.452 2.796-1.068 3.948-1.557a22.38 22.38 0 0 1 1.501-.574v-.055c-.485.149-1.042.378-1.658.638-1.11.463-2.432 1.063-3.857 1.488a7.611 7.611 0 0 1-.821.213 7.447 7.447 0 0 1-1.559.166h-.049c-.489 0-.964-.061-1.417-.175.097.04-.162-.032-.398-.146.072.058-.195-.072-.415-.256l.003.002a.561.561 0 0 1-.154-.388l.001-.039a1.265 1.265 0 0 1 0-.19c.046-.365.072-.793.072-1.226v-.047V8.151v-.123-.098z"/><path fill="#fff" d="M59.752 12.888H34.708c.597-.592.01.086-.702.601l25.533.011 1.735 1.42h.021v7.356h-.021l-1.709 1.467H3.099l-1.752-1.416-.034-.017v-7.36h.021l1.735-1.42h25.575c.662.49-.1.011-.718-.612H2.882L.714 14.687V22.6l2.164 1.773h56.874L61.92 22.6v-7.938l-2.168-1.773z"/><path fill="#a9a9a9" d="M59.99 12.173H35.329c.598-.814.071.027-.613.715h25.048l2.168 1.773v7.938l-2.168 1.773H2.882L.714 22.599v-7.938l2.168-1.769h25.044c.727.725-.023.08-.6-.701l-24.699-.017-.098.081-2.53 2.066v8.619l.132.106 1.446 1.182 1.046.859H59.99l.098-.081 2.53-2.062v-8.623l-.132-.106-1.429-1.191-.948-.774-.119-.077z"/><path fill="#a9a9a9" d="M45.143 16.4h-.387c-.702 0-.961.34-.961.906v2.751c0 .566.259.906.961.906h.387c.702 0 .961-.34.961-.906v-2.751c0-.566-.259-.906-.961-.906zm-36.261-.022h-.723l-.043.047v2.126l.064.064h.85c.91 0 1.203-.268 1.203-1.127 0-.935-.242-1.127-1.314-1.127zm17.216-.017h-.782l-.064.064v1.79l.064.064h.787c.85 0 1.186-.14 1.186-.952s-.157-.969-1.229-.969zm28.293-.004h-1.097l-.064.064V21l.064.064h1.11c.702 0 .961-.336.961-.906v-2.883c0-.689-.166-.889-.974-.889zm-10.873 5.557c-1.586 0-2.037-.395-2.037-1.803v-2.857c0-1.407.451-1.803 2.037-1.803h2.866c1.586 0 2.037.395 2.037 1.803v2.853c0 1.407-.451 1.803-2.037 1.803h-2.849zM4.975 16.306v-.85h5.476c1.237 0 2.071.544 2.071 2.062s-.753 2.156-2.126 2.156H8.164l-.047.064v.991a.268.268 0 0 0 .261.328H9.07v.85H4.988v-.85H5.5a.268.268 0 0 0 .261-.33v-4.093a.268.268 0 0 0-.261-.328h-.526zm8.844 0v-.85h6.493v1.918h-1.203c-.132-.6-.349-.974-1.029-.974h-1.195l-.06.026v1.701l.064.064h.799c.327 0 .51-.038.587-.327h.927v1.641h-.927c-.077-.285-.259-.327-.587-.327h-.799l-.064.064v1.701l.064.064h1.195c.68 0 .897-.285 1.029-.884h1.203v1.79h-6.484v-.85h.512a.268.268 0 0 0 .261-.33v-4.097a.268.268 0 0 0-.261-.328h-.525zm8.397 0v-.85h5.459c1.484 0 2.126.595 2.126 1.611 0 1.165-.625 1.654-1.212 1.765-.089 0-.098.089 0 .111a1.125 1.125 0 0 1 .88 1.19c.039.638.221.94.664.94h.357v.85h-2.134c-.799 0-1.14-.272-1.14-1.416 0-1.054-.638-1.169-1.195-1.169h-.706l-.064.064v1.335a.268.268 0 0 0 .261.328H26.204v.85h-3.971v-.85h.506a.268.268 0 0 0 .259-.338v-4.093a.268.268 0 0 0-.261-.328h-.525zm14.755 0v-.85h2.853v.85h-.5a.268.268 0 0 0-.261.33v5.275h-1.905l-3.376-3.852h-.047l-.068.068v2.623a.272.272 0 0 0 .266.327H34.623v.85h-2.828v-.85h.508a.268.268 0 0 0 .261-.33v-4.114a.268.268 0 0 0-.261-.328h-.522v-.85h2.734l3.3 3.759h.051l.064-.064v-2.551a.268.268 0 0 0-.261-.328H36.973zm13.134-.034v-.85h5.557c1.573 0 2.024.557 2.024 1.56v3.1c0 1.318-.502 1.803-2.011 1.803h-5.553v-.85h.529a.268.268 0 0 0 .261-.33v-4.072a.268.268 0 0 0-.261-.328h-.526zM3.142 13.619l-1.701 1.39v7.228l1.701 1.386h56.351l1.701-1.386v-7.228l-1.701-1.386H33.816c-.7.479-1.564.765-2.496.765s-1.796-.286-2.511-.775l-25.666.01z"/><path fill="#a9a9a9" d="M3.121 13.5H3.1l-1.752 1.433-.034.017v7.36h.021l1.735 1.42h56.466l1.735-1.42h.021v-7.36h-.021l-1.705-1.433H33.991l-.085.06H59.52l1.748 1.403v7.301l-1.735 1.42H3.123l-1.735-1.42V14.98l1.735-1.42h25.609l-.085-.06H3.135z"/><path fill="#a9a9a9" d="M3.121 13.559l-1.735 1.42v7.301l1.735 1.42h56.393l1.752-1.42v-7.301l-1.735-1.42H33.905l-.089.06h25.682l1.701 1.386v7.228l-1.701 1.386H3.143l-1.701-1.386v-7.228l1.701-1.39H28.82l-.089-.06H3.122z"/><path fill="#a9a9a9" d="M44.752 20.962c-.702 0-.961-.34-.961-.906v-2.751c0-.566.259-.906.961-.906h.387c.702 0 .961.34.961.906v2.751c0 .566-.259.906-.961.906h-.387zm1.619-5.528h-2.849c-1.586 0-2.037.395-2.037 1.803v2.853c0 1.407.451 1.803 2.037 1.803h2.862c1.586 0 2.037-.395 2.037-1.803v-2.836c0-1.407-.451-1.803-2.037-1.803zM8.164 18.628l-.047-.077v-2.126l.064-.064h.723c1.067 0 1.314.191 1.314 1.127 0 .85-.289 1.127-1.203 1.127h-.85zm2.287-3.194H4.975v.85H5.5a.268.268 0 0 1 .261.33v4.093a.268.268 0 0 1-.261.328h-.513v.85h4.065v-.85h-.68a.268.268 0 0 1-.255-.308v-.989l.064-.068h2.215c1.39 0 2.126-.651 2.126-2.156s-.85-2.062-2.071-2.062zm9.86.017h-6.493v.85h.525a.268.268 0 0 1 .261.33v4.093a.268.268 0 0 1-.261.328h-.513v.85h6.48v-1.743h-1.203c-.132.6-.349.884-1.029.884h-1.191l-.064-.064v-1.701l.064-.064h.799c.327 0 .51.043.587.327h.927V17.9h-.927c-.077.285-.259.327-.587.327h-.799l-.064-.064v-1.739l.064-.064h1.195c.68 0 .897.37 1.029.974h1.203V15.45zM25.32 18.3l-.064-.064v-1.811l.064-.064h.744c1.072 0 1.229.187 1.229.969s-.323.952-1.186.952h-.791zm2.356-2.849h-5.459v.85h.525a.268.268 0 0 1 .261.33v4.093a.268.268 0 0 1-.261.328h-.508v.85h3.976v-.85H25.519a.268.268 0 0 1-.261-.33v-1.321l.064-.064h.697c.561 0 1.195.115 1.195 1.169 0 1.144.34 1.416 1.14 1.416h2.156v-.85h-.349c-.425 0-.625-.302-.663-.944a1.122 1.122 0 0 0-.877-1.193c-.092-.001-.084-.095-.007-.112.587-.111 1.212-.6 1.212-1.765 0-1.016-.655-1.611-2.126-1.611zm12.16-.004h-2.857v.85H37.674a.268.268 0 0 1 .261.33v2.549l-.055.055h-.051l-3.3-3.759h-2.751v.85h.521a.268.268 0 0 1 .261.33v4.093a.268.268 0 0 1-.261.328h-.505v.85h2.828v-.85H33.932a.272.272 0 0 1-.266-.329v-2.617l.064-.068h.047l3.38 3.852h1.901v-5.277a.268.268 0 0 1 .261-.328h.509v-.85zm13.458 5.626l-.064-.064v-4.584l.064-.064h1.097c.808 0 .974.204.974.889v2.896c0 .566-.259.906-.961.906h-1.11zm2.368-5.639h-5.553v.85h.542a.268.268 0 0 1 .261.33v4.093a.268.268 0 0 1-.261.328h-.513v.85h5.557c1.509 0 2.011-.485 2.011-1.803v-3.074c0-.999-.451-1.56-2.024-1.56z"/><path fill="#fff" d="M55.437 21.668H49.88v-.85h.507a.272.272 0 0 0 .266-.329v-4.097a.272.272 0 0 0-.266-.327h-.52v-.85h5.557c1.573 0 2.024.557 2.024 1.56v3.1c0 1.318-.497 1.803-2.007 1.803zm-45.3-2.241c1.39 0 2.126-.651 2.126-2.156s-.85-2.066-2.071-2.066H4.716v.85h.52a.272.272 0 0 1 .266.329v4.093a.268.268 0 0 1-.261.328h-.496v.85h4.061v-.85h-.704a.268.268 0 0 1-.261-.33v-.985l.064-.068h2.215zm-2.233-1.042l-.064-.064v-2.126l.064-.064h.723c1.067 0 1.31.191 1.31 1.127 0 .85-.289 1.127-1.203 1.127h-.85zm8.704 2.415l-.064-.064v-1.701l.102-.06h.799c.327 0 .514.043.587.327h.927v-1.645h-.927c-.072.285-.259.323-.587.323h-.799l-.064-.064v-1.701l.064-.064h1.191c.68 0 .897.37 1.029.974h1.199v-1.922h-6.488v.85h.508a.268.268 0 0 1 .261.33v4.093a.268.268 0 0 1-.261.328h-.496v.85h6.48v-1.739h-1.203c-.132.6-.349.884-1.029.884h-1.191zm8.466-2.746l-.064-.064V16.2l.064-.064h.744c1.072 0 1.229.187 1.229.965s-.323.957-1.186.957h-.787zm30.052 1.866v-2.896c0-.689-.17-.889-.974-.889h-1.097l-.064.064v4.558l.064.064h1.105c.702 0 .961-.336.961-.906zm-6.964-2.908c0-1.407-.451-1.803-2.037-1.803h-2.853c-1.586 0-2.032.395-2.032 1.803v2.853c0 1.407.446 1.803 2.032 1.803h2.853c1.586 0 2.037-.395 2.037-1.803v-2.853zm-2.305 2.815c0 .566-.259.906-.961.906h-.387c-.702 0-.961-.34-.961-.906v-2.764c0-.566.259-.906.961-.906h.387c.702 0 .961.34.961.906v2.764zm-15.945 1.007c-.425 0-.625-.302-.663-.94a1.123 1.123 0 0 0-.872-1.184c-.093-.001-.084-.095-.008-.112.587-.111 1.212-.6 1.212-1.765 0-1.016-.659-1.611-2.126-1.611h-5.481v.85h.521a.268.268 0 0 1 .261.33v4.093a.268.268 0 0 1-.261.328h-.508v.85h3.988v-.85h-.703a.272.272 0 0 1-.266-.329v-1.342l.064-.064h.706c.557 0 1.199.115 1.199 1.169 0 1.148.336 1.42 1.135 1.42h2.16v-.85h-.357zm3.627-3.014l3.38 3.852h1.901v-5.281a.268.268 0 0 1 .261-.328h.5v-.85h-2.849v.85h.686a.272.272 0 0 1 .266.329v2.549l-.064.034h-.051l-3.3-3.759h-2.73v.85h.516a.272.272 0 0 1 .266.329v4.093a.272.272 0 0 1-.266.327h-.503v.85h2.828v-.85H33.69a.272.272 0 0 1-.266-.329V17.86l.064-.064h.047zM25.652 8.538c-.521.001-1.198.104-1.837.294l.051.905c-.038.041.025-.047.105-.114a.847.847 0 0 1 .594-.197c.457 0 1.146.187 1.541.225.076.364-.116-.327-.22-1.046l-.235-.047z"/><path fill="#a9a9a9" d="M24.172 9.575c-.02-.005-.123.062-.199.152l-.001.001c-.002-.017.088-.101.196-.152zm.612-.068c.259.025.566.085.85.14.032-.01-.391-.1-.829-.139zM23.777 9.69v.276a.468.468 0 0 1 .044-.161l-.001-.107h-.043z"/><path fill="#a9a9a9" d="M23.972 9.728c-.073.082-.121.195-.123.318s0 .03 0 .047v-.047a.497.497 0 0 1 .115-.303l-.001.001zm-.157-.876h-.043v.846h.043v-.85zm.145-.136l-.153.038h.017l.14-.043zm1.705-.259c-.268 0-.6.031-.923.09a6.36 6.36 0 0 1 1.023-.086h-.113zM25.55 9.584l.332.068c.001.004.122.022.245.03h.006a1.66 1.66 0 0 1-.29-.041l-.211-.019h-.089z"/><path fill="#a9a9a9" d="M24.555 9.456l-.034-.001a.942.942 0 0 0-.397.088c-.021-.005-.134.072-.214.175l.046.001c-.002-.017.088-.101.196-.152a.903.903 0 0 1 .38-.082h.235c.04-.014.474.044.889.149.148.026.327.056.467.068v-.038a1.79 1.79 0 0 1-.264-.032l-.31-.049c-.251-.047-.519-.098-.753-.123h-.213zM23.773 10.077zm.046-.268a.465.465 0 0 0-.042.154V10.076l.038.025a.5.5 0 0 1 0-.143v-.15zM23.815 10.111z"/><path fill="#a9a9a9" d="M23.926 9.72a.518.518 0 0 0-.106.292V10.013 9.97a.5.5 0 0 0 0 .143v-.003h.001a.041.041 0 0 0 .029-.013v-.051c0-.119.044-.229.115-.315l-.047.001zm1.692-.106l.217.043c-.011.003.127.027.269.038h.007c-.136-.03-.298-.072-.48-.072zm-1.055-.141h-.025a.937.937 0 0 0-.406.092.923.923 0 0 1 .433-.087h-.011zM25.75 8.453c-.329 0-.683.03-1.029.086-.196.033-.46.088-.757.165l-.14.043h-.047v.089h.043v-.064c.414-.143 1.102-.27 1.816-.293h.241v-.043h-.128z"/><path fill="#a9a9a9" d="M23.819 10.013v0zm1.833-1.522c-.53.001-1.225.109-1.88.307l.052.038v1.165a.525.525 0 0 1 .107-.295c0-.023.098-.118.216-.176a.935.935 0 0 1 .404-.091h.246c.234.021.502.072.753.123h.089c.183.034.353.064.489.077v-.043c-.395-.038-1.084-.225-1.543-.225l-.047-.001a.841.841 0 0 0-.545.198c.03-.038-.051.037-.108.128l-.001-.878c.408-.138 1.079-.258 1.775-.28h.245v-.043h-.251z"/><path fill="#fff" d="M37.03 8.538h-.289c.056-.217-.047.48-.227 1.145.388-.061 1.149-.291 1.642-.291.22.001.423.088.574.23-.029-.037.051.038.109.129l.001-.899c-.35-.129-1.044-.265-1.766-.297l-.046-.001z"/><path fill="#a9a9a9" d="M38.875 8.772h-.004zm-1.811-.302h-.085c.375 0 .793.04 1.198.117a5.53 5.53 0 0 0-1.106-.134z"/><path fill="#a9a9a9" d="M36.983 8.47h-.221v.03h.31c.482-.001 1.2.113 1.877.32l-.053-.014v-.043h-.026a13.779 13.779 0 0 0-.736-.174 6.384 6.384 0 0 0-1.153-.111zM38.943 10.192zm-.051-1.344V9.8c-.008-.025.024.042.042.115l.001-1.055h-.043zM38.905 8.759zM38.731 9.72c.062.066.11.171.119.287v.176a.49.49 0 0 0-.119-.463z"/><path fill="#a9a9a9" d="M38.901 9.801v.281a.33.33 0 0 1 0 .151v-.002l.038-.025v-.149-.137c.009.016-.011-.057-.044-.122zm-.064 0a.678.678 0 0 1 .059.217v.004a.51.51 0 0 0-.061-.216zm-1.331-.26c.301-.046-.316.085-.953.154l-.042.004c.103 0 .225-.012.344-.036.277-.049.451-.104.639-.143zm.634-.093c-.106 0-.236.009-.363.027.104-.002.206-.002.321-.002l.041-.001c.149 0 .291.027.423.076a.955.955 0 0 0-.401-.088l-.034.001z"/><path fill="#a9a9a9" d="M38.11 9.465h-.306l-.298.047c-.187.038-.361.094-.651.145a1.803 1.803 0 0 1-.33.034h-.001v.025c.387 0 1.165-.234 1.65-.234a.741.741 0 0 1 .587.225.49.49 0 0 1 .118.467l.001-.003a.036.036 0 0 0 .03.025.33.33 0 0 0 0-.151v-.057.031a.7.7 0 0 0-.062-.227c-.02-.067-.129-.183-.266-.248a1.185 1.185 0 0 0-.418-.075l-.043.001zM38.905 8.772v.089h.043v-.06l-.038-.03z"/><path fill="#a9a9a9" d="M38.901 10.005V10.034v-.03zm-1.833-1.51h-.31v.043h.319c.468-.001 1.171.11 1.834.311-.053.386-.053.679-.053.888.036.031-.036-.053-.125-.113a.848.848 0 0 0-.546-.198l-.049.001h.002c-.493 0-1.276.217-1.629.23V9.7c-.193.041.443-.034 1.058-.169l.235-.035a2.46 2.46 0 0 1 .347-.025l.034-.001a.95.95 0 0 1 .399.088c.069.015.191.117.265.25a.517.517 0 0 1 .061.214v-.219-.999c-.362-.134-1.071-.273-1.808-.306z"/><path fill="#a9a9a9" d="M31.218 14.121h-.157l.017-.557h.136v.549zm.629-.043l-.072-.544h.136l.094.544-.157.025zm-1.416-.038l-.153-.038.14-.553.132.034-.119.536zm2.186-.136l-.174-.523.128-.047.208.54-.149.051zm-2.926-.107l-.145-.064.234-.497.128.055-.217.506zm3.657-.187l-.272-.497.128-.068.276.476-.136.077zm-4.354-.195l-.132-.085.31-.451.115.077-.298.463zm5-.243l-.336-.425.111-.085.349.425-.123.098zm-5.625-.212l-.115-.106.374-.4.102.094-.366.425zm6.203-.281l-.395-.383.098-.123.425.374-.106.111zm-6.73-.28l-.098-.119.425-.349.089.106-.425.361zm7.245-.328l-.425-.332.085-.115.446.319-.089.123zm-7.705-.289l-.085-.128.463-.298.077.119-.455.306zm8.147-.357l-.476-.276.072-.123.48.268-.077.132zm-8.538-.306l-.068-.136.493-.242.064.128-.489.255zm8.891-.37l-.502-.225.055-.132.506.217-.06.14zm-9.21-.323l-.055-.145.514-.191.051.132-.51.204zm9.491-.391l-.523-.174.043-.136.497.157-.047.145zM26.4 9.694l-.043-.149.532-.145.038.136-.527.157zm9.945-.404l-.536-.128.03-.14.536.115-.034.149zm-10.128-.344l-.026-.149.54-.094.026.14-.54.102zm10.265-.425l-.544-.077v-.14l.544.068v.153zm-10.388-.476l.549-.047v.145l-.549.055v-.153zm10.468-.264l-.553-.03v-.145h.548v.153zm-10.502-.37v-.153h.553v.145h-.549zm.553-.238h-.553V7.02h.549v.145zm9.405-.179v-.145l.548-.026v.153h-.548zm-9.354-.561l-.549-.051v-.153l.549.06v.14zm9.32-.17v-.14l.544-.072v.153l-.548.064zm-9.235-.468l-.54-.098.03-.149.54.111-.03.136zm9.107-.165l-.03-.14.536-.119.034.149-.54.111zm-8.929-.532l-.549-.153.043-.149.527.149-.038.136zm8.755-.153l-.043-.136.523-.17.047.145-.527.162zm-8.546-.514l-.514-.2.055-.14.51.208-.051.132zm8.308-.158l-.055-.132.506-.221.06.14-.51.208zm-8.023-.514l-.489-.251.072-.136.485.259-.064.128zm7.717-.149l-.068-.123.476-.272.077.136-.485.264zm-7.36-.464l-.459-.302.085-.128.455.31-.081.119zm6.986-.14l-.081-.115.425-.323.089.128-.451.315zm-6.582-.421l-.425-.353.102-.119.425.366-.094.106zm6.14-.123l-.089-.111.4-.383.106.115-.425.366zm-5.639-.387l-.37-.425.119-.106.357.425-.106.094zm5.145-.106l-.106-.089.344-.425.115.089-.353.425zm-7.049 5.315l-.001-.123c0-1.572.495-3.028 1.339-4.22a3.765 3.765 0 0 1 6.408.007 7.289 7.289 0 0 1 1.333 4.213l-.001.129.001.116a7.277 7.277 0 0 1-1.339 4.22 3.765 3.765 0 0 1-6.408-.007 7.289 7.289 0 0 1-1.333-4.213l.001-.129v.006zm2.457-5.639l-.306-.459.132-.068.289.468-.115.077zm4.027-.102l-.119-.072.272-.463.136.081-.289.455zm-3.423-.246l-.225-.489.145-.06.204.51-.128.055zm2.802-.047l-.128-.047.187-.51.149.043-.204.51zm-2.151-.161l-.128-.536.153-.034.106.54-.136.03zm1.492-.035l-.132-.021.077-.544.157.025-.098.54zm-.816-.059l-.021-.548h.157v.544h-.136zm.148-.821c-2.759 0-5.043 2.602-5.455 6.004v.085a9.33 9.33 0 0 0 .005 2.235l-.005-.045v.085c-.084-.336.044.425.263 1.146l-.016-.019v.038c.038.14.081.276.128.425s.089.255.14.378v.081c-.278-.424.229.678.952 1.602-.61-.831-.083.011.6.698-.598-.593-.011.085.702.601l.102.071.089.06c.7.479 1.564.765 2.496.765s1.796-.286 2.511-.775l.074-.05.085-.06c-.661.49.101.011.718-.612-.736.716.026.078.614-.699-.264.474.428-.471.874-1.545l.018-.087v-.043q.149-.374.264-.774v-.068c-.075.362.116-.328.22-1.046l.006-.132c.048-.353.075-.76.075-1.174 0-.35-.02-.696-.057-1.036l.004-.064C36.318 2.817 34.031.194 31.263.194z"/><path fill="#fff" d="M31.077 13.564v.553h.157v-.549h-.157zm.821-.039h-.136l.072.544.157-.025-.064-.523zm-1.48-.076l-.14.531.153.038.119-.536-.132-.034zm2.156-.115l-.128.047.174.523.157-.03-.191-.514zm-2.789-.098l-.234.497.145.064.217-.506-.128-.055zm3.418-.191l-.119.068.264.485.136-.077-.281-.476zm-4.026-.17l-.31.451.132.085.298-.463-.115-.077zm4.6-.234l-.111.085.336.425.123-.098-.349-.425zm-5.14-.221l-.374.4.115.106.366-.425-.102-.094zm5.638-.247l-.098.102.395.383.106-.111-.425-.374zm-6.148-.242l-.425.349.098.119.425-.361-.089-.106zm6.577-.306l-.085.115.425.332.089-.123-.446-.319zm.766-.192zm-7.769-.068l-.463.298.085.128.455-.306-.077-.119zm7.365-.331l-.072.123.476.276.077-.132-.48-.268zm-7.709-.285l-.493.242.068.136.489-.255-.064-.128zm8.023-.357l-.055.132.502.225.06-.14-.506-.217zm-8.304-.302l-.514.191.055.145.51-.204-.051-.132zm8.551-.366l-.043.136.523.174.072-.153-.523-.166zm-8.738-.319l-.532.145.043.145.527-.153-.038-.136zm8.951-.378l-.03.14.536.128.034-.149-.54-.119zm-9.108-.319l-.54.094.026.149.54-.102-.026-.14zm9.227-.387v.14l.544.077v-.153l-.544-.068zm-9.865-.281zm.549-.046l-.549.047v.153l.549-.055v-.145zm9.375-.387v.145l.548.03v-.153h-.548zm-9.405-.323h-.553v.153h.549v-.145zm-.553-.226v.153h.553v-.145h-.549zm10.507-.17l-.548.026v.145h.548v-.153zm-10.452-.604v.153l.549.051v-.14l-.549-.06zm10.379-.174l-.544.072v.14l.548-.064v-.153zm-10.26-.578l-.03.149.544.115.026-.14-.54-.111zm10.128-.162l-.536.119.03.14.54-.111-.034-.149zm-9.941-.578l-.043.149.532.149.038-.145-.527-.157zm9.759-.174l-.523.17.026.157.527-.162-.03-.166zm-9.482-.549l-.055.14.514.2.051-.132-.51-.208zm9.21-.166l-.506.221.055.132.51-.208-.06-.14zm-8.904-.527l-.072.136.489.251.064-.128L27 3.376zm8.538-.157l-.476.272.068.123.485-.264-.077-.136zm-8.138-.502l-.085.128.459.302.081-.119-.455-.31zm7.725-.149l-.425.323.081.115.451-.315-.089-.128zm-7.211-.463l-.102.119.425.353.094-.106-.425-.366zm6.714-.136l-.4.378.094.102.425-.366-.119-.115zm-6.199-.426l-.115.102.37.425.102-.102-.357-.425zm5.621-.097l-.344.425.119.098.353-.425-.128-.098zm-4.992-.328l-.132.085.306.459.115-.077-.289-.468zm4.354-.11l-.272.48.119.055.289-.468-.136-.068zm-3.652-.26l-.145.06.225.502.128-.055-.204-.51zm2.938-.055l-.183.506.128.047.204-.51-.149-.043zM30.52.531l-.153.034.128.536.136-.03-.115-.553zm1.408-.042l-.077.544.136.021.102-.54-.162-.026zm-.63-.047h-.153l.021.548h.136V.442z"/><path fill="#fff" d="M27.327 7.284l-.001-.117a6.8 6.8 0 0 1 1.181-3.84 3.255 3.255 0 0 1 5.635.008 6.803 6.803 0 0 1 1.187 3.851l-.001.103.001.111a6.8 6.8 0 0 1-1.181 3.84 3.255 3.255 0 0 1-5.635-.008A6.795 6.795 0 0 1 27.339 7.4l.001-.123v.006zm4.005-5.953c-1.251.032-2.395.71-3.074 1.725a7.112 7.112 0 0 0-1.285 4.24 7.124 7.124 0 0 0 1.29 4.238 3.604 3.604 0 0 0 6.141-.008 7.124 7.124 0 0 0 1.284-4.246l.001-.131a7.128 7.128 0 0 0-1.292-4.103c-.626-.969-1.76-1.662-3.06-1.716z"/><path fill="#a9a9a9" d="M26.944 7.284l-.001-.139c0-1.526.478-2.94 1.292-4.101.626-.969 1.76-1.662 3.06-1.716h.008c1.251.032 2.395.71 3.074 1.725a7.117 7.117 0 0 1 1.286 4.094l-.001.145.002.135a7.128 7.128 0 0 1-1.292 4.103 3.604 3.604 0 0 1-6.141-.008 7.12 7.12 0 0 1-1.284-4.245zm4.376-6.123c-1.307.031-2.5.734-3.21 1.788a7.279 7.279 0 0 0-1.332 4.341v-.006l-.001.119c0 1.572.495 3.028 1.339 4.22a3.765 3.765 0 0 0 6.408-.007 7.289 7.289 0 0 0 1.333-4.213l-.001-.125.001-.117a7.277 7.277 0 0 0-1.339-4.22c-.657-1.008-1.839-1.726-3.191-1.78z"/><path fill="#a9a9a9" d="M31.32 1.845c-1.109.035-2.123.653-2.709 1.572a6.651 6.651 0 0 0-1.148 3.872l-.001.109a6.66 6.66 0 0 0 1.155 3.76c.534.871 1.538 1.506 2.694 1.562h.008c1.119-.031 2.138-.651 2.726-1.572a6.659 6.659 0 0 0 1.149-3.751l-.001-.121.001-.109a6.66 6.66 0 0 0-1.155-3.76c-.534-.871-1.538-1.506-2.694-1.562z"/><path fill="#a9a9a9" d="M31.32 1.705c-1.155.035-2.21.677-2.819 1.631a6.79 6.79 0 0 0-1.174 3.954l.068-.006c0-3.036 1.76-5.527 3.925-5.527s3.925 2.47 3.925 5.527-1.76 5.527-3.925 5.527-3.925-2.47-3.925-5.527h-.068l-.001.117a6.8 6.8 0 0 0 1.181 3.84 3.255 3.255 0 0 0 5.635-.008 6.803 6.803 0 0 0 1.187-3.851l-.001-.103.001-.111a6.8 6.8 0 0 0-1.181-3.84c-.557-.907-1.602-1.565-2.804-1.622z"/><path fill="#a9a9a9" d="M27.463 7.284l-.001-.115c0-1.394.426-2.688 1.155-3.76.534-.871 1.538-1.506 2.694-1.562h.008c1.119.031 2.138.651 2.726 1.572a6.659 6.659 0 0 1 1.149 3.751l-.001.121.001.109a6.66 6.66 0 0 1-1.155 3.76c-.534.871-1.538 1.506-2.694 1.562h-.008c-1.109-.035-2.123-.653-2.709-1.572a6.652 6.652 0 0 1-1.165-3.775l.001-.096zm3.857-5.528c-2.164 0-3.925 2.47-3.925 5.527 0 3.036 1.76 5.527 3.925 5.527s3.925-2.47 3.925-5.527-1.76-5.527-3.925-5.527z"/><path fill="#fff" d="M28.564 7.071c0-.383 0-.748-.026-1.101.575-.443.067-.108-.348.318l-.15-.327c-.309.249.37-.168.909-.722l.061.058c-.021.425-.021 1.093-.021 1.947s0 1.488.021 1.922a1.096 1.096 0 0 0-.241-.03c-.077 0-.166.011-.251.031.033-.682.046-1.375.046-2.081zM30.201 6.267c0-.468.085-.702.259-.702s.259.221.259.702-.089.702-.259.702-.259-.23-.259-.702zm.57.778a.803.803 0 0 0 .364-.83c.001-.573-.233-.892-.671-.892s-.663.361-.663.897a.809.809 0 0 0 .358.806l.003.044c-.289.123-.425.48-.425 1.037 0 .719.272 1.135.757 1.135s.757-.459.757-1.135c0-.566-.149-.918-.425-1.037v-.026zm-.54 1.068c0-.6.094-.897.285-.897s.285.298.285.897-.102.897-.285.897-.285-.289-.285-.897zM32.204 5.57c.264 0 .315.532.315 1.722s-.051 1.722-.315 1.722-.315-.536-.315-1.722.055-1.722.315-1.722zm-.77 1.722c0 1.356.213 1.964.765 1.964s.774-.642.774-1.964-.196-1.964-.77-1.964-.77.642-.77 1.964zM33.399 7.352c.017-.164.026-.355.026-.549l-.001-.089c0-.553 0-.982-.03-1.292a2.783 2.783 0 0 0 .336-.001h.766v.706a3.464 3.464 0 0 0-.438-.034c-.129 0-.29.011-.448.032l.019-.002s0 .319-.021.944a.5.5 0 0 1 .357-.157c.4 0 .66.425.66 1.05 0 .782-.319 1.297-.85 1.297h-.019a.664.664 0 0 1-.549-.291c.058-.202.118-.428.177-.661h.038c.043.48.149.697.357.697s.353-.327.353-.94-.115-.85-.332-.85a.357.357 0 0 0-.288.227zM29.513 4.613l.038-.072.047-.068c.258.12.027.03-.178-.098l-.043-.017-.145-.089a2.01 2.01 0 0 1 .123-.179l-.047-.026-.043-.03c-.026.06-.06.123-.098.191l-.217-.132v-.034c-.091.154-.009-.011.104-.151l-.049-.023-.043-.03c-.03.055-.06.111-.094.162l-.102.157.366.213c.132.081.247.153.353.23zM29.517 3.831c-.179-.162-.221-.302-.14-.4s.238-.072.425.085.221.306.136.4-.242.072-.425-.085zm-.098.128a.362.362 0 0 0 .561.001.382.382 0 0 0-.083-.566.366.366 0 0 0-.566-.002.387.387 0 0 0 .087.582zM30.053 3.283q-.128-.2-.251-.357l.047-.026.043-.034.646.264-.077-.123-.234-.353h.038l.047-.047c.038.077.132.225.268.425l.038.06c-.2-.354-.052-.044.149.223l-.043-.006-.034.03c-.221-.094-.425-.183-.676-.272l.213.336.128.196h-.038l-.03.026a6.81 6.81 0 0 0-.213-.357zM30.784 2.981v-.174a4.725 4.725 0 0 0-.068-.349h.077l.166-.064a.334.334 0 0 1 .266.034c.08.06.146.172.16.299a.375.375 0 0 1-.305.516l-.168.026h-.068a1.963 1.963 0 0 0-.046-.329zm.251.204c.17-.026.234-.162.196-.4s-.153-.323-.306-.298h-.064c0 .119.038.247.06.383l.051.302h.064zM31.809 2.339h.043l.187-.068.06-.047-.03-.068-.081.034-.179.145zm-.306.88l.14.026.23.06v-.106l-.217-.034c0-.038 0-.094.034-.162l.034-.145.208.064V2.82l-.213-.043v-.14c0-.038 0-.077.03-.119l.213.064V2.48l-.179-.038-.081-.047c0 .111-.043.225-.072.353v.06c-.038.153-.072.293-.111.425zM31.928 3.346l.128.064.204.123.026-.055.026-.043-.2-.094c0-.038.043-.085.077-.145l.072-.128.187.119.021-.047.03-.043-.196-.098.051-.081.03-.051.064-.106.183.119.03-.064.03-.043-.157-.085-.179-.081c-.043.102-.102.204-.166.319l-.03.055a1.83 1.83 0 0 1-.23.361zM32.884 3.504l.047-.043c.098-.089.187-.17.259-.251l.128.149.128.132-.043.034-.034.038-.136-.17-.094.081-.043.038-.064.055.17.153-.043.034-.038.038-.14-.17-.111.102c-.051.047-.094.085-.119.115l.162.149-.038.03-.043.043-.157-.179-.098-.102c.098-.072.204-.17.319-.276zM32.889 4.137l.026.034v.038l.191-.128.306-.196c-.089.23-.179.455-.272.676l.064.034v.038c.06-.047.132-.094.217-.145l.06-.034.425-.272-.03-.034V4.11l-.353.23-.123.077.259-.646-.03-.038-.03-.064q-.157.115-.357.242a11.48 11.48 0 0 1-.353.213zM29.857 11.115l.136-.149.098-.094.034.025a.131.131 0 0 1 .001.212.157.157 0 0 1-.263.001zm-.421.187l.068.064.072.077.115-.145.111-.136.03.03c.17.157.31.17.425.038s.098-.221-.03-.332l-.157-.136-.06-.064c-.077.102-.17.208-.276.323s-.196.213-.293.302zM30.512 11.693l.102.055a3.435 3.435 0 0 0 0-.309c.378-.31.05-.073-.214.222l.1.049zm.2-.472l.047.021h.043q-.026.425-.021.927l-.098-.047-.102-.038c0-.094 0-.179.021-.259l-.119-.077-.136-.055-.179.191-.047-.025h-.055c.23-.204.451-.425.663-.651zM31.243 11.803c0-.149-.03-.289-.055-.425h.068l.221-.025c.2 0 .306.043.319.187l.001.02a.216.216 0 0 1-.182.214l.313.4h-.217a6.247 6.247 0 0 0-.285-.378v.166c0 .077 0 .153.03.234h-.187v-.014c0-.145-.008-.288-.023-.429zm.183-.055l.022.002a.162.162 0 0 0 .157-.203v-.001a.14.14 0 0 0-.184-.133h-.029V11.745zM32.153 11.604c-.072-.14-.14-.281-.225-.37l.098-.043.094-.055c.047.115.111.242.183.383s.132.255.204.37l-.098.043-.055.055a3.523 3.523 0 0 0-.183-.383zM32.778 11.467a.183.183 0 0 0 .238 0 .126.126 0 0 0 0-.186.189.189 0 0 0-.209 0 .304.304 0 0 1-.352-.043.26.26 0 0 1 .047-.382.325.325 0 0 1 .186-.094c.002.046.044.089.066.127a.171.171 0 0 0-.204.025c-.022.02-.035.049-.035.081s.013.061.035.081c.027.019.061.03.098.03s.07-.011.098-.03a.648.648 0 0 1 .2-.046c.066.001.125.03.164.076a.275.275 0 0 1-.041.424.35.35 0 0 1-.203.107 2.014 2.014 0 0 0-.087-.153z"/><path fill="#fff" d="M25.92 7.284c0-3.848 2.419-6.982 5.396-6.982s5.4 3.129 5.4 6.982l.001.124a8.07 8.07 0 0 1-1.59 4.822l.322-.022A8.324 8.324 0 0 0 36.963 7.4l-.001-.122c0-3.978-2.551-7.222-5.642-7.222S25.678 3.3 25.678 7.284l-.001.11c0 1.803.569 3.473 1.536 4.84l.289-.026a8.044 8.044 0 0 1-1.583-4.81l.001-.12z"/><path fill="#a9a9a9" d="M25.975 7.284l-.001-.116c0-1.797.589-3.457 1.585-4.796.806-1.208 2.189-2.007 3.758-2.007s2.952.799 3.763 2.012a8.007 8.007 0 0 1 1.584 4.796l-.001.129.001.095a8.014 8.014 0 0 1-1.585 4.797l-.053.064h.425v-.021a8.38 8.38 0 0 0 1.578-4.915v-.041V7.2a8.342 8.342 0 0 0-1.716-5.082C34.441.833 32.964-.013 31.289-.013s-3.152.846-4.028 2.134a8.346 8.346 0 0 0-1.639 5.171l-.001.102c0 1.813.572 3.493 1.545 4.869l-.018-.005h.425l-.034-.085a7.99 7.99 0 0 1-1.566-4.77l.001-.126-.106.006-.001.125c0 1.819.596 3.498 1.602 4.854l.027-.056v-.034h-.306v.055l.06-.055a8.274 8.274 0 0 1-1.523-4.803v-.091l-.001-.123a8.24 8.24 0 0 1 1.658-4.97C28.237.933 29.68.107 31.317.107s3.08.825 3.937 2.083a8.243 8.243 0 0 1 1.653 4.966l-.001.134.001.103c0 1.79-.564 3.448-1.523 4.806l.06.004v-.03h-.306v.055l.043.034a8.092 8.092 0 0 0 1.587-4.834l-.001-.152.001-.115a8.112 8.112 0 0 0-1.611-4.865C34.331 1.064 32.918.25 31.316.25s-3.015.814-3.846 2.051a8.121 8.121 0 0 0-1.601 4.99l.106-.007z"/><path fill="#fff" d="M31.315 14.512c1.629 0 3.095-.889 4.124-2.305h-.302a4.582 4.582 0 0 1-7.643.017l-.304-.017c1.029 1.416 2.5 2.305 4.124 2.305z"/><path fill="#a9a9a9" d="M31.315 14.563c1.65 0 3.129-.901 4.171-2.326l.06-.085h-.425a4.527 4.527 0 0 1-7.55.016l-.01-.017h-.425l.06.085c1.037 1.424 2.521 2.326 4.167 2.326v-.106c-1.607 0-3.057-.876-4.082-2.283l-.043.03v.055h.306v-.051l-.043.034a4.632 4.632 0 0 0 7.715.017l-.032-.051v.051h.306v-.051l-.089-.034c-1.025 1.403-2.475 2.283-4.082 2.283v.106zM38.306 6.722a.236.236 0 0 1 .034.244l-.191.815a.242.242 0 0 1-.135.203l.879.205.157-.225a.765.765 0 0 1-.23.034h-.004a.795.795 0 0 1-.201-.027c.185.055-.05-.001-.269-.089l.121-.445.132.03a.306.306 0 0 1 .212.098l.043-.183-.353-.085.081-.357c.059 0 .146.009.229.027a.43.43 0 0 1 .242.13l.047-.196-.795-.179zM39.581 7.071a.245.245 0 0 1-.001.243l-.306.781a.243.243 0 0 1-.164.182l.313.124a.245.245 0 0 1 .001-.243l.288-.73.425 1.067a.45.45 0 0 0 .223.309l.427-1.019a.233.233 0 0 1 .164-.178l-.313-.124a.245.245 0 0 1-.001.243l-.276.692-.463-1.229-.319-.119zM42.387 8.159a1.075 1.075 0 0 1-.489.115h-.022l.171.094-.298.714v.038a.226.226 0 0 1-.19.149l.424.174a.25.25 0 0 1-.028-.117c0-.043.01-.083.029-.118l-.001-.037.425-1.012zM43.238 9.813a.511.511 0 0 1-.195-.04.334.334 0 0 1-.247-.379.33.33 0 0 1 .28-.157l.031.001c.288.174.424.315.36.451a.23.23 0 0 1-.23.123zm.144-.616c-.238-.17-.34-.289-.298-.395a.17.17 0 0 1 .17-.093c.053 0 .106.011.155.031a.28.28 0 0 1 .226.315.277.277 0 0 1-.243.144l-.017-.001zm-.199-.612a.323.323 0 0 0-.326.177.326.326 0 0 0 .146.366.424.424 0 0 0-.422.199c-.003.017-.003.034-.003.051a.51.51 0 0 0 .425.503.883.883 0 0 0 .367.07.353.353 0 0 0 .32-.204.426.426 0 0 0-.206-.456.381.381 0 0 0 .363-.166.425.425 0 0 0-.363-.477.806.806 0 0 0-.295-.06zM44.424 10.205a.374.374 0 0 1-.1 0 .456.456 0 0 1-.18-.635.42.42 0 0 1 .473-.363.456.456 0 0 1 .18.635.422.422 0 0 1-.367.363zm.077-1.17a.633.633 0 0 0-.586.476.613.613 0 0 0 .343.824c.057.02.121.031.187.031a.628.628 0 0 0 .59-.476.612.612 0 0 0-.344-.828.569.569 0 0 0-.187-.031zM45.449 9.316l-.149.663a1.36 1.36 0 0 1 .235.001h.127l.021-.001c.173 0 .313.139.315.311a.324.324 0 0 1-.363.238h-.109c-.069.001-.224-.053-.357-.138l.068.215c-.081-.019.096.039.282.071a.858.858 0 0 0 .185.001h.008c.061 0 .12-.008.176-.022a.422.422 0 0 0 .352-.332l.001-.02a.463.463 0 0 0-.463-.463 1.581 1.581 0 0 0-.209 0h.005l.064-.302h.06a1.238 1.238 0 0 1 .182.001c.111.002.239.05.342.128l.032-.226-.791-.119zM16.621 9.465l-.816.021a.243.243 0 0 1 .094.227l.021.849a.246.246 0 0 1-.08.233h.425a.248.248 0 0 1-.095-.195l.002-.032v-.403h.204a.224.224 0 0 1 .166.043l-.001-.222h-.366V9.62a1.162 1.162 0 0 1 .178 0h-.004.02c.087 0 .168.024.237.065l-.002-.222zM17.854 10.404h-.002a.54.54 0 0 1-.12-1.067.617.617 0 0 1 .163-.022h.004a.54.54 0 0 1 .12 1.067.624.624 0 0 1-.169.026zm.132-1.237c-.107 0-.211.016-.31.044-.204.036-.427.211-.543.448a.618.618 0 0 0-.04.435c.034.153.173.316.356.394a.8.8 0 0 0 .307.061h.012c.1 0 .203-.016.3-.044.142-.017.345-.146.48-.327a.65.65 0 0 0 .12-.56.608.608 0 0 0-.361-.419.8.8 0 0 0-.307-.061h-.008zM18.942 8.823l-.115.047c.079.02.146.09.166.177l.311.784a.241.241 0 0 1 0 .247l.315-.124a.239.239 0 0 1-.161-.181l-.285-.737 1.02.502c.055.039.16.079.274.089a.319.319 0 0 0 .107 0l-.21-.531-.187-.034.115.293-.85-.425-.476-.085z"/><path fill="#a9a9a9" d="M19.112 8.772l-.166.068.476.085-.31-.153zm1.055-.425l-.315.123c.078.021.145.09.166.177l.158.401.187.034-.196-.493a.233.233 0 0 1 .001-.243zM21.073 9.197a.196.196 0 0 1-.001.163l.273-.116-.272-.047z"/><path fill="#a9a9a9" d="M21.298 9.099l-.383-.897c-.086.055.042-.045.189-.112a.722.722 0 0 1 .295-.066h.012c.2 0 .372.124.442.299a.53.53 0 0 1-.318.704c.19-.076-.007.016-.219.074zm.187-1.233a1.082 1.082 0 0 0-.457.114l-.47.201c.08.018.148.086.17.173l.332.775c-.028-.064.006.003.029.076l.256.052.119-.06c.208-.04.451-.227.588-.479a.596.596 0 0 0 .001-.502.55.55 0 0 0-.42-.332.738.738 0 0 0-.164 0zM24.466 6.786l-.804.157c.077.038.13.117.132.208l.162.825a.246.246 0 0 1-.043.243l.889-.175.051-.268a.738.738 0 0 1-.382.186 1.78 1.78 0 0 1-.272.03l-.094-.459.132-.038a.845.845 0 0 1 .158-.001c.028 0 .054.008.077.022l-.035-.187-.357.068-.068-.357c-.069.022.063-.034.204-.066l.132-.002h.006c.055 0 .107.011.154.031l-.041-.201zM22.999 7.16l-.761.298c.079.02.146.09.166.177l.306.784a.24.24 0 0 1-.001.247l.851-.333v-.272c-.025.06-.168.183-.339.249.163-.055-.04.026-.254.075l-.185-.422.106-.043a.484.484 0 0 1 .176-.051h.053l-.068-.174-.34.132-.136-.332c-.122.071.026-.031.191-.099a.535.535 0 0 1 .203-.046h.086l-.055-.191zm-.289-.391h-.043c-.029.01-.066.046-.085.092l-.175.371.072-.03.238-.276a.123.123 0 0 0 .052-.101l-.001-.019a.077.077 0 0 0-.07-.046h-.002zM15.889 30.716l.128-.85c.026-.183.047-.361.064-.54 0 .174.038.349.068.544l.128.85h-.387zm.426.302l.14.935h.166l-.425-2.976h-.208l-.425 2.976h.174l.136-.935h.459zM19.117 31.953l-.404-1.531.395-1.45h-.191l-.17.697c-.047.191-.081.327-.119.502-.034-.157-.072-.31-.119-.502l-.187-.697h-.187l.378 1.484-.395 1.505h.204l.145-.655c.068-.259.102-.425.14-.591.043.166.085.327.14.591l.166.659h.196zm-2.224-2.976v1.756c0 .923.2 1.276.463 1.276s.489-.374.489-1.276v-1.76h-.17v1.765c0 .659-.123.948-.315.948s-.315-.281-.315-.948v-1.765h-.17zM20.022 29.287a.325.325 0 0 1 .159-.029c.182 0 .305.191.305.582s-.106.617-.31.617a.265.265 0 0 1-.155-.001l.002-1.169zm-.165 2.666h.166v-1.195a.26.26 0 0 0 .116.026l.021-.001a.425.425 0 0 0 .411-.324c.063-.172.1-.367.1-.57l-.002-.074a1.447 1.447 0 0 0-.118-.644.385.385 0 0 0-.357-.237h-.001a.878.878 0 0 0-.325.062l.006 2.94zM20.966 31.949h.723v-.319h-.553v-2.657h-.17v2.976zM22.267 30.716l.128-.85c.026-.183.047-.361.064-.54 0 .174.038.349.068.544l.128.85h-.387zm.426.302l.14.935h.166l-.425-2.976h-.208l-.425 2.976h.174l.136-.935h.459zM23.424 31.953v-1.276-1.229c.064.323.153.663.242.995l.425 1.509h.17v-2.976h-.179v2.471a12.22 12.22 0 0 0-.234-.969l-.425-1.505h-.153v2.976h.153zM24.852 31.949h.17V29.3h.395v-.327h-.961v.327h.395v2.649zM26.302 30.235H25.8v-.94h.532v-.323h-.697v2.976h.727v-.319h-.561v-1.076h.502v-.319zM26.587 31.804a.42.42 0 0 0 .331.191c.307 0 .456-.395.456-.85a1.041 1.041 0 0 0-.331-.875.662.662 0 0 1-.256-.577.382.382 0 0 1 .24-.422.33.33 0 0 1 .249.138l.047-.314a.359.359 0 0 0-.285-.145c-.251 0-.425.344-.425.808a.998.998 0 0 0 .338.849.69.69 0 0 1 .243.595c0 .299-.098.503-.272.503a.418.418 0 0 1-.297-.194zM28.331 29.296a.425.425 0 0 1 .177-.039h.019c.352 0 .526.425.522 1.148 0 .804-.196 1.276-.553 1.276l-.027.001a.47.47 0 0 1-.146-.023l.003-2.363zm-.166 2.649c.085.022.183.034.284.034h.019a.62.62 0 0 0 .572-.421 2.942 2.942 0 0 0 .189-1.167 2.504 2.504 0 0 0-.189-1.078.552.552 0 0 0-.512-.362 1.08 1.08 0 0 0-.365.066l.008 2.927zM30.227 30.716l.128-.85c.026-.183.047-.361.064-.54 0 .174.038.349.068.544l.128.85h-.387zm.425.302l.14.935h.179l-.425-2.976h-.213l-.425 2.976h.174l.136-.935h.434zm-1.11-2.05c0 .319-.072.778-.115 1.037l.106-.03c-.06.348.093-.315.174-1zM31.409 30.525h.14c.183 0 .336.166.336.574s-.157.578-.332.578a.38.38 0 0 1-.143-.001l.002-1.152zm0-1.251a.315.315 0 0 1 .15-.025c.169 0 .284.136.284.485s-.102.497-.281.497h-.153v-.957zm-.166 2.671a.854.854 0 0 0 .243.034h.017l.028.001a.451.451 0 0 0 .417-.279c.071-.167.112-.358.112-.559l-.001-.042a.848.848 0 0 0-.267-.746l-.001-.001a.872.872 0 0 0 .217-.658l.001-.049c0-.17-.04-.331-.11-.473a.363.363 0 0 0-.332-.211l-.024.001h-.002a.737.737 0 0 0-.308.066l.005 2.915zM32.293 31.804a.42.42 0 0 0 .331.191c.307 0 .456-.395.456-.85a1.044 1.044 0 0 0-.331-.875.665.665 0 0 1-.26-.577.382.382 0 0 1 .24-.422.329.329 0 0 1 .249.138l.047-.314a.359.359 0 0 0-.285-.145c-.251 0-.425.344-.425.808a.998.998 0 0 0 .338.849.69.69 0 0 1 .243.595c0 .299-.102.503-.272.503a.412.412 0 0 1-.271-.223zM33.382 28.973h.166v2.976h-.166v-2.976zM34.075 31.953v-1.276-1.229c.064.323.153.663.242.995l.425 1.509h.162v-2.976h-.174v2.471a12.22 12.22 0 0 0-.234-.969l-.425-1.505h-.153v2.976h.157zM39.054 31.804a.42.42 0 0 0 .331.191c.307 0 .456-.395.456-.85a1.044 1.044 0 0 0-.331-.875.665.665 0 0 1-.26-.577.382.382 0 0 1 .24-.422.329.329 0 0 1 .249.138l.047-.314a.359.359 0 0 0-.285-.145c-.251 0-.425.344-.425.808a.998.998 0 0 0 .338.849.69.69 0 0 1 .243.595c0 .299-.102.503-.272.503a.413.413 0 0 1-.301-.194zm-.748-1.569h-.523v-.94h.523v-.323h-.689v2.976h.727v-.319h-.561v-1.076h.523v-.319zm-1.999-1.275v2.976h.166v-1.382h.625v1.395h.17v-2.976h-.17v1.246h-.642v-1.246h-.17zm-.786 2.976h.17V29.3h.395v-.327h-.978v.327h.395v2.649zM40.142 28.973v1.756c0 .923.2 1.276.463 1.276s.489-.374.489-1.276v-1.756h-.17v1.765c0 .659-.123.948-.315.948s-.302-.285-.302-.948v-1.765h-.17zM41.631 29.287a.32.32 0 0 1 .158-.029c.182 0 .305.191.305.582s-.123.638-.323.638l-.018.001a.26.26 0 0 1-.124-.031l.001-1.16zm-.166 2.666h.166v-1.195a.26.26 0 0 0 .116.026l.021-.001a.424.424 0 0 0 .394-.324c.066-.174.104-.372.104-.579l-.001-.064.001-.031c0-.219-.049-.427-.136-.613a.384.384 0 0 0-.357-.238h-.001-.001a.873.873 0 0 0-.324.062l.006 2.94zM43.748 29.283a.315.315 0 0 1 .167-.034c.178 0 .297.174.297.557s-.115.566-.293.566h-.17v-1.088zm-.166 2.67h.166v-1.276h.157c.153 0 .221.166.259.578s.064.629.085.71h.174a9.971 9.971 0 0 1-.102-.816v-.025a.956.956 0 0 0-.193-.577l.002.002a.972.972 0 0 0 .242-.766 1.348 1.348 0 0 0-.118-.612.376.376 0 0 0-.35-.234l-.022.001h-.006a.779.779 0 0 0-.317.066l.005 2.936zm-.599-3.656l-.179.519h.14l.242-.519h-.204zm.238 1.938h-.493v-.94h.532v-.323h-.702v2.976h.727v-.319h-.557v-1.076h.502v-.319zM44.692 28.973h.166v2.976h-.166v-2.976zM45.895 30.235h-.502v-.94h.532v-.323h-.702v2.976h.731v-.319h-.561v-1.076h.502v-.319zM46.244 28.973v1.756c0 .923.2 1.276.463 1.276s.489-.374.489-1.276v-1.756h-.17v1.765c0 .659-.123.948-.315.948s-.302-.285-.302-.948v-1.765h-.17zM47.732 29.283a.315.315 0 0 1 .167-.034c.178 0 .297.174.297.557s-.115.566-.293.566h-.17v-1.088zm-.166 2.67h.166v-1.276h.157c.153 0 .221.166.259.578s.064.629.085.71h.174a9.971 9.971 0 0 1-.102-.816v-.025a.956.956 0 0 0-.193-.577l.002.002a.972.972 0 0 0 .242-.766l.001-.044c0-.187-.038-.364-.106-.526a.378.378 0 0 0-.35-.234l-.022.001h-.006a.779.779 0 0 0-.317.066l.005 2.936zM49.344 30.235h-.502v-.94h.532v-.323h-.702v2.976h.731v-.319h-.561v-1.076h.502v-.319z"/><path fill="#fffef2" d="M13.513 8.168v1.25c0 .157-.064.753-.064.791a.572.572 0 0 0 .036.335c.041.117.209.286.418.373.234.143.646.276 1.085.308.217.001.77.081 1.106.073.026.011.502-.029.967-.105.517-.052.411-.167.411-.167l-1.169-.034-1.31-.034a.425.425 0 0 1-.497-.139c-.277-.277-.515-1.702-.515-1.702s-.23-.574-.272-.625-.196-.323-.196-.323z"/><path fill="#fff" d="M27.157 12.071l.251.336.174-.013-.289-.37-.136.047zM35.002 12.458s.089-.102.187-.23l.191-.251h.17c.464-.699.097-.049-.387.494-.106.093-.161-.013-.161-.013z"/></svg>