<svg xmlns="http://www.w3.org/2000/svg" id="perrier-jouet" viewBox="-5 -5 170 62" width="170" height="62" y="917"><style>.ost0 {fill: #a7a7a7;}
</style><title>perrier-jouet</title><path class="ost0" d="M62.6 48.7c-.1-.1-.2-.2-.4-.3-.8-.6-1.8-1.1-2.8-1.3-1.9-.5-3.9-.7-5.9-.8-3.8-.3-7.6-.1-11.4.4-3.6.6-7.2 1.2-10.9 1.9-.5.1-1 .2-1.5.1-3.9-1-7.5-3.1-10.4-6-.3-.3-.3-.9 0-1.2.1-.1.1-.1.2-.1.7-.4 1.3-1 1.7-1.7.3-.4.6-.8 1-1.2.9-.7 1.2-1.8.7-2.8-.3-.8-.4-1.7-.1-2.5.5-1.4.2-3-.9-4.1-.4-.5-.8-1-1-1.6-.1-.2-.2-.5-.4-.7-.2-.3-.5-.4-.8-.1s-.3.2-.5 0-.6-.4-.9-.3c-1.4.3-2.6 1.3-3.1 2.7-.1.5-.2.5-.5.2-.9-.8-2.1-1.1-3.3-.9-.4.2-.4 0-.4-.4 0-1.5.2-3 .7-4.5.1-.4.2-.5.7-.4.3.1.6 0 .8-.1.1-.1.4-.1.5 0 1.2 1.1 2.8 1.3 4.3 1.5 1.1.2 2.3-.2 3-1.1.2-.3.6-.5 1-.4.8.2 1.6.2 2.4.1.7-.1 1.3-.7 1.2-1.4.1-.7 0-1.5-.2-2.1-.1-.3 0-.6.2-.7.1 0 .2-.1.2-.1.2 0 .4-.1.5-.3.2-.3.5-.4.8-.4 1.1 0 2.1-.6 2.7-1.5.3-.7.9-1.3 1.7-1.5.5-.1.9-.7.8-1.2 0-.1-.1-.2-.1-.3-.2-.3-.1-.6.2-.8.5-.4.9-1 1-1.6 0-.3.2-.5.5-.5h.2l1.4.2c2.6.5 4.9 1.9 6.5 4 .2.3.3.5-.2.6-.5 0-.8.4-.8.9 0 .1 0 .2.1.3.1.4.1.8 0 1.2-.1.4.1.8.4.9.5.1.9.4 1.2.8.1.1.2.1.3.1.7 0 1.3.4 1.4 1.1.1.4.5.6.8.5.1 0 .2-.1.3-.1.1-.1.3-.2.4-.1.4.2.8.1 1.1-.3.5-.4.8-.8 1.3-1.2.2-.1.3-.4.2-.6l-.1-.1c-.1-.2-.1-.4 0-.6 1.1-1.8.7-3.6-1.4-4.1-.2 0-.4 0-.5-.2.1-.1.2-.2.4-.2.4-.1.6-.3.5-.7-.1-.3-.4-.5-.7-.4h-.1c-.1 0-.2.1-.3.1-.5.3-1 .4-1.5.4-.6-.1-1.2.1-1.7.5-.2.2-.3.1-.4-.1-.5-.8-1.2-1.5-2-2.1-.2-.1-.2-.3 0-.4.4-.3.9-.7 1.3-1 .1-.1.3-.2.5-.1.9 0 1.9-.1 2.8-.5.3-.2.6-.4.7-.8.1-.5.4-.9.8-1.2.3-.2.4-.7.2-1-.1-.2-.2-.4-.1-.6.3-.4.3-1-.1-1.4-.3-.4-.4-1.1-1.1-1-.1-.1-.2-.2-.3-.4-.1-.4-.4-.7-.8-.8-1.1-.5-2.2-.1-3.3 0-.5.1-.9.5-1.2.9-.2.2-.4.5-.5.8 0 .2-.1.3-.3.1-.5-.4-.6 0-.7.3 0 .1-.1.3-.2.4-.4.4-.5 1-.1 1.5.2.3.4.6.7.9.1.1.3.2.2.4-.1.3-.1.7.2.8.4.4.8.6 1.3.7-.6.7-1.6 1-2.5.7-1.3-.5-2.7-.8-4.1-1-.3 0-.7 0-1-.2-.6-.5-1.4-.9-2.1-1-.3-.1-.3-.2-.2-.4 0-.2.3-.7.6-1.2.6-1.1.4-2.4-.4-3.3-.1-.2-.4-.3-.6-.4-1-.4-2-.6-3.1-.9l-.6-.3c-1-.6-2.3-.6-3.4-.1-1.3.8-2.4 1.8-3.2 3-.3.5-.6.9-1.1 1.3-.2.2-.5.1-.6-.1-.2-.2 0-.4.1-.5s.6-.5.8-.8c.8-.7.8-1.8.2-2.6-.2-.2-.3-.3-.6-.4-1.2-.8-2.6-1-4-.6-2.1.4-4.1 1.3-5.9 2.5-2.3 1.6-4 3.6-4.2 6.7-.2 1.6.1 3.3.8 4.8.2.5.8.9 1.4.7.5-.1.5.1.4.5-.3 1.2 0 2.5.8 3.4.8.8 1.5 1.7 2.2 2.6.2.2.2.5.1.8-1 2.4-1.3 4.9-1.1 7.5 0 .2 0 .4-.2.6-.3.4-.5.8-.8 1.2-.6 1-.6.9-1.4.1-.7-.7-1.3-1.5-1.4-2.5-.1-.3 0-.5.4-.5.6 0 1.2-.3 1.5-.9.3-.5.6-1 1-1.5.7-.9.7-3.1-.1-3.8-.5-.5-1.4-.7-1.9-1.2-.6.3-1.3-.2-1.9.1-.3 0-.5.2-.7.4-.5.6-.9 1.2-1.2 1.9-.3.9-.5 1.9-.5 2.9 0 1.3.2 1.6 1.4 2l.3.1c.3 0 .5.3.5.6 0 .7.2 1.4.5 2.1.5.8 1.1 1.6 1.8 2.2.4.3.6.9.6 1.4-.1.9.4 1.7 1.2 2 .1 0 .2.1.3.2-.6.3-1.3.3-2 .1-.5-.1-1 0-1.4.4-1.2 1-2.7 1.8-4.2 2.2-1.2.4-1.4.8-.9 2 .2.3.2.8 0 1.1-.4.4-.4 1.1 0 1.5.4.7 1.1 1.1 1.9 1.2.4.1.9.2 1.2.4.2.1.5.2.8.3.4.1.5.2.2.5-.5.4-.5 1-.2 1.5.2.2.4.4.7.4.3.1.7.2 1 .3 1 .2 1.9.1 2.9-.1 1.2-.1 2.3-.4 3.4-.8.9-.4 1.5-1.1 1.8-2 0-.2.1-.5.3-.6.2-.1.3.2.4.4 1.7 2.4 4.2 4 7 4.6 2.3.6 4.7.7 7.1.6.4 0 .8 0 1.1.1 2.2.5 4.5.8 6.7 1 2.9.1 5.7-.1 8.6-.6 3-.5 5.8-1.3 8.8-2 1.4-.4 2.9-.6 4.3-.7 1.4 0 2.7.2 4.1.5.1.1.3.1.5 0-.1-.5-.1-.7-.3-.8zm-42.7-5c2.4 2.2 5.3 3.9 8.4 4.9l.2.1c-1.7 0-3.4.1-5-.9-1.7-1-3.3-2-4.8-3.2-.3-.3-.5-.5-.1-.9.6-.5.6-.5 1.3 0zm3.1 4.6c-.8-.1-1.5-.3-2.1-.7-1.3-.6-2.4-1.4-3.4-2.3-.1-.1-.3-.2-.2-.4.1-.2.4-.3.6-.2l.1.1c1.6 1.3 3.2 2.4 5 3.5zm-2.8-21.2c.3-.1.4.3.5.5.6 1.1 1.1 2.2 1.7 3.3.2.4.3.8.3 1.2 0 .5-.1.9-.3 1.4-.3.8-.3 1.6 0 2.4.3.9 0 2-.6 2.7-.5.5-1 1.2-1.4 1.8l-.2.2c-.3.2-.6.5-.9.2s0-.6.2-.8c.5-.8.5-1.7.1-2.5-.1-.1-.1-.2-.1-.3.5-1 .4-2.1.6-3.2.1-.6.3-1.2.5-1.8.4-.9.4-2-.1-2.8-.1-.3-.2-.5-.3-.8-.1-.2-.1-.5-.2-.8-.2-.2-.1-.5.2-.7zm-.6-3.5c-.4.1-.9.2-1.4.2-1.5 0-2.9-.5-4-1.4-.3-.2-.6-.5-.8-.9-.2-.2-.2-.4-.2-.6.1-.2.4 0 .6 0 .6.2 1.3.3 2 .1.5-.1 1 0 1.3.3.7.6 1.5.9 2.3 1 .4-.1.9.2 1 .6.1.5-.5.5-.8.7zm5.7-1.6c-.1.4-.4.7-.8.8-.2 0-.4.1-.7.1-1.3.1-2.6-.2-3.7-.6-.1-.1-.2-.1-.4-.1-.8 0-1.6-.3-2.2-.8-.6-.4-1.3-.6-1.9-.4-.6.1-1.2 0-1.7-.1s-.8-.6-.7-1.1c0-.1.1-.3.2-.4.4-1 1-1.8 1.7-2.6.1 0 .1 0 .1.1v.1c0 .3.1.5.4.5.3 0 .6-.1.7-.4.1-.3.2-.6.4-.9 0-.1.2-.2.3-.1.1 0 .2.1.2.3 0 .4-.1.7-.3 1-.2.2-.3.4-.5.6-.2.2-.2.4-.1.6.1.2.4.2.6.2.3 0 .5-.2.5-.5.1-.3.1-.7.1-1 0-.2 0-.5.2-.6.2.3.3.7.1 1-.1.2 0 .5.2.6.3.1.7.1 1-.1.2-.2.2-.5 0-.7-.2-.2-.3-.5-.3-.8.3.1.5.3.6.5l.3.6c.1.3.4.5.7.4h.1c.4-.2.2-.6.1-.9-.3-.3-.5-.6-.8-.8-.1-.1-.3-.3-.1-.4s.3 0 .4.1c.8.6 1.7 1 2.7 1.1 1.9.6 3.1 2.7 2.6 4.7zm-14.1-5.9c-.2-.1-.5-.2-.7-.4-.2-.1-.3-.4-.2-.6V15c.4-.6.3-1.4-.2-1.8-.6-.4-.7-1.2-.4-1.9.3-.6 1-1 1.7-.8 1 .3 1.8.9 2.4 1.7.1.2.1.3-.1.4-.7.3-.7.5-.1 1l1 .2c-.3.1-.7.1-1 0-.3 0-.7-.1-.9-.3-.3-.2-.7-.2-.9.1-.2.2-.3.5-.2.8.2.3.5.5.9.4l1.7-.2c.3 0 .5 0 .8.1-.3.2-.7.2-1.1.2-.3 0-.6 0-.9.1-.2.1-.4.3-.3.6.1.2.3.4.5.4.3 0 .6-.1.9-.2.5-.2 1-.3 1.5-.3.1 0 .3 0 .4.1 0 .2-.1.3-.2.4-.1.1-.2.1-.3.2-1.2.6-2.1 1.7-2.4 3-.1.3-.1.8-.6.8-.4-.1-.7-.4-.8-.8-.2-.5-.2-1.1 0-1.6.3-.4.2-.9-.2-1.2-.1-.3-.2-.4-.3-.3zm5-3.6c-.3-.4-.5-.9-.7-1.5-.1-.4 0-.7.2-1 .1-.1.3-.2.4-.1.2.1.1.3 0 .4-.4.5-.3 1.3.2 1.7.1.1.2.2.3.2.2-.1.1-.2 0-.3v-.3c0-.2 0-.5.2-.5s.3.3.3.4-.2.7.3.8.4-.2.6-.5l-.1-.1h.4v-.9c0-.2.1-.4.2-.5.2-.1.4-.1.6 0 .2.1-.2.3-.3.4-.1.5-.5.8-1 .9h.2c0 .1.1.2.1.4 0 .4.3.4.6.3l.6-.6c.1-.2.2-.3.3-.5.1-.2.3-.3.5-.3l.2.1c0 .2-.1.3-.2.4-.3.2-.6.5-.8.9-.2.4-.1.6.3.5.8 0 1.5-.2 2.1-.6.1-.1.3-.2.5-.1l.1.2c-.1.2-.2.3-.4.3l-2 .5c-.1 0-.4.1-.3.2s.3.2.4.1h.9c-.1.1-.3.2-.4.2-.5-.1-.6.4-.9.6s0 .2.1.3.4.2.7.4c-.3.1-.7.1-1 0-.5 0-.6.2-.5.6.1.5.4 1 .8 1.4.2.1.3.3.4.5.1.2.1.3-.1.4-.1.1-.3 0-.3-.1v-.1c-.1-1-1.2-1.2-1.4-2.1 0-.1-.1-.1-.2-.1H18v.4c.2.5.4 1 .5 1.5.1.2.1.4-.1.6 0 .1-.2.2-.4.1s-.2-.3-.2-.5c.1-.3 0-.6-.1-.9 0-.1-.1-.3-.2-.2-.4.2-.4-.1-.4-.3-.1-.4-.3-.4-.6-.1-.2.2-.4.5-.5.9 0 .2-.2.4-.4.4-.1 0-.2-.1-.2-.2 0-.2.1-.4.3-.5.3-.2.5-.4.7-.7.2-.4.1-.7-.4-.7-.6 0-1.2.2-1.7.4-.2.1-.5.2-.8.2-.2 0-.3-.1-.4-.2 0-.2.1-.3.2-.4h.2c.6 0 1.1 0 1.7-.1.2-.1.7 0 .6-.4s-.4-.2-.7-.3c-.7-.1-1.3-.1-2 0h-.4c-.2.1-.5 0-.6-.2-.1-.1-.1-.3 0-.4.2-.2.5-.2.7 0 .9.4 1.9.5 2.8.4.1 0 .1-.1.2-.1-.3-.3-.7-.4-1.1-.4-.3-.1-.6-.1-.9-.2-.1 0-.3-.1-.3-.2v-.1c.1-.1.2-.2.4-.2.3 0 .6.1.9.3.3.2.6.3 1 .2.5-.2.7-.5.4-1zm5.9 2.1c-.2 0-.5-.1-.5-.2.1-.3.4-.4.7-.4.1 0 .3 0 .3.2s-.2.4-.5.4zm.6.4c.2 0 .5-.1.5.2s-.3.3-.5.2-.7 0-.7-.2.5-.1.7-.2zm-.6-.2c-.5.3-1.1.2-1.5-.2l1.5.2zm-4.9 2.5c0 .3-.1.6-.2.9-.1.2-.3.3-.5.2h-.1c-.2-.1 0-.3.1-.5.2-.3.3-.5.5-.7l.2.1zm8.8 1.2c-.5.3-1 .5-1.4-.2-.2-.4-.5-.7-.8-1 .8 0 1.5.2 2.2.6.3.2.4.3 0 .6zm20.3 2.1c-.1 0-.3-.1-.3-.2v-.1c0-.4.3-.6.7-.7.2 0 .4.2.5.4-.2.3-.5.5-.9.6zm2-3.8c0 .5-.1 1-.5 1.4-.2.2-.2.6 0 .8.1.2.4.3.2.5s-.5.2-.8 0c-.2 0-.3-.2-.3-.4 0-.1 0-.1.1-.2.2-.5.3-1 .3-1.5.1-1-.4-1.9-1.3-2.3-.1-.1-.3-.1-.3-.3.1-.2.2-.3.4-.3 1.2.1 2.2 1.1 2.2 2.3zm-5-2.9c.4-.1.7-.2 1.1-.3.6.3 1.4.1 1.8-.4.1-.1.2-.1.4-.1.1 0 .3 0 .4.2 0 .2-.2.2-.3.2-.8.6-1.9.6-2.8 1-.1 0-.2.1-.3.1-.2.1-.4 0-.5-.2-.1-.2 0-.4.2-.5zm1.8 2.4c0 .3 0 .7.1 1 .1.1 0 .3-.1.4-.1.1-.3 0-.4-.1-.6-.6-1-1.2-1.4-1.9-.1-.1-.1-.3 0-.4h.1c.4-.1.8-.2 1.1-.1.3 0 .5.2.5.5v.1c.2.1.2.3.1.5zm-.5-1.5c.2-.2.5-.3.7-.2v.2c-.1.2-.3 0-.7 0zm-1.2 2.1c.2.4.5.8.8 1.1.3.3.8.4 1.1.2.3-.2.5-.6.3-.9v-.1c-.1-.4-.2-.9-.1-1.3 0-.4.2-.4.5-.2.6.4.9 1.1.8 1.9 0 .3-.1.8-.2 1.3l-.1.1c-.5.4-.9 1-1 1.6-.1.2-.3.4-.6.4s-.2-.3-.3-.5c0-.6-.5-1-1.1-1h-.1c-.5-.1-.7-.2-.6-.8.1-.4.1-.7 0-1.1-.1-.2-.1-.4 0-.5.3-.4.5-.6.6-.2zm-.5-.8c.1.2 0 .4-.2.5-.3.2-.4.7-.2 1 .2.3.1.6-.1.9-.1.1-.4.1-.5 0-.3-.1-.4-.5-.3-.8v-1c0-.6.1-.8.7-.7.2 0 .5 0 .6.1zm.1-6.7c-.1.2-.3.2-.4.1h-.1c-.2-.1-.1-.3 0-.4l.7-.7c0 .4 0 .7-.2 1zm0-2.2c-.2 0-.4.1-.6.3-.5.4-1.2.3-1.6-.2-.2-.2-.1-.3.1-.3.1 0 .2-.1.4-.1.6 0 1.1-.3 1.5-.8.4-.5.7-.4.8.2.1.4.4.7.7.7.2 0 .6.2.5.4-.1.3-.4.5-.7.7-.2.1-.4 0-.5-.3-.1-.3-.3-.6-.6-.6zm-1.3 1.2c0 .1-.2.3-.3.3-.1 0-.2-.1-.2-.2s.1-.3.2-.3h.1c.1 0 .2 0 .2.1v.1zm4.4-.9c-.3.4-.5.8-.7 1.2-.3.5-.8.8-1.4.7-.2-.1-.5.1-.5-.3s0-.6.4-.7c.6-.1.8-.6 1.3-.8.1-.1.1-.2.1-.3 0-.1 0-.3.1-.4.1-.3.4-.5.7-.4.2.2.3.5.1.8l-.1.2zm-.7-3.4c.2.4.4.8.7 1.1.2.3.2.6-.1.8-.3.3-.7.6-1.1.9-.1.1-.3.1-.4 0-.1-.1-.1-.2 0-.3.5-.7.8-1.6.9-2.5zM40 3.8c.4-.5 1-.8 1.6-.8.2 0 .4 0 .6-.1.4-.1.8-.1 1.2 0 1.6.4 2 1.7.9 3.2-.1.2-.3.3-.4.5-.1 0-.1-.1-.1-.2 0-.3-.2-.7-.5-.8-.4-.1-.8 0-1 .4-.2.2-.3.3-.4.5-.3.3-.8.3-1.1 0l-.1-.1c-.3-.4-.6-.9-.8-1.3-.3-.5-.2-1 .1-1.3zm-1.8 1.8c.1-.4.3-.7.7-1 .2-.1.5-.1.6.1 0 0 0 .1.1.1.2.6.6 1.1 1 1.5.1.1.1.2.1.3 0 0 0 .1-.1.1-.3.2-.6.3-.5.6 0 .2-.2 0-.2.1-.7-.1-1.8-1.3-1.7-1.8zm2 3.3c-.2-.1-.5-.3-.6-.4-.2-.1-.3-.3-.2-.4.1-.2.3-.2.5-.2.3 0 .5.1.8.2.2.1.3.4.2.7-.2.1-.5.2-.7.1zm1.3.1c.3-.2.5-.5.6-.8.1-.1.1-.3.3-.3.2-.1.3-.3.5-.1s0 .3-.1.5c-.7 1.1-1.6 2-2.7 2.7-.5.4-.7-.2-1-.3 1-.4 1.8-1 2.4-1.7zm-7.6.4c3.5.3 6.8 2.2 8.8 5.1.1.2.3.4.1.6s-.4-.1-.5-.2c-.7-.9-1.4-1.6-2.2-2.4-1.7-1.3-3.8-2.1-6-2.3h-.2c-.3 0-.5-.2-.5-.4v-.2c-.1-.4.2-.2.5-.2zm-2.7-1c1.2.2 2 1.3 1.8 2.5-.1.4-.3.8-.5 1.1l-.6.6c-.3.2-.4.7-.2 1 .2.2.2.5 0 .7-.1.1-.2.1-.3.1-.6.3-1.1.7-1.5 1.3-.5.8-1.3 1.5-2.2 1.8-.6.3-1.4.3-2 0-.8-.4-1.7-.6-2.6-.5-1.3-.1-2.5-.5-3.5-1.4l-.1-.2c0-.2.2-.1.3-.1.8.1 1.6.2 2.3.4.3.1.5.1.8.1.3 0 .5-.2.5-.5.1-.2-.1-.5-.3-.5-.3-.1-.5-.1-.2-.5s0-.5-.4-.5c-.3 0-.6.1-.9.2-.3.2-.7.2-1 0 .8-.3 1.7-.4 2.6-.4v-.2H23c-.2 0-.5 0-.5-.2s.3-.3.5-.4l.3-.2c-.4 0-.7.1-1 .3-.6.3-1.3.4-2 .3.4-.2.8-.3 1.3-.3.4 0 .8-.2.9-.6-.1-.3-.4-.4-.7-.3-.1 0-.1.1-.2.1-.3.2-.6.3-.8.4-.2.1-.3.1-.5 0 .9-.3 1.5-.9 2.4-1.2 1-.3 2-.7 2.9-1.2 1.2-.5 2.4-1.1 3.8-1.5.5-.2 1.2-.3 1.8-.2zM19.7 5.1c.9-1.3 2.1-2.4 3.4-3.3.6-.4 1.3-.7 2-.7.4 0 .8.1 1.1.4.5.4 1 .6 1.6.6.8.1 1.5.4 2.2.8.9.4 1.4 1.5 1.1 2.5-.1.6-.3 1.2-.6 1.7-.3.6-.8 1-1.4 1.2-1.5.5-2.9 1.2-4.3 2-.4.2-.8.4-1.2.5-1.2.3-2.2.8-3.2 1.5l-.2.1c-.1 0-.3.2-.4 0-.1-.1 0-.3.1-.4h.1c.2-.2.4-.4.5-.6.2-.2.2-.5 0-.7l-.1-.1c-.3-.2-.5 0-.6.2-.2.4-.5.7-.8 1.1-.1.1-.2.3-.4.2-.1-.1-.1-.3 0-.5.1-.3.3-.5.5-.7.3-.1.4-.4.3-.7-.1-.2-.4-.4-.7-.3-.3 0-.6.2-.6.6v.7c0 .2-.1.4-.1.6 0 .2-.2.3-.3.3-.2 0-.2-.2-.2-.3v-.3c0-.3-.2-.5-.5-.5-.4 0-.4.3-.4.6 0 .1 0 .2-.1.3-.2-.4-.2-.9 0-1.3.1-.2.3-.5 0-.7-.3-.2-.6-.1-.9.1-.3.3-.4.7-.3 1.1.1.6.3 1.2.7 1.6.1.2.3.4.1.6-.2.2-.5.2-.7.1-.3-.2-.6-.4-.8-.8-1.2-2.1-.7-4.7 1.3-6.2.7-.5 1.5-.6 2.3-.5.6 0 1.2-.3 1.5-.8zm-13.6 9c-.3-.3-.5-.7-.7-1.1-.8-3.4-.2-6.4 2.5-8.7 2.4-2 5.4-3.3 8.5-3.8 1.1-.1 2.1.3 2.8 1.1.5.5.5 1.4 0 1.9-.7.8-1.5 1.5-2.4 1.9-2.5 1.1-3.4 3-3 6.1l-.5-.5c-.6-.6-1.4-.9-2.3-.8-.7 0-1.4.5-1.5 1.2 0 .2-.2.4-.4.4-.3-.1-.7.2-.7.5V13.2c0 .5-.2.9-.6 1.1-.6.3-1.3.2-1.7-.2zM9 18.8c-1.1-1.1-1.4-2.8-.9-4.2.2-.6.3-1.2.3-1.8-.1-.2 0-.5.3-.6.2 0 .4.1.6.3l.9 1.2c.3.3.3.8.1 1.2-.3.3-.2.8.1 1.1.1.1.1.1.2.1.7.3 1 1.1.8 1.8-.2.7.1 1.5.7 1.9.7.6.7 1.5 1.1 2.3.1.2-.1.4-.4.4-.2 0-.5 0-.7-.1-.5-.3-.9-.6-1.2-1.1-.6-1-1.2-1.8-1.9-2.5zm.8 8.9c0-1.7.3-3.3.9-4.9.1-.2 0-.5.4-.5.4.1.5.5.4.9-.4.9-.6 1.8-.7 2.8-.1.8-.1 1.5-.2 2.3v.4c0 .3-.3.6-.6.7-.2 0-.1-.4-.1-.6s-.1-.7-.1-1.1zM7.3 27c-.2.4-.6.8-1 .9-.2.1-.4.1-.5-.1-.1-.2.1-.2.2-.3 1-1 1.3-2.5.9-3.8 0-.2-.2-.4-.1-.5.2-.1.5 0 .6.1.3.3.5.8.5 1.2-.1.9-.3 1.7-.6 2.5zm.1-4.5c.2-.2.4-.2.6 0l.1.1c.5 1 .5 2.2 0 3.1-.1-.2-.1-.5 0-.7.2-.7-.1-1.4-.7-1.9-.2-.1-.2-.3-.1-.5l.1-.1zm-.9-.7c.2 0 .5.2.5.4v.1c0 .4-.3.7-.7.7-.2 0-.4-.3-.4-.5v-.1c0-.3.3-.5.6-.6zM4 27.7c-.1.2-.3.1-.4.1-.6 0-1-.5-1-1v-.3c.1-.6.2-1.2.3-1.9 0-.7.3-1.3.7-1.7.2-.2.3-.4.5-.7.2-.4.6-.6 1-.6.3 0 .6.2.6.5v.1c0 .4-.2.4-.5.4-.7 0-1.4.4-1.6 1.1-.2.5-.3 1-.4 1.5v.3c-.1.7.2 1.4.7 1.9.1 0 .2.2.1.3zm.3.3l-.1-.1.2-.1.1.1-.2.1zM4 27c-.3-.5-.5-1-.4-1.6 0-.7.2-1.4.5-2 .3-.5.9-.7 1.4-.4.1 0 .1.1.2.1.4.2.8.5 1 .9.1.6.1 1.3-.2 1.9-.1.3-.3.7-.4 1-.1.4-.4.6-.8.5-.1 0-.2-.1-.2-.1-.4.1-.8 0-1.1-.3zm3.1 6.1c-.8-.7-1.4-1.5-1.9-2.4-.4-.8-.5-1.7-.4-2.5 0-.2.1-.3.2-.4.1 0 .2.1.2.2v.4c-.1 1.1.3 2.2 1.1 3 .4.4.8.8 1.2 1.3.2.2.2.4 0 .5-.2.2-.3-.1-.4-.1zM4 45.7c-.5-.3-1-.5-1.5-.7-.7-.2-1.4-.6-1.9-1.2-.2-.2-.3-.5-.1-.8h.1c.5-.4.5-1.1.2-1.6-.3-.3-.3-.8 0-1.2 0-.1.2-.2.4-.2.6-.3 1.1-.5 1.7-.8.7-.3 1.3-.7 1.9-1.2.5-.4 1.2-.6 1.9-.5.7.2 1.4.2 2.1-.1.2-.1.3-.1.4.2 0 .3.3.5.6.5.6.1 1.1.4 1.5.8l.3.1.6.1c-.1-.1-.2-.2-.3-.2-.7-.3-1.4-.9-1.8-1.6-.3-.5-.7-.9-1.2-1.2-1-.4-1.4-1.5-1.1-2.4 0-.1.1-.2.1-.3.6-1.4 1.5-2.8 2.5-3.9.6-.6 1.4-.8 2.2-.5 1.1.3 2.1.9 2.9 1.8.6.7.9 1.5.9 2.4 0 1.3-.1 2.6-.4 3.8 0 .1-.1.2-.2.3-.2-.3-.3-.6-.3-.9 0-.3 0-.7-.1-1 0-.3-.2-.5-.5-.5s-.5 0-.7.2c-.2.2-.2.5 0 .7.2.3.4.5.6.8l.1-.1-.4-.7c-.1-.2-.2-.4.1-.5.2-.1.4 0 .5.1v.1c0 .1.1.3.1.4.1.7.3 1.4.6 2.1 0 .1.1.2.2.2V38c.1-.2.2-.5.3-.7-.1-.2-.1-.4 0-.6.5-1.9.5-3.9 0-5.9-.3-1.3.1-2.7 1.2-3.6.5-.5 1.3-.5 1.7 0 .1.1.2.2.3.4.5 1.7 1.4 3.4.4 5.2-.2.6-.4 1.3-.3 1.9 0 .7-.3 1.3-.9 1.6l-1.8 1.2c.1-.5.5-.9.9-1.1.4-.2.7-.6.9-1 .1-.3.1-.6-.1-.9-.2-.2-.6-.3-.9-.2-.3.1-.4.4-.3.7h.2c0-.2.1-.5.4-.5.2 0 .4.1.5.3.1.3 0 .6-.3.8-.7.5-1.3 1.2-1.5 2-.1.2-.2.4-.1.6.3-.2.6-.4.9-.7.4-.3.9-.7 1.3-1 .1-.1.2-.2.3-.1.1.1.1.3 0 .4-.1.2-.2.3-.4.4-.8.3-1.6.9-2 1.7-.2.3-.5.5-.9.6-.9.2-1.7.9-2.1 1.7-.5.8-1.1 1.5-1.9 2-.1.1-.2.1-.4 0-.4-.2-.8 0-1 .3-.4.7-.4.7-1.4.3h.1l-.1.3c-1.3.3-2.5.8-3.6 1.7-.4.2-1 .2-1.4-.1zM9.3 37c.3.3.6.6.9 1-.4.1-.8-.1-.9-.5V37zm2 7v1.1c-.5 0-.9-.2-1.1-.6.4 0 .4-1.1 1.1-.5zm1.6 2.8c-1.5 1.1-3.3 1.7-5.2 1.7-.9 0-1.8-.1-2.7-.4-.7-.3-.8-.8-.3-1.3 1-1.1 2.3-1.8 3.7-2.1.5-.1 1 0 1.4.3.8.5 1.7.7 2.6.7.3 0 .8-.2 1 .3.1.3-.1.6-.5.8zm0-1.6c-.2 0-.4-.1-.6-.1a.8.8 0 0 1-.6-1.1c0-.2.2-.4.3-.5.4-.3.8-.6 1.2-1 .5-.4.9-.9 1.1-1.5.1-.5.5-.8 1-.9.6-.1 1.2-.5 1.5-1 .3-.5.9-.9 1.5-1 .2-.1.5 0 .6.3v.2c0 .4 0 .8-.2 1.1-.3.6-.4 1.2-.3 1.9.3 1.4-.6 2.8-2.1 3.1-.2 0-.5.1-.7.1-.8.1-1.7.2-2.7.4zm42.9 3.6c-3 .4-5.8 1.3-8.8 1.9-2.8.6-5.6.9-8.4 1-2.5 0-5-.3-7.4-.9 1.4-.3 2.8-.3 4.2-.3 2.9.3 5.8.2 8.7-.3l9.1-1.5c1.5-.2 3.1-.2 4.6 0l-2 .1zm-19.6 1.3c5.6-1 11.2-2.5 17-2-3.5.6-7.1 1.3-10.6 1.9-2.1.3-4.3.3-6.4.1zm23-1.9c-5.3-1.1-10.8-1.1-16.1 0-4.4.8-8.7 1.6-13.1 2-3.4.5-6.8.1-10-1.1-1.9-.8-3.5-2.1-4.7-3.8l-.1-.3c0-.2.2-.1.3-.1.6-.1 1.2.1 1.6.6 2.2 2.1 5.1 3.3 8.1 3.5 3.9.2 7.9-.1 11.7-1 2.7-.5 5.4-1.1 8.1-1.3 3-.3 6-.3 9-.1 1.7.1 3.5.3 5.2.7.8.2 1.5.5 2.2.8.3.1.5.3.6.5l-2.8-.4zM9.4 43.9z"/><path class="ost0" d="M34.4 31.1c.5.3 1.1.2 1.5-.1.5-.5.6-1.2.4-1.8-.2-.6-.7-1-1.3-1-.6-.1-1.3.1-1.7.6-.7 1-.9 2.3-.3 3.4.6 1 1.7 1.5 2.8 1.3 1.5-.2 2.7-1.1 3.5-2.3 1.4-2.1 1.9-4.7 1.5-7.2-.2-2.1-1.1-4-2.7-5.3-1.6-1.5-4.2-1.3-5.6.3-.3.4-.6.8-.8 1.3 0 .2-.1.4-.3.6-.1-.1-.2-.2-.3-.4-.8-.9-2-1.3-3.1-.9-.1.1-.6.1-.2.4 1 .8 1.7 1.9 1.9 3.2.2 1 .3 2 .3 3 0 3.7.2 7.3-.1 11-.2 2.5-.4 5.1-2.1 7.2-.1.1-.2.3-.1.4.1.1.3.1.4 0l1.4-.8c.8-.5 1.8-.5 2.6 0 .7.4 1.6.4 2.3 0 .3-.1.3-.2.1-.4-.5-.6-.9-1.3-1.2-2.1-.6-1.9-.9-4-1-6-.2-3-.1-6-.1-9 0-1.6.1-3.1.4-4.6.1-.9.5-1.7 1.1-2.4.8-.8 2-.8 2.8 0l.2.2c.5.7.8 1.4 1 2.2.5 2.1.6 4.2.3 6.3-.1 1-.4 2.1-.8 3-.4.8-1.1 1.3-2 1.3-.6 0-1.2-.4-1.4-1-.1-.2 0-.4.1-.5.2 0 .3.1.5.1zM116.6 19.7c-.4-.1-.8-.1-1.2 0-2.2.1-4.4 0-6.6-.3-1.1-.1-2.2 0-3.2.4-1.6.7-2.3 2.6-1.5 4.2.8 1.5 2.7 2.1 4.2 1.4.8-.4 1.2-1.2 1-2.1-.1-.6-.6-1-1.1-1-.3 0-.5 0-.4.4.1.3-.1.7-.4.8-.5.2-1.1 0-1.4-.5-.5-.8-.3-1.8.5-2.3l.2-.1c.8-.4 1.8-.5 2.7-.2 1.8.4 2.8 1.7 2.8 3.8v15.1c0 1-.3 2-.9 2.9-1 1.4-2.8 1.9-4.3 1.3-1.5-.5-2.4-1.9-2.3-3.5 0-1 .7-1.9 1.7-2.2-.3 1.2-.1 2 .7 2.3.9.5 2.1.1 2.5-.8.4-.9.1-1.9-.7-2.4-1.3-.8-2.9-.8-4.2 0-1.3.7-2 2-1.8 3.4.1 1.1.5 2.2 1.3 3 1.3 1.2 3 1.7 4.7 1.5 3.4-.2 5.5-2.4 5.7-5 0-.6.1-1.1.1-1.7V25.3c0-1.1.1-2.1.3-3.2.1-.9.7-1.8 1.5-2.2l.1-.2zM72.9 37.2c-.1-.4-.2-.8-.2-1.2-.2-1.9-.9-3.3-2.9-3.8l-.1-.1c.8-.1 1.6-.4 2.3-.8.8-.6 1.3-1.6 1.1-2.6-.1-.9-.7-1.6-1.5-1.9-.7-.3-1.4-.5-2.2-.5h-5.5c-.2-.1-.3 0-.5.1.8.7 1.3 1.8 1.4 2.9 0 2.2.1 4.2 0 6.4 0 1-.2 2.6-1.3 2.6h5c-1 0-1.1-1.5-1.3-2.5-.1-.9-.1-1.8-.1-2.7 0-1.1 0-1.1 1.1-1 .9-.1 1.8.5 1.9 1.4v.3c.1.6.1 1.2.1 1.7 0 .6.2 1.2.5 1.8.7 1.2 2.3 1.6 3.5.9.2 0 .3-.2.3-.3h-.2c-.5.2-1 0-1.2-.5-.2.1-.2 0-.2-.2zm-3.5-5.7c-.5.2-1 .3-1.6.3-.3.1-.6-.1-.7-.4V27.6c0-.3.2-.6.5-.7h.1c1.4-.3 2.8.5 3.2 1.9.1 1.1-.5 2.2-1.5 2.7zM99.9 36.9c-.1-.5-.1-1-.2-1.4 0-1.5-1.1-2.9-2.6-3.2-.1 0-.2 0-.2-.1.1-.2.2-.2.4-.2.7-.1 1.3-.4 1.8-.7.8-.6 1.3-1.5 1.2-2.5-.1-.9-.7-1.7-1.6-1.9-.7-.3-1.4-.4-2.1-.4H91c-.2-.1-.4 0-.5.1.9.6 1.4 1.6 1.3 2.7.1 2.2.1 4.5 0 6.7-.1 1-.2 2.5-1.3 2.5h4.9c-.9 0-1.1-1.3-1.2-2.2-.1-1-.2-1.9-.1-2.9 0-1.2-.2-1.1 1.1-1 .9-.1 1.7.5 1.8 1.3v.2c.1.3.1.7.1 1 0 .7.1 1.3.2 2 .3 1.4 1.6 2.3 3 2l.2-.1c.4 0 .7-.2.8-.5-1-.1-1.2-.3-1.4-1.4zm-5.3-5.1c-.3 0-.5-.3-.5-.5v-3.8c0-.2.1-.4.3-.5 1.2-.3 2.5.1 3.2 1.1.2.3.3.6.3.9 0 1.6-1.4 2.8-2.9 2.8h-.4zM61.5 36.9c-.1-.5-.1-.9-.2-1.4 0-1.6-1.1-2.9-2.6-3.2-.1 0-.2-.1-.2-.2l.4-.1c.7-.1 1.3-.4 1.8-.7.8-.5 1.3-1.5 1.1-2.5-.1-1-.8-1.7-1.7-2-.7-.3-1.4-.4-2.1-.4h-5.4c-.2-.1-.4 0-.5.2.9.6 1.4 1.7 1.3 2.7.1 2.2.1 4.4 0 6.6-.1 1-.2 2.5-1.3 2.5H57c-.8 0-1-1-1.2-1.8-.2-1.3-.2-2.7-.2-4 0-.2.1-.3.2-.3 1-.4 2.2.1 2.6 1.1.1.2.1.5.1.8 0 .7 0 1.3.1 2 0 1.4 1.2 2.6 2.6 2.6h.5c.4 0 .8-.2 1-.6-.8 0-1-.2-1.2-1.3zm-5.1-5.1c-.3.1-.6-.1-.6-.4V27.6c0-.3.2-.6.5-.6.9-.2 1.9 0 2.6.7.9.9.9 2.4 0 3.3-.1.1-.2.2-.4.3-.7.3-1.4.5-2.1.5zM124.5 26.1c-1.1-.8-2.6-.7-3.5.4-.8.8-1 2-.7 3.1.1.3.3.6.7.8.5.3 1.2.2 1.6-.2.3-.4.2-1.1-.2-1.4l-.1-.1c-.4-.4-.6-.9-.6-1.4 0-.5.3-1 .7-1.1.5-.2 1-.1 1.3.3.2.3.4.6.5 1 1 2.9 1 6 .2 8.9-.2.6-.5 1.1-.9 1.5-.9.8-2.3.8-3.1-.1-.4-.5-.7-1-.9-1.6-.3-.8-.5-1.7-.5-2.6-.2-2.7-.2-5.5 2-7.8-.7.1-1.4.4-1.9.9-2.6 2.3-3.4 6.1-1.8 9.2.7 1.8 2.4 3 4.3 3.1 2 .1 3.9-.9 4.7-2.7 1.2-2.1 1.5-4.6.7-6.9-.5-1.3-1.3-2.5-2.5-3.3zM41.6 26.5c1.4.3 1.4 1.3 1.4 2.4v6.9c0 1.1 0 2.3-1.5 2.7.2.1.5.1.7.1h8.4c.5 0 .6-.1.6-.6-.1-.9-.3-1.7-.6-2.5-.1-.2-.2-.4-.5-.5v.4c.1 1.3-.9 2.5-2.2 2.6-.5.1-1.1.1-1.6.1-.5.1-1.1-.3-1.1-.8v-4.7c-.1-.2.1-.4.3-.5h.1c1.2-.2 2.4.4 3 1.5.1.1.1.3.3.2 0-1.1-.1-2.3-.3-3.4-.3.7-1 1.1-1.7 1.2H46c-.3.1-.6-.1-.7-.4V28c0-1.1.1-1.2 1.2-1.1h.3c1.5 0 2.8 1.1 3.2 2.6l.2.1c.1-.2.1-.4.1-.5 0-.7.1-1.4.2-2.2.1-.5-.1-.6-.6-.6h-7.5c-.5-.1-.7 0-.8.2zM88.9 35v.2c.1 1.4-.9 2.7-2.3 2.8h-1.4c-.5.1-1.1-.2-1.2-.8v-4.7c-.1-.2.1-.5.3-.5h.2c1.2-.1 2.3.5 2.8 1.5 0 .1.2.2.3.2 0-1.2-.1-2.3-.3-3.5-.6 1.2-1.7 1.2-2.8 1.2-.3.1-.5-.1-.6-.4v-3.6c0-.3.2-.5.4-.5 1.8-.3 3.5.6 4.1 2.3 0 .2.1.3.3.4.1-.9.1-1.8.2-2.6.1-.5-.2-.7-.7-.7h-7.4c-.2-.1-.4 0-.5.2 1.2.3 1.4 1.2 1.4 2.2v7.1c0 1.1 0 2.3-1.5 2.7.1 0 .2.1.3.1h8.9c.2 0 .4-.1.4-.3v-.2c0-1-.3-2.1-.7-3 .1 0 .1-.2-.2-.1zM148 35v.3c.1 1.3-.8 2.5-2.2 2.7-.6.1-1.1.1-1.7.1-.5.1-1.1-.3-1.1-.8v-4.7c0-.2.1-.5.4-.5h.2c1.2-.1 2.3.5 2.8 1.5 0 .1.1.2.2.1 0-1.2-.1-2.4-.3-3.5-.2.5-.6.9-1.1 1.1-.5.2-1.1.2-1.6.2-.3.1-.6-.2-.7-.5v-3.2c0-.8.1-.8.8-.8h.3c1.6.1 3 .8 3.4 2.5 0 .1.1.2.2.2.2-.9.1-1.8.2-2.6.1-.5-.1-.6-.6-.6h-7.6c-.2-.1-.4 0-.4.2.9.2 1.5 1.1 1.3 2.1V36c0 1.1.1 2.3-1.4 2.8.1 0 .2.1.2.1h9c.2 0 .4-.1.4-.3v-.2c0-1-.3-2.1-.7-3 .2-.3.1-.4 0-.4zM135.2 26.6c.8.2 1.3.8 1.3 1.6v7.4c0 1.4-1.2 2.6-2.6 2.6h-.2c-1.3 0-2.4-1.1-2.4-2.4v-7.4c-.1-.9.4-1.7 1.3-1.9l.1-.2h-4.9c1.1 1 1.3 1 1.3 2.3v6.9c-.1 1.5.9 2.9 2.3 3.3.8.3 1.7.3 2.6.2 1.2 0 2.4-.7 2.9-1.9.3-.6.4-1.3.4-2v-6.5c0-1 .1-2.4 1.3-2.4h-3.9c.2.2.3.3.5.4zM160 29c-.1-.6-.2-1.3-.2-1.9s-.1-.8-.9-.7h-8.2c-.3 0-.7 0-1-.1-.3-.1-.4 0-.4.3-.1.7-.2 1.5-.3 2.2 0 .2-.2.6.1.7s.3-.4.4-.6c.3-.4.6-.9 1-1.2.5-.5 1.2-.8 1.9-.8.8 0 1 .2 1 1v7.9c0 1.1 0 2.6-1.3 2.6h4.9c-1 0-1.3-1-1.3-1.9v-8.9c0-.4.2-.7.6-.7h.2c.8-.1 1.6.2 2.2.8.4.4.8.9 1.1 1.4.1.1.1.4.3.4s-.1-.4-.1-.5zM78.3 36.3v-8c-.1-.8.4-1.5 1.2-1.7.1 0 .1-.1.1-.2h-5c1.3 1 1.4 1 1.4 2.5v7c0 1.1 0 2.5-1.3 2.5h5c-1.2 0-1.4-.9-1.4-2.1zM91.3 13.3c-.3-.1-.4-.4-.4-.7-.1-1-.2-2-.2-3 0-.6-.3-1.2.5-1.6-.2-.1-.4-.1-.7-.1a.8.8 0 0 0-1.1.6v.1c-.3.8-.7 1.5-1.1 2.3-.1.3-.3.6-.5.9l-1.5-3.1c-.2-.7-.8-1.1-1.5-.9l-.2.1c-.1 0-.2 0-.2.1l.1.1c.3.1.4.4.4.7-.1 1.1-.2 2.1-.2 3.2.2.6-.1 1.2-.7 1.4.6.2 1.2.2 1.8 0-.4-.2-.6-.7-.5-1.1 0-.4.1-.9.1-1.3 0-.5 0-1 .2-1.5l.3.7 1.4 2.9c0 .2.1.4.3.4.2-.1.3-.2.3-.4l1.6-3.2c0-.2.1-.3.3-.3.1.9.1 1.7.2 2.5 0 .5.2 1.1-.7 1.3.7.2 1.4.2 2.2.1 0 0-.1-.2-.2-.2zM74.5 13.5c.8.1 1.5.1 2.3 0-.4-.2-.7-.8-.5-1.2V9.1c-.2-.5.1-1 .5-1.1l-.1-.2h-1.9l-.1.2c0 .1 0 .2.1.2.3.1.4.4.4.7 0 1.9.2 1.6-1.5 1.6h-.1c-1.4 0-1.4 0-1.4-1.4-.1-.4.1-.7.4-.9l.2-.2c-.1-.1-.1-.1-.2-.1H71c-.1 0-.2 0-.2.1-.1.1 0 .2.1.2.3.1.4.5.3.8v3.2c.2.5-.1 1.1-.6 1.4.7.1 1.3.1 2 .1.2 0 .2-.2 0-.3-.2-.1-.4-.3-.3-.6v-1.3c0-.2.1-.4.3-.4h2.1c.2 0 .4 0 .4.2 0 .7.4 1.6-.6 2.2zM110.5 9.1c0 1.2 0 2.4-.1 3.6 0 .3-.1.5-.3.6-.1.1-.2.2 0 .3.6.1 1.1.1 1.7-.1-.8-.1-.8-.7-.8-1.2v-1.5c-.1-.4-.1-.8 0-1.3.2.1.4.2.5.4l3.4 3.6c.1.2.3.3.4.3.2-.1.1-.3.1-.5v-4c-.2-.5.1-1.1.7-1.3-.4-.1-.9-.2-1.4-.2-.1 0-.3 0-.3.1s.1.2.2.2c.2.1.3.2.3.4.1 1 .1 2.1.1 3.1-.2 0-.3-.1-.4-.2-1-1-2-2-2.9-3.1-.4-.5-1-.7-1.6-.6-.1 0-.2 0-.2.1l.1.2c.3.4.5.7.5 1.1zM117.7 8.9v3.7c0 .2-.1.5-.3.6-.1.1-.3.1-.2.2.1.1.2.2.4.1h3.5c.6.1 1.2-.3 1.3-.9v-.5l-.2.1-.3.3c-.8.6-1.8.7-2.6.3-.7-.2-.3-1-.4-1.6-.1-.4.2-.5.5-.5.7-.1 1.4.2 1.8.7 0-.5 0-1.1.1-1.6 0-.1 0-.1-.1-.1l-.2.1c-.5.7-1.2.4-1.8.5-.2 0-.3-.1-.3-.3V8.7c0-.2.1-.4.3-.4.9-.2 1.8.1 2.4.8.1.1.2.3.3.1.1-.4.1-.8 0-1.1-.1-.2-.4-.4-.6-.3h-3.6c-.2-.1-.4 0-.5.2.2.1.5.5.5.9zM105.9 13.7c.7 0 1.5 0 2.2-.3.3 0 .5-.3.5-.6v-.1c-.1-.3 0-.6.1-.9.1-.1.4-.2.3-.4-.2-.1-.4-.2-.6-.1h-.5c-.3 0-.5 0-.8-.1-.1 0-.2 0-.3.1 0 .1.1.2.2.2.3.1.5.4.5.7.1.3-.1.7-.4.8-.8.3-1.7 0-2.1-.8-.5-.8-.7-1.8-.4-2.7.2-1 1.1-1.7 2.1-1.5.2 0 .4.1.6.2.4.2.8.6 1 1 .1.1.1.3.3.2.1-.1.2-.2.1-.3-.1-1 .1-1-.9-1.3-.3-.1-.6-.1-.9-.2-1.5-.3-3.1.6-3.4 2.2 0 .1 0 .2-.1.3-.3 1.6.7 3.1 2.3 3.4l.2.2zM92.6 13.4l.1.2h2.1l.2-.1-.1-.1c-.3-.1-.5-.3-.5-.6v-4c0-.2.1-.4.3-.5.7-.2 1.4.2 1.6.9v.2c.1.6-.2 1.2-.9 1.4h-.3c-.2 0-.4-.1-.4.2s.3.2.4.2c.5.1 1-.1 1.5-.3.8-.4 1-1.4.6-2.2-.1-.2-.3-.4-.6-.6-1.3-.6-2.6-.1-4-.2.4.3.7.8.5 1.3v3c.2.5 0 1-.5 1.2zM81.4 12.5c.2.3.1.8-.3 1H81c.5.1.9.2 1.4.1.2.1.5.1.7-.1.1-.2-.3-.2-.3-.4l-.1-.2-1.8-4.5c-.1-.2 0-.5-.3-.5-.2.1-.4.3-.4.5L79 11.1c-.2.9-.7 1.6-1.2 2.3-.1.1 0 .2.1.2.5.1 1.1 0 1.6-.1-.4-.2-.7-.3-.6-.7 0-.5.3-.9.8-.9h.8c.3-.2.8.1.9.6zm-1.7-1.1c-.2 0-.2-.2-.2-.3l.6-1.4h.2c.2.5.4.9.6 1.4 0 .1 0 .2-.1.2h-.1l-1 .1zM102.4 13l-.1-.2-1.8-4.6c-.1-.2 0-.5-.3-.5-.2 0-.4.2-.4.4-.4.9-.7 1.8-1.2 2.6-.3.9-.7 1.7-1.3 2.5-.1 0-.1.1 0 .2h.1c.5.1 1 .1 1.5 0-.3-.2-.5-.6-.5-1-.1-.5.3-1.1.8-1.1h.7c.4 0 .8.3.9.7.3.4.2 1-.2 1.2l-.1.1c.5.1 1 .2 1.5.2.2.1.5.1.7-.1.1-.2-.3-.2-.3-.4zm-2.6-1.6c-.8 0-.8 0-.5-.7.2-.3.2-.9.5-.9.3.2.4.6.5.9.3.7.2.7-.5.7zM66.5 13.6c.7.1 1.4.1 2.1-.1.6-.1 1.1-.6 1-1.2 0-.1 0-.2-.1-.2l-.2.1c-.1.1-.1.2-.2.3-.4.6-1.2 1-1.9.9-.7-.1-1.4-.6-1.6-1.3-.2-.5-.3-.9-.3-1.4 0-.3.1-.6.1-.9.1-.7.7-1.3 1.4-1.5.8-.2 1.7.2 2.1 1 .1.1.1.2.2.3.1.1.2.1.3-.1.2-.6-.2-1.3-.8-1.5-.5-.1-1.1-.2-1.7-.1-1.5.1-2.6 1.3-2.7 2.8-.1 1.4.8 2.7 2.3 2.9z"/><path class="ost0" d="M105.3 32.4c.6.2 1.3.3 2 .1.6-.1 1-.5 1.2-1.1-.7.5-1.5.5-2.2.1-.3-.1-.5-.2-.8-.2-.9-.2-1.8.4-2 1.4.5-.6 1.2-.7 1.8-.3zM142.7 25.5c.5 0 .9-.4.9-.9s-.4-.9-.9-.9-.9.4-.9.9.4.9.9.9zM145.3 25.5c.5 0 .9-.4.9-.9s-.4-.9-.9-.9-.9.4-.9.9.4.9.9.9zM9.4 43.9zM18.3 11.7zM10.7 39.3c0 .1.2.2 0 .4-.2.1-.4 0-.5-.1-.3-.2-.6-.3-.9-.3-.3 0-.5.2-.6.4-.1.3.1.5.4.6.2.1.5.1.7.1.2 0 .4.1.5.2H10c-.3-.1-.7.1-.8.4v.1c0 .4.3.7.7.7h1c.2 0 .5-.1.5.2 0 .2-.2.4-.4.4-.3 0-.6 0-.9.1-.5 0-.8.4-.8.8 0 .1 0 .3.1.4h-.5c1-.8.5-1 1.3-1h1c.4 0 .8-.4.8-.8-.1-.5-.4-.5-.8-.5-.2 0-.4.1-.6.1-.3.1-.6 0-.9-.1-.2-.1-.3-.3-.2-.5.1-.2.3-.3.5-.2.2.1.5.2.7.3.1.1.3.1.4 0 .1-.2 0-.3-.1-.5-.2-.2-.3-.3-.6-.4-.3-.1-.6-.1-.9-.2-.3.2-.5.1-.5-.1s.1-.4.3-.4h.2c.4.1.7.3 1 .5.2.2.4.2.6.1.2-.2.1-.4-.1-.6s-.2-.1-.1-.3c.2 0 .4.1.5.2v-.2l-.3-.1c-.1 0-.4-.1-.4.3zM15.2 39c-.3-.4-.4-.8-.4-1.3 0-.4-.2-.8-.4-1.1-.2-.3-.5-.4-.8-.3-.4.1-.2.5-.2.7.2.2.4.4.4.6-.2-.2-.4-.4-.4-.7l-.6-.9c-.1-.2-.4-.3-.6-.2l-.2.2c-.2.2-.3.5-.1.7l.1.1c.2.2.4.4.7.4-.1-.1-.2-.3-.3-.3-.2-.1-.3-.3-.3-.6l.2-.2c.2 0 .4.1.5.4.5.7 1 1.4 1.4 2.2 0 .1.1.2.3.2.2-.1.1-.2.1-.4-.2-.5-.4-.9-.6-1.4-.1-.2-.4-.4-.1-.6s.5.2.6.4c.1.3.2.6.3.8.1.3.1.7.2 1 0 .2.2.4.4.4.3-.1.3-.4.3-.6-.2-.8-.4-1.5-.8-2.2l-.1.1c.2.9.4 1.7.4 2.6zM22.6 12.3c-.1.4-.5.7-.9.6-.4.1-.9.2-1.3.4.7.1 1.4 0 2-.3.3-.2.6-.3 1-.3l-.8-.4zM18.3 11.7zM17.3 35.1h-.2c0 .7-.3 1.3-.9 1.6-.1.2-.1.4 0 .6.2-.3.4-.6.6-.8.4-.4.6-.9.5-1.4zM23 12.9c-.2.1-.5.1-.5.4s.3.2.5.2h.2c.4-.4.3-.5-.2-.6zM12 39.5c-.2 0-.3-.1-.4-.2v.1c.2.3.6.6 1 .7.3 0 .6-.2.8-.4.1-.1.1-.3 0-.4-.3-.4-.7-.8-1.1-.9l-.1.1c.3.1.6.4.8.7.1.2.1.4-.1.5-.1.1-.3.1-.4 0l-.5-.6c0 .1.1.3 0 .4z"/><path class="ost0" d="M11.4 37.4c.6.1 1.2.4 1.7.9.1.1.2.2.3.2.1-.1.2-.3.1-.4-.1-.4-.4-.6-.8-.8.2.2.3.4.3.6-.3-.2-.6-.4-.8-.5-.3-.2-.6-.3-.9-.1l.1.1z"/><path class="ost0" d="M11.5 38.1c-.3-.2-.5-.5-.1-.8l-.1-.1c-.2.1-.4.3-.3.5 0 .3.2.5.5.4z"/><path class="ost0" d="M11.5 38.1c.2.1.4.2.7.2l.1-.1c-.3-.1-.6-.1-.8-.1zM17.7 15.1c.5.1 1-.2 1.2-.7v-.2c0-.5-.5-.9-1-.9-.6.1-1.1.6-1.1 1.2-.1.3.2.5.9.6zm.1-1.6c.4 0 .8.3.8.7-.1.4-.5.6-.9.5-.4 0-.7-.1-.7-.5.1-.4.4-.7.8-.7zM13.8 37.7c-.1-.3-.2-.5-.4-.7 0 .3.2.5.4.7z"/></svg>