<svg xmlns="http://www.w3.org/2000/svg" id="veuve-clicquot" viewBox="-5 -5 154 90" width="154" height="90" y="979"><style>.pst0 {fill: #aaa;}
</style><path class="pst0" d="M118.5 75.8h3.7v3.7h-3.7zM22.7 75.8h3.7v3.7h-3.7zM63.6 17l2.5 5.8 2.5-5.6c.1-.3.3-.4.5-.4h.4v-.4h-2.4v.4h.5c.3 0 .4.3.2.5l-1.5 3.4-1.3-3.9h.9v-.4h-3.2v.4h.5c.2 0 .3 0 .4.2zm11.8-.6v.4h.8v5.6h-.8v.4h2.9v-.4h-.8V20h.7c1.7 0 2.5-.9 2.5-1.9 0-.9-.8-1.7-2.5-1.7h-2.8zm3.9 1.7c0 1-.4 1.5-1.4 1.5h-.5v-2.9h.5c1 .1 1.4.6 1.4 1.4zM72.1 37c4.8-5.8 9.1-8.3 16.1-9.2-.9-1.9-2-4.9-2-9.3 0-4.2 1.2-7.3 2-9.2-4 .2-13.7-4.2-16.1-9.3C69.7 5.1 60 9.5 56 9.3c.8 1.9 2 5 2 9.2 0 4.4-1.2 7.4-2 9.3 7 .9 11.3 3.4 16.1 9.2zM57.9 10.4c4.3-.7 11-4.1 14.2-8 3.2 4 9.9 7.3 14.2 8-.7 2-1.4 4.6-1.4 8 0 3.5.7 6.3 1.5 8.2-5.9 1.1-10 3.5-14.2 8.2C68 30 63.9 27.6 58 26.6c.8-2 1.5-4.7 1.5-8.2-.1-3.3-.8-6-1.6-8zm10.7 18.3c1.6.7 2.7 1.3 3.5 2 .8-.8 1.9-1.4 3.5-2 4.7-2 7.5-5.9 7.7-8.3l-1.9 1.2c-.4 3-3.9 5.9-7.3 5.9-.9 0-1.4-.7-1.4-2v-2.7c.6 0 1.3-.3 1.8-.6v-1c-.6.6-1.3 1.1-2.1 1.1-1.3 0-1.8-1.5-1.8-2.8 0-1.3.5-2.8 1.7-2.8.9 0 1.6.6 2.2 1.3v-1.7h-.3s-.2.4-.4.3c-.4-.1-.7-.2-1.2-.2v-2.8l6.7.2v-1.3l-6.7.2v-3c.9-.2 1.6-1 1.6-2 0-1.1-1-2.1-2.2-2.1-1.2 0-2.2.9-2.2 2.1 0 1 .7 1.8 1.6 2v3l-6.7-.2v1.3l6.7-.2v2.9c-1.5.3-2.3 1.6-2.3 3.2 0 1.5.8 2.9 2.3 3.2v2.8c0 1.3-.5 2-1.4 2-3.4 0-7-2.9-7.3-5.9l-1.9-1.2c.4 2.3 3.1 6.2 7.8 8.1zM71 7.6c0-.6.5-1.1 1.1-1.1.6 0 1.1.5 1.1 1.1 0 .6-.5 1.1-1.1 1.1-.6 0-1.1-.5-1.1-1.1zM36.8 77.8c.1-.1.2-.1.3-.2.1-.1.2-.2.2-.3.1-.1.1-.3.1-.4 0-.4-.1-.7-.4-.8-.3-.2-.7-.2-1.2-.2h-2.2v3.7h.8V78h1.2l1 1.5h.9l-1-1.5c.1-.1.2-.1.3-.2zm-2.3-.4v-1h1.3c.3 0 .5 0 .6.1.1.1.2.2.2.3 0 .3-.3.5-.8.5h-1.3zm7.3.5h1.7v-.6h-1.7v-.8h2.5v-.6H41v3.7h3.4V79h-2.6v-1.1zm6.1 1.6h.8v-3.7h-.8v3.7zm7-1.3l-1.3-2.4h-.8v3.7h.7v-2.6l1.4 2.6h.1l1.4-2.6v2.6h.6v-3.7h-.9l-1.2 2.4zm8.5-.8c-.2-.1-.4-.1-.7-.2-.2 0-.5-.1-.7-.1-.2 0-.4-.1-.5-.1-.1-.1-.2-.1-.2-.3 0-.1 0-.1.1-.2 0-.1.1-.1.2-.1s.2-.1.3-.1h.3c.3 0 .6 0 .8.1 0 0 .6.2.8.4l.3-.6-.4-.2c-.1 0-.2-.1-.3-.1-.1-.1-.3-.1-.5-.1s-.4-.1-.7-.1c-.5 0-1 .1-1.3.3-.3.2-.4.5-.4.9 0 .2.1.4.2.6.1.1.3.2.5.3.2.1.4.1.7.2.2 0 .5.1.7.1.2 0 .4.1.5.1.1.1.2.1.2.3 0 .1 0 .2-.1.3-.1.1-.2.1-.3.2-.1 0-.2.1-.3.1H62c-.2 0-.3-.1-.4-.1 0 0-.7-.2-.8-.3-.1.2-.2.6-.2.6s.3.2.4.2c.1 0 .2.1.4.1.2.1.3.1.5.1s.4.1.6.1h.6c.2 0 .4-.1.6-.2.2-.1.3-.2.5-.4.1-.2.2-.4.2-.6 0-.2-.1-.4-.2-.6-.4-.4-.6-.5-.8-.6zm8.6 2.1h.8V78h1.9v-.6h-1.9v-.9h2.7v-.6H72v3.6zm10-1.7c.1-.1.2-.1.3-.2.1-.1.2-.2.2-.3.1-.1.1-.3.1-.4 0-.4-.1-.7-.4-.8-.3-.2-.7-.3-1.2-.3h-2.2v3.7h.8V78h1.2l1 1.5h.9L81.6 78c.1-.1.3-.1.4-.2zm-2.4-.4v-1H81c.3 0 .5 0 .6.1.1.1.2.2.2.3 0 .3-.3.5-.8.5h-1.4zm7.6-1.6l-1.7 3.7h.8l.4-.9h1.8l.5.9h.8L88 75.8h-.8zm-.3 2.2l.6-1.4.7 1.4h-1.3zm9.2.4l-2.4-2.6h-.8v3.7h.7v-2.7l2.6 2.7h.7v-3.7h-.7v2.6zm7 .4c-.1.1-.3.1-.4.1-.2 0-.3.1-.5.1s-.3 0-.5-.1-.3-.1-.4-.3c-.1-.1-.2-.3-.3-.4-.1-.2-.1-.3-.1-.5s0-.4.1-.5c.1-.2.2-.3.3-.4.1-.1.3-.2.4-.2.2-.1.3-.1.6-.1h.5c.1 0 .4.1.9.3l.4-.5c-.1 0-.6-.2-.7-.3-.1-.1-.3-.1-.5-.1s-.4-.1-.6-.1c-.3 0-.5 0-.8.1-.3.1-.5.2-.7.4-.2.2-.4.4-.5.6-.1.2-.2.5-.2.8 0 .3.1.6.2.8.1.2.3.4.5.6.2.2.4.3.7.3.3.1.5.1.8.1.3 0 .5 0 .7-.1.2 0 .4-.1.5-.2.2-.1.3-.1.4-.2.1 0 .4-.2.4-.2l-.4-.5-.8.5zm5.1-.9h1.7v-.6h-1.7v-.8h2.5v-.6h-3.3v3.7h3.4V79h-2.5v-1.1zM18.1 45v-.5h-4.7v.5h2l-4.9 14.1L5.9 45H8v-.5H0v.5h2.3l6.5 18.9h.9L16.2 45h1.9zm92.5 7.7h1.2v-.5h-3.7v1.9c-.4-1.1-1.1-2-2.3-2-3.1 0-4.7 2.6-4.7 5.8 0 3.3 1.5 5.9 4.5 5.9 1.2 0 2.1-1 2.5-2h.1v6.1h-1.5v.5h5.6v-.5h-1.5V52.7zm-4.9 10.5c-1.5 0-1.8-1.4-1.8-5.4 0-3.8.3-5.3 1.9-5.3 1.7 0 2.4 2.6 2.4 5.4 0 2.9-1 5.3-2.5 5.3zm-81.9-6.1c0-2.4-1.5-5.1-4.3-5.1-2.9 0-4.8 3-4.8 5.8 0 2.9 1.9 5.9 5.2 5.9 1.9 0 3.5-1.6 3.9-3.4l-.4-.1c-.3 1.5-1.6 3-3.1 3-2.5 0-2.7-2.9-2.7-5.1v-1h6.2zm-6.2-2.2c0-1.3.6-2.3 1.9-2.3 1.1 0 1.5.9 1.5 2.3v1.7h-3.4v-1.7zm105.6-2.7h-4v.5h1.4v6.8c0 1.4-.8 3.4-2.2 3.4-1.3 0-1.4-1.3-1.4-2.2v-8.4h-3.8v.5h1.2v7.6c0 2 .9 3.5 3 3.5 1.5 0 2.7-1 3.1-2.3h.1v2.1h3.7V63h-1.2V52.2zM36.6 63.6V63h-1.2V52.2h-4v.5h1.4v6.8c0 1.4-.8 3.4-2.2 3.4-1.3 0-1.4-1.3-1.4-2.2v-8.4h-4v.5h1.4v7.6c0 2 .9 3.5 3 3.5 1.5 0 2.7-1 3.1-2.3h.1v2.1h3.8zm34.4-.4c-2.3 0-3.8-2.1-3.8-9.1 0-7.9 1.1-9.1 3.7-9.1 2 0 3.3 3 4 5.9h.6v-6.4H75c0 .4-.1.9-.5.9-.5 0-1.8-1.1-3.7-1.1-5.1 0-7.4 4.1-7.4 9.7s2.6 9.7 7.5 9.7c3.3 0 4.7-3.7 4.9-6l-.5-.1c-.3 2.2-1.5 5.6-4.3 5.6zm-14.4-2.9l-.4-.1c-.3 1.5-1.6 3-3.1 3-2.5 0-2.7-2.9-2.7-5.1v-1h6.2c0-2.4-1.5-5.1-4.3-5.1-2.9 0-4.8 3-4.8 5.8 0 2.9 1.9 5.9 5.2 5.9 1.9.1 3.6-1.5 3.9-3.4zm-6.2-5.4c0-1.3.6-2.3 1.9-2.3 1.1 0 1.5.9 1.5 2.3v1.7h-3.4v-1.7zm31.2-10.4h-4v.5H79v18h-1.5v.5H83V63h-1.5V44.5zm-34 7.7h-3.2v.5H46l-2.3 7-2.6-7h1.5v-.5h-5.5v.5h1.2L42.5 64h.3l3.7-11.2h1.1v-.6zm96 8.6c-.2.8-.7 2.3-1.8 2.3-.9 0-1.1-1.2-1.1-2.1v-8.2h2.5v-.5h-2.5v-4.4l-2.5 1.4v3h-1.4v.5h1.4v7.8c0 1.9.7 3.3 2.9 3.3 1.7 0 2.7-1.3 2.9-2.9l-.4-.2zM130.7 52c-2.9 0-5.1 2.7-5.1 5.8s2.1 5.9 5.1 5.9c2.9 0 5.1-2.7 5.1-5.9s-2.2-5.8-5.1-5.8zm0 11.3c-1.8 0-2.2-1.5-2.2-5.4 0-3.9.4-5.4 2.2-5.4 1.8 0 2.2 1.5 2.2 5.4 0 3.9-.4 5.4-2.2 5.4zM88.5 52.2h-4v.5H86V63h-1.5v.5H90V63h-1.5V52.2zm-2.9-4.8c0 1 .6 1.5 1.5 1.5s1.5-.5 1.5-1.5-.6-1.5-1.5-1.5-1.5.6-1.5 1.5zm10.5 15.8c-1.8 0-2.3-1.5-2.3-5.4 0-3.9.4-5.3 2.2-5.3 2 0 1 1.9 1 2.9 0 .8.5 1.1 1.3 1.1.7 0 1.3-.6 1.3-1.6 0-1.7-1.7-3-3.5-3-2.9 0-5.2 2.7-5.2 5.8 0 2.9 1.5 5.9 4.8 5.9 1.9 0 3.5-1.6 3.9-3.4l-.4-.1c-.2 1.6-1.5 3.1-3.1 3.1z"/></svg>