<svg xmlns="http://www.w3.org/2000/svg" width="16.165" height="13.309" viewBox="0 0 16.165 13.309">
  <g id="Сгруппировать_57" data-name="Сгруппировать 57" transform="translate(-191.103 -1227.785)">
    <path id="Контур_80" data-name="Контур 80" d="M193.413,1227.9c.109.016.22.027.328.05a.868.868,0,0,1,.72.662q.9,3.247,1.8,6.494c.019.068.044.093.119.093l7.187,0c.113,0,.227-.009.34-.02a.336.336,0,0,0,.272-.183c.13-.243.272-.481.385-.732.548-1.214,1.088-2.431,1.63-3.648.089-.2.177-.4.249-.607a1.137,1.137,0,0,0,.041-.32c0-.1-.034-.133-.13-.143s-.2-.012-.3-.012h-9.927a.335.335,0,0,1-.364-.258.328.328,0,0,1,.255-.4.87.87,0,0,1,.145-.009q4.176,0,8.35.006c.552,0,1.1-.009,1.658,0a1.609,1.609,0,0,1,.448.061.73.73,0,0,1,.516.6c.005.021.012.041.018.061v.276a2.423,2.423,0,0,1-.075.332q-.164.423-.348.838-.841,1.884-1.69,3.763c-.078.172-.178.334-.269.5a1.051,1.051,0,0,1-.932.552c-.1.006-.19.007-.285.007h-7.069l-.01.018a1.681,1.681,0,0,0,.436.74.927.927,0,0,0,.655.262h6.186a.333.333,0,1,1,.051.664c-.03,0-.06,0-.09,0-2,0-4-.008-6.007,0a1.768,1.768,0,0,1-1.636-.952,3.914,3.914,0,0,1-.357-.963c-.269-.964-.547-1.926-.827-2.887q-.531-1.824-1.071-3.645a.807.807,0,0,0-.733-.537c-.479,0-.959-.006-1.438,0a.39.39,0,0,1-.426-.26v-.147a.406.406,0,0,1,.26-.26Z" fill="#b59049" stroke="#b59049" stroke-miterlimit="10" stroke-width="0.23"/>
    <path id="Контур_81" data-name="Контур 81" d="M203.559,1240.979a3.735,3.735,0,0,1-.486-.145,1.55,1.55,0,1,1,2.174-1.672,1.558,1.558,0,0,1-1.19,1.781l-.173.036Zm.186-2.465a.915.915,0,0,0-.069,1.828.915.915,0,1,0,.069-1.828Z" fill="#b59049" stroke="#b59049" stroke-miterlimit="10" stroke-width="0.23"/>
    <path id="Контур_82" data-name="Контур 82" d="M197.25,1240.979a3.766,3.766,0,0,1-.495-.147,1.542,1.542,0,0,1-.886-1.645,1.553,1.553,0,1,1,1.88,1.754c-.063.015-.127.026-.19.038Zm.181-2.464a.914.914,0,1,0,.885.951A.915.915,0,0,0,197.431,1238.515Z" fill="#b59049" stroke="#b59049" stroke-miterlimit="10" stroke-width="0.23"/>
  </g>
</svg>
