<svg xmlns="http://www.w3.org/2000/svg" width="25.237" height="20.715" viewBox="0 0 25.237 20.715">
  <g id="Group_91" data-name="Group 91" transform="translate(-693.684 -3918.84)">
    <path id="Path_105" data-name="Path 105" d="M697.16,3918.84c.174.026.349.044.52.079a1.372,1.372,0,0,1,1.14,1.048q1.419,5.145,2.851,10.285c.03.108.07.148.189.148q5.691-.006,11.382,0c.179,0,.36-.015.539-.032a.528.528,0,0,0,.43-.29c.207-.385.431-.763.61-1.16q1.3-2.885,2.581-5.777c.141-.316.281-.635.4-.962a1.735,1.735,0,0,0,.064-.506c.005-.154-.052-.211-.205-.227s-.317-.018-.475-.018h-11.82l-3.9,0a.531.531,0,0,1-.577-.408.518.518,0,0,1,.4-.63,1.284,1.284,0,0,1,.231-.016q6.612,0,13.223.01c.875,0,1.751-.013,2.626-.006a2.558,2.558,0,0,1,.709.1,1.158,1.158,0,0,1,.818.954c.007.033.019.064.028.1v.437a3.48,3.48,0,0,1-.119.525q-.258.672-.551,1.329-1.332,2.982-2.676,5.958c-.123.273-.281.53-.426.793a1.666,1.666,0,0,1-1.477.874c-.15.009-.3.011-.45.011h-11.2c-.009.014-.018.023-.017.028a2.679,2.679,0,0,0,.691,1.172,1.471,1.471,0,0,0,1.037.416h9.8a.527.527,0,1,1,.081,1.051c-.047,0-.1,0-.142,0-3.171,0-6.342-.012-9.513.007a2.8,2.8,0,0,1-2.592-1.507,6.261,6.261,0,0,1-.566-1.525c-.425-1.528-.866-3.051-1.309-4.574q-.842-2.888-1.7-5.772a1.28,1.28,0,0,0-1.161-.85c-.759-.005-1.519-.01-2.278,0a.619.619,0,0,1-.675-.413v-.232a.646.646,0,0,1,.412-.412Z" fill="#fff"/>
    <path id="Path_106" data-name="Path 106" d="M713.23,3939.555a6.185,6.185,0,0,1-.771-.23,2.448,2.448,0,1,1,1.558.172l-.272.058Zm.3-3.9a1.448,1.448,0,0,0-.11,2.894,1.448,1.448,0,1,0,.11-2.894Z" fill="#fff"/>
    <path id="Path_107" data-name="Path 107" d="M703.238,3939.555a6.226,6.226,0,0,1-.784-.233,2.443,2.443,0,0,1-1.4-2.606,2.459,2.459,0,1,1,2.977,2.778c-.1.023-.2.041-.3.061Zm.286-3.9a1.448,1.448,0,1,0,1.4,1.506A1.45,1.45,0,0,0,703.524,3935.651Z" fill="#fff"/>
  </g>
</svg>
