<?xml version="1.0" standalone="no"?>
<!DOCTYPE svg PUBLIC "-//W3C//DTD SVG 20010904//EN"
 "http://www.w3.org/TR/2001/REC-SVG-20010904/DTD/svg10.dtd">
<svg version="1.0" xmlns="http://www.w3.org/2000/svg"
 width="232.000000pt" height="232.000000pt" viewBox="0 0 232.000000 232.000000"
 preserveAspectRatio="xMidYMid meet">
<metadata>
Created by potrace 1.11, written by Peter Selinger 2001-2013
</metadata>
<g transform="translate(0.000000,232.000000) scale(0.100000,-0.100000)"
fill="#000000" stroke="none">
<path d="M993 2304 c-372 -65 -655 -273 -817 -600 -73 -149 -107 -301 -108
-479 0 -168 26 -293 94 -449 l30 -69 -17 -89 c-9 -49 -14 -99 -11 -112 10 -40
187 -209 294 -280 221 -147 435 -213 700 -214 330 -2 647 127 880 357 119 118
115 109 96 230 l-16 102 27 57 c174 362 126 809 -121 1132 -57 76 -169 183
-240 232 -127 86 -310 160 -459 183 -75 12 -260 12 -332 -1z m282 -29 c158
-12 373 -97 516 -204 353 -266 505 -729 378 -1148 -29 -96 -79 -203 -95 -203
-18 0 -19 -4 21 82 49 106 110 348 83 332 -4 -3 -8 -17 -8 -32 0 -81 -93 -351
-126 -370 -8 -5 -40 -5 -71 -2 -52 6 -58 4 -77 -19 -98 -119 -205 -209 -319
-269 -67 -35 -208 -82 -272 -91 -56 -8 -263 -7 -305 2 -229 45 -412 159 -577
360 -21 25 -29 27 -91 27 l-69 0 -31 68 c-111 245 -120 521 -25 777 101 273
339 506 618 606 28 10 44 18 37 18 -8 1 -44 -11 -80 -26 -448 -179 -714 -646
-637 -1118 15 -93 47 -199 82 -272 17 -35 18 -43 6 -47 -20 -8 -68 101 -100
224 -28 106 -39 300 -23 405 63 417 367 758 782 874 72 20 226 39 278 35 14
-2 61 -5 105 -9z m-111 -1963 c3 -5 -1 -9 -9 -9 -8 0 -12 4 -9 9 3 4 7 8 9 8
2 0 6 -4 9 -8z"/>
<path d="M1055 2250 l-40 -7 43 -2 c23 0 42 4 42 9 0 6 -1 9 -2 9 -2 -1 -21
-5 -43 -9z"/>
<path d="M1120 2250 c-9 -6 -10 -10 -3 -10 6 0 15 5 18 10 8 12 4 12 -15 0z"/>
<path d="M1158 2253 c7 -3 16 -2 19 1 4 3 -2 6 -13 5 -11 0 -14 -3 -6 -6z"/>
<path d="M1270 2239 c47 -5 109 -16 139 -25 29 -8 55 -13 57 -11 11 10 -127
39 -201 43 l-80 3 85 -10z"/>
<path d="M915 2225 c-52 -17 -35 -17 40 0 37 8 49 13 30 13 -16 0 -48 -5 -70
-13z"/>
<path d="M1551 2166 c180 -78 340 -209 447 -363 86 -126 172 -354 172 -459 0
-19 4 -34 8 -34 13 0 -4 100 -33 203 -80 282 -278 512 -556 647 -45 22 -90 40
-98 40 -9 0 18 -15 60 -34z"/>
<path d="M770 1896 c-115 -33 -215 -101 -269 -183 -17 -26 -31 -50 -31 -54 0
-4 11 -20 23 -35 l24 -27 7 42 c18 112 261 257 380 227 102 -25 32 -227 -96
-281 -21 -8 -38 -13 -38 -10 0 14 55 146 80 194 30 55 28 70 -8 71 -27 0 -139
-284 -176 -448 -14 -60 -14 -63 7 -77 20 -14 22 -14 25 2 7 45 46 183 51 183
4 0 15 -17 26 -37 34 -63 91 -129 127 -146 43 -20 92 -10 96 19 2 17 -2 20
-31 16 -25 -3 -41 3 -66 23 -32 28 -111 136 -111 153 0 5 19 15 43 23 128 42
213 248 133 327 -21 22 -36 26 -88 29 -35 1 -83 -4 -108 -11z"/>
<path d="M1676 1758 c-24 -51 -58 -138 -75 -192 -28 -92 -52 -136 -73 -136
-25 0 9 130 55 207 15 26 17 37 8 46 -9 9 -16 9 -31 -1 -17 -10 -23 -9 -40 8
-11 11 -29 20 -41 20 -20 0 -71 -45 -96 -85 -8 -13 -8 -7 1 17 13 32 13 37 -1
42 -34 13 -43 5 -62 -61 -34 -113 -131 -241 -131 -173 0 29 38 137 68 193 21
39 23 50 12 57 -24 15 -40 -2 -81 -87 -22 -47 -43 -83 -46 -80 -2 3 0 14 6 25
6 12 11 39 11 62 0 50 -34 90 -77 90 -36 0 -89 -33 -98 -59 -3 -12 -10 -21
-15 -21 -4 0 -15 -19 -25 -42 -19 -48 -22 -137 -5 -167 27 -51 110 -28 163 45
18 24 36 43 40 44 5 0 6 -18 2 -39 -5 -32 -3 -43 14 -60 25 -25 53 -18 88 23
l26 31 -7 -30 c-16 -65 -68 -173 -96 -200 -16 -15 -40 -27 -54 -27 -21 0 -26
-5 -26 -24 0 -16 6 -24 18 -25 82 -6 130 55 198 251 20 59 33 85 33 68 2 -80
48 -103 94 -48 30 35 37 37 37 12 0 -43 42 -54 83 -22 25 20 26 20 32 1 15
-49 62 -24 124 67 50 76 54 82 44 82 -5 0 -16 -12 -25 -27 -22 -36 -76 -93
-89 -93 -36 0 38 233 109 342 25 39 23 58 -8 58 -15 0 -31 -23 -64 -92z m-572
-90 c26 -37 19 -138 -8 -138 -19 0 -53 41 -60 73 -9 36 18 86 46 87 4 0 14
-10 22 -22z m415 3 c28 -18 -77 -221 -114 -221 -41 0 5 153 61 205 30 28 33
29 53 16z m-443 -161 c23 0 16 -16 -21 -49 -55 -48 -75 -39 -75 34 0 61 7 66
47 39 20 -13 42 -24 49 -24z"/>
<path d="M2179 1288 c-4 -22 -2 -118 4 -118 4 0 7 27 7 60 0 33 -2 60 -5 60
-3 0 -5 -1 -6 -2z"/>
<path d="M758 1229 c-53 -12 -132 -52 -188 -95 -53 -40 -110 -112 -110 -139 0
-26 19 -55 36 -55 8 0 12 4 9 10 -10 17 27 81 71 124 69 68 198 126 276 126
45 0 88 -35 88 -72 -1 -32 -33 -98 -64 -130 -30 -31 -85 -63 -94 -54 -8 9 36
113 69 163 26 40 27 43 10 52 -26 14 -45 -3 -81 -76 -32 -66 -100 -260 -100
-286 0 -8 7 -20 16 -28 20 -16 27 -6 43 67 7 30 18 54 24 54 7 1 31 5 54 9 63
12 81 -4 65 -56 -32 -109 -185 -185 -274 -139 l-27 15 12 -32 c38 -93 221 -47
305 77 25 38 32 43 32 26 0 -64 53 -80 93 -29 l24 31 13 -31 c16 -39 46 -41
83 -7 l27 25 6 -24 c9 -37 31 -38 71 -1 37 33 37 33 48 13 27 -54 83 -52 143
6 33 32 33 32 27 7 -4 -19 -1 -31 13 -43 19 -17 21 -16 61 57 39 71 99 151
107 143 2 -2 -5 -29 -16 -60 -39 -109 -20 -166 46 -144 24 8 78 79 100 133 22
53 3 38 -48 -35 -51 -76 -68 -86 -68 -41 0 33 41 147 68 188 13 20 13 25 1 33
-20 13 -22 12 -67 -21 -36 -26 -93 -91 -129 -146 -26 -41 70 224 98 270 31 50
28 71 -7 64 -25 -4 -64 -84 -110 -223 -39 -119 -58 -146 -118 -177 -37 -19
-40 -19 -52 -3 -25 33 11 151 57 190 18 14 43 25 60 25 32 0 37 11 13 34 -21
22 -45 20 -85 -7 -44 -29 -75 -77 -96 -146 -18 -61 -38 -91 -61 -91 -11 0 -13
9 -7 47 8 52 47 167 77 226 l19 38 87 -2 c57 -1 87 2 90 10 2 7 -12 11 -40 12
-110 3 -132 9 -110 31 19 19 14 38 -10 38 -15 0 -29 -11 -40 -30 -17 -29 -19
-30 -91 -30 -72 0 -97 -10 -97 -37 0 -9 8 -12 23 -8 12 2 46 7 76 9 47 5 53 4
47 -12 -64 -190 -95 -268 -113 -288 -50 -56 -50 5 -1 123 16 40 34 75 39 79
14 8 11 21 -7 28 -9 4 -22 1 -30 -5 -10 -8 -20 -5 -43 12 -25 19 -35 21 -55
11 -32 -14 -73 -70 -96 -129 -12 -29 -19 -40 -20 -27 0 12 -10 33 -21 48 -21
27 -21 27 -2 46 58 53 90 154 67 208 -7 17 -26 38 -43 46 -32 17 -112 20 -173
5z m350 -228 c25 -15 -80 -221 -113 -221 -60 0 34 228 95 230 3 0 11 -4 18 -9z"/>
</g>
</svg>
