<svg xmlns="http://www.w3.org/2000/svg" width="21.095" height="23.342" viewBox="0 0 21.095 23.342"><g transform="translate(-900.589 -44.139)"><path d="M911.1,67.481c-2.5-.279-5.037-.373-7.489-.883-2.942-.612-3.957-1.775-2.062-5.207a6.215,6.215,0,0,1,4.878-3.33,44.659,44.659,0,0,1,9.412.014,6.513,6.513,0,0,1,5.722,5.312c.324,1.407.033,2.244-1.338,2.671A34.984,34.984,0,0,1,914.7,67.2a25.821,25.821,0,0,1-3.575.031Zm.01-1.086.015-.2a22.589,22.589,0,0,0,8.493-.935c.958-.238,1.169-.938.927-1.88a6.359,6.359,0,0,0-5.735-4.522,53.875,53.875,0,0,0-7.343.009,6.355,6.355,0,0,0-5.051,3.013c-1.382,2.149-1.013,3.1,1.406,3.779a3.443,3.443,0,0,0,.611.148Q907.774,66.106,911.113,66.395Z" fill="#fff"/><path d="M917.524,50.545a6.364,6.364,0,1,1-6.3-6.406A6.343,6.343,0,0,1,917.524,50.545Zm-6.4,5.357a5.371,5.371,0,1,0-5.331-5.372A5.354,5.354,0,0,0,911.126,55.9Z" fill="#fff"/><path d="M911.113,66.395q-3.339-.294-6.677-.592a3.443,3.443,0,0,1-.611-.148c-2.419-.683-2.788-1.63-1.406-3.779a6.355,6.355,0,0,1,5.051-3.013,53.875,53.875,0,0,1,7.343-.009,6.359,6.359,0,0,1,5.735,4.522c.242.942.031,1.642-.927,1.88a22.589,22.589,0,0,1-8.493.935Z" fill="#fff"/><path d="M911.126,55.9a5.371,5.371,0,1,1,5.4-5.3A5.352,5.352,0,0,1,911.126,55.9Z" fill="#fff"/></g></svg>