<svg xmlns="http://www.w3.org/2000/svg" width="34.182" height="28.123" viewBox="0 0 34.182 28.123"><g transform="translate(-1083.204 -40.25)"><path d="M1088.046,40.434c.233.035.467.058.7.106a1.837,1.837,0,0,1,1.527,1.4q1.9,6.894,3.82,13.781c.04.145.094.2.253.2q7.625-.008,15.25-.006c.241,0,.482-.019.722-.043a.707.707,0,0,0,.577-.388c.277-.516.577-1.022.817-1.554q1.744-3.864,3.459-7.74c.189-.424.376-.851.528-1.289a2.289,2.289,0,0,0,.087-.679c.006-.206-.07-.283-.276-.3s-.424-.025-.636-.025l-15.837,0q-2.613,0-5.227,0a.708.708,0,0,1-.772-.546.693.693,0,0,1,.54-.844,1.663,1.663,0,0,1,.308-.021q8.859.006,17.718.013c1.173,0,2.346-.018,3.519-.008a3.444,3.444,0,0,1,.949.129,1.552,1.552,0,0,1,1.1,1.278c.009.044.024.086.036.129v.587a4.774,4.774,0,0,1-.158.7q-.346.9-.739,1.78-1.785,4-3.585,7.984c-.165.365-.378.709-.571,1.062a2.235,2.235,0,0,1-1.979,1.172c-.2.011-.4.014-.6.014h-15c-.012.019-.025.03-.022.037a3.566,3.566,0,0,0,.926,1.571,1.971,1.971,0,0,0,1.389.557q2.259,0,4.519,0h8.607a.706.706,0,1,1,.108,1.408c-.063,0-.126,0-.189,0-4.249,0-8.5-.016-12.747.009a3.747,3.747,0,0,1-3.472-2.019,8.338,8.338,0,0,1-.759-2.044c-.57-2.046-1.16-4.087-1.754-6.127-.751-2.58-1.514-5.157-2.272-7.735a1.716,1.716,0,0,0-1.556-1.139c-1.017-.006-2.035-.013-3.053,0a.83.83,0,0,1-.9-.553v-.311a.867.867,0,0,1,.552-.552Z" fill="#fff" stroke="#fff" stroke-miterlimit="10" stroke-width="0.368"/><path d="M1109.577,68.189a8.13,8.13,0,0,1-1.032-.308,3.28,3.28,0,1,1,2.088.23l-.366.078Zm.4-5.231a1.94,1.94,0,0,0-.146,3.878,1.94,1.94,0,1,0,.146-3.878Z" fill="#fff" stroke="#fff" stroke-miterlimit="10" stroke-width="0.368"/><path d="M1096.189,68.189a8.2,8.2,0,0,1-1.05-.312,3.273,3.273,0,0,1-1.88-3.491,3.295,3.295,0,1,1,3.988,3.722c-.133.031-.268.054-.4.081Zm.384-5.231a1.94,1.94,0,1,0,1.878,2.018A1.943,1.943,0,0,0,1096.573,62.958Z" fill="#fff" stroke="#fff" stroke-miterlimit="10" stroke-width="0.368"/></g></svg>