<svg xmlns="http://www.w3.org/2000/svg" width="32.726" height="27.071" viewBox="0 0 32.726 27.071"><g transform="translate(-989.353 -42.275)"><path d="M1014.787,64.793c-.04,3.743.576,2.868-3.212,3.853-4.607,1.2-9.105.708-13.64-.345-1.152-.267-1.691-.661-1.591-1.879a37.136,37.136,0,0,1,.3-4.87,9.211,9.211,0,0,1,18.138,1.461C1014.827,63.6,1014.787,64.2,1014.787,64.793Z" fill="#fff"/><path d="M1005.479,52.657a5.192,5.192,0,1,1,5.316-5.118A5.1,5.1,0,0,1,1005.479,52.657Z" fill="#fff"/><path d="M1016.138,66.159c.374-4.573-.84-8.378-4.629-11.058,3.354-1.975,8.045-.074,9.666,3.807.029.069.059.137.086.206C1023.115,63.971,1021.987,65.626,1016.138,66.159Z" fill="#fff"/><path d="M1000.09,54.952c-4.139,2.818-5.179,6.775-4.973,11.294-.592-.081-.945-.124-1.3-.179-4.4-.682-5.166-1.915-3.946-6.3C991.051,55.535,995.42,53.327,1000.09,54.952Z" fill="#fff"/><path d="M1012.342,44.674a4.112,4.112,0,0,1,5.412,1.3,4.285,4.285,0,0,1-.5,5.5,4.24,4.24,0,0,1-5.764.155Z" fill="#fff"/><path d="M999.854,51.622a4.169,4.169,0,0,1-5.653-.056,4.265,4.265,0,0,1-.676-5.5,4.065,4.065,0,0,1,5.48-1.359C999.3,47.088,999.561,49.235,999.854,51.622Z" fill="#fff"/></g></svg>